<?xml version="1.0" standalone="no"?>
<!DOCTYPE svg PUBLIC "-//W3C//DTD SVG 1.1//EN" "http://www.w3.org/Graphics/SVG/1.1/DTD/svg11.dtd" >
<svg xmlns="http://www.w3.org/2000/svg" xmlns:xlink="http://www.w3.org/1999/xlink" version="1.1">
<metadata>
Created by FontForge 20201107 at Fri Oct  9 14:02:28 2020
 By Giddeon
Copyright 2010, 2012 Adobe Systems Incorporated. All Rights Reserved.
</metadata>
<defs>
<font id="SourceCodePro-BlackIt" horiz-adv-x="600" >
  <font-face 
    font-family="Source Code Pro"
    font-weight="900"
    font-style="italic"
    font-stretch="normal"
    units-per-em="1000"
    panose-1="2 11 8 9 3 4 3 9 2 4"
    ascent="750"
    descent="-250"
    x-height="500"
    cap-height="650"
    bbox="-307 -454 809 1060"
    underline-thickness="50"
    underline-position="-100"
    slope="-11"
    stemh="134"
    stemv="172"
    unicode-range="U+0020-1F916"
  />
<missing-glyph 
d="M30 0v660h540v-660h-540zM226 97h148l-33 68l-39 97h-4l-39 -97zM135 162l89 178l-89 178v-356zM298 418h4l41 96l26 49h-138l25 -49zM376 340l89 -178v356z" />
    <glyph glyph-name=".notdef" 
d="M30 0v660h540v-660h-540zM226 97h148l-33 68l-39 97h-4l-39 -97zM135 162l89 178l-89 178v-356zM298 418h4l41 96l26 49h-138l25 -49zM376 340l89 -178v356z" />
    <glyph glyph-name="space" unicode=" " 
 />
    <glyph glyph-name="A" unicode="A" 
d="M270 344l-32 -76h116l-2 76c-2 62 -3 121 -4 186h-4c-24 -61 -48 -123 -74 -186zM-50 0l326 650h192l62 -650h-168l-4 148h-170l-62 -148h-176z" />
    <glyph glyph-name="B" unicode="B" 
d="M20 0l130 650h196c132 0 226 -44 226 -150c0 -70 -50 -134 -140 -162l-2 -4c74 -18 110 -58 110 -118c0 -156 -134 -216 -286 -216h-234zM258 390h42c78 0 108 32 108 82c0 36 -28 56 -88 56h-34zM204 122h62c80 0 120 34 120 88c0 48 -28 72 -88 72h-62z" />
    <glyph glyph-name="C" unicode="C" 
d="M320 -12c-152 0 -254 100 -254 276c0 232 158 398 350 398c76 0 140 -38 178 -106l-108 -84c-24 36 -48 52 -78 52c-94 0 -178 -110 -178 -250c0 -94 36 -148 124 -148c34 0 70 20 100 46l66 -102c-36 -34 -108 -82 -200 -82z" />
    <glyph glyph-name="D" unicode="D" 
d="M8 0l130 650h152c172 0 278 -80 278 -256c0 -264 -152 -394 -346 -394h-214zM194 128h24c98 0 186 68 186 256c0 102 -52 138 -118 138h-14z" />
    <glyph glyph-name="E" unicode="E" 
d="M30 0l130 650h434l-26 -134h-276l-22 -114h230l-26 -134h-230l-28 -134h284l-26 -134h-444z" />
    <glyph glyph-name="F" unicode="F" 
d="M46 0l130 650h430l-26 -134h-272l-26 -134h226l-26 -134h-226l-50 -248h-160z" />
    <glyph glyph-name="G" unicode="G" 
d="M292 -12c-155 0 -252 100 -252 276c0 232 153 398 348 398c86 0 150 -38 188 -106l-108 -84c-24 36 -50 52 -88 52c-97 0 -176 -110 -176 -250c0 -94 33 -150 116 -150c19 0 41 6 56 16l24 108h-96l24 130h236l-62 -322c-50 -38 -126 -68 -210 -68z" />
    <glyph glyph-name="H" unicode="H" 
d="M-2 0l130 650h160l-50 -244h160l48 244h160l-130 -650h-160l54 266h-160l-52 -266h-160z" />
    <glyph glyph-name="I" unicode="I" 
d="M8 0l28 134h148l78 382h-150l28 134h458l-28 -134h-148l-78 -382h150l-28 -134h-458z" />
    <glyph glyph-name="J" unicode="J" 
d="M228 -12c-114 0 -180 52 -226 116l102 96c30 -40 68 -74 124 -74c68 0 98 34 116 122l54 268h-250l26 134h408l-88 -438c-26 -130 -110 -224 -266 -224z" />
    <glyph glyph-name="K" unicode="K" 
d="M648 650l-252 -268l142 -382h-182l-79 256l-81 -86l-34 -170h-158l130 650h159l-55 -268h4l232 268h174z" />
    <glyph glyph-name="L" unicode="L" 
d="M52 0l130 650h160l-104 -516h280l-26 -134h-440z" />
    <glyph glyph-name="M" unicode="M" 
d="M-6 0l130 650h164l12 -212l2 -100h4l36 96l106 216h164l-130 -650h-136l38 188c14 70 63 235 84 308h-4l-83 -184l-65 -138h-88l-10 122l-9 200h-4c-9 -90 -23 -224 -35 -284l-44 -212h-132z" />
    <glyph glyph-name="N" unicode="N" 
d="M6 0l130 650h160l57 -310l21 -144h4c6 70 18 195 27 242l42 212h151l-130 -650h-156l-63 310l-21 144h-4c-6 -73 -16 -189 -28 -252l-39 -202h-151z" />
    <glyph glyph-name="O" unicode="O" 
d="M250 -12c-136 0 -224 100 -224 268c0 230 139 406 332 406c135 0 222 -100 222 -268c0 -230 -138 -406 -330 -406zM266 126c86 0 150 120 150 284c0 80 -23 114 -74 114c-86 0 -152 -120 -152 -284c0 -80 24 -114 76 -114z" />
    <glyph glyph-name="P" unicode="P" 
d="M20 0l130 650h210c129 0 233 -48 233 -178c0 -190 -143 -260 -304 -260h-66l-43 -212h-160zM248 338h52c84 0 132 38 132 110c0 52 -34 76 -97 76h-51z" />
    <glyph glyph-name="Q" unicode="Q" 
d="M268 118c84 0 148 118 148 292c0 80 -23 114 -74 114c-86 0 -152 -120 -152 -284c0 -88 24 -122 78 -122zM410 -188c-111 0 -196 60 -240 189c-89 33 -144 123 -144 255c0 230 139 406 332 406c135 0 222 -100 222 -268c0 -196 -101 -353 -249 -395c19 -41 54 -59 98 -59
c35 0 59 7 78 13l24 -121c-21 -10 -66 -20 -121 -20z" />
    <glyph glyph-name="R" unicode="R" 
d="M8 0l130 650h208c130 0 235 -46 235 -179c0 -117 -70 -188 -159 -223l102 -248h-177l-78 224h-57l-44 -224h-160zM238 350h47c86 0 134 42 134 104c0 48 -32 70 -92 70h-55z" />
    <glyph glyph-name="S" unicode="S" 
d="M269 -12c-122 0 -204 57 -250 131l103 91c36 -55 85 -85 142 -85c51 0 84 18 84 53c0 33 -28 50 -73 77l-55 33c-60 36 -110 92 -110 179c0 121 102 195 230 195c95 0 179 -48 225 -113l-101 -87c-30 35 -71 65 -124 65c-35 0 -65 -14 -65 -49c0 -27 23 -45 56 -66
l67 -44c64 -42 114 -87 114 -178c0 -133 -109 -202 -243 -202z" />
    <glyph glyph-name="T" unicode="T" 
d="M158 0l102 516h-190l26 134h540l-26 -134h-190l-102 -516h-160z" />
    <glyph glyph-name="U" unicode="U" 
d="M247 -12c-135 0 -199 86 -199 208c0 40 4 74 12 112l68 342h160l-72 -362c-5 -27 -12 -54 -12 -80c0 -54 22 -82 64 -82c56 0 84 30 108 150l74 374h156l-76 -382c-42 -210 -130 -280 -283 -280z" />
    <glyph glyph-name="V" unicode="V" 
d="M129 0l-54 650h168l12 -304c2 -68 4 -137 4 -206h4c26 64 65 158 86 206l132 304h176l-334 -650h-194z" />
    <glyph glyph-name="W" unicode="W" 
d="M14 0l58 651h152l-52 -336c-6 -42 -18 -117 -27 -167h5c19 55 41 117 62 167l73 171h96l6 -171c1 -32 0 -110 -1 -167h5c11 51 26 114 39 168l81 335h152l-198 -651h-174l6 193c1 42 3 89 6 126h-3c-11 -39 -26 -84 -41 -126l-67 -193h-178z" />
    <glyph glyph-name="X" unicode="X" 
d="M-41 0l248 344l-116 307h175l34 -114c8 -26 19 -73 30 -111h4c21 36 45 86 61 111l72 114h173l-240 -333l126 -318h-174l-41 126c-8 24 -20 68 -30 101h-4c-20 -35 -44 -77 -61 -103l-83 -124h-174z" />
    <glyph glyph-name="Y" unicode="Y" 
d="M157 0l40 200l-117 451h166l29 -160c9 -50 19 -106 28 -158h4c29 52 58 107 87 158l91 160h168l-299 -467l-39 -184h-158z" />
    <glyph glyph-name="Z" unicode="Z" 
d="M491 0h-487l19 95l344 424h-260l27 132h468l-19 -95l-344 -424h279z" />
    <glyph glyph-name="a" unicode="a" 
d="M189 -12c-99 0 -161 70 -161 194c0 184 128 330 266 330c64 0 110 -24 132 -62h4l22 50h128l-100 -500h-130v66h-4c-46 -50 -104 -78 -157 -78zM250 118c32 0 74 20 108 70l33 156c-14 26 -46 38 -67 38c-68 0 -130 -74 -130 -180c0 -59 22 -84 56 -84z" />
    <glyph glyph-name="b" unicode="b" 
d="M294 -12c-54 0 -106 24 -130 62h-2l-22 -50h-132l140 696h160l-30 -146l-30 -106h2c43 44 100 68 148 68c104 0 162 -70 162 -194c0 -184 -128 -330 -266 -330zM270 118c63 0 124 74 124 180c0 60 -26 84 -60 84c-32 0 -70 -20 -104 -76l-30 -150c14 -26 42 -38 70 -38z
" />
    <glyph glyph-name="c" unicode="c" 
d="M300 -12c-130 0 -242 72 -242 218c0 184 142 306 306 306c90 0 158 -46 194 -92l-96 -88c-32 34 -70 50 -108 50c-68 0 -134 -70 -134 -162c0 -70 50 -102 104 -102c47 0 78 23 114 52l55 -108c-49 -46 -113 -74 -193 -74z" />
    <glyph glyph-name="d" unicode="d" 
d="M188 -12c-98 0 -160 70 -160 194c0 184 128 330 266 330c64 0 102 -22 126 -56h2l10 94l28 146h160l-140 -696h-130v66h-4c-46 -50 -104 -78 -158 -78zM250 118c32 0 74 20 108 70l32 156c-14 26 -45 38 -66 38c-68 0 -130 -74 -130 -180c0 -58 22 -84 56 -84z" />
    <glyph glyph-name="e" unicode="e" 
d="M266 -12c-128 0 -226 68 -226 224c0 180 138 300 292 300c132 0 208 -80 208 -198c0 -44 -12 -92 -18 -110h-321c5 -75 52 -94 103 -94c54 0 96 20 142 48l52 -106c-62 -42 -142 -64 -232 -64zM328 390c-37 0 -87 -26 -112 -86h177c1 4 1 9 1 13c0 49 -26 73 -66 73z" />
    <glyph glyph-name="f" unicode="f" 
d="M134 0l75 376h-131l24 118l132 6l2 8c26 130 106 200 242 200c80 0 134 -28 166 -52l-70 -100c-27 18 -50 26 -88 26c-47 0 -81 -20 -92 -74l-2 -8h162l-24 -124h-162l-74 -376h-160z" />
    <glyph glyph-name="g" unicode="g" 
d="M209 -188c-94 0 -160 28 -211 67l68 111c37 -32 89 -52 139 -52s105 6 127 76l20 64h-4c-36 -34 -92 -58 -144 -58c-105 0 -168 74 -168 186c0 180 128 306 258 306c64 0 110 -24 132 -62h4l24 50h126l-96 -478c-33 -163 -149 -210 -275 -210zM262 150c34 0 68 17 98 50
l30 142c-18 26 -41 40 -69 40c-51 0 -119 -54 -119 -152c0 -56 20 -80 60 -80z" />
    <glyph glyph-name="h" unicode="h" 
d="M8 0l140 696h160l-38 -184l-26 -88h4c46 50 111 88 172 88c82 0 130 -44 130 -130c0 -22 -3 -48 -8 -72l-62 -310h-160l58 290c4 18 7 33 7 45c0 28 -15 41 -41 41c-33 0 -79 -26 -118 -78l-58 -298h-160z" />
    <glyph glyph-name="i" unicode="i" 
d="M340 -12c-102 0 -168 58 -168 150c0 20 4 40 10 62l46 176h-158l26 124h318l-74 -306c-2 -8 -4 -16 -4 -24c0 -37 22 -52 54 -52c22 0 42 6 72 18l32 -120c-44 -18 -90 -28 -154 -28zM344 570c-50 0 -98 28 -98 87c0 56 49 105 112 105c57 0 99 -30 99 -87
c0 -60 -50 -105 -113 -105z" />
    <glyph glyph-name="j" unicode="j" 
d="M145 -188c-79 0 -135 24 -171 48l64 112c29 -20 58 -34 96 -34c58 0 90 30 108 118l64 320h-196l26 124h354l-92 -458c-30 -148 -108 -230 -253 -230zM422 570c-50 0 -98 28 -98 87c0 56 49 105 112 105c57 0 99 -30 99 -87c0 -60 -50 -105 -113 -105z" />
    <glyph glyph-name="k" unicode="k" 
d="M10 0l140 696h160l-78 -380h4l198 184h184l-223 -208l135 -292h-162l-82 195l-94 -81l-22 -114h-160z" />
    <glyph glyph-name="l" unicode="l" 
d="M326 -12c-94 0 -160 62 -160 166c0 20 2 42 8 66l82 352h-134l26 124h292l-112 -498c-2 -8 -4 -18 -4 -34c0 -32 24 -46 52 -46c29 0 46 6 78 20l32 -118c-54 -24 -102 -32 -160 -32z" />
    <glyph glyph-name="m" unicode="m" 
d="M-28 0l98 500h114v-64h4c27 39 72 76 132 76c40 0 62 -22 68 -68c32 44 76 68 128 68c48 0 78 -32 78 -90c0 -18 -2 -31 -6 -50l-76 -372h-146l70 340c2 10 2 14 2 18c0 14 -6 18 -16 18c-18 0 -32 -12 -48 -41l-69 -335h-124l71 340c2 10 2 14 2 18c0 14 -7 18 -18 18
c-18 0 -35 -11 -52 -42l-64 -334h-148z" />
    <glyph glyph-name="n" unicode="n" 
d="M8 0l98 500h129l-3 -80h4c46 46 120 92 184 92c82 0 130 -44 130 -130c0 -22 -3 -48 -8 -72l-62 -310h-160l58 290c4 18 7 33 7 45c0 28 -15 41 -41 41c-33 0 -79 -26 -118 -78l-58 -298h-160z" />
    <glyph glyph-name="o" unicode="o" 
d="M256 -12c-140 0 -226 88 -226 224c0 182 142 300 292 300c140 0 226 -88 226 -224c0 -182 -142 -300 -292 -300zM268 118c60 0 118 66 118 166c0 64 -30 98 -76 98c-60 0 -118 -66 -118 -166c0 -64 30 -98 76 -98z" />
    <glyph glyph-name="p" unicode="p" 
d="M-28 -176l136 676h130l1 -68h3c48 50 98 80 158 80c100 0 160 -70 160 -194c0 -184 -106 -330 -266 -330c-50 0 -98 20 -124 54h-2l-12 -94l-24 -124h-160zM276 118c63 0 118 74 118 180c0 59 -26 84 -60 84c-32 0 -68 -20 -102 -76l-32 -150c14 -26 48 -38 76 -38z" />
    <glyph glyph-name="q" unicode="q" 
d="M286 -176l27 128c5 22 15 62 37 114h-4c-46 -50 -106 -78 -158 -78c-98 0 -160 70 -160 194c0 184 128 330 266 330c64 0 110 -24 132 -62h4l24 50h126l-136 -676h-158zM250 118c32 0 74 20 108 70l32 156c-14 26 -45 38 -66 38c-68 0 -130 -74 -130 -180
c0 -58 22 -84 56 -84z" />
    <glyph glyph-name="r" unicode="r" 
d="M64 0l98 501l130 -1l-12 -130h4c52 90 128 142 200 142c44 0 80 -8 98 -20l-56 -138c-22 11 -46 16 -74 16c-62 0 -132 -62 -186 -164l-42 -206h-160z" />
    <glyph glyph-name="s" unicode="s" 
d="M264 -12c-96 0 -176 36 -232 92l87 100c53 -52 113 -74 171 -74c38 0 58 10 58 28c0 22 -16 32 -86 54c-100 32 -158 78 -158 156c0 110 104 168 220 168c98 0 164 -35 212 -82l-87 -93c-40 32 -93 57 -143 57c-31 0 -52 -9 -52 -30c0 -20 22 -30 98 -56
c88 -30 146 -70 146 -152c0 -115 -102 -168 -234 -168z" />
    <glyph glyph-name="t" unicode="t" 
d="M310 -12c-124 0 -176 60 -176 154c0 20 2 38 8 66l34 168h-126l24 118l134 6l54 150h130l-32 -150h200l-24 -124h-202l-34 -160c-4 -18 -4 -26 -4 -36c0 -46 27 -62 64 -62c38 0 76 18 104 36l48 -111c-45 -31 -122 -55 -202 -55z" />
    <glyph glyph-name="u" unicode="u" 
d="M162 -12c-82 0 -130 44 -130 130c0 22 3 48 8 72l62 310h160l-58 -290c-4 -18 -8 -32 -8 -44c0 -28 16 -42 42 -42c33 0 75 26 114 78l58 298h160l-98 -500h-130l4 80h-4c-46 -46 -116 -92 -180 -92z" />
    <glyph glyph-name="v" unicode="v" 
d="M148 0l-84 500h158l26 -230c6 -50 9 -101 13 -154h4c22 51 48 104 73 154l114 230h158l-276 -500h-186z" />
    <glyph glyph-name="w" unicode="w" 
d="M21 0l27 500h152l-25 -223c-6 -50 -12 -100 -16 -151h4c15 51 32 103 52 151l56 149h108l-1 -149c-1 -50 -2 -100 -5 -151h4c16 51 28 101 42 151l61 223h146l-168 -500h-177l7 154c2 46 8 90 13 145h-4c-14 -54 -22 -86 -42 -147l-50 -152h-184z" />
    <glyph glyph-name="x" unicode="x" 
d="M-23 0l221 259l-113 241h160l34 -78c10 -23 23 -60 31 -83h4c12 21 36 64 49 83l54 78h177l-214 -253l123 -247h-164l-35 78c-10 23 -21 50 -33 77h-6c-20 -28 -39 -55 -56 -78l-55 -77h-177z" />
    <glyph glyph-name="y" unicode="y" 
d="M48 -188c-38 0 -78 12 -98 26l44 108c16 -8 44 -16 64 -16c50 0 82 18 102 52l13 22l-109 496h154l32 -194c8 -50 16 -118 20 -160h4c18 42 50 110 76 160l100 194h162l-284 -500c-74 -130 -158 -188 -280 -188z" />
    <glyph glyph-name="z" unicode="z" 
d="M18 0l18 94l294 284h-236l26 122h440l-18 -94l-292 -282h246l-24 -124h-454z" />
    <glyph glyph-name="Agrave" unicode="&#xc0;" 
d="M270 344l-32 -76h116l-2 76c-2 62 -3 121 -4 186h-4c-24 -61 -48 -123 -74 -186zM-50 0l326 650h192l62 -650h-168l-4 148h-170l-62 -148h-176zM398 670l-175 136l109 101l156 -159z" />
    <glyph glyph-name="Aacute" unicode="&#xc1;" 
d="M270 344l-32 -76h116l-2 76c-2 62 -3 121 -4 186h-4c-24 -61 -48 -123 -74 -186zM-50 0l326 650h192l62 -650h-168l-4 148h-170l-62 -148h-176zM332 680l-61 92l207 127l70 -117z" />
    <glyph glyph-name="Acircumflex" unicode="&#xc2;" 
d="M270 344l-32 -76h116l-2 76c-2 62 -3 121 -4 186h-4c-24 -61 -48 -123 -74 -186zM-50 0l326 650h192l62 -650h-168l-4 148h-170l-62 -148h-176zM252 680l-66 50l120 126h188l76 -132l-78 -44l-98 90h-4z" />
    <glyph glyph-name="Atilde" unicode="&#xc3;" 
d="M270 344l-32 -76h116l-2 76c-2 62 -3 121 -4 186h-4c-24 -61 -48 -123 -74 -186zM-50 0l326 650h192l62 -650h-168l-4 148h-170l-62 -148h-176zM448 686c-70 0 -98 52 -126 52c-16 0 -30 -8 -40 -42l-108 8c26 110 89 152 162 152c70 0 98 -52 126 -52c16 0 30 8 40 42
l108 -8c-26 -110 -89 -152 -162 -152z" />
    <glyph glyph-name="Adieresis" unicode="&#xc4;" 
d="M270 344l-32 -76h116l-2 76c-2 62 -3 121 -4 186h-4c-24 -61 -48 -123 -74 -186zM-50 0l326 650h192l62 -650h-168l-4 148h-170l-62 -148h-176zM274 696c-36 0 -64 24 -64 64s34 84 82 84c34 0 64 -24 64 -64s-34 -84 -82 -84zM494 696c-36 0 -64 24 -64 64s34 84 82 84
c34 0 64 -24 64 -64s-34 -84 -82 -84z" />
    <glyph glyph-name="Amacron" unicode="&#x100;" 
d="M270 344l-32 -76h116l-2 76c-2 62 -3 121 -4 186h-4c-24 -61 -48 -123 -74 -186zM-50 0l326 650h192l62 -650h-168l-4 148h-170l-62 -148h-176zM232 716l20 102h300l-20 -102h-300z" />
    <glyph glyph-name="Abreve" unicode="&#x102;" 
d="M270 344l-32 -76h116l-2 76c-2 62 -3 121 -4 186h-4c-24 -61 -48 -123 -74 -186zM-50 0l326 650h192l62 -650h-168l-4 148h-170l-62 -148h-176zM376 694c-105 0 -156 47 -150 150l96 16c1 -46 30 -68 72 -68s73 23 92 68l88 -16c-28 -102 -94 -150 -198 -150z" />
    <glyph glyph-name="Aring" unicode="&#xc5;" 
d="M270 344l-32 -76h116l-2 76c-2 62 -3 121 -4 186h-4c-24 -61 -48 -123 -74 -186zM-50 0l326 650h192l62 -650h-168l-4 148h-170l-62 -148h-176zM390 696c-61 0 -114 26 -114 88s59 114 130 114c59 0 114 -28 114 -88c0 -64 -58 -114 -130 -114zM392 756c23 0 44 22 44 48
c0 18 -11 34 -32 34c-25 0 -44 -24 -44 -48c0 -18 11 -34 32 -34z" />
    <glyph glyph-name="Aringacute" unicode="&#x1fa;" 
d="M270 344l-32 -76h116l-2 76c-2 62 -3 121 -4 186h-4c-24 -61 -48 -123 -74 -186zM-50 0l326 650h192l62 -650h-168l-4 148h-170l-62 -148h-176zM390 696c-61 0 -114 26 -114 88c0 35 19 67 48 88l168 152l72 -84l-94 -55c29 -13 50 -38 50 -75c0 -64 -58 -114 -130 -114z
M392 756c23 0 44 22 44 48c0 18 -11 34 -32 34c-25 0 -44 -24 -44 -48c0 -18 11 -34 32 -34z" />
    <glyph glyph-name="uni01CD" unicode="&#x1cd;" 
d="M270 344l-32 -76h116l-2 76c-2 62 -3 121 -4 186h-4c-24 -61 -48 -123 -74 -186zM-50 0l326 650h192l62 -650h-168l-4 148h-170l-62 -148h-176zM292 700l-76 132l78 44l98 -90h4l138 90l66 -50l-120 -126h-188z" />
    <glyph glyph-name="Aogonek" unicode="&#x104;" 
d="M400 -228c-62 0 -104 30 -104 82c0 70 68 126 108 146h-42l-4 148h-170l-62 -148h-176l326 650h192l62 -650c-58 -4 -110 -54 -110 -94c0 -20 18 -32 40 -32c10 0 18 2 30 8l30 -76c-32 -22 -82 -34 -120 -34zM270 344l-32 -76h116l-2 76c-2 62 -4 120 -4 186h-4
c-25 -64 -47 -123 -74 -186z" />
    <glyph glyph-name="uni1EA0" unicode="&#x1ea0;" 
d="M270 344l-32 -76h116l-2 76c-2 62 -3 121 -4 186h-4c-24 -61 -48 -123 -74 -186zM-50 0l326 650h192l62 -650h-168l-4 148h-170l-62 -148h-176zM214 -256c-50 0 -98 28 -98 87c0 56 49 105 112 105c57 0 99 -30 99 -87c0 -60 -50 -105 -113 -105z" />
    <glyph glyph-name="uni1EA2" unicode="&#x1ea2;" 
d="M270 344l-32 -76h116l-2 76c-2 62 -3 121 -4 186h-4c-24 -61 -48 -123 -74 -186zM-50 0l326 650h192l62 -650h-168l-4 148h-170l-62 -148h-176zM312 688l1 66c23 3 42 8 45 24s-15 26 -73 30l37 84c137 -4 172 -42 161 -96c-14 -72 -88 -104 -171 -108z" />
    <glyph glyph-name="uni1EA4" unicode="&#x1ea4;" 
d="M270 344l-32 -76h116l-2 76c-2 62 -3 121 -4 186h-4c-24 -61 -48 -123 -74 -186zM-50 0l326 650h192l62 -650h-168l-4 148h-170l-62 -148h-176zM284 680l-62 44l106 104h148l70 -104l-74 -44l-80 72h-4zM542 761l-40 60l116 74l42 -72z" />
    <glyph glyph-name="uni1EA6" unicode="&#x1ea6;" 
d="M270 344l-32 -76h116l-2 76c-2 62 -3 121 -4 186h-4c-24 -61 -48 -123 -74 -186zM-50 0l326 650h192l62 -650h-168l-4 148h-170l-62 -148h-176zM284 680l-62 44l106 104h148l70 -104l-74 -44l-80 72h-4zM214 756l-94 81l66 62l87 -92z" />
    <glyph glyph-name="uni1EA8" unicode="&#x1ea8;" 
d="M270 344l-32 -76h116l-2 76c-2 62 -3 121 -4 186h-4c-24 -61 -48 -123 -74 -186zM-50 0l326 650h192l62 -650h-168l-4 148h-170l-62 -148h-176zM284 680l-62 44l106 104h148l70 -104l-74 -44l-80 72h-4zM532 748l-2 52c16 3 29 8 32 24c4 16 -7 26 -58 30l30 68
c121 -4 148 -40 139 -84c-12 -62 -70 -86 -141 -90z" />
    <glyph glyph-name="uni1EAA" unicode="&#x1eaa;" 
d="M270 344l-32 -76h116l-2 76c-2 62 -3 121 -4 186h-4c-24 -61 -48 -123 -74 -186zM-50 0l326 650h192l62 -650h-168l-4 148h-170l-62 -148h-176zM282 680l-60 44l104 94h148l72 -94l-76 -44l-80 62h-4zM462 838c-52 0 -74 42 -96 42c-16 0 -28 -10 -36 -36l-80 10
c20 85 64 118 120 118c52 0 74 -42 96 -42c16 0 28 10 36 36l78 -10c-18 -85 -62 -118 -118 -118z" />
    <glyph glyph-name="uni1EAC" unicode="&#x1eac;" 
d="M270 344l-32 -76h116l-2 76c-2 62 -3 121 -4 186h-4c-24 -61 -48 -123 -74 -186zM-50 0l326 650h192l62 -650h-168l-4 148h-170l-62 -148h-176zM252 680l-66 50l120 126h188l76 -132l-78 -44l-98 90h-4zM214 -256c-50 0 -98 28 -98 87c0 56 49 105 112 105
c57 0 99 -30 99 -87c0 -60 -50 -105 -113 -105z" />
    <glyph glyph-name="uni1EAE" unicode="&#x1eae;" 
d="M270 344l-32 -76h116l-2 76c-2 62 -3 121 -4 186h-4c-24 -61 -48 -123 -74 -186zM-50 0l326 650h192l62 -650h-168l-4 148h-170l-62 -148h-176zM376 694c-102 0 -152 44 -146 140l86 16c3 -46 31 -68 76 -68s81 22 100 68l78 -16c-26 -96 -92 -140 -194 -140zM404 809
l-74 60l122 134l94 -72z" />
    <glyph glyph-name="uni1EB0" unicode="&#x1eb0;" 
d="M270 344l-32 -76h116l-2 76c-2 62 -3 121 -4 186h-4c-24 -61 -48 -123 -74 -186zM-50 0l326 650h192l62 -650h-168l-4 148h-170l-62 -148h-176zM376 694c-102 0 -152 44 -146 140l86 16c3 -46 31 -68 76 -68s81 22 100 68l78 -16c-26 -96 -92 -140 -194 -140zM380 806
l-94 142l118 54l70 -150z" />
    <glyph glyph-name="uni1EB2" unicode="&#x1eb2;" 
d="M270 344l-32 -76h116l-2 76c-2 62 -3 121 -4 186h-4c-24 -61 -48 -123 -74 -186zM-50 0l326 650h192l62 -650h-168l-4 148h-170l-62 -148h-176zM376 694c-102 0 -151 44 -143 140l85 16c2 -46 30 -68 75 -68s82 22 101 68l79 -16c-28 -96 -95 -140 -197 -140zM362 808
l-2 52c17 3 30 8 33 24s-8 26 -58 30l29 68c121 -4 148 -40 140 -84c-12 -62 -70 -86 -142 -90z" />
    <glyph glyph-name="uni1EB4" unicode="&#x1eb4;" 
d="M270 344l-32 -76h116l-2 76c-2 62 -3 121 -4 186h-4c-24 -61 -48 -123 -74 -186zM-50 0l326 650h192l62 -650h-168l-4 148h-170l-62 -148h-176zM376 700c-103 0 -148 42 -142 114l82 14c5 -26 22 -48 74 -48c51 0 76 22 90 48l78 -14c-22 -72 -80 -114 -182 -114z
M460 848c-52 0 -76 42 -98 42c-16 0 -28 -10 -36 -36l-78 10c18 85 62 118 118 118c52 0 76 -42 98 -42c16 0 28 10 36 36l78 -10c-19 -85 -62 -118 -118 -118z" />
    <glyph glyph-name="uni1EB6" unicode="&#x1eb6;" 
d="M270 344l-32 -76h116l-2 76c-2 62 -3 121 -4 186h-4c-24 -61 -48 -123 -74 -186zM-50 0l326 650h192l62 -650h-168l-4 148h-170l-62 -148h-176zM376 694c-105 0 -156 47 -150 150l96 16c1 -46 30 -68 72 -68s73 23 92 68l88 -16c-28 -102 -94 -150 -198 -150zM214 -256
c-50 0 -98 28 -98 87c0 56 49 105 112 105c57 0 99 -30 99 -87c0 -60 -50 -105 -113 -105z" />
    <glyph glyph-name="AE" unicode="&#xc6;" 
d="M263 353l-42 -89h76l54 269h-4c-29 -64 -58 -125 -84 -180zM-66 0l334 650h378l-26 -134h-133l-23 -114h108l-26 -134h-109l-27 -134h142l-26 -134h-282l29 144h-109l-68 -144h-162z" />
    <glyph glyph-name="AEacute" unicode="&#x1fc;" 
d="M263 353l-42 -89h76l54 269h-4c-29 -64 -58 -125 -84 -180zM-66 0l334 650h378l-26 -134h-133l-23 -114h108l-26 -134h-109l-27 -134h142l-26 -134h-282l29 144h-109l-68 -144h-162zM422 680l-61 92l207 127l70 -117z" />
    <glyph glyph-name="uni01E2" unicode="&#x1e2;" 
d="M263 353l-42 -89h76l54 269h-4c-29 -64 -58 -125 -84 -180zM-66 0l334 650h378l-26 -134h-133l-23 -114h108l-26 -134h-109l-27 -134h142l-26 -134h-282l29 144h-109l-68 -144h-162zM322 716l20 102h300l-20 -102h-300z" />
    <glyph glyph-name="uni0243" unicode="&#x243;" 
d="M23 0l35 174h-75l14 69l76 6l80 402h217c122 0 202 -32 202 -128c0 -68 -43 -134 -136 -156l-1 -4c65 -14 105 -58 105 -135c0 -153 -135 -228 -295 -228h-222zM203 113h52c89 0 136 47 136 122c0 50 -26 72 -90 72h-59l-12 -58h100l-15 -75h-100zM261 400h46
c76 0 108 35 108 88c0 35 -27 50 -82 50h-45z" />
    <glyph glyph-name="uni1E06" unicode="&#x1e06;" 
d="M20 0l130 650h196c132 0 226 -44 226 -150c0 -70 -50 -134 -140 -162l-2 -4c74 -18 110 -58 110 -118c0 -156 -134 -216 -286 -216h-234zM258 390h42c78 0 108 32 108 82c0 36 -28 56 -88 56h-34zM204 122h62c80 0 120 34 120 88c0 48 -28 72 -88 72h-62zM68 -194l20 100
h294l-20 -100h-294z" />
    <glyph glyph-name="Ccedilla" unicode="&#xc7;" 
d="M148 -244v66c76 4 102 14 108 42c2 18 -10 32 -70 40l63 92c-112 27 -183 121 -183 268c0 232 158 398 350 398c76 0 140 -38 178 -106l-108 -84c-24 36 -48 52 -78 52c-94 0 -178 -110 -178 -250c0 -94 36 -148 124 -148c34 0 70 20 100 46l66 -102
c-33 -31 -96 -74 -177 -81l-31 -49c50 -12 72 -34 66 -76c-14 -72 -96 -104 -230 -108z" />
    <glyph glyph-name="Cacute" unicode="&#x106;" 
d="M320 -12c-152 0 -254 100 -254 276c0 232 158 398 350 398c76 0 140 -38 178 -106l-108 -84c-24 36 -48 52 -78 52c-94 0 -178 -110 -178 -250c0 -94 36 -148 124 -148c34 0 70 20 100 46l66 -102c-36 -34 -108 -82 -200 -82zM382 680l-61 92l207 127l70 -117z" />
    <glyph glyph-name="Ccircumflex" unicode="&#x108;" 
d="M320 -12c-152 0 -254 100 -254 276c0 232 158 398 350 398c76 0 140 -38 178 -106l-108 -84c-24 36 -48 52 -78 52c-94 0 -178 -110 -178 -250c0 -94 36 -148 124 -148c34 0 70 20 100 46l66 -102c-36 -34 -108 -82 -200 -82zM302 680l-66 50l120 126h188l76 -132
l-78 -44l-98 90h-4z" />
    <glyph glyph-name="Ccaron" unicode="&#x10c;" 
d="M320 -12c-152 0 -254 100 -254 276c0 232 158 398 350 398c76 0 140 -38 178 -106l-108 -84c-24 36 -48 52 -78 52c-94 0 -178 -110 -178 -250c0 -94 36 -148 124 -148c34 0 70 20 100 46l66 -102c-36 -34 -108 -82 -200 -82zM342 700l-76 132l78 44l98 -90h4l138 90
l66 -50l-120 -126h-188z" />
    <glyph glyph-name="Cdotaccent" unicode="&#x10a;" 
d="M320 -12c-152 0 -254 100 -254 276c0 232 158 398 350 398c76 0 140 -38 178 -106l-108 -84c-24 36 -48 52 -78 52c-94 0 -178 -110 -178 -250c0 -94 36 -148 124 -148c34 0 70 20 100 46l66 -102c-36 -34 -108 -82 -200 -82zM438 698c-42 0 -84 24 -84 74
c0 48 42 90 96 90c42 0 84 -26 84 -74c0 -52 -42 -90 -96 -90z" />
    <glyph glyph-name="Dcaron" unicode="&#x10e;" 
d="M8 0l130 650h152c172 0 278 -80 278 -256c0 -264 -152 -394 -346 -394h-214zM194 128h24c98 0 186 68 186 256c0 102 -52 138 -118 138h-14zM292 700l-76 132l78 44l98 -90h4l138 90l66 -50l-120 -126h-188z" />
    <glyph glyph-name="uni1E0C" unicode="&#x1e0c;" 
d="M8 0l130 650h152c172 0 278 -80 278 -256c0 -264 -152 -394 -346 -394h-214zM194 128h24c98 0 186 68 186 256c0 102 -52 138 -118 138h-14zM194 -256c-50 0 -98 28 -98 87c0 56 49 105 112 105c57 0 99 -30 99 -87c0 -60 -50 -105 -113 -105z" />
    <glyph glyph-name="uni1E0E" unicode="&#x1e0e;" 
d="M8 0l130 650h152c172 0 278 -80 278 -256c0 -264 -152 -394 -346 -394h-214zM194 128h24c98 0 186 68 186 256c0 102 -52 138 -118 138h-14zM48 -194l20 100h294l-20 -100h-294z" />
    <glyph glyph-name="uni1E10" unicode="&#x1e10;" 
d="M194 128h24c98 0 186 68 186 256c0 102 -52 138 -118 138h-14zM80 -244v66c76 4 102 14 108 42c2 18 -10 32 -70 40l66 96h-176l130 650h152c172 0 278 -80 278 -256c0 -234 -120 -363 -283 -389l-41 -65c50 -12 72 -34 66 -76c-14 -72 -96 -104 -230 -108z" />
    <glyph glyph-name="Dcroat" unicode="&#x110;" 
d="M8 0l60 298h-70l14 70l71 6l55 276h152c172 0 278 -80 278 -256c0 -264 -152 -394 -346 -394h-214zM194 128h24c98 0 186 68 186 256c0 102 -52 138 -118 138h-14l-29 -148h103l-16 -76h-102z" />
    <glyph glyph-name="uni018A" unicode="&#x18a;" 
d="M104 0l103 527c-60 -17 -85 -61 -85 -113c0 -28 12 -48 34 -64l-78 -96c-50 28 -78 70 -78 136c0 140 108 273 332 273c168 0 274 -70 274 -229c0 -272 -170 -434 -388 -434h-114zM270 128h4c51 0 168 98 168 296c0 77 -24 108 -91 110z" />
    <glyph glyph-name="Egrave" unicode="&#xc8;" 
d="M30 0l130 650h434l-26 -134h-276l-22 -114h230l-26 -134h-230l-28 -134h284l-26 -134h-444zM414 670l-175 136l109 101l156 -159z" />
    <glyph glyph-name="Eacute" unicode="&#xc9;" 
d="M30 0l130 650h434l-26 -134h-276l-22 -114h230l-26 -134h-230l-28 -134h284l-26 -134h-444zM348 680l-61 92l207 127l70 -117z" />
    <glyph glyph-name="Ecircumflex" unicode="&#xca;" 
d="M30 0l130 650h434l-26 -134h-276l-22 -114h230l-26 -134h-230l-28 -134h284l-26 -134h-444zM268 680l-66 50l120 126h188l76 -132l-78 -44l-98 90h-4z" />
    <glyph glyph-name="Ecaron" unicode="&#x11a;" 
d="M30 0l130 650h434l-26 -134h-276l-22 -114h230l-26 -134h-230l-28 -134h284l-26 -134h-444zM308 700l-76 132l78 44l98 -90h4l138 90l66 -50l-120 -126h-188z" />
    <glyph glyph-name="Edieresis" unicode="&#xcb;" 
d="M30 0l130 650h434l-26 -134h-276l-22 -114h230l-26 -134h-230l-28 -134h284l-26 -134h-444zM290 696c-36 0 -64 24 -64 64s34 84 82 84c34 0 64 -24 64 -64s-34 -84 -82 -84zM510 696c-36 0 -64 24 -64 64s34 84 82 84c34 0 64 -24 64 -64s-34 -84 -82 -84z" />
    <glyph glyph-name="Emacron" unicode="&#x112;" 
d="M30 0l130 650h434l-26 -134h-276l-22 -114h230l-26 -134h-230l-28 -134h284l-26 -134h-444zM248 716l20 102h300l-20 -102h-300z" />
    <glyph glyph-name="Ebreve" unicode="&#x114;" 
d="M30 0l130 650h434l-26 -134h-276l-22 -114h230l-26 -134h-230l-28 -134h284l-26 -134h-444zM392 694c-105 0 -156 47 -150 150l96 16c1 -46 30 -68 72 -68s73 23 92 68l88 -16c-28 -102 -94 -150 -198 -150z" />
    <glyph glyph-name="Edotaccent" unicode="&#x116;" 
d="M30 0l130 650h434l-26 -134h-276l-22 -114h230l-26 -134h-230l-28 -134h284l-26 -134h-444zM404 698c-42 0 -84 24 -84 74c0 48 42 90 96 90c42 0 84 -26 84 -74c0 -52 -42 -90 -96 -90z" />
    <glyph glyph-name="Eogonek" unicode="&#x118;" 
d="M342 -228c-62 0 -104 30 -104 82c0 70 66 122 114 146h-322l130 650h434l-26 -134h-276l-22 -114h230l-26 -134h-230l-28 -134h284l-26 -134h-2c-46 0 -110 -48 -110 -94c0 -20 18 -32 40 -32c10 0 18 2 30 8l30 -76c-32 -22 -82 -34 -120 -34z" />
    <glyph glyph-name="uni1EB8" unicode="&#x1eb8;" 
d="M30 0l130 650h434l-26 -134h-276l-22 -114h230l-26 -134h-230l-28 -134h284l-26 -134h-444zM224 -256c-50 0 -98 28 -98 87c0 56 49 105 112 105c57 0 99 -30 99 -87c0 -60 -50 -105 -113 -105z" />
    <glyph glyph-name="uni1EBA" unicode="&#x1eba;" 
d="M30 0l130 650h434l-26 -134h-276l-22 -114h230l-26 -134h-230l-28 -134h284l-26 -134h-444zM328 688l1 66c23 3 42 8 45 24s-15 26 -73 30l37 84c137 -4 172 -42 161 -96c-14 -72 -88 -104 -171 -108z" />
    <glyph glyph-name="uni1EBC" unicode="&#x1ebc;" 
d="M30 0l130 650h434l-26 -134h-276l-22 -114h230l-26 -134h-230l-28 -134h284l-26 -134h-444zM464 686c-70 0 -98 52 -126 52c-16 0 -30 -8 -40 -42l-108 8c26 110 89 152 162 152c70 0 98 -52 126 -52c16 0 30 8 40 42l108 -8c-26 -110 -89 -152 -162 -152z" />
    <glyph glyph-name="uni1EBE" unicode="&#x1ebe;" 
d="M30 0l130 650h434l-26 -134h-276l-22 -114h230l-26 -134h-230l-28 -134h284l-26 -134h-444zM300 680l-62 44l106 104h148l70 -104l-74 -44l-80 72h-4zM558 761l-40 60l116 74l42 -72z" />
    <glyph glyph-name="uni1EC0" unicode="&#x1ec0;" 
d="M30 0l130 650h434l-26 -134h-276l-22 -114h230l-26 -134h-230l-28 -134h284l-26 -134h-444zM300 680l-62 44l106 104h148l70 -104l-74 -44l-80 72h-4zM230 756l-94 81l66 62l87 -92z" />
    <glyph glyph-name="uni1EC2" unicode="&#x1ec2;" 
d="M30 0l130 650h434l-26 -134h-276l-22 -114h230l-26 -134h-230l-28 -134h284l-26 -134h-444zM300 680l-62 44l106 104h148l70 -104l-74 -44l-80 72h-4zM548 748l-2 52c16 3 29 8 32 24c4 16 -7 26 -58 30l30 68c121 -4 148 -40 139 -84c-12 -62 -70 -86 -141 -90z" />
    <glyph glyph-name="uni1EC4" unicode="&#x1ec4;" 
d="M30 0l130 650h434l-26 -134h-276l-22 -114h230l-26 -134h-230l-28 -134h284l-26 -134h-444zM298 680l-60 44l104 94h148l72 -94l-76 -44l-80 62h-4zM478 838c-52 0 -74 42 -96 42c-16 0 -28 -10 -36 -36l-80 10c20 85 64 118 120 118c52 0 74 -42 96 -42
c16 0 28 10 36 36l78 -10c-18 -85 -62 -118 -118 -118z" />
    <glyph glyph-name="uni1EC6" unicode="&#x1ec6;" 
d="M30 0l130 650h434l-26 -134h-276l-22 -114h230l-26 -134h-230l-28 -134h284l-26 -134h-444zM268 680l-66 50l120 126h188l76 -132l-78 -44l-98 90h-4zM224 -256c-50 0 -98 28 -98 87c0 56 49 105 112 105c57 0 99 -30 99 -87c0 -60 -50 -105 -113 -105z" />
    <glyph glyph-name="uni1E16" unicode="&#x1e16;" 
d="M30 0l130 650h434l-26 -134h-276l-22 -114h230l-26 -134h-230l-28 -134h284l-26 -134h-444zM248 716l20 102h300l-20 -102h-300zM440 829l-66 50l123 144l94 -72z" />
    <glyph glyph-name="uni01F4" unicode="&#x1f4;" 
d="M292 -12c-155 0 -252 100 -252 276c0 232 153 398 348 398c86 0 150 -38 188 -106l-108 -84c-24 36 -50 52 -88 52c-97 0 -176 -110 -176 -250c0 -94 33 -150 116 -150c19 0 41 6 56 16l24 108h-96l24 130h236l-62 -322c-50 -38 -126 -68 -210 -68zM350 680l-61 92
l207 127l70 -117z" />
    <glyph glyph-name="Gcircumflex" unicode="&#x11c;" 
d="M292 -12c-155 0 -252 100 -252 276c0 232 153 398 348 398c86 0 150 -38 188 -106l-108 -84c-24 36 -50 52 -88 52c-97 0 -176 -110 -176 -250c0 -94 33 -150 116 -150c19 0 41 6 56 16l24 108h-96l24 130h236l-62 -322c-50 -38 -126 -68 -210 -68zM270 680l-66 50
l120 126h188l76 -132l-78 -44l-98 90h-4z" />
    <glyph glyph-name="Gbreve" unicode="&#x11e;" 
d="M292 -12c-155 0 -252 100 -252 276c0 232 153 398 348 398c86 0 150 -38 188 -106l-108 -84c-24 36 -50 52 -88 52c-97 0 -176 -110 -176 -250c0 -94 33 -150 116 -150c19 0 41 6 56 16l24 108h-96l24 130h236l-62 -322c-50 -38 -126 -68 -210 -68zM394 694
c-105 0 -156 47 -150 150l96 16c1 -46 30 -68 72 -68s73 23 92 68l88 -16c-28 -102 -94 -150 -198 -150z" />
    <glyph glyph-name="Gdotaccent" unicode="&#x120;" 
d="M292 -12c-155 0 -252 100 -252 276c0 232 153 398 348 398c86 0 150 -38 188 -106l-108 -84c-24 36 -50 52 -88 52c-97 0 -176 -110 -176 -250c0 -94 33 -150 116 -150c19 0 41 6 56 16l24 108h-96l24 130h236l-62 -322c-50 -38 -126 -68 -210 -68zM406 698
c-42 0 -84 24 -84 74c0 48 42 90 96 90c42 0 84 -26 84 -74c0 -52 -42 -90 -96 -90z" />
    <glyph glyph-name="uni0122" unicode="&#x122;" 
d="M292 -12c-155 0 -252 100 -252 276c0 232 153 398 348 398c86 0 150 -38 188 -106l-108 -84c-24 36 -50 52 -88 52c-97 0 -176 -110 -176 -250c0 -94 33 -150 116 -150c19 0 41 6 56 16l24 108h-96l24 130h236l-62 -322c-50 -38 -126 -68 -210 -68zM149 -244l3 66
c77 4 105 18 105 40c0 12 -11 28 -54 28l44 60c111 -4 135 -35 135 -74c0 -82 -100 -116 -233 -120z" />
    <glyph glyph-name="Gcaron" unicode="&#x1e6;" 
d="M292 -12c-155 0 -252 100 -252 276c0 232 153 398 348 398c86 0 150 -38 188 -106l-108 -84c-24 36 -50 52 -88 52c-97 0 -176 -110 -176 -250c0 -94 33 -150 116 -150c19 0 41 6 56 16l24 108h-96l24 130h236l-62 -322c-50 -38 -126 -68 -210 -68zM310 700l-76 132
l78 44l98 -90h4l138 90l66 -50l-120 -126h-188z" />
    <glyph glyph-name="uni1E20" unicode="&#x1e20;" 
d="M292 -12c-155 0 -252 100 -252 276c0 232 153 398 348 398c86 0 150 -38 188 -106l-108 -84c-24 36 -50 52 -88 52c-97 0 -176 -110 -176 -250c0 -94 33 -150 116 -150c19 0 41 6 56 16l24 108h-96l24 130h236l-62 -322c-50 -38 -126 -68 -210 -68zM250 716l20 102h300
l-20 -102h-300z" />
    <glyph glyph-name="uni00470303" 
d="M292 -12c-155 0 -252 100 -252 276c0 232 153 398 348 398c86 0 150 -38 188 -106l-108 -84c-24 36 -50 52 -88 52c-97 0 -176 -110 -176 -250c0 -94 33 -150 116 -150c19 0 41 6 56 16l24 108h-96l24 130h236l-62 -322c-50 -38 -126 -68 -210 -68zM466 686
c-70 0 -98 52 -126 52c-16 0 -30 -8 -40 -42l-108 8c26 110 89 152 162 152c70 0 98 -52 126 -52c16 0 30 8 40 42l108 -8c-26 -110 -89 -152 -162 -152z" />
    <glyph glyph-name="uni0193" unicode="&#x193;" 
d="M576 556l-108 -84c-24 36 -50 52 -88 52c-97 0 -176 -110 -176 -250c0 -94 33 -150 116 -150c19 0 41 6 56 16l24 108h-96l24 130h236l-62 -322c-50 -38 -126 -68 -210 -68c-155 0 -252 100 -252 276c0 232 153 398 348 398c13 0 25 -1 36 -2v8c0 78 60 152 158 152
c42 0 78 -12 102 -24l-50 -110c-12 8 -20 10 -30 10c-28 0 -52 -17 -52 -54c0 -36 12 -60 24 -86z" />
    <glyph glyph-name="Hcircumflex" unicode="&#x124;" 
d="M-2 0l130 650h160l-50 -244h160l48 244h160l-130 -650h-160l54 266h-160l-52 -266h-160zM252 680l-66 50l120 126h188l76 -132l-78 -44l-98 90h-4z" />
    <glyph glyph-name="uni1E26" unicode="&#x1e26;" 
d="M-2 0l130 650h160l-50 -244h160l48 244h160l-130 -650h-160l54 266h-160l-52 -266h-160zM274 696c-36 0 -64 24 -64 64s34 84 82 84c34 0 64 -24 64 -64s-34 -84 -82 -84zM494 696c-36 0 -64 24 -64 64s34 84 82 84c34 0 64 -24 64 -64s-34 -84 -82 -84z" />
    <glyph glyph-name="uni1E24" unicode="&#x1e24;" 
d="M-2 0l130 650h160l-50 -244h160l48 244h160l-130 -650h-160l54 266h-160l-52 -266h-160zM198 -256c-50 0 -98 28 -98 87c0 56 49 105 112 105c57 0 99 -30 99 -87c0 -60 -50 -105 -113 -105z" />
    <glyph glyph-name="uni1E28" unicode="&#x1e28;" 
d="M-2 0l130 650h160l-50 -244h160l48 244h160l-130 -650h-160l54 266h-160l-52 -266h-22l-38 -60c50 -12 72 -34 66 -76c-14 -72 -96 -104 -230 -108v66c76 4 102 14 108 42c2 18 -10 32 -70 40l66 96h-40z" />
    <glyph glyph-name="uni1E2A" unicode="&#x1e2a;" 
d="M-2 0l130 650h160l-50 -244h160l48 244h160l-130 -650h-160l54 266h-160l-52 -266h-160zM192 -234c-117 0 -160 66 -146 160l100 16c-2 -40 18 -70 66 -70s76 30 90 70l92 -16c-18 -94 -84 -160 -202 -160z" />
    <glyph glyph-name="Hbar" unicode="&#x126;" 
d="M36 484l14 70l60 6l18 90h160l-18 -90h158l18 90h160l-18 -90h60l-16 -76h-59l-97 -484h-160l54 266h-160l-52 -266h-160l97 484h-59zM238 406h160l15 78h-159z" />
    <glyph glyph-name="Igrave" unicode="&#xcc;" 
d="M8 0l28 134h148l78 382h-150l28 134h458l-28 -134h-148l-78 -382h150l-28 -134h-458zM398 670l-175 136l109 101l156 -159z" />
    <glyph glyph-name="Iacute" unicode="&#xcd;" 
d="M8 0l28 134h148l78 382h-150l28 134h458l-28 -134h-148l-78 -382h150l-28 -134h-458zM332 680l-61 92l207 127l70 -117z" />
    <glyph glyph-name="Icircumflex" unicode="&#xce;" 
d="M8 0l28 134h148l78 382h-150l28 134h458l-28 -134h-148l-78 -382h150l-28 -134h-458zM252 680l-66 50l120 126h188l76 -132l-78 -44l-98 90h-4z" />
    <glyph glyph-name="Itilde" unicode="&#x128;" 
d="M8 0l28 134h148l78 382h-150l28 134h458l-28 -134h-148l-78 -382h150l-28 -134h-458zM448 686c-70 0 -98 52 -126 52c-16 0 -30 -8 -40 -42l-108 8c26 110 89 152 162 152c70 0 98 -52 126 -52c16 0 30 8 40 42l108 -8c-26 -110 -89 -152 -162 -152z" />
    <glyph glyph-name="Idieresis" unicode="&#xcf;" 
d="M8 0l28 134h148l78 382h-150l28 134h458l-28 -134h-148l-78 -382h150l-28 -134h-458zM274 696c-36 0 -64 24 -64 64s34 84 82 84c34 0 64 -24 64 -64s-34 -84 -82 -84zM494 696c-36 0 -64 24 -64 64s34 84 82 84c34 0 64 -24 64 -64s-34 -84 -82 -84z" />
    <glyph glyph-name="Imacron" unicode="&#x12a;" 
d="M8 0l28 134h148l78 382h-150l28 134h458l-28 -134h-148l-78 -382h150l-28 -134h-458zM232 716l20 102h300l-20 -102h-300z" />
    <glyph glyph-name="Idotaccent" unicode="&#x130;" 
d="M8 0l28 134h148l78 382h-150l28 134h458l-28 -134h-148l-78 -382h150l-28 -134h-458zM388 698c-42 0 -84 24 -84 74c0 48 42 90 96 90c42 0 84 -26 84 -74c0 -52 -42 -90 -96 -90z" />
    <glyph glyph-name="uni01CF" unicode="&#x1cf;" 
d="M8 0l28 134h148l78 382h-150l28 134h458l-28 -134h-148l-78 -382h150l-28 -134h-458zM292 700l-76 132l78 44l98 -90h4l138 90l66 -50l-120 -126h-188z" />
    <glyph glyph-name="Iogonek" unicode="&#x12e;" 
d="M216 -228c-62 0 -104 30 -104 82c0 67 66 124 104 146h-208l28 134h148l78 382h-150l28 134h458l-28 -134h-148l-78 -382h150l-28 -134h-136c-66 -24 -94 -68 -94 -94c0 -20 18 -32 40 -32c10 0 18 2 30 8l30 -76c-32 -22 -82 -34 -120 -34z" />
    <glyph glyph-name="uni1EC8" unicode="&#x1ec8;" 
d="M8 0l28 134h148l78 382h-150l28 134h458l-28 -134h-148l-78 -382h150l-28 -134h-458zM312 688l1 66c23 3 42 8 45 24s-15 26 -73 30l37 84c137 -4 172 -42 161 -96c-14 -72 -88 -104 -171 -108z" />
    <glyph glyph-name="uni1ECA" unicode="&#x1eca;" 
d="M8 0l28 134h148l78 382h-150l28 134h458l-28 -134h-148l-78 -382h150l-28 -134h-458zM198 -256c-50 0 -98 28 -98 87c0 56 49 105 112 105c57 0 99 -30 99 -87c0 -60 -50 -105 -113 -105z" />
    <glyph glyph-name="Ibreve" unicode="&#x12c;" 
d="M8 0l28 134h148l78 382h-150l28 134h458l-28 -134h-148l-78 -382h150l-28 -134h-458zM376 694c-105 0 -156 47 -150 150l96 16c1 -46 30 -68 72 -68s73 23 92 68l88 -16c-28 -102 -94 -150 -198 -150z" />
    <glyph glyph-name="Jcircumflex" unicode="&#x134;" 
d="M228 -12c-114 0 -180 52 -226 116l102 96c30 -40 68 -74 124 -74c68 0 98 34 116 122l54 268h-250l26 134h408l-88 -438c-26 -130 -110 -224 -266 -224zM272 680l-66 50l120 126h188l76 -132l-78 -44l-98 90h-4z" />
    <glyph glyph-name="uni0136" unicode="&#x136;" 
d="M648 650l-252 -268l142 -382h-182l-79 256l-81 -86l-34 -170h-158l130 650h159l-55 -268h4l232 268h174zM119 -244l3 66c77 4 105 18 105 40c0 12 -11 28 -54 28l44 60c111 -4 135 -35 135 -74c0 -82 -100 -116 -233 -120z" />
    <glyph glyph-name="uni1E32" unicode="&#x1e32;" 
d="M648 650l-252 -268l142 -382h-182l-79 256l-81 -86l-34 -170h-158l130 650h159l-55 -268h4l232 268h174zM228 -256c-50 0 -98 28 -98 87c0 56 49 105 112 105c57 0 99 -30 99 -87c0 -60 -50 -105 -113 -105z" />
    <glyph glyph-name="uni1E34" unicode="&#x1e34;" 
d="M648 650l-252 -268l142 -382h-182l-79 256l-81 -86l-34 -170h-158l130 650h159l-55 -268h4l232 268h174zM82 -194l20 100h294l-20 -100h-294z" />
    <glyph glyph-name="Lacute" unicode="&#x139;" 
d="M52 0l130 650h160l-104 -516h280l-26 -134h-440zM228 680l-61 92l207 127l70 -117z" />
    <glyph glyph-name="Lcaron" unicode="&#x13d;" 
d="M52 0l130 650h160l-104 -516h280l-26 -134h-440zM418 508l46 276h148l-24 -104l-68 -172h-102z" />
    <glyph glyph-name="uni013B" unicode="&#x13b;" 
d="M52 0l130 650h160l-104 -516h280l-26 -134h-440zM135 -244l3 66c77 4 105 18 105 40c0 12 -11 28 -54 28l44 60c111 -4 135 -35 135 -74c0 -82 -100 -116 -233 -120z" />
    <glyph glyph-name="uni1E36" unicode="&#x1e36;" 
d="M52 0l130 650h160l-104 -516h280l-26 -134h-440zM244 -256c-50 0 -98 28 -98 87c0 56 49 105 112 105c57 0 99 -30 99 -87c0 -60 -50 -105 -113 -105z" />
    <glyph glyph-name="uni1E38" unicode="&#x1e38;" 
d="M52 0l130 650h160l-104 -516h280l-26 -134h-440zM128 716l20 102h300l-20 -102h-300zM244 -256c-50 0 -98 28 -98 87c0 56 49 105 112 105c57 0 99 -30 99 -87c0 -60 -50 -105 -113 -105z" />
    <glyph glyph-name="uni1E3A" unicode="&#x1e3a;" 
d="M52 0l130 650h160l-104 -516h280l-26 -134h-440zM98 -194l20 100h294l-20 -100h-294z" />
    <glyph glyph-name="Lslash" unicode="&#x141;" 
d="M33 164l-38 102l122 60l65 324h160l-49 -241l184 93l38 -102l-248 -124l-29 -142h280l-26 -134h-440l39 193z" />
    <glyph glyph-name="Ldot" unicode="&#x13f;" 
d="M52 0l130 650h160l-104 -516h280l-26 -134h-440zM484 264c-50 0 -98 28 -98 87c0 56 49 105 112 105c57 0 99 -30 99 -87c0 -60 -50 -105 -113 -105z" />
    <glyph glyph-name="uni1E3E" unicode="&#x1e3e;" 
d="M-6 0l130 650h164l12 -212l2 -100h4l36 96l106 216h164l-130 -650h-136l38 188c14 70 63 235 84 308h-4l-83 -184l-65 -138h-88l-10 122l-9 200h-4c-9 -90 -23 -224 -35 -284l-44 -212h-132zM332 680l-61 92l207 127l70 -117z" />
    <glyph glyph-name="uni1E40" unicode="&#x1e40;" 
d="M-6 0l130 650h164l12 -212l2 -100h4l36 96l106 216h164l-130 -650h-136l38 188c14 70 63 235 84 308h-4l-83 -184l-65 -138h-88l-10 122l-9 200h-4c-9 -90 -23 -224 -35 -284l-44 -212h-132zM388 698c-42 0 -84 24 -84 74c0 48 42 90 96 90c42 0 84 -26 84 -74
c0 -52 -42 -90 -96 -90z" />
    <glyph glyph-name="uni1E42" unicode="&#x1e42;" 
d="M-6 0l130 650h164l12 -212l2 -100h4l36 96l106 216h164l-130 -650h-136l38 188c14 70 63 235 84 308h-4l-83 -184l-65 -138h-88l-10 122l-9 200h-4c-9 -90 -23 -224 -35 -284l-44 -212h-132zM198 -256c-50 0 -98 28 -98 87c0 56 49 105 112 105c57 0 99 -30 99 -87
c0 -60 -50 -105 -113 -105z" />
    <glyph glyph-name="Nacute" unicode="&#x143;" 
d="M6 0l130 650h160l57 -310l21 -144h4c6 70 18 195 27 242l42 212h151l-130 -650h-156l-63 310l-21 144h-4c-6 -73 -16 -189 -28 -252l-39 -202h-151zM322 680l-61 92l207 127l70 -117z" />
    <glyph glyph-name="uni01F8" unicode="&#x1f8;" 
d="M6 0l130 650h160l57 -310l21 -144h4c6 70 18 195 27 242l42 212h151l-130 -650h-156l-63 310l-21 144h-4c-6 -73 -16 -189 -28 -252l-39 -202h-151zM388 670l-175 136l109 101l156 -159z" />
    <glyph glyph-name="Ncaron" unicode="&#x147;" 
d="M6 0l130 650h160l57 -310l21 -144h4c6 70 18 195 27 242l42 212h151l-130 -650h-156l-63 310l-21 144h-4c-6 -73 -16 -189 -28 -252l-39 -202h-151zM282 700l-76 132l78 44l98 -90h4l138 90l66 -50l-120 -126h-188z" />
    <glyph glyph-name="Ntilde" unicode="&#xd1;" 
d="M6 0l130 650h160l57 -310l21 -144h4c6 70 18 195 27 242l42 212h151l-130 -650h-156l-63 310l-21 144h-4c-6 -73 -16 -189 -28 -252l-39 -202h-151zM438 686c-70 0 -98 52 -126 52c-16 0 -30 -8 -40 -42l-108 8c26 110 89 152 162 152c70 0 98 -52 126 -52
c16 0 30 8 40 42l108 -8c-26 -110 -89 -152 -162 -152z" />
    <glyph glyph-name="uni0145" unicode="&#x145;" 
d="M6 0l130 650h160l57 -310l21 -144h4c6 70 18 195 27 242l42 212h151l-130 -650h-156l-63 310l-21 144h-4c-6 -73 -16 -189 -28 -252l-39 -202h-151zM103 -244l3 66c77 4 105 18 105 40c0 12 -11 28 -54 28l44 60c111 -4 135 -35 135 -74c0 -82 -100 -116 -233 -120z" />
    <glyph glyph-name="uni1E44" unicode="&#x1e44;" 
d="M6 0l130 650h160l57 -310l21 -144h4c6 70 18 195 27 242l42 212h151l-130 -650h-156l-63 310l-21 144h-4c-6 -73 -16 -189 -28 -252l-39 -202h-151zM378 698c-42 0 -84 24 -84 74c0 48 42 90 96 90c42 0 84 -26 84 -74c0 -52 -42 -90 -96 -90z" />
    <glyph glyph-name="uni1E46" unicode="&#x1e46;" 
d="M6 0l130 650h160l57 -310l21 -144h4c6 70 18 195 27 242l42 212h151l-130 -650h-156l-63 310l-21 144h-4c-6 -73 -16 -189 -28 -252l-39 -202h-151zM212 -256c-50 0 -98 28 -98 87c0 56 49 105 112 105c57 0 99 -30 99 -87c0 -60 -50 -105 -113 -105z" />
    <glyph glyph-name="uni1E48" unicode="&#x1e48;" 
d="M6 0l130 650h160l57 -310l21 -144h4c6 70 18 195 27 242l42 212h151l-130 -650h-156l-63 310l-21 144h-4c-6 -73 -16 -189 -28 -252l-39 -202h-151zM66 -194l20 100h294l-20 -100h-294z" />
    <glyph glyph-name="Ograve" unicode="&#xd2;" 
d="M250 -12c-136 0 -224 100 -224 268c0 230 139 406 332 406c135 0 222 -100 222 -268c0 -230 -138 -406 -330 -406zM266 126c86 0 150 120 150 284c0 80 -23 114 -74 114c-86 0 -152 -120 -152 -284c0 -80 24 -114 76 -114zM398 670l-175 136l109 101l156 -159z" />
    <glyph glyph-name="Oacute" unicode="&#xd3;" 
d="M250 -12c-136 0 -224 100 -224 268c0 230 139 406 332 406c135 0 222 -100 222 -268c0 -230 -138 -406 -330 -406zM266 126c86 0 150 120 150 284c0 80 -23 114 -74 114c-86 0 -152 -120 -152 -284c0 -80 24 -114 76 -114zM332 680l-61 92l207 127l70 -117z" />
    <glyph glyph-name="Ocircumflex" unicode="&#xd4;" 
d="M250 -12c-136 0 -224 100 -224 268c0 230 139 406 332 406c135 0 222 -100 222 -268c0 -230 -138 -406 -330 -406zM266 126c86 0 150 120 150 284c0 80 -23 114 -74 114c-86 0 -152 -120 -152 -284c0 -80 24 -114 76 -114zM252 680l-66 50l120 126h188l76 -132l-78 -44
l-98 90h-4z" />
    <glyph glyph-name="Otilde" unicode="&#xd5;" 
d="M250 -12c-136 0 -224 100 -224 268c0 230 139 406 332 406c135 0 222 -100 222 -268c0 -230 -138 -406 -330 -406zM266 126c86 0 150 120 150 284c0 80 -23 114 -74 114c-86 0 -152 -120 -152 -284c0 -80 24 -114 76 -114zM448 686c-70 0 -98 52 -126 52
c-16 0 -30 -8 -40 -42l-108 8c26 110 89 152 162 152c70 0 98 -52 126 -52c16 0 30 8 40 42l108 -8c-26 -110 -89 -152 -162 -152z" />
    <glyph glyph-name="Odieresis" unicode="&#xd6;" 
d="M250 -12c-136 0 -224 100 -224 268c0 230 139 406 332 406c135 0 222 -100 222 -268c0 -230 -138 -406 -330 -406zM266 126c86 0 150 120 150 284c0 80 -23 114 -74 114c-86 0 -152 -120 -152 -284c0 -80 24 -114 76 -114zM274 696c-36 0 -64 24 -64 64s34 84 82 84
c34 0 64 -24 64 -64s-34 -84 -82 -84zM494 696c-36 0 -64 24 -64 64s34 84 82 84c34 0 64 -24 64 -64s-34 -84 -82 -84z" />
    <glyph glyph-name="Omacron" unicode="&#x14c;" 
d="M250 -12c-136 0 -224 100 -224 268c0 230 139 406 332 406c135 0 222 -100 222 -268c0 -230 -138 -406 -330 -406zM266 126c86 0 150 120 150 284c0 80 -23 114 -74 114c-86 0 -152 -120 -152 -284c0 -80 24 -114 76 -114zM232 716l20 102h300l-20 -102h-300z" />
    <glyph glyph-name="Ohungarumlaut" unicode="&#x150;" 
d="M250 -12c-136 0 -224 100 -224 268c0 230 139 406 332 406c135 0 222 -100 222 -268c0 -230 -138 -406 -330 -406zM266 126c86 0 150 120 150 284c0 80 -23 114 -74 114c-86 0 -152 -120 -152 -284c0 -80 24 -114 76 -114zM308 693l-76 47l132 153l97 -69zM506 693
l-76 47l132 153l97 -69z" />
    <glyph glyph-name="Obreve" unicode="&#x14e;" 
d="M250 -12c-136 0 -224 100 -224 268c0 230 139 406 332 406c135 0 222 -100 222 -268c0 -230 -138 -406 -330 -406zM266 126c86 0 150 120 150 284c0 80 -23 114 -74 114c-86 0 -152 -120 -152 -284c0 -80 24 -114 76 -114zM376 694c-105 0 -156 47 -150 150l96 16
c1 -46 30 -68 72 -68s73 23 92 68l88 -16c-28 -102 -94 -150 -198 -150z" />
    <glyph glyph-name="uni01D1" unicode="&#x1d1;" 
d="M250 -12c-136 0 -224 100 -224 268c0 230 139 406 332 406c135 0 222 -100 222 -268c0 -230 -138 -406 -330 -406zM266 126c86 0 150 120 150 284c0 80 -23 114 -74 114c-86 0 -152 -120 -152 -284c0 -80 24 -114 76 -114zM292 700l-76 132l78 44l98 -90h4l138 90l66 -50
l-120 -126h-188z" />
    <glyph glyph-name="uni01EA" unicode="&#x1ea;" 
d="M216 -228c-62 0 -104 30 -104 82c0 58 50 108 90 136c-110 28 -176 116 -176 266c0 230 139 406 332 406c135 0 222 -100 222 -268c0 -182 -94 -360 -266 -402c-56 -14 -78 -62 -78 -86c0 -20 18 -32 40 -32c10 0 18 2 30 8l30 -76c-32 -22 -82 -34 -120 -34zM266 122
c86 0 150 118 150 288c0 80 -23 114 -74 114c-86 0 -152 -120 -152 -284c0 -84 24 -118 76 -118z" />
    <glyph glyph-name="uni1ECC" unicode="&#x1ecc;" 
d="M250 -12c-136 0 -224 100 -224 268c0 230 139 406 332 406c135 0 222 -100 222 -268c0 -230 -138 -406 -330 -406zM266 126c86 0 150 120 150 284c0 80 -23 114 -74 114c-86 0 -152 -120 -152 -284c0 -80 24 -114 76 -114zM194 -256c-50 0 -98 28 -98 87
c0 56 49 105 112 105c57 0 99 -30 99 -87c0 -60 -50 -105 -113 -105z" />
    <glyph glyph-name="uni1ECE" unicode="&#x1ece;" 
d="M250 -12c-136 0 -224 100 -224 268c0 230 139 406 332 406c135 0 222 -100 222 -268c0 -230 -138 -406 -330 -406zM266 126c86 0 150 120 150 284c0 80 -23 114 -74 114c-86 0 -152 -120 -152 -284c0 -80 24 -114 76 -114zM312 688l1 66c23 3 42 8 45 24s-15 26 -73 30
l37 84c137 -4 172 -42 161 -96c-14 -72 -88 -104 -171 -108z" />
    <glyph glyph-name="uni1ED0" unicode="&#x1ed0;" 
d="M250 -12c-136 0 -224 100 -224 268c0 230 139 406 332 406c135 0 222 -100 222 -268c0 -230 -138 -406 -330 -406zM266 126c86 0 150 120 150 284c0 80 -23 114 -74 114c-86 0 -152 -120 -152 -284c0 -80 24 -114 76 -114zM284 680l-62 44l106 104h148l70 -104l-74 -44
l-80 72h-4zM542 761l-40 60l116 74l42 -72z" />
    <glyph glyph-name="uni1ED2" unicode="&#x1ed2;" 
d="M250 -12c-136 0 -224 100 -224 268c0 230 139 406 332 406c135 0 222 -100 222 -268c0 -230 -138 -406 -330 -406zM266 126c86 0 150 120 150 284c0 80 -23 114 -74 114c-86 0 -152 -120 -152 -284c0 -80 24 -114 76 -114zM284 680l-62 44l106 104h148l70 -104l-74 -44
l-80 72h-4zM214 756l-94 81l66 62l87 -92z" />
    <glyph glyph-name="uni1ED4" unicode="&#x1ed4;" 
d="M250 -12c-136 0 -224 100 -224 268c0 230 139 406 332 406c135 0 222 -100 222 -268c0 -230 -138 -406 -330 -406zM266 126c86 0 150 120 150 284c0 80 -23 114 -74 114c-86 0 -152 -120 -152 -284c0 -80 24 -114 76 -114zM284 680l-62 44l106 104h148l70 -104l-74 -44
l-80 72h-4zM532 748l-2 52c16 3 29 8 32 24c4 16 -7 26 -58 30l30 68c121 -4 148 -40 139 -84c-12 -62 -70 -86 -141 -90z" />
    <glyph glyph-name="uni1ED6" unicode="&#x1ed6;" 
d="M250 -12c-136 0 -224 100 -224 268c0 230 139 406 332 406c135 0 222 -100 222 -268c0 -230 -138 -406 -330 -406zM266 126c86 0 150 120 150 284c0 80 -23 114 -74 114c-86 0 -152 -120 -152 -284c0 -80 24 -114 76 -114zM282 680l-60 44l104 94h148l72 -94l-76 -44
l-80 62h-4zM462 838c-52 0 -74 42 -96 42c-16 0 -28 -10 -36 -36l-80 10c20 85 64 118 120 118c52 0 74 -42 96 -42c16 0 28 10 36 36l78 -10c-18 -85 -62 -118 -118 -118z" />
    <glyph glyph-name="uni1ED8" unicode="&#x1ed8;" 
d="M250 -12c-136 0 -224 100 -224 268c0 230 139 406 332 406c135 0 222 -100 222 -268c0 -230 -138 -406 -330 -406zM266 126c86 0 150 120 150 284c0 80 -23 114 -74 114c-86 0 -152 -120 -152 -284c0 -80 24 -114 76 -114zM252 680l-66 50l120 126h188l76 -132l-78 -44
l-98 90h-4zM194 -256c-50 0 -98 28 -98 87c0 56 49 105 112 105c57 0 99 -30 99 -87c0 -60 -50 -105 -113 -105z" />
    <glyph glyph-name="Ohorn" unicode="&#x1a0;" 
d="M250 -12c-136 0 -224 100 -224 268c0 230 139 406 332 406c42 0 80 -10 111 -28c62 8 91 41 91 98c0 16 -5 43 -12 60l118 36c12 -27 18 -58 18 -84c0 -92 -48 -146 -155 -166c33 -45 51 -107 51 -184c0 -230 -138 -406 -330 -406zM266 126c86 0 150 120 150 284
c0 80 -23 114 -74 114c-86 0 -152 -120 -152 -284c0 -80 24 -114 76 -114z" />
    <glyph glyph-name="uni1EDA" unicode="&#x1eda;" 
d="M250 -12c-136 0 -224 100 -224 268c0 230 139 406 332 406c42 0 80 -10 111 -28c62 8 91 41 91 98c0 16 -5 43 -12 60l118 36c12 -27 18 -58 18 -84c0 -92 -48 -146 -155 -166c33 -45 51 -107 51 -184c0 -230 -138 -406 -330 -406zM266 126c86 0 150 120 150 284
c0 80 -23 114 -74 114c-86 0 -152 -120 -152 -284c0 -80 24 -114 76 -114zM332 680l-61 92l207 127l70 -117z" />
    <glyph glyph-name="uni1EDC" unicode="&#x1edc;" 
d="M250 -12c-136 0 -224 100 -224 268c0 230 139 406 332 406c42 0 80 -10 111 -28c62 8 91 41 91 98c0 16 -5 43 -12 60l118 36c12 -27 18 -58 18 -84c0 -92 -48 -146 -155 -166c33 -45 51 -107 51 -184c0 -230 -138 -406 -330 -406zM266 126c86 0 150 120 150 284
c0 80 -23 114 -74 114c-86 0 -152 -120 -152 -284c0 -80 24 -114 76 -114zM398 670l-175 136l109 101l156 -159z" />
    <glyph glyph-name="uni1EDE" unicode="&#x1ede;" 
d="M250 -12c-136 0 -224 100 -224 268c0 230 139 406 332 406c42 0 80 -10 111 -28c62 8 91 41 91 98c0 16 -5 43 -12 60l118 36c12 -27 18 -58 18 -84c0 -92 -48 -146 -155 -166c33 -45 51 -107 51 -184c0 -230 -138 -406 -330 -406zM266 126c86 0 150 120 150 284
c0 80 -23 114 -74 114c-86 0 -152 -120 -152 -284c0 -80 24 -114 76 -114zM312 688l1 66c23 3 42 8 45 24s-15 26 -73 30l37 84c137 -4 172 -42 161 -96c-14 -72 -88 -104 -171 -108z" />
    <glyph glyph-name="uni1EE0" unicode="&#x1ee0;" 
d="M250 -12c-136 0 -224 100 -224 268c0 230 139 406 332 406c42 0 80 -10 111 -28c62 8 91 41 91 98c0 16 -5 43 -12 60l118 36c12 -27 18 -58 18 -84c0 -92 -48 -146 -155 -166c33 -45 51 -107 51 -184c0 -230 -138 -406 -330 -406zM266 126c86 0 150 120 150 284
c0 80 -23 114 -74 114c-86 0 -152 -120 -152 -284c0 -80 24 -114 76 -114zM388 686c-70 0 -98 52 -126 52c-16 0 -30 -8 -40 -42l-108 8c26 110 89 152 162 152c70 0 98 -52 126 -52c16 0 30 8 40 42l108 -8c-26 -110 -89 -152 -162 -152z" />
    <glyph glyph-name="uni1EE2" unicode="&#x1ee2;" 
d="M250 -12c-136 0 -224 100 -224 268c0 230 139 406 332 406c42 0 80 -10 111 -28c62 8 91 41 91 98c0 16 -5 43 -12 60l118 36c12 -27 18 -58 18 -84c0 -92 -48 -146 -155 -166c33 -45 51 -107 51 -184c0 -230 -138 -406 -330 -406zM266 126c86 0 150 120 150 284
c0 80 -23 114 -74 114c-86 0 -152 -120 -152 -284c0 -80 24 -114 76 -114zM194 -256c-50 0 -98 28 -98 87c0 56 49 105 112 105c57 0 99 -30 99 -87c0 -60 -50 -105 -113 -105z" />
    <glyph glyph-name="uni1E52" unicode="&#x1e52;" 
d="M250 -12c-136 0 -224 100 -224 268c0 230 139 406 332 406c135 0 222 -100 222 -268c0 -230 -138 -406 -330 -406zM266 126c86 0 150 120 150 284c0 80 -23 114 -74 114c-86 0 -152 -120 -152 -284c0 -80 24 -114 76 -114zM232 716l20 102h300l-20 -102h-300zM424 829
l-66 50l123 144l94 -72z" />
    <glyph glyph-name="Oslash" unicode="&#xd8;" 
d="M250 -12c-55 0 -102 16 -138 46l-68 -78l-72 54l84 97c-19 41 -30 91 -30 149c0 230 139 406 332 406c54 0 101 -16 137 -47l68 79l73 -54l-85 -98c19 -41 29 -90 29 -148c0 -230 -138 -406 -330 -406zM184 270v-14l212 245c-13 16 -32 23 -54 23
c-86 0 -158 -124 -158 -254zM266 126c86 0 156 124 156 254v13l-211 -244c14 -17 32 -23 55 -23z" />
    <glyph glyph-name="Oslashacute" unicode="&#x1fe;" 
d="M250 -12c-55 0 -102 16 -138 46l-68 -78l-72 54l84 97c-19 41 -30 91 -30 149c0 230 139 406 332 406c54 0 101 -16 137 -47l68 79l73 -54l-85 -98c19 -41 29 -90 29 -148c0 -230 -138 -406 -330 -406zM184 270v-14l212 245c-13 16 -32 23 -54 23
c-86 0 -158 -124 -158 -254zM266 126c86 0 156 124 156 254v13l-211 -244c14 -17 32 -23 55 -23zM332 680l-61 92l207 127l70 -117z" />
    <glyph glyph-name="OE" unicode="&#x152;" 
d="M251 0c-152 0 -242 77 -242 246c0 262 166 404 340 404h308l-26 -134h-156l-22 -114h116l-26 -134h-116l-28 -134h164l-26 -134h-286zM255 128h4l78 394h-14c-72 0 -150 -100 -150 -266c0 -95 36 -128 82 -128z" />
    <glyph glyph-name="Racute" unicode="&#x154;" 
d="M8 0l130 650h208c130 0 235 -46 235 -179c0 -117 -70 -188 -159 -223l102 -248h-177l-78 224h-57l-44 -224h-160zM238 350h47c86 0 134 42 134 104c0 48 -32 70 -92 70h-55zM332 680l-61 92l207 127l70 -117z" />
    <glyph glyph-name="Rcaron" unicode="&#x158;" 
d="M8 0l130 650h208c130 0 235 -46 235 -179c0 -117 -70 -188 -159 -223l102 -248h-177l-78 224h-57l-44 -224h-160zM238 350h47c86 0 134 42 134 104c0 48 -32 70 -92 70h-55zM292 700l-76 132l78 44l98 -90h4l138 90l66 -50l-120 -126h-188z" />
    <glyph glyph-name="uni1E58" unicode="&#x1e58;" 
d="M8 0l130 650h208c130 0 235 -46 235 -179c0 -117 -70 -188 -159 -223l102 -248h-177l-78 224h-57l-44 -224h-160zM238 350h47c86 0 134 42 134 104c0 48 -32 70 -92 70h-55zM388 698c-42 0 -84 24 -84 74c0 48 42 90 96 90c42 0 84 -26 84 -74c0 -52 -42 -90 -96 -90z
" />
    <glyph glyph-name="uni0156" unicode="&#x156;" 
d="M8 0l130 650h208c130 0 235 -46 235 -179c0 -117 -70 -188 -159 -223l102 -248h-177l-78 224h-57l-44 -224h-160zM238 350h47c86 0 134 42 134 104c0 48 -32 70 -92 70h-55zM115 -244l3 66c77 4 105 18 105 40c0 12 -11 28 -54 28l44 60c111 -4 135 -35 135 -74
c0 -82 -100 -116 -233 -120z" />
    <glyph glyph-name="uni1E5A" unicode="&#x1e5a;" 
d="M8 0l130 650h208c130 0 235 -46 235 -179c0 -117 -70 -188 -159 -223l102 -248h-177l-78 224h-57l-44 -224h-160zM238 350h47c86 0 134 42 134 104c0 48 -32 70 -92 70h-55zM224 -256c-50 0 -98 28 -98 87c0 56 49 105 112 105c57 0 99 -30 99 -87
c0 -60 -50 -105 -113 -105z" />
    <glyph glyph-name="uni1E5C" unicode="&#x1e5c;" 
d="M8 0l130 650h208c130 0 235 -46 235 -179c0 -117 -70 -188 -159 -223l102 -248h-177l-78 224h-57l-44 -224h-160zM238 350h47c86 0 134 42 134 104c0 48 -32 70 -92 70h-55zM232 716l20 102h300l-20 -102h-300zM224 -256c-50 0 -98 28 -98 87c0 56 49 105 112 105
c57 0 99 -30 99 -87c0 -60 -50 -105 -113 -105z" />
    <glyph glyph-name="uni1E5E" unicode="&#x1e5e;" 
d="M8 0l130 650h208c130 0 235 -46 235 -179c0 -117 -70 -188 -159 -223l102 -248h-177l-78 224h-57l-44 -224h-160zM238 350h47c86 0 134 42 134 104c0 48 -32 70 -92 70h-55zM78 -194l20 100h294l-20 -100h-294z" />
    <glyph glyph-name="Sacute" unicode="&#x15a;" 
d="M269 -12c-122 0 -204 57 -250 131l103 91c36 -55 85 -85 142 -85c51 0 84 18 84 53c0 33 -28 50 -73 77l-55 33c-60 36 -110 92 -110 179c0 121 102 195 230 195c95 0 179 -48 225 -113l-101 -87c-30 35 -71 65 -124 65c-35 0 -65 -14 -65 -49c0 -27 23 -45 56 -66
l67 -44c64 -42 114 -87 114 -178c0 -133 -109 -202 -243 -202zM316 680l-61 92l207 127l70 -117z" />
    <glyph glyph-name="Scircumflex" unicode="&#x15c;" 
d="M269 -12c-122 0 -204 57 -250 131l103 91c36 -55 85 -85 142 -85c51 0 84 18 84 53c0 33 -28 50 -73 77l-55 33c-60 36 -110 92 -110 179c0 121 102 195 230 195c95 0 179 -48 225 -113l-101 -87c-30 35 -71 65 -124 65c-35 0 -65 -14 -65 -49c0 -27 23 -45 56 -66
l67 -44c64 -42 114 -87 114 -178c0 -133 -109 -202 -243 -202zM236 680l-66 50l120 126h188l76 -132l-78 -44l-98 90h-4z" />
    <glyph glyph-name="Scaron" unicode="&#x160;" 
d="M269 -12c-122 0 -204 57 -250 131l103 91c36 -55 85 -85 142 -85c51 0 84 18 84 53c0 33 -28 50 -73 77l-55 33c-60 36 -110 92 -110 179c0 121 102 195 230 195c95 0 179 -48 225 -113l-101 -87c-30 35 -71 65 -124 65c-35 0 -65 -14 -65 -49c0 -27 23 -45 56 -66
l67 -44c64 -42 114 -87 114 -178c0 -133 -109 -202 -243 -202zM276 700l-76 132l78 44l98 -90h4l138 90l66 -50l-120 -126h-188z" />
    <glyph glyph-name="uni1E66" unicode="&#x1e66;" 
d="M269 -12c-122 0 -204 57 -250 131l103 91c36 -55 85 -85 142 -85c51 0 84 18 84 53c0 33 -28 50 -73 77l-55 33c-60 36 -110 92 -110 179c0 121 102 195 230 195c95 0 179 -48 225 -113l-101 -87c-30 35 -71 65 -124 65c-35 0 -65 -14 -65 -49c0 -27 23 -45 56 -66
l67 -44c64 -42 114 -87 114 -178c0 -133 -109 -202 -243 -202zM388 816c-38 0 -72 20 -72 66c0 52 46 96 96 96c38 0 72 -20 72 -66c0 -52 -46 -96 -96 -96zM276 700l-76 132l68 38l106 -96h4l150 96l56 -44l-120 -126h-188z" />
    <glyph glyph-name="uni015E" unicode="&#x15e;" 
d="M110 -244v66c76 4 102 14 108 42c2 18 -10 32 -70 40l61 89c-89 15 -152 65 -190 126l103 91c36 -55 85 -85 142 -85c51 0 84 18 84 53c0 33 -28 50 -73 77l-55 33c-60 36 -110 92 -110 179c0 121 102 195 230 195c95 0 179 -48 225 -113l-101 -87c-30 35 -71 65 -124 65
c-35 0 -65 -14 -65 -49c0 -27 23 -45 56 -66l67 -44c64 -42 114 -87 114 -178c0 -121 -90 -189 -206 -200l-32 -50c50 -12 72 -34 66 -76c-14 -72 -96 -104 -230 -108z" />
    <glyph glyph-name="uni0218" unicode="&#x218;" 
d="M269 -12c-122 0 -204 57 -250 131l103 91c36 -55 85 -85 142 -85c51 0 84 18 84 53c0 33 -28 50 -73 77l-55 33c-60 36 -110 92 -110 179c0 121 102 195 230 195c95 0 179 -48 225 -113l-101 -87c-30 35 -71 65 -124 65c-35 0 -65 -14 -65 -49c0 -27 23 -45 56 -66
l67 -44c64 -42 114 -87 114 -178c0 -133 -109 -202 -243 -202zM115 -244l3 66c77 4 105 18 105 40c0 12 -11 28 -54 28l44 60c111 -4 135 -35 135 -74c0 -82 -100 -116 -233 -120z" />
    <glyph glyph-name="uni1E60" unicode="&#x1e60;" 
d="M269 -12c-122 0 -204 57 -250 131l103 91c36 -55 85 -85 142 -85c51 0 84 18 84 53c0 33 -28 50 -73 77l-55 33c-60 36 -110 92 -110 179c0 121 102 195 230 195c95 0 179 -48 225 -113l-101 -87c-30 35 -71 65 -124 65c-35 0 -65 -14 -65 -49c0 -27 23 -45 56 -66
l67 -44c64 -42 114 -87 114 -178c0 -133 -109 -202 -243 -202zM372 698c-42 0 -84 24 -84 74c0 48 42 90 96 90c42 0 84 -26 84 -74c0 -52 -42 -90 -96 -90z" />
    <glyph glyph-name="uni1E62" unicode="&#x1e62;" 
d="M269 -12c-122 0 -204 57 -250 131l103 91c36 -55 85 -85 142 -85c51 0 84 18 84 53c0 33 -28 50 -73 77l-55 33c-60 36 -110 92 -110 179c0 121 102 195 230 195c95 0 179 -48 225 -113l-101 -87c-30 35 -71 65 -124 65c-35 0 -65 -14 -65 -49c0 -27 23 -45 56 -66
l67 -44c64 -42 114 -87 114 -178c0 -133 -109 -202 -243 -202zM224 -256c-50 0 -98 28 -98 87c0 56 49 105 112 105c57 0 99 -30 99 -87c0 -60 -50 -105 -113 -105z" />
    <glyph glyph-name="uni1E9E" unicode="&#x1e9e;" 
d="M344 -12c-69 0 -123 34 -147 62l71 100c18 -20 38 -32 64 -32c36 0 62 24 62 62c0 48 -36 74 -94 90l8 90l112 143c-12 19 -36 33 -65 33c-60 0 -97 -38 -113 -116l-84 -420h-160l90 444c28 138 116 218 274 218c104 0 186 -60 204 -175l-114 -146
c44 -24 100 -75 100 -159c0 -116 -82 -194 -208 -194z" />
    <glyph glyph-name="Tcaron" unicode="&#x164;" 
d="M158 0l102 516h-190l26 134h540l-26 -134h-190l-102 -516h-160zM292 700l-76 132l78 44l98 -90h4l138 90l66 -50l-120 -126h-188z" />
    <glyph glyph-name="uni0162" unicode="&#x162;" 
d="M158 0l102 516h-190l26 134h540l-26 -134h-190l-102 -516h-26l-38 -60c50 -12 72 -34 66 -76c-14 -72 -96 -104 -230 -108v66c76 4 102 14 108 42c2 18 -10 32 -70 40l66 96h-36z" />
    <glyph glyph-name="uni021A" unicode="&#x21a;" 
d="M158 0l102 516h-190l26 134h540l-26 -134h-190l-102 -516h-160zM91 -244l3 66c77 4 105 18 105 40c0 12 -11 28 -54 28l44 60c111 -4 135 -35 135 -74c0 -82 -100 -116 -233 -120z" />
    <glyph glyph-name="uni1E6C" unicode="&#x1e6c;" 
d="M158 0l102 516h-190l26 134h540l-26 -134h-190l-102 -516h-160zM200 -256c-50 0 -98 28 -98 87c0 56 49 105 112 105c57 0 99 -30 99 -87c0 -60 -50 -105 -113 -105z" />
    <glyph glyph-name="uni1E6E" unicode="&#x1e6e;" 
d="M158 0l102 516h-190l26 134h540l-26 -134h-190l-102 -516h-160zM54 -194l20 100h294l-20 -100h-294z" />
    <glyph glyph-name="Tbar" unicode="&#x166;" 
d="M82 280l14 70l72 6h60l32 160h-190l26 134h540l-26 -134h-190l-32 -160h134l-16 -76h-133l-55 -280h-160l55 280h-131z" />
    <glyph glyph-name="Ugrave" unicode="&#xd9;" 
d="M247 -12c-135 0 -199 86 -199 208c0 40 4 74 12 112l68 342h160l-72 -362c-5 -27 -12 -54 -12 -80c0 -54 22 -82 64 -82c56 0 84 30 108 150l74 374h156l-76 -382c-42 -210 -130 -280 -283 -280zM398 670l-175 136l109 101l156 -159z" />
    <glyph glyph-name="Uacute" unicode="&#xda;" 
d="M247 -12c-135 0 -199 86 -199 208c0 40 4 74 12 112l68 342h160l-72 -362c-5 -27 -12 -54 -12 -80c0 -54 22 -82 64 -82c56 0 84 30 108 150l74 374h156l-76 -382c-42 -210 -130 -280 -283 -280zM332 680l-61 92l207 127l70 -117z" />
    <glyph glyph-name="Ucircumflex" unicode="&#xdb;" 
d="M247 -12c-135 0 -199 86 -199 208c0 40 4 74 12 112l68 342h160l-72 -362c-5 -27 -12 -54 -12 -80c0 -54 22 -82 64 -82c56 0 84 30 108 150l74 374h156l-76 -382c-42 -210 -130 -280 -283 -280zM252 680l-66 50l120 126h188l76 -132l-78 -44l-98 90h-4z" />
    <glyph glyph-name="Utilde" unicode="&#x168;" 
d="M247 -12c-135 0 -199 86 -199 208c0 40 4 74 12 112l68 342h160l-72 -362c-5 -27 -12 -54 -12 -80c0 -54 22 -82 64 -82c56 0 84 30 108 150l74 374h156l-76 -382c-42 -210 -130 -280 -283 -280zM448 686c-70 0 -98 52 -126 52c-16 0 -30 -8 -40 -42l-108 8
c26 110 89 152 162 152c70 0 98 -52 126 -52c16 0 30 8 40 42l108 -8c-26 -110 -89 -152 -162 -152z" />
    <glyph glyph-name="Udieresis" unicode="&#xdc;" 
d="M247 -12c-135 0 -199 86 -199 208c0 40 4 74 12 112l68 342h160l-72 -362c-5 -27 -12 -54 -12 -80c0 -54 22 -82 64 -82c56 0 84 30 108 150l74 374h156l-76 -382c-42 -210 -130 -280 -283 -280zM274 696c-36 0 -64 24 -64 64s34 84 82 84c34 0 64 -24 64 -64
s-34 -84 -82 -84zM494 696c-36 0 -64 24 -64 64s34 84 82 84c34 0 64 -24 64 -64s-34 -84 -82 -84z" />
    <glyph glyph-name="Umacron" unicode="&#x16a;" 
d="M247 -12c-135 0 -199 86 -199 208c0 40 4 74 12 112l68 342h160l-72 -362c-5 -27 -12 -54 -12 -80c0 -54 22 -82 64 -82c56 0 84 30 108 150l74 374h156l-76 -382c-42 -210 -130 -280 -283 -280zM232 716l20 102h300l-20 -102h-300z" />
    <glyph glyph-name="Ubreve" unicode="&#x16c;" 
d="M247 -12c-135 0 -199 86 -199 208c0 40 4 74 12 112l68 342h160l-72 -362c-5 -27 -12 -54 -12 -80c0 -54 22 -82 64 -82c56 0 84 30 108 150l74 374h156l-76 -382c-42 -210 -130 -280 -283 -280zM376 694c-105 0 -156 47 -150 150l96 16c1 -46 30 -68 72 -68s73 23 92 68
l88 -16c-28 -102 -94 -150 -198 -150z" />
    <glyph glyph-name="Uring" unicode="&#x16e;" 
d="M247 -12c-135 0 -199 86 -199 208c0 40 4 74 12 112l68 342h160l-72 -362c-5 -27 -12 -54 -12 -80c0 -54 22 -82 64 -82c56 0 84 30 108 150l74 374h156l-76 -382c-42 -210 -130 -280 -283 -280zM390 696c-61 0 -114 26 -114 88s59 114 130 114c59 0 114 -28 114 -88
c0 -64 -58 -114 -130 -114zM392 756c23 0 44 22 44 48c0 18 -11 34 -32 34c-25 0 -44 -24 -44 -48c0 -18 11 -34 32 -34z" />
    <glyph glyph-name="Uhungarumlaut" unicode="&#x170;" 
d="M247 -12c-135 0 -199 86 -199 208c0 40 4 74 12 112l68 342h160l-72 -362c-5 -27 -12 -54 -12 -80c0 -54 22 -82 64 -82c56 0 84 30 108 150l74 374h156l-76 -382c-42 -210 -130 -280 -283 -280zM308 693l-76 47l132 153l97 -69zM506 693l-76 47l132 153l97 -69z" />
    <glyph glyph-name="uni01D3" unicode="&#x1d3;" 
d="M247 -12c-135 0 -199 86 -199 208c0 40 4 74 12 112l68 342h160l-72 -362c-5 -27 -12 -54 -12 -80c0 -54 22 -82 64 -82c56 0 84 30 108 150l74 374h156l-76 -382c-42 -210 -130 -280 -283 -280zM292 700l-76 132l78 44l98 -90h4l138 90l66 -50l-120 -126h-188z" />
    <glyph glyph-name="Uogonek" unicode="&#x172;" 
d="M216 -228c-62 0 -104 30 -104 82c0 60 54 114 92 138c-98 14 -156 86 -156 204c0 40 4 74 12 112l68 342h160l-72 -362c-5 -27 -12 -54 -12 -80c0 -54 22 -82 64 -82c56 0 84 30 108 150l74 374h156l-76 -382c-30 -150 -75 -227 -202 -278c-59 -24 -92 -55 -92 -84
c0 -20 18 -32 40 -32c10 0 18 2 30 8l30 -76c-32 -22 -82 -34 -120 -34z" />
    <glyph glyph-name="uni01D5" unicode="&#x1d5;" 
d="M247 -12c-135 0 -199 86 -199 208c0 40 4 74 12 112l68 342h160l-72 -362c-5 -27 -12 -54 -12 -80c0 -54 22 -82 64 -82c56 0 84 30 108 150l74 374h156l-76 -382c-42 -210 -130 -280 -283 -280zM264 696c-32 0 -56 22 -56 56c0 36 30 74 72 74c32 0 56 -22 56 -56
c0 -36 -30 -74 -72 -74zM478 696c-32 0 -56 22 -56 56c0 36 30 74 72 74c32 0 56 -22 56 -56c0 -36 -30 -74 -72 -74zM250 872l14 74h302l-16 -74h-300z" />
    <glyph glyph-name="uni01D7" unicode="&#x1d7;" 
d="M247 -12c-135 0 -199 86 -199 208c0 40 4 74 12 112l68 342h160l-72 -362c-5 -27 -12 -54 -12 -80c0 -54 22 -82 64 -82c56 0 84 30 108 150l74 374h156l-76 -382c-42 -210 -130 -280 -283 -280zM264 696c-32 0 -56 22 -56 56c0 36 30 74 72 74c32 0 56 -22 56 -56
c0 -36 -30 -74 -72 -74zM478 696c-32 0 -56 22 -56 56c0 36 30 74 72 74c32 0 56 -22 56 -56c0 -36 -30 -74 -72 -74zM406 829l-66 50l123 144l94 -72z" />
    <glyph glyph-name="uni01D9" unicode="&#x1d9;" 
d="M247 -12c-135 0 -199 86 -199 208c0 40 4 74 12 112l68 342h160l-72 -362c-5 -27 -12 -54 -12 -80c0 -54 22 -82 64 -82c56 0 84 30 108 150l74 374h156l-76 -382c-42 -210 -130 -280 -283 -280zM264 696c-32 0 -56 22 -56 56c0 36 30 74 72 74c32 0 56 -22 56 -56
c0 -36 -30 -74 -72 -74zM478 696c-32 0 -56 22 -56 56c0 36 30 74 72 74c32 0 56 -22 56 -56c0 -36 -30 -74 -72 -74zM322 860l-70 104l74 44l80 -72h4l104 72l62 -44l-106 -104h-148z" />
    <glyph glyph-name="uni01DB" unicode="&#x1db;" 
d="M247 -12c-135 0 -199 86 -199 208c0 40 4 74 12 112l68 342h160l-72 -362c-5 -27 -12 -54 -12 -80c0 -54 22 -82 64 -82c56 0 84 30 108 150l74 374h156l-76 -382c-42 -210 -130 -280 -283 -280zM264 696c-32 0 -56 22 -56 56c0 36 30 74 72 74c32 0 56 -22 56 -56
c0 -36 -30 -74 -72 -74zM478 696c-32 0 -56 22 -56 56c0 36 30 74 72 74c32 0 56 -22 56 -56c0 -36 -30 -74 -72 -74zM370 825l-104 143l118 54l68 -160z" />
    <glyph glyph-name="uni1EE4" unicode="&#x1ee4;" 
d="M247 -12c-135 0 -199 86 -199 208c0 40 4 74 12 112l68 342h160l-72 -362c-5 -27 -12 -54 -12 -80c0 -54 22 -82 64 -82c56 0 84 30 108 150l74 374h156l-76 -382c-42 -210 -130 -280 -283 -280zM194 -256c-50 0 -98 28 -98 87c0 56 49 105 112 105c57 0 99 -30 99 -87
c0 -60 -50 -105 -113 -105z" />
    <glyph glyph-name="uni1EE6" unicode="&#x1ee6;" 
d="M247 -12c-135 0 -199 86 -199 208c0 40 4 74 12 112l68 342h160l-72 -362c-5 -27 -12 -54 -12 -80c0 -54 22 -82 64 -82c56 0 84 30 108 150l74 374h156l-76 -382c-42 -210 -130 -280 -283 -280zM312 688l1 66c23 3 42 8 45 24s-15 26 -73 30l37 84
c137 -4 172 -42 161 -96c-14 -72 -88 -104 -171 -108z" />
    <glyph glyph-name="Uhorn" unicode="&#x1af;" 
d="M247 -12c-135 0 -199 86 -199 208c0 40 4 74 12 112l68 342h160l-72 -362c-5 -27 -12 -54 -12 -80c0 -54 22 -82 64 -82c56 0 84 30 108 150l74 374h93c50 8 75 36 75 82c0 16 -5 43 -12 60l118 36c12 -27 18 -58 18 -84c0 -84 -47 -131 -147 -150l-65 -326
c-42 -210 -130 -280 -283 -280z" />
    <glyph glyph-name="uni1EE8" unicode="&#x1ee8;" 
d="M247 -12c-135 0 -199 86 -199 208c0 40 4 74 12 112l68 342h160l-72 -362c-5 -27 -12 -54 -12 -80c0 -54 22 -82 64 -82c56 0 84 30 108 150l74 374h93c50 8 75 36 75 82c0 16 -5 43 -12 60l118 36c12 -27 18 -58 18 -84c0 -84 -47 -131 -147 -150l-65 -326
c-42 -210 -130 -280 -283 -280zM332 680l-61 92l207 127l70 -117z" />
    <glyph glyph-name="uni1EEA" unicode="&#x1eea;" 
d="M247 -12c-135 0 -199 86 -199 208c0 40 4 74 12 112l68 342h160l-72 -362c-5 -27 -12 -54 -12 -80c0 -54 22 -82 64 -82c56 0 84 30 108 150l74 374h93c50 8 75 36 75 82c0 16 -5 43 -12 60l118 36c12 -27 18 -58 18 -84c0 -84 -47 -131 -147 -150l-65 -326
c-42 -210 -130 -280 -283 -280zM398 670l-175 136l109 101l156 -159z" />
    <glyph glyph-name="uni1EEC" unicode="&#x1eec;" 
d="M247 -12c-135 0 -199 86 -199 208c0 40 4 74 12 112l68 342h160l-72 -362c-5 -27 -12 -54 -12 -80c0 -54 22 -82 64 -82c56 0 84 30 108 150l74 374h93c50 8 75 36 75 82c0 16 -5 43 -12 60l118 36c12 -27 18 -58 18 -84c0 -84 -47 -131 -147 -150l-65 -326
c-42 -210 -130 -280 -283 -280zM312 688l1 66c23 3 42 8 45 24s-15 26 -73 30l37 84c137 -4 172 -42 161 -96c-14 -72 -88 -104 -171 -108z" />
    <glyph glyph-name="uni1EEE" unicode="&#x1eee;" 
d="M247 -12c-135 0 -199 86 -199 208c0 40 4 74 12 112l68 342h160l-72 -362c-5 -27 -12 -54 -12 -80c0 -54 22 -82 64 -82c56 0 84 30 108 150l74 374h93c50 8 75 36 75 82c0 16 -5 43 -12 60l118 36c12 -27 18 -58 18 -84c0 -84 -47 -131 -147 -150l-65 -326
c-42 -210 -130 -280 -283 -280zM448 686c-70 0 -98 52 -126 52c-16 0 -30 -8 -40 -42l-108 8c26 110 89 152 162 152c70 0 98 -52 126 -52c16 0 30 8 40 42l108 -8c-26 -110 -89 -152 -162 -152z" />
    <glyph glyph-name="uni1EF0" unicode="&#x1ef0;" 
d="M247 -12c-135 0 -199 86 -199 208c0 40 4 74 12 112l68 342h160l-72 -362c-5 -27 -12 -54 -12 -80c0 -54 22 -82 64 -82c56 0 84 30 108 150l74 374h93c50 8 75 36 75 82c0 16 -5 43 -12 60l118 36c12 -27 18 -58 18 -84c0 -84 -47 -131 -147 -150l-65 -326
c-42 -210 -130 -280 -283 -280zM194 -256c-50 0 -98 28 -98 87c0 56 49 105 112 105c57 0 99 -30 99 -87c0 -60 -50 -105 -113 -105z" />
    <glyph glyph-name="uni1E7E" unicode="&#x1e7e;" 
d="M129 0l-54 650h168l12 -304c2 -68 4 -137 4 -206h4c26 64 65 158 86 206l132 304h176l-334 -650h-194zM194 -256c-50 0 -98 28 -98 87c0 56 49 105 112 105c57 0 99 -30 99 -87c0 -60 -50 -105 -113 -105z" />
    <glyph glyph-name="Wgrave" unicode="&#x1e80;" 
d="M14 0l58 651h152l-52 -336c-6 -42 -18 -117 -27 -167h5c19 55 41 117 62 167l73 171h96l6 -171c1 -32 0 -110 -1 -167h5c11 51 26 114 39 168l81 335h152l-198 -651h-174l6 193c1 42 3 89 6 126h-3c-11 -39 -26 -84 -41 -126l-67 -193h-178zM388 670l-175 136l109 101
l156 -159z" />
    <glyph glyph-name="Wacute" unicode="&#x1e82;" 
d="M14 0l58 651h152l-52 -336c-6 -42 -18 -117 -27 -167h5c19 55 41 117 62 167l73 171h96l6 -171c1 -32 0 -110 -1 -167h5c11 51 26 114 39 168l81 335h152l-198 -651h-174l6 193c1 42 3 89 6 126h-3c-11 -39 -26 -84 -41 -126l-67 -193h-178zM322 680l-61 92l207 127
l70 -117z" />
    <glyph glyph-name="Wcircumflex" unicode="&#x174;" 
d="M14 0l58 651h152l-52 -336c-6 -42 -18 -117 -27 -167h5c19 55 41 117 62 167l73 171h96l6 -171c1 -32 0 -110 -1 -167h5c11 51 26 114 39 168l81 335h152l-198 -651h-174l6 193c1 42 3 89 6 126h-3c-11 -39 -26 -84 -41 -126l-67 -193h-178zM242 680l-66 50l120 126h188
l76 -132l-78 -44l-98 90h-4z" />
    <glyph glyph-name="Wdieresis" unicode="&#x1e84;" 
d="M14 0l58 651h152l-52 -336c-6 -42 -18 -117 -27 -167h5c19 55 41 117 62 167l73 171h96l6 -171c1 -32 0 -110 -1 -167h5c11 51 26 114 39 168l81 335h152l-198 -651h-174l6 193c1 42 3 89 6 126h-3c-11 -39 -26 -84 -41 -126l-67 -193h-178zM264 696c-36 0 -64 24 -64 64
s34 84 82 84c34 0 64 -24 64 -64s-34 -84 -82 -84zM484 696c-36 0 -64 24 -64 64s34 84 82 84c34 0 64 -24 64 -64s-34 -84 -82 -84z" />
    <glyph glyph-name="Ygrave" unicode="&#x1ef2;" 
d="M157 0l40 200l-117 451h166l29 -160c9 -50 19 -106 28 -158h4c29 52 58 107 87 158l91 160h168l-299 -467l-39 -184h-158zM388 670l-175 136l109 101l156 -159z" />
    <glyph glyph-name="Yacute" unicode="&#xdd;" 
d="M157 0l40 200l-117 451h166l29 -160c9 -50 19 -106 28 -158h4c29 52 58 107 87 158l91 160h168l-299 -467l-39 -184h-158zM322 680l-61 92l207 127l70 -117z" />
    <glyph glyph-name="Ycircumflex" unicode="&#x176;" 
d="M157 0l40 200l-117 451h166l29 -160c9 -50 19 -106 28 -158h4c29 52 58 107 87 158l91 160h168l-299 -467l-39 -184h-158zM242 680l-66 50l120 126h188l76 -132l-78 -44l-98 90h-4z" />
    <glyph glyph-name="Ydieresis" unicode="&#x178;" 
d="M157 0l40 200l-117 451h166l29 -160c9 -50 19 -106 28 -158h4c29 52 58 107 87 158l91 160h168l-299 -467l-39 -184h-158zM264 696c-36 0 -64 24 -64 64s34 84 82 84c34 0 64 -24 64 -64s-34 -84 -82 -84zM484 696c-36 0 -64 24 -64 64s34 84 82 84c34 0 64 -24 64 -64
s-34 -84 -82 -84z" />
    <glyph glyph-name="uni1E8E" unicode="&#x1e8e;" 
d="M157 0l40 200l-117 451h166l29 -160c9 -50 19 -106 28 -158h4c29 52 58 107 87 158l91 160h168l-299 -467l-39 -184h-158zM378 698c-42 0 -84 24 -84 74c0 48 42 90 96 90c42 0 84 -26 84 -74c0 -52 -42 -90 -96 -90z" />
    <glyph glyph-name="uni1EF4" unicode="&#x1ef4;" 
d="M157 0l40 200l-117 451h166l29 -160c9 -50 19 -106 28 -158h4c29 52 58 107 87 158l91 160h168l-299 -467l-39 -184h-158zM198 -256c-50 0 -98 28 -98 87c0 56 49 105 112 105c57 0 99 -30 99 -87c0 -60 -50 -105 -113 -105z" />
    <glyph glyph-name="uni1EF6" unicode="&#x1ef6;" 
d="M157 0l40 200l-117 451h166l29 -160c9 -50 19 -106 28 -158h4c29 52 58 107 87 158l91 160h168l-299 -467l-39 -184h-158zM302 688l1 66c23 3 42 8 45 24s-15 26 -73 30l37 84c137 -4 172 -42 161 -96c-14 -72 -88 -104 -171 -108z" />
    <glyph glyph-name="uni1EF8" unicode="&#x1ef8;" 
d="M157 0l40 200l-117 451h166l29 -160c9 -50 19 -106 28 -158h4c29 52 58 107 87 158l91 160h168l-299 -467l-39 -184h-158zM438 686c-70 0 -98 52 -126 52c-16 0 -30 -8 -40 -42l-108 8c26 110 89 152 162 152c70 0 98 -52 126 -52c16 0 30 8 40 42l108 -8
c-26 -110 -89 -152 -162 -152z" />
    <glyph glyph-name="Zacute" unicode="&#x179;" 
d="M491 0h-487l19 95l344 424h-260l27 132h468l-19 -95l-344 -424h279zM322 680l-61 92l207 127l70 -117z" />
    <glyph glyph-name="Zcaron" unicode="&#x17d;" 
d="M491 0h-487l19 95l344 424h-260l27 132h468l-19 -95l-344 -424h279zM282 700l-76 132l78 44l98 -90h4l138 90l66 -50l-120 -126h-188z" />
    <glyph glyph-name="Zdotaccent" unicode="&#x17b;" 
d="M491 0h-487l19 95l344 424h-260l27 132h468l-19 -95l-344 -424h279zM378 698c-42 0 -84 24 -84 74c0 48 42 90 96 90c42 0 84 -26 84 -74c0 -52 -42 -90 -96 -90z" />
    <glyph glyph-name="uni1E90" unicode="&#x1e90;" 
d="M491 0h-487l19 95l344 424h-260l27 132h468l-19 -95l-344 -424h279zM242 680l-66 50l120 126h188l76 -132l-78 -44l-98 90h-4z" />
    <glyph glyph-name="uni1E92" unicode="&#x1e92;" 
d="M491 0h-487l19 95l344 424h-260l27 132h468l-19 -95l-344 -424h279zM224 -256c-50 0 -98 28 -98 87c0 56 49 105 112 105c57 0 99 -30 99 -87c0 -60 -50 -105 -113 -105z" />
    <glyph glyph-name="uni1E94" unicode="&#x1e94;" 
d="M491 0h-487l19 95l344 424h-260l27 132h468l-19 -95l-344 -424h279zM78 -194l20 100h294l-20 -100h-294z" />
    <glyph glyph-name="Eth" unicode="&#xd0;" 
d="M8 0l60 298h-70l14 70l71 6l55 276h152c172 0 278 -80 278 -256c0 -264 -152 -394 -346 -394h-214zM194 128h24c98 0 186 68 186 256c0 102 -52 138 -118 138h-14l-29 -148h103l-16 -76h-102z" />
    <glyph glyph-name="Thorn" unicode="&#xde;" 
d="M8 0l130 650h160l-20 -96h78c118 0 212 -48 212 -178c0 -190 -146 -260 -308 -260h-70l-22 -116h-160zM216 242h62c84 0 132 38 132 110c0 52 -32 76 -86 76h-72z" />
    <glyph glyph-name="uni018F" unicode="&#x18f;" 
d="M236 -12c-122 0 -196 91 -196 237c0 68 15 121 24 150h347c1 9 1 18 1 28c0 82 -31 126 -89 126c-54 0 -96 -23 -131 -45l-63 109c53 37 133 70 229 70c137 0 211 -92 211 -247c0 -254 -141 -428 -333 -428zM260 118c57 0 107 52 133 142h-196c-14 -98 17 -142 63 -142z
" />
    <glyph glyph-name="Eng" unicode="&#x14a;" 
d="M320 -12c-38 0 -85 6 -105 19l58 127c6 -4 16 -8 27 -8c54 0 106 146 106 290c0 77 -20 108 -53 108c-31 0 -67 -22 -108 -67l-89 -457h-160l130 650h152l-12 -58c44 46 98 70 152 70c90 0 152 -66 152 -236c0 -236 -96 -438 -250 -438z" />
    <glyph glyph-name="IJ" unicode="&#x132;" 
d="M0 0l130 650h160l-130 -650h-160zM278 -182c-36 0 -68 6 -104 24l48 114c14 -8 28 -12 42 -12c32 0 44 20 56 72l126 634h160l-128 -642c-22 -104 -76 -190 -200 -190z" />
    <glyph glyph-name="uni004C00B7004C" 
d="M-28 0l130 650h152l-104 -516h96l-26 -134h-248zM265 306c-42 0 -64 31 -56 70c8 38 42 70 84 70s64 -32 56 -70c-8 -39 -42 -70 -84 -70zM284 0l130 650h152l-104 -516h96l-26 -134h-248z" />
    <glyph glyph-name="uni01320301" 
d="M0 0l130 650h160l-130 -650h-160zM278 -182c-36 0 -68 6 -104 24l48 114c14 -8 28 -12 42 -12c32 0 44 20 56 72l126 634h160l-128 -642c-22 -104 -76 -190 -200 -190zM176 680l-61 92l207 127l70 -117zM488 680l-61 92l207 127l70 -117z" />
    <glyph glyph-name="agrave" unicode="&#xe0;" 
d="M189 -12c-99 0 -161 70 -161 194c0 184 128 330 266 330c64 0 110 -24 132 -62h4l22 50h128l-100 -500h-130v66h-4c-46 -50 -104 -78 -157 -78zM250 118c32 0 74 20 108 70l33 156c-14 26 -46 38 -67 38c-68 0 -130 -74 -130 -180c0 -59 22 -84 56 -84zM392 569l-162 173
l136 102l124 -199z" />
    <glyph glyph-name="aacute" unicode="&#xe1;" 
d="M189 -12c-99 0 -161 70 -161 194c0 184 128 330 266 330c64 0 110 -24 132 -62h4l22 50h128l-100 -500h-130v66h-4c-46 -50 -104 -78 -157 -78zM250 118c32 0 74 20 108 70l33 156c-14 26 -46 38 -67 38c-68 0 -130 -74 -130 -180c0 -59 22 -84 56 -84zM342 578l-69 90
l191 172l95 -122z" />
    <glyph glyph-name="acircumflex" unicode="&#xe2;" 
d="M189 -12c-99 0 -161 70 -161 194c0 184 128 330 266 330c64 0 110 -24 132 -62h4l22 50h128l-100 -500h-130v66h-4c-46 -50 -104 -78 -157 -78zM250 118c32 0 74 20 108 70l33 156c-14 26 -46 38 -67 38c-68 0 -130 -74 -130 -180c0 -59 22 -84 56 -84zM222 558l-54 64
l128 124h176l84 -128l-70 -60l-110 88h-4z" />
    <glyph glyph-name="atilde" unicode="&#xe3;" 
d="M189 -12c-99 0 -161 70 -161 194c0 184 128 330 266 330c64 0 110 -24 132 -62h4l22 50h128l-100 -500h-130v66h-4c-46 -50 -104 -78 -157 -78zM250 118c32 0 74 20 108 70l33 156c-14 26 -46 38 -67 38c-68 0 -130 -74 -130 -180c0 -59 22 -84 56 -84zM434 572
c-65 0 -86 56 -124 56c-16 0 -32 -10 -38 -46l-104 6c18 113 75 158 150 158c65 0 86 -56 124 -56c16 0 32 10 38 46l104 -6c-18 -113 -75 -158 -150 -158z" />
    <glyph glyph-name="adieresis" unicode="&#xe4;" 
d="M189 -12c-99 0 -161 70 -161 194c0 184 128 330 266 330c64 0 110 -24 132 -62h4l22 50h128l-100 -500h-130v66h-4c-46 -50 -104 -78 -157 -78zM250 118c32 0 74 20 108 70l33 156c-14 26 -46 38 -67 38c-68 0 -130 -74 -130 -180c0 -59 22 -84 56 -84zM254 566
c-37 0 -66 23 -66 66s36 82 84 82c37 0 66 -25 66 -66c0 -46 -36 -82 -84 -82zM474 566c-37 0 -66 23 -66 66s36 82 84 82c37 0 66 -25 66 -66c0 -46 -36 -82 -84 -82z" />
    <glyph glyph-name="amacron" unicode="&#x101;" 
d="M189 -12c-99 0 -161 70 -161 194c0 184 128 330 266 330c64 0 110 -24 132 -62h4l22 50h128l-100 -500h-130v66h-4c-46 -50 -104 -78 -157 -78zM250 118c32 0 74 20 108 70l33 156c-14 26 -46 38 -67 38c-68 0 -130 -74 -130 -180c0 -59 22 -84 56 -84zM216 590l20 100
h294l-20 -100h-294z" />
    <glyph glyph-name="abreve" unicode="&#x103;" 
d="M189 -12c-99 0 -161 70 -161 194c0 184 128 330 266 330c64 0 110 -24 132 -62h4l22 50h128l-100 -500h-130v66h-4c-46 -50 -104 -78 -157 -78zM250 118c32 0 74 20 108 70l33 156c-14 26 -46 38 -67 38c-68 0 -130 -74 -130 -180c0 -59 22 -84 56 -84zM360 572
c-117 0 -160 66 -146 160l100 16c-2 -40 18 -70 66 -70s76 30 90 70l92 -16c-18 -94 -84 -160 -202 -160z" />
    <glyph glyph-name="aring" unicode="&#xe5;" 
d="M189 -12c-99 0 -161 70 -161 194c0 184 128 330 266 330c64 0 110 -24 132 -62h4l22 50h128l-100 -500h-130v66h-4c-46 -50 -104 -78 -157 -78zM250 118c32 0 74 20 108 70l33 156c-14 26 -46 38 -67 38c-68 0 -130 -74 -130 -180c0 -59 22 -84 56 -84zM362 570
c-71 0 -122 34 -122 92c0 66 65 116 154 116c72 0 122 -34 122 -92c0 -66 -65 -116 -154 -116zM372 630c24 0 44 24 44 52c0 18 -10 36 -32 36c-24 0 -44 -24 -44 -52c0 -20 10 -36 32 -36z" />
    <glyph glyph-name="aringacute" unicode="&#x1fb;" 
d="M189 -12c-99 0 -161 70 -161 194c0 184 128 330 266 330c64 0 110 -24 132 -62h4l22 50h128l-100 -500h-130v66h-4c-46 -50 -104 -78 -157 -78zM250 118c32 0 74 20 108 70l33 156c-14 26 -46 38 -67 38c-68 0 -130 -74 -130 -180c0 -59 22 -84 56 -84zM362 570
c-71 0 -122 34 -122 92c0 39 22 72 59 93l157 141l69 -66l-92 -56c51 -10 83 -41 83 -88c0 -66 -65 -116 -154 -116zM372 630c24 0 44 24 44 52c0 18 -10 36 -32 36c-24 0 -44 -24 -44 -52c0 -20 10 -36 32 -36z" />
    <glyph glyph-name="uni01CE" unicode="&#x1ce;" 
d="M189 -12c-99 0 -161 70 -161 194c0 184 128 330 266 330c64 0 110 -24 132 -62h4l22 50h128l-100 -500h-130v66h-4c-46 -50 -104 -78 -157 -78zM250 118c32 0 74 20 108 70l33 156c-14 26 -46 38 -67 38c-68 0 -130 -74 -130 -180c0 -59 22 -84 56 -84zM282 580l-84 128
l70 60l110 -88h4l150 88l54 -64l-128 -124h-176z" />
    <glyph glyph-name="aogonek" unicode="&#x105;" 
d="M352 -228c-60 0 -102 30 -102 88c0 68 64 122 100 142v64h-4c-46 -50 -104 -78 -157 -78c-99 0 -161 70 -161 194c0 184 128 330 266 330c64 0 110 -24 132 -62h4l22 50h128l-100 -500c-90 -24 -116 -62 -116 -94c0 -26 22 -40 46 -40c14 0 24 2 40 10l26 -64
c-32 -24 -76 -40 -124 -40zM250 118c32 0 74 20 108 70l33 156c-14 26 -46 38 -67 38c-68 0 -130 -74 -130 -180c0 -59 22 -84 56 -84z" />
    <glyph glyph-name="uni1EA1" unicode="&#x1ea1;" 
d="M189 -12c-99 0 -161 70 -161 194c0 184 128 330 266 330c64 0 110 -24 132 -62h4l22 50h128l-100 -500h-130v66h-4c-46 -50 -104 -78 -157 -78zM250 118c32 0 74 20 108 70l33 156c-14 26 -46 38 -67 38c-68 0 -130 -74 -130 -180c0 -59 22 -84 56 -84zM214 -256
c-50 0 -98 28 -98 87c0 56 49 105 112 105c57 0 99 -30 99 -87c0 -60 -50 -105 -113 -105z" />
    <glyph glyph-name="uni1EA3" unicode="&#x1ea3;" 
d="M189 -12c-99 0 -161 70 -161 194c0 184 128 330 266 330c64 0 110 -24 132 -62h4l22 50h128l-100 -500h-130v66h-4c-46 -50 -104 -78 -157 -78zM250 118c32 0 74 20 108 70l33 156c-14 26 -46 38 -67 38c-68 0 -130 -74 -130 -180c0 -59 22 -84 56 -84zM305 566l1 66
c22 3 41 10 45 30c5 22 -13 36 -70 40l30 104c146 -4 181 -58 167 -132c-14 -72 -91 -104 -173 -108z" />
    <glyph glyph-name="uni1EA5" unicode="&#x1ea5;" 
d="M189 -12c-99 0 -161 70 -161 194c0 184 128 330 266 330c64 0 110 -24 132 -62h4l22 50h128l-100 -500h-130v66h-4c-46 -50 -104 -78 -157 -78zM250 118c32 0 74 20 108 70l33 156c-14 26 -46 38 -67 38c-68 0 -130 -74 -130 -180c0 -59 22 -84 56 -84zM253 564l-46 64
l106 88h136l74 -96l-62 -56l-88 66h-4zM543 641l-54 55l98 122l79 -66z" />
    <glyph glyph-name="uni1EA7" unicode="&#x1ea7;" 
d="M189 -12c-99 0 -161 70 -161 194c0 184 128 330 266 330c64 0 110 -24 132 -62h4l22 50h128l-100 -500h-130v66h-4c-46 -50 -104 -78 -157 -78zM250 118c32 0 74 20 108 70l33 156c-14 26 -46 38 -67 38c-68 0 -130 -74 -130 -180c0 -59 22 -84 56 -84zM253 564l-46 64
l106 88h136l74 -96l-62 -56l-88 66h-4zM159 637l-80 130l100 49l53 -135z" />
    <glyph glyph-name="uni1EA9" unicode="&#x1ea9;" 
d="M189 -12c-99 0 -161 70 -161 194c0 184 128 330 266 330c64 0 110 -24 132 -62h4l22 50h128l-100 -500h-130v66h-4c-46 -50 -104 -78 -157 -78zM250 118c32 0 74 20 108 70l33 156c-14 26 -46 38 -67 38c-68 0 -130 -74 -130 -180c0 -59 22 -84 56 -84zM254 564l-46 64
l106 88h136l74 -96l-62 -56l-88 66h-4zM515 648l1 56c16 3 27 8 30 24s-8 26 -58 30l30 70c121 -4 151 -36 142 -82c-14 -70 -74 -90 -145 -98z" />
    <glyph glyph-name="uni1EAB" unicode="&#x1eab;" 
d="M189 -12c-99 0 -161 70 -161 194c0 184 128 330 266 330c64 0 110 -24 132 -62h4l22 50h128l-100 -500h-130v66h-4c-46 -50 -104 -78 -157 -78zM250 118c32 0 74 20 108 70l33 156c-14 26 -46 38 -67 38c-68 0 -130 -74 -130 -180c0 -59 22 -84 56 -84zM262 564l-46 64
l102 78h136l78 -86l-62 -56l-92 56h-4zM446 718c-54 0 -68 42 -94 42c-14 0 -26 -10 -38 -36l-74 8c25 86 66 120 118 120c54 0 68 -42 94 -42c14 0 26 10 36 36l74 -8c-23 -86 -64 -120 -116 -120z" />
    <glyph glyph-name="uni1EAD" unicode="&#x1ead;" 
d="M189 -12c-99 0 -161 70 -161 194c0 184 128 330 266 330c64 0 110 -24 132 -62h4l22 50h128l-100 -500h-130v66h-4c-46 -50 -104 -78 -157 -78zM250 118c32 0 74 20 108 70l33 156c-14 26 -46 38 -67 38c-68 0 -130 -74 -130 -180c0 -59 22 -84 56 -84zM222 558l-54 64
l128 124h176l84 -128l-70 -60l-110 88h-4zM214 -256c-50 0 -98 28 -98 87c0 56 49 105 112 105c57 0 99 -30 99 -87c0 -60 -50 -105 -113 -105z" />
    <glyph glyph-name="uni1EAF" unicode="&#x1eaf;" 
d="M189 -12c-99 0 -161 70 -161 194c0 184 128 330 266 330c64 0 110 -24 132 -62h4l22 50h128l-100 -500h-130v66h-4c-46 -50 -104 -78 -157 -78zM250 118c32 0 74 20 108 70l33 156c-14 26 -46 38 -67 38c-68 0 -130 -74 -130 -180c0 -59 22 -84 56 -84zM358 572
c-117 0 -160 66 -146 160l90 16c-1 -46 20 -80 74 -80s87 34 102 80l82 -16c-18 -94 -84 -160 -202 -160zM390 709l-64 56l122 138l86 -82z" />
    <glyph glyph-name="uni1EB1" unicode="&#x1eb1;" 
d="M189 -12c-99 0 -161 70 -161 194c0 184 128 330 266 330c64 0 110 -24 132 -62h4l22 50h128l-100 -500h-130v66h-4c-46 -50 -104 -78 -157 -78zM250 118c32 0 74 20 108 70l33 156c-14 26 -46 38 -67 38c-68 0 -130 -74 -130 -180c0 -59 22 -84 56 -84zM358 572
c-117 0 -160 66 -146 160l90 16c-1 -46 20 -80 74 -80s87 34 102 80l82 -16c-18 -94 -84 -160 -202 -160zM372 705l-99 133l113 65l69 -155z" />
    <glyph glyph-name="uni1EB3" unicode="&#x1eb3;" 
d="M189 -12c-99 0 -161 70 -161 194c0 184 128 330 266 330c64 0 110 -24 132 -62h4l22 50h128l-100 -500h-130v66h-4c-46 -50 -104 -78 -157 -78zM250 118c32 0 74 20 108 70l33 156c-14 26 -46 38 -67 38c-68 0 -130 -74 -130 -180c0 -59 22 -84 56 -84zM358 572
c-117 0 -159 66 -143 160l89 16c-2 -46 18 -80 72 -80s88 34 104 80l83 -16c-20 -94 -87 -160 -205 -160zM345 703l1 56c17 3 28 8 31 24s-8 26 -58 30l33 91c121 -4 149 -45 138 -103c-13 -70 -73 -90 -145 -98z" />
    <glyph glyph-name="uni1EB5" unicode="&#x1eb5;" 
d="M189 -12c-99 0 -161 70 -161 194c0 184 128 330 266 330c64 0 110 -24 132 -62h4l22 50h128l-100 -500h-130v66h-4c-46 -50 -104 -78 -157 -78zM250 118c32 0 74 20 108 70l33 156c-14 26 -46 38 -67 38c-68 0 -130 -74 -130 -180c0 -59 22 -84 56 -84zM358 572
c-106 0 -144 52 -138 116l84 14c3 -24 19 -46 68 -46c50 0 74 22 84 46l80 -14c-18 -64 -72 -116 -178 -116zM438 716c-54 0 -68 42 -94 42c-14 0 -26 -10 -36 -36l-84 8c23 86 69 120 126 120c54 0 68 -42 94 -42c14 0 26 10 38 36l84 -8c-25 -86 -71 -120 -128 -120z" />
    <glyph glyph-name="uni1EB7" unicode="&#x1eb7;" 
d="M189 -12c-99 0 -161 70 -161 194c0 184 128 330 266 330c64 0 110 -24 132 -62h4l22 50h128l-100 -500h-130v66h-4c-46 -50 -104 -78 -157 -78zM250 118c32 0 74 20 108 70l33 156c-14 26 -46 38 -67 38c-68 0 -130 -74 -130 -180c0 -59 22 -84 56 -84zM360 572
c-117 0 -160 66 -146 160l100 16c-2 -40 18 -70 66 -70s76 30 90 70l92 -16c-18 -94 -84 -160 -202 -160zM214 -256c-50 0 -98 28 -98 87c0 56 49 105 112 105c57 0 99 -30 99 -87c0 -60 -50 -105 -113 -105z" />
    <glyph glyph-name="ae" unicode="&#xe6;" 
d="M106 -12c-84 0 -124 53 -124 120c0 119 76 182 259 212c7 38 -8 68 -44 68c-34 0 -63 -11 -99 -34l-52 92c52 40 116 66 192 66c47 0 82 -25 99 -63c41 44 88 63 136 63c85 0 122 -78 122 -164c0 -71 -18 -121 -28 -144h-224v-20c0 -49 25 -74 65 -74c30 0 56 6 88 28
l44 -98c-42 -34 -102 -52 -146 -52c-66 0 -115 25 -144 66c-43 -43 -88 -66 -144 -66zM158 108c20 0 43 14 61 30c-1 8 -1 16 -1 24c0 23 1 44 4 61c-74 -16 -96 -47 -96 -81c0 -22 12 -34 32 -34zM440 390c-32 0 -61 -34 -79 -86h108c3 13 4 25 4 37c0 30 -9 49 -33 49z
" />
    <glyph glyph-name="aeacute" unicode="&#x1fd;" 
d="M106 -12c-84 0 -124 53 -124 120c0 119 76 182 259 212c7 38 -8 68 -44 68c-34 0 -63 -11 -99 -34l-52 92c52 40 116 66 192 66c47 0 82 -25 99 -63c41 44 88 63 136 63c85 0 122 -78 122 -164c0 -71 -18 -121 -28 -144h-224v-20c0 -49 25 -74 65 -74c30 0 56 6 88 28
l44 -98c-42 -34 -102 -52 -146 -52c-66 0 -115 25 -144 66c-43 -43 -88 -66 -144 -66zM158 108c20 0 43 14 61 30c-1 8 -1 16 -1 24c0 23 1 44 4 61c-74 -16 -96 -47 -96 -81c0 -22 12 -34 32 -34zM440 390c-32 0 -61 -34 -79 -86h108c3 13 4 25 4 37c0 30 -9 49 -33 49z
M336 578l-69 90l191 172l95 -122z" />
    <glyph glyph-name="uni01E3" unicode="&#x1e3;" 
d="M106 -12c-84 0 -124 53 -124 120c0 119 76 182 259 212c7 38 -8 68 -44 68c-34 0 -63 -11 -99 -34l-52 92c52 40 116 66 192 66c47 0 82 -25 99 -63c41 44 88 63 136 63c85 0 122 -78 122 -164c0 -71 -18 -121 -28 -144h-224v-20c0 -49 25 -74 65 -74c30 0 56 6 88 28
l44 -98c-42 -34 -102 -52 -146 -52c-66 0 -115 25 -144 66c-43 -43 -88 -66 -144 -66zM158 108c20 0 43 14 61 30c-1 8 -1 16 -1 24c0 23 1 44 4 61c-74 -16 -96 -47 -96 -81c0 -22 12 -34 32 -34zM440 390c-32 0 -61 -34 -79 -86h108c3 13 4 25 4 37c0 30 -9 49 -33 49z
M210 590l20 100h294l-20 -100h-294z" />
    <glyph glyph-name="uni0180" unicode="&#x180;" 
d="M294 -12c-54 0 -106 24 -130 62h-2l-22 -50h-132l111 553h-65l14 69l66 5l14 69h160l-14 -68h175l-15 -75h-175l-5 -23l-30 -106h2c43 44 100 68 148 68c106 0 164 -66 164 -184c0 -180 -128 -320 -264 -320zM270 118c62 0 122 70 122 170c0 52 -26 74 -62 74
c-32 0 -70 -20 -104 -76l-26 -130c14 -26 42 -38 70 -38z" />
    <glyph glyph-name="uni1E07" unicode="&#x1e07;" 
d="M294 -12c-54 0 -106 24 -130 62h-2l-22 -50h-132l140 696h160l-30 -146l-30 -106h2c43 44 100 68 148 68c104 0 162 -70 162 -194c0 -184 -128 -330 -266 -330zM270 118c63 0 124 74 124 180c0 60 -26 84 -60 84c-32 0 -70 -20 -104 -76l-30 -150c14 -26 42 -38 70 -38z
M58 -194l20 100h294l-20 -100h-294z" />
    <glyph glyph-name="ccedilla" unicode="&#xe7;" 
d="M130 -244v66c76 4 102 14 108 42c2 18 -10 32 -70 40l63 91c-98 22 -173 92 -173 211c0 184 142 306 306 306c90 0 158 -46 194 -92l-96 -88c-32 34 -70 50 -108 50c-68 0 -134 -70 -134 -162c0 -70 50 -102 104 -102c47 0 78 23 114 52l55 -108
c-44 -41 -99 -68 -168 -73l-31 -49c50 -12 72 -34 66 -76c-14 -72 -96 -104 -230 -108z" />
    <glyph glyph-name="cacute" unicode="&#x107;" 
d="M300 -12c-130 0 -242 72 -242 218c0 184 142 306 306 306c90 0 158 -46 194 -92l-96 -88c-32 34 -70 50 -108 50c-68 0 -134 -70 -134 -162c0 -70 50 -102 104 -102c47 0 78 23 114 52l55 -108c-49 -46 -113 -74 -193 -74zM376 578l-69 90l191 172l95 -122z" />
    <glyph glyph-name="ccircumflex" unicode="&#x109;" 
d="M300 -12c-130 0 -242 72 -242 218c0 184 142 306 306 306c90 0 158 -46 194 -92l-96 -88c-32 34 -70 50 -108 50c-68 0 -134 -70 -134 -162c0 -70 50 -102 104 -102c47 0 78 23 114 52l55 -108c-49 -46 -113 -74 -193 -74zM256 558l-54 64l128 124h176l84 -128l-70 -60
l-110 88h-4z" />
    <glyph glyph-name="ccaron" unicode="&#x10d;" 
d="M300 -12c-130 0 -242 72 -242 218c0 184 142 306 306 306c90 0 158 -46 194 -92l-96 -88c-32 34 -70 50 -108 50c-68 0 -134 -70 -134 -162c0 -70 50 -102 104 -102c47 0 78 23 114 52l55 -108c-49 -46 -113 -74 -193 -74zM316 580l-84 128l70 60l110 -88h4l150 88
l54 -64l-128 -124h-176z" />
    <glyph glyph-name="cdotaccent" unicode="&#x10b;" 
d="M300 -12c-130 0 -242 72 -242 218c0 184 142 306 306 306c90 0 158 -46 194 -92l-96 -88c-32 34 -70 50 -108 50c-68 0 -134 -70 -134 -162c0 -70 50 -102 104 -102c47 0 78 23 114 52l55 -108c-49 -46 -113 -74 -193 -74zM404 570c-50 0 -98 28 -98 87
c0 56 49 105 112 105c57 0 99 -30 99 -87c0 -60 -50 -105 -113 -105z" />
    <glyph glyph-name="dcaron" unicode="&#x10f;" 
d="M120 -12c-73 0 -120 70 -120 194c0 184 114 330 248 330c35 0 64 -16 86 -46h2l10 94l26 136h160l-140 -696h-130l-4 46h-2c-42 -44 -91 -58 -136 -58zM200 118c20 0 40 8 66 50l38 186c-8 18 -20 28 -36 28c-52 0 -102 -74 -102 -180c0 -59 16 -84 34 -84zM546 548
l46 276h148l-24 -104l-68 -172h-102z" />
    <glyph glyph-name="uni1E0D" unicode="&#x1e0d;" 
d="M188 -12c-98 0 -160 70 -160 194c0 184 128 330 266 330c64 0 102 -22 126 -56h2l10 94l28 146h160l-140 -696h-130v66h-4c-46 -50 -104 -78 -158 -78zM250 118c32 0 74 20 108 70l32 156c-14 26 -45 38 -66 38c-68 0 -130 -74 -130 -180c0 -58 22 -84 56 -84zM214 -256
c-50 0 -98 28 -98 87c0 56 49 105 112 105c57 0 99 -30 99 -87c0 -60 -50 -105 -113 -105z" />
    <glyph glyph-name="uni1E0F" unicode="&#x1e0f;" 
d="M188 -12c-98 0 -160 70 -160 194c0 184 128 330 266 330c64 0 102 -22 126 -56h2l10 94l28 146h160l-140 -696h-130v66h-4c-46 -50 -104 -78 -158 -78zM250 118c32 0 74 20 108 70l32 156c-14 26 -45 38 -66 38c-68 0 -130 -74 -130 -180c0 -58 22 -84 56 -84zM68 -194
l20 100h294l-20 -100h-294z" />
    <glyph glyph-name="uni1E11" unicode="&#x1e11;" 
d="M250 118c32 0 74 20 108 70l32 156c-14 26 -45 38 -66 38c-68 0 -130 -74 -130 -180c0 -58 22 -84 56 -84zM60 -244v66c76 4 102 14 108 42c2 18 -10 32 -70 40l59 86c-80 14 -129 82 -129 192c0 184 128 330 266 330c64 0 102 -22 126 -56h2l10 94l28 146h160l-140 -696
h-130v66h-4c-24 -26 -51 -46 -79 -59l-43 -67c50 -12 72 -34 66 -76c-14 -72 -96 -104 -230 -108z" />
    <glyph glyph-name="dcroat" unicode="&#x111;" 
d="M176 -12c-98 0 -160 70 -160 194c0 172 116 310 262 310c64 0 102 -22 126 -56h2l10 94l5 24h-151l15 74h150l13 68h160l-14 -68h66l-14 -68l-66 -5l-112 -555h-130v66h-4c-46 -50 -104 -78 -158 -78zM238 118c32 0 74 20 108 70l28 136c-14 26 -45 38 -66 38
c-76 0 -126 -66 -126 -160c0 -58 22 -84 56 -84z" />
    <glyph glyph-name="egrave" unicode="&#xe8;" 
d="M266 -12c-128 0 -226 68 -226 224c0 180 138 300 292 300c132 0 208 -80 208 -198c0 -44 -12 -92 -18 -110h-321c5 -75 52 -94 103 -94c54 0 96 20 142 48l52 -106c-62 -42 -142 -64 -232 -64zM328 390c-37 0 -87 -26 -112 -86h177c1 4 1 9 1 13c0 49 -26 73 -66 73z
M386 569l-162 173l136 102l124 -199z" />
    <glyph glyph-name="eacute" unicode="&#xe9;" 
d="M266 -12c-128 0 -226 68 -226 224c0 180 138 300 292 300c132 0 208 -80 208 -198c0 -44 -12 -92 -18 -110h-321c5 -75 52 -94 103 -94c54 0 96 20 142 48l52 -106c-62 -42 -142 -64 -232 -64zM328 390c-37 0 -87 -26 -112 -86h177c1 4 1 9 1 13c0 49 -26 73 -66 73z
M336 578l-69 90l191 172l95 -122z" />
    <glyph glyph-name="ecircumflex" unicode="&#xea;" 
d="M266 -12c-128 0 -226 68 -226 224c0 180 138 300 292 300c132 0 208 -80 208 -198c0 -44 -12 -92 -18 -110h-321c5 -75 52 -94 103 -94c54 0 96 20 142 48l52 -106c-62 -42 -142 -64 -232 -64zM328 390c-37 0 -87 -26 -112 -86h177c1 4 1 9 1 13c0 49 -26 73 -66 73z
M216 558l-54 64l128 124h176l84 -128l-70 -60l-110 88h-4z" />
    <glyph glyph-name="ecaron" unicode="&#x11b;" 
d="M266 -12c-128 0 -226 68 -226 224c0 180 138 300 292 300c132 0 208 -80 208 -198c0 -44 -12 -92 -18 -110h-321c5 -75 52 -94 103 -94c54 0 96 20 142 48l52 -106c-62 -42 -142 -64 -232 -64zM328 390c-37 0 -87 -26 -112 -86h177c1 4 1 9 1 13c0 49 -26 73 -66 73z
M276 580l-84 128l70 60l110 -88h4l150 88l54 -64l-128 -124h-176z" />
    <glyph glyph-name="edieresis" unicode="&#xeb;" 
d="M266 -12c-128 0 -226 68 -226 224c0 180 138 300 292 300c132 0 208 -80 208 -198c0 -44 -12 -92 -18 -110h-321c5 -75 52 -94 103 -94c54 0 96 20 142 48l52 -106c-62 -42 -142 -64 -232 -64zM328 390c-37 0 -87 -26 -112 -86h177c1 4 1 9 1 13c0 49 -26 73 -66 73z
M248 566c-37 0 -66 23 -66 66s36 82 84 82c37 0 66 -25 66 -66c0 -46 -36 -82 -84 -82zM468 566c-37 0 -66 23 -66 66s36 82 84 82c37 0 66 -25 66 -66c0 -46 -36 -82 -84 -82z" />
    <glyph glyph-name="emacron" unicode="&#x113;" 
d="M266 -12c-128 0 -226 68 -226 224c0 180 138 300 292 300c132 0 208 -80 208 -198c0 -44 -12 -92 -18 -110h-321c5 -75 52 -94 103 -94c54 0 96 20 142 48l52 -106c-62 -42 -142 -64 -232 -64zM328 390c-37 0 -87 -26 -112 -86h177c1 4 1 9 1 13c0 49 -26 73 -66 73z
M210 590l20 100h294l-20 -100h-294z" />
    <glyph glyph-name="ebreve" unicode="&#x115;" 
d="M266 -12c-128 0 -226 68 -226 224c0 180 138 300 292 300c132 0 208 -80 208 -198c0 -44 -12 -92 -18 -110h-321c5 -75 52 -94 103 -94c54 0 96 20 142 48l52 -106c-62 -42 -142 -64 -232 -64zM328 390c-37 0 -87 -26 -112 -86h177c1 4 1 9 1 13c0 49 -26 73 -66 73z
M354 572c-117 0 -160 66 -146 160l100 16c-2 -40 18 -70 66 -70s76 30 90 70l92 -16c-18 -94 -84 -160 -202 -160z" />
    <glyph glyph-name="eogonek" unicode="&#x119;" 
d="M326 -228c-60 0 -102 30 -102 88c0 60 48 104 86 132c-12 -2 -32 -4 -44 -4c-128 0 -226 68 -226 224c0 180 138 300 292 300c132 0 208 -80 208 -198c0 -44 -12 -92 -18 -110h-321c5 -75 52 -94 103 -94c54 0 96 20 142 48l52 -106c-106 -60 -160 -103 -160 -146
c0 -26 22 -40 46 -40c14 0 24 2 40 10l26 -64c-32 -24 -76 -40 -124 -40zM328 390c-37 0 -87 -26 -112 -86h177c1 4 1 9 1 13c0 49 -26 73 -66 73z" />
    <glyph glyph-name="edotaccent" unicode="&#x117;" 
d="M266 -12c-128 0 -226 68 -226 224c0 180 138 300 292 300c132 0 208 -80 208 -198c0 -44 -12 -92 -18 -110h-321c5 -75 52 -94 103 -94c54 0 96 20 142 48l52 -106c-62 -42 -142 -64 -232 -64zM328 390c-37 0 -87 -26 -112 -86h177c1 4 1 9 1 13c0 49 -26 73 -66 73z
M364 570c-50 0 -98 28 -98 87c0 56 49 105 112 105c57 0 99 -30 99 -87c0 -60 -50 -105 -113 -105z" />
    <glyph glyph-name="uni1EB9" unicode="&#x1eb9;" 
d="M266 -12c-128 0 -226 68 -226 224c0 180 138 300 292 300c132 0 208 -80 208 -198c0 -44 -12 -92 -18 -110h-321c5 -75 52 -94 103 -94c54 0 96 20 142 48l52 -106c-62 -42 -142 -64 -232 -64zM328 390c-37 0 -87 -26 -112 -86h177c1 4 1 9 1 13c0 49 -26 73 -66 73z
M220 -256c-50 0 -98 28 -98 87c0 56 49 105 112 105c57 0 99 -30 99 -87c0 -60 -50 -105 -113 -105z" />
    <glyph glyph-name="uni1EBB" unicode="&#x1ebb;" 
d="M266 -12c-128 0 -226 68 -226 224c0 180 138 300 292 300c132 0 208 -80 208 -198c0 -44 -12 -92 -18 -110h-321c5 -75 52 -94 103 -94c54 0 96 20 142 48l52 -106c-62 -42 -142 -64 -232 -64zM328 390c-37 0 -87 -26 -112 -86h177c1 4 1 9 1 13c0 49 -26 73 -66 73z
M299 566l1 66c22 3 41 10 45 30c5 22 -13 36 -70 40l30 104c146 -4 181 -58 167 -132c-14 -72 -91 -104 -173 -108z" />
    <glyph glyph-name="uni1EBD" unicode="&#x1ebd;" 
d="M266 -12c-128 0 -226 68 -226 224c0 180 138 300 292 300c132 0 208 -80 208 -198c0 -44 -12 -92 -18 -110h-321c5 -75 52 -94 103 -94c54 0 96 20 142 48l52 -106c-62 -42 -142 -64 -232 -64zM328 390c-37 0 -87 -26 -112 -86h177c1 4 1 9 1 13c0 49 -26 73 -66 73z
M428 572c-65 0 -86 56 -124 56c-16 0 -32 -10 -38 -46l-104 6c18 113 75 158 150 158c65 0 86 -56 124 -56c16 0 32 10 38 46l104 -6c-18 -113 -75 -158 -150 -158z" />
    <glyph glyph-name="uni1EBF" unicode="&#x1ebf;" 
d="M266 -12c-128 0 -226 68 -226 224c0 180 138 300 292 300c132 0 208 -80 208 -198c0 -44 -12 -92 -18 -110h-321c5 -75 52 -94 103 -94c54 0 96 20 142 48l52 -106c-62 -42 -142 -64 -232 -64zM328 390c-37 0 -87 -26 -112 -86h177c1 4 1 9 1 13c0 49 -26 73 -66 73z
M247 564l-46 64l106 88h136l74 -96l-62 -56l-88 66h-4zM537 641l-54 55l98 122l79 -66z" />
    <glyph glyph-name="uni1EC1" unicode="&#x1ec1;" 
d="M266 -12c-128 0 -226 68 -226 224c0 180 138 300 292 300c132 0 208 -80 208 -198c0 -44 -12 -92 -18 -110h-321c5 -75 52 -94 103 -94c54 0 96 20 142 48l52 -106c-62 -42 -142 -64 -232 -64zM328 390c-37 0 -87 -26 -112 -86h177c1 4 1 9 1 13c0 49 -26 73 -66 73z
M247 564l-46 64l106 88h136l74 -96l-62 -56l-88 66h-4zM153 637l-80 130l100 49l53 -135z" />
    <glyph glyph-name="uni1EC3" unicode="&#x1ec3;" 
d="M266 -12c-128 0 -226 68 -226 224c0 180 138 300 292 300c132 0 208 -80 208 -198c0 -44 -12 -92 -18 -110h-321c5 -75 52 -94 103 -94c54 0 96 20 142 48l52 -106c-62 -42 -142 -64 -232 -64zM328 390c-37 0 -87 -26 -112 -86h177c1 4 1 9 1 13c0 49 -26 73 -66 73z
M248 564l-46 64l106 88h136l74 -96l-62 -56l-88 66h-4zM509 648l1 56c16 3 27 8 30 24s-8 26 -58 30l30 70c121 -4 151 -36 142 -82c-14 -70 -74 -90 -145 -98z" />
    <glyph glyph-name="uni1EC5" unicode="&#x1ec5;" 
d="M266 -12c-128 0 -226 68 -226 224c0 180 138 300 292 300c132 0 208 -80 208 -198c0 -44 -12 -92 -18 -110h-321c5 -75 52 -94 103 -94c54 0 96 20 142 48l52 -106c-62 -42 -142 -64 -232 -64zM328 390c-37 0 -87 -26 -112 -86h177c1 4 1 9 1 13c0 49 -26 73 -66 73z
M256 564l-46 64l102 78h136l78 -86l-62 -56l-92 56h-4zM440 718c-54 0 -68 42 -94 42c-14 0 -26 -10 -38 -36l-74 8c25 86 66 120 118 120c54 0 68 -42 94 -42c14 0 26 10 36 36l74 -8c-23 -86 -64 -120 -116 -120z" />
    <glyph glyph-name="uni1EC7" unicode="&#x1ec7;" 
d="M266 -12c-128 0 -226 68 -226 224c0 180 138 300 292 300c132 0 208 -80 208 -198c0 -44 -12 -92 -18 -110h-321c5 -75 52 -94 103 -94c54 0 96 20 142 48l52 -106c-62 -42 -142 -64 -232 -64zM328 390c-37 0 -87 -26 -112 -86h177c1 4 1 9 1 13c0 49 -26 73 -66 73z
M216 558l-54 64l128 124h176l84 -128l-70 -60l-110 88h-4zM220 -256c-50 0 -98 28 -98 87c0 56 49 105 112 105c57 0 99 -30 99 -87c0 -60 -50 -105 -113 -105z" />
    <glyph glyph-name="uni1E17" unicode="&#x1e17;" 
d="M266 -12c-128 0 -226 68 -226 224c0 180 138 300 292 300c132 0 208 -80 208 -198c0 -44 -12 -92 -18 -110h-321c5 -75 52 -94 103 -94c54 0 96 20 142 48l52 -106c-62 -42 -142 -64 -232 -64zM328 390c-37 0 -87 -26 -112 -86h177c1 4 1 9 1 13c0 49 -26 73 -66 73z
M210 590l20 100h294l-20 -100h-294zM396 719l-56 45l100 132l79 -66z" />
    <glyph glyph-name="uni01F5" unicode="&#x1f5;" 
d="M209 -188c-94 0 -160 28 -211 67l68 111c37 -32 89 -52 139 -52s105 6 127 76l20 64h-4c-36 -34 -92 -58 -144 -58c-105 0 -168 74 -168 186c0 180 128 306 258 306c64 0 110 -24 132 -62h4l24 50h126l-96 -478c-33 -163 -149 -210 -275 -210zM262 150c34 0 68 17 98 50
l30 142c-18 26 -41 40 -69 40c-51 0 -119 -54 -119 -152c0 -56 20 -80 60 -80zM342 578l-69 90l191 172l95 -122z" />
    <glyph glyph-name="gcircumflex" unicode="&#x11d;" 
d="M209 -188c-94 0 -160 28 -211 67l68 111c37 -32 89 -52 139 -52s105 6 127 76l20 64h-4c-36 -34 -92 -58 -144 -58c-105 0 -168 74 -168 186c0 180 128 306 258 306c64 0 110 -24 132 -62h4l24 50h126l-96 -478c-33 -163 -149 -210 -275 -210zM262 150c34 0 68 17 98 50
l30 142c-18 26 -41 40 -69 40c-51 0 -119 -54 -119 -152c0 -56 20 -80 60 -80zM222 558l-54 64l128 124h176l84 -128l-70 -60l-110 88h-4z" />
    <glyph glyph-name="gbreve" unicode="&#x11f;" 
d="M209 -188c-94 0 -160 28 -211 67l68 111c37 -32 89 -52 139 -52s105 6 127 76l20 64h-4c-36 -34 -92 -58 -144 -58c-105 0 -168 74 -168 186c0 180 128 306 258 306c64 0 110 -24 132 -62h4l24 50h126l-96 -478c-33 -163 -149 -210 -275 -210zM262 150c34 0 68 17 98 50
l30 142c-18 26 -41 40 -69 40c-51 0 -119 -54 -119 -152c0 -56 20 -80 60 -80zM360 572c-117 0 -160 66 -146 160l100 16c-2 -40 18 -70 66 -70s76 30 90 70l92 -16c-18 -94 -84 -160 -202 -160z" />
    <glyph glyph-name="gdotaccent" unicode="&#x121;" 
d="M209 -188c-94 0 -160 28 -211 67l68 111c37 -32 89 -52 139 -52s105 6 127 76l20 64h-4c-36 -34 -92 -58 -144 -58c-105 0 -168 74 -168 186c0 180 128 306 258 306c64 0 110 -24 132 -62h4l24 50h126l-96 -478c-33 -163 -149 -210 -275 -210zM262 150c34 0 68 17 98 50
l30 142c-18 26 -41 40 -69 40c-51 0 -119 -54 -119 -152c0 -56 20 -80 60 -80zM370 570c-50 0 -98 28 -98 87c0 56 49 105 112 105c57 0 99 -30 99 -87c0 -60 -50 -105 -113 -105z" />
    <glyph glyph-name="uni0123" unicode="&#x123;" 
d="M209 -188c-94 0 -160 28 -211 67l68 111c37 -32 89 -52 139 -52s105 6 127 76l20 64h-4c-36 -34 -92 -58 -144 -58c-105 0 -168 74 -168 186c0 180 128 306 258 306c64 0 110 -24 132 -62h4l24 50h126l-96 -478c-33 -163 -149 -210 -275 -210zM262 150c34 0 68 17 98 50
l30 142c-18 26 -41 40 -69 40c-51 0 -119 -54 -119 -152c0 -56 20 -80 60 -80zM390 546c-73 7 -107 29 -107 69c0 81 84 117 206 121l-1 -62c-51 -5 -89 -14 -89 -41c0 -14 8 -23 32 -30z" />
    <glyph glyph-name="gcaron" unicode="&#x1e7;" 
d="M209 -188c-94 0 -160 28 -211 67l68 111c37 -32 89 -52 139 -52s105 6 127 76l20 64h-4c-36 -34 -92 -58 -144 -58c-105 0 -168 74 -168 186c0 180 128 306 258 306c64 0 110 -24 132 -62h4l24 50h126l-96 -478c-33 -163 -149 -210 -275 -210zM262 150c34 0 68 17 98 50
l30 142c-18 26 -41 40 -69 40c-51 0 -119 -54 -119 -152c0 -56 20 -80 60 -80zM282 580l-84 128l70 60l110 -88h4l150 88l54 -64l-128 -124h-176z" />
    <glyph glyph-name="uni1E21" unicode="&#x1e21;" 
d="M209 -188c-94 0 -160 28 -211 67l68 111c37 -32 89 -52 139 -52s105 6 127 76l20 64h-4c-36 -34 -92 -58 -144 -58c-105 0 -168 74 -168 186c0 180 128 306 258 306c64 0 110 -24 132 -62h4l24 50h126l-96 -478c-33 -163 -149 -210 -275 -210zM262 150c34 0 68 17 98 50
l30 142c-18 26 -41 40 -69 40c-51 0 -119 -54 -119 -152c0 -56 20 -80 60 -80zM216 590l20 100h294l-20 -100h-294z" />
    <glyph glyph-name="uni00670303" 
d="M209 -188c-94 0 -160 28 -211 67l68 111c37 -32 89 -52 139 -52s105 6 127 76l20 64h-4c-36 -34 -92 -58 -144 -58c-105 0 -168 74 -168 186c0 180 128 306 258 306c64 0 110 -24 132 -62h4l24 50h126l-96 -478c-33 -163 -149 -210 -275 -210zM262 150c34 0 68 17 98 50
l30 142c-18 26 -41 40 -69 40c-51 0 -119 -54 -119 -152c0 -56 20 -80 60 -80zM434 572c-65 0 -86 56 -124 56c-16 0 -32 -10 -38 -46l-104 6c18 113 75 158 150 158c65 0 86 -56 124 -56c16 0 32 10 38 46l104 -6c-18 -113 -75 -158 -150 -158z" />
    <glyph glyph-name="hcircumflex" unicode="&#x125;" 
d="M8 0l140 696h160l-38 -184l-26 -88h4c46 50 111 88 172 88c82 0 130 -44 130 -130c0 -22 -3 -48 -8 -72l-62 -310h-160l58 290c4 18 7 33 7 45c0 28 -15 41 -41 41c-33 0 -79 -26 -118 -78l-58 -298h-160zM112 740l-66 50l120 126h188l76 -132l-78 -44l-98 90h-4z" />
    <glyph glyph-name="uni1E27" unicode="&#x1e27;" 
d="M8 0l140 696h160l-38 -184l-26 -88h4c46 50 111 88 172 88c82 0 130 -44 130 -130c0 -22 -3 -48 -8 -72l-62 -310h-160l58 290c4 18 7 33 7 45c0 28 -15 41 -41 41c-33 0 -79 -26 -118 -78l-58 -298h-160zM134 756c-36 0 -64 24 -64 64s34 84 82 84c34 0 64 -24 64 -64
s-34 -84 -82 -84zM354 756c-36 0 -64 24 -64 64s34 84 82 84c34 0 64 -24 64 -64s-34 -84 -82 -84z" />
    <glyph glyph-name="uni1E25" unicode="&#x1e25;" 
d="M8 0l140 696h160l-38 -184l-26 -88h4c46 50 111 88 172 88c82 0 130 -44 130 -130c0 -22 -3 -48 -8 -72l-62 -310h-160l58 290c4 18 7 33 7 45c0 28 -15 41 -41 41c-33 0 -79 -26 -118 -78l-58 -298h-160zM214 -256c-50 0 -98 28 -98 87c0 56 49 105 112 105
c57 0 99 -30 99 -87c0 -60 -50 -105 -113 -105z" />
    <glyph glyph-name="uni1E96" unicode="&#x1e96;" 
d="M8 0l140 696h160l-38 -184l-26 -88h4c46 50 111 88 172 88c82 0 130 -44 130 -130c0 -22 -3 -48 -8 -72l-62 -310h-160l58 290c4 18 7 33 7 45c0 28 -15 41 -41 41c-33 0 -79 -26 -118 -78l-58 -298h-160zM68 -194l20 100h294l-20 -100h-294z" />
    <glyph glyph-name="uni1E29" unicode="&#x1e29;" 
d="M8 0l140 696h160l-38 -184l-26 -88h4c46 50 111 88 172 88c82 0 130 -44 130 -130c0 -22 -3 -48 -8 -72l-62 -310h-160l58 290c4 18 7 33 7 45c0 28 -15 41 -41 41c-33 0 -79 -26 -118 -78l-58 -298h-26l-38 -60c50 -12 72 -34 66 -76c-14 -72 -96 -104 -230 -108v66
c76 4 102 14 108 42c2 18 -10 32 -70 40l66 96h-36z" />
    <glyph glyph-name="uni1E2B" unicode="&#x1e2b;" 
d="M8 0l140 696h160l-38 -184l-26 -88h4c46 50 111 88 172 88c82 0 130 -44 130 -130c0 -22 -3 -48 -8 -72l-62 -310h-160l58 290c4 18 7 33 7 45c0 28 -15 41 -41 41c-33 0 -79 -26 -118 -78l-58 -298h-160zM208 -234c-117 0 -160 66 -146 160l100 16c-2 -40 18 -70 66 -70
s76 30 90 70l92 -16c-18 -94 -84 -160 -202 -160z" />
    <glyph glyph-name="hbar" unicode="&#x127;" 
d="M10 0l111 554h-67l14 68l68 5l14 69h160l-14 -68h174l-14 -74h-175l-13 -64l-26 -88h4c46 50 111 88 172 88c82 0 130 -44 130 -130c0 -22 -3 -48 -8 -72l-58 -288h-160l54 268c4 18 7 33 7 45c0 28 -15 41 -41 41c-33 0 -79 -26 -118 -78l-54 -276h-160z" />
    <glyph glyph-name="igrave" unicode="&#xec;" 
d="M340 -12c-102 0 -168 58 -168 150c0 20 4 40 10 62l46 176h-158l26 124h318l-74 -306c-2 -8 -4 -16 -4 -24c0 -37 22 -52 54 -52c22 0 42 6 72 18l32 -120c-44 -18 -90 -28 -154 -28zM366 569l-162 173l136 102l124 -199z" />
    <glyph glyph-name="iacute" unicode="&#xed;" 
d="M340 -12c-102 0 -168 58 -168 150c0 20 4 40 10 62l46 176h-158l26 124h318l-74 -306c-2 -8 -4 -16 -4 -24c0 -37 22 -52 54 -52c22 0 42 6 72 18l32 -120c-44 -18 -90 -28 -154 -28zM316 578l-69 90l191 172l95 -122z" />
    <glyph glyph-name="icircumflex" unicode="&#xee;" 
d="M340 -12c-102 0 -168 58 -168 150c0 20 4 40 10 62l46 176h-158l26 124h318l-74 -306c-2 -8 -4 -16 -4 -24c0 -37 22 -52 54 -52c22 0 42 6 72 18l32 -120c-44 -18 -90 -28 -154 -28zM196 558l-54 64l128 124h176l84 -128l-70 -60l-110 88h-4z" />
    <glyph glyph-name="itilde" unicode="&#x129;" 
d="M340 -12c-102 0 -168 58 -168 150c0 20 4 40 10 62l46 176h-158l26 124h318l-74 -306c-2 -8 -4 -16 -4 -24c0 -37 22 -52 54 -52c22 0 42 6 72 18l32 -120c-44 -18 -90 -28 -154 -28zM408 572c-65 0 -86 56 -124 56c-16 0 -32 -10 -38 -46l-104 6c18 113 75 158 150 158
c65 0 86 -56 124 -56c16 0 32 10 38 46l104 -6c-18 -113 -75 -158 -150 -158z" />
    <glyph glyph-name="idieresis" unicode="&#xef;" 
d="M340 -12c-102 0 -168 58 -168 150c0 20 4 40 10 62l46 176h-158l26 124h318l-74 -306c-2 -8 -4 -16 -4 -24c0 -37 22 -52 54 -52c22 0 42 6 72 18l32 -120c-44 -18 -90 -28 -154 -28zM228 566c-37 0 -66 23 -66 66s36 82 84 82c37 0 66 -25 66 -66c0 -46 -36 -82 -84 -82
zM448 566c-37 0 -66 23 -66 66s36 82 84 82c37 0 66 -25 66 -66c0 -46 -36 -82 -84 -82z" />
    <glyph glyph-name="imacron" unicode="&#x12b;" 
d="M340 -12c-102 0 -168 58 -168 150c0 20 4 40 10 62l46 176h-158l26 124h318l-74 -306c-2 -8 -4 -16 -4 -24c0 -37 22 -52 54 -52c22 0 42 6 72 18l32 -120c-44 -18 -90 -28 -154 -28zM190 590l20 100h294l-20 -100h-294z" />
    <glyph glyph-name="uni01D0" unicode="&#x1d0;" 
d="M340 -12c-102 0 -168 58 -168 150c0 20 4 40 10 62l46 176h-158l26 124h318l-74 -306c-2 -8 -4 -16 -4 -24c0 -37 22 -52 54 -52c22 0 42 6 72 18l32 -120c-44 -18 -90 -28 -154 -28zM256 580l-84 128l70 60l110 -88h4l150 88l54 -64l-128 -124h-176z" />
    <glyph glyph-name="iogonek" unicode="&#x12f;" 
d="M342 -228c-60 0 -102 30 -102 88s42 96 94 128h-4c-90 0 -158 58 -158 150c0 20 4 40 10 62l46 176h-158l26 124h318l-74 -306c-2 -8 -4 -16 -4 -24c0 -37 22 -52 54 -52c22 0 42 6 72 18l32 -120c-102 -42 -140 -74 -140 -110c0 -26 22 -40 46 -40c14 0 24 2 40 10
l26 -64c-32 -24 -76 -40 -124 -40zM344 570c-50 0 -98 28 -98 87c0 56 49 105 112 105c57 0 99 -30 99 -87c0 -60 -50 -105 -113 -105z" />
    <glyph glyph-name="uni1EC9" unicode="&#x1ec9;" 
d="M340 -12c-102 0 -168 58 -168 150c0 20 4 40 10 62l46 176h-158l26 124h318l-74 -306c-2 -8 -4 -16 -4 -24c0 -37 22 -52 54 -52c22 0 42 6 72 18l32 -120c-44 -18 -90 -28 -154 -28zM279 566l1 66c22 3 41 10 45 30c5 22 -13 36 -70 40l30 104c146 -4 181 -58 167 -132
c-14 -72 -91 -104 -173 -108z" />
    <glyph glyph-name="uni1ECB" unicode="&#x1ecb;" 
d="M340 -12c-102 0 -168 58 -168 150c0 20 4 40 10 62l46 176h-158l26 124h318l-74 -306c-2 -8 -4 -16 -4 -24c0 -37 22 -52 54 -52c22 0 42 6 72 18l32 -120c-44 -18 -90 -28 -154 -28zM344 570c-50 0 -98 28 -98 87c0 56 49 105 112 105c57 0 99 -30 99 -87
c0 -60 -50 -105 -113 -105zM268 -256c-50 0 -98 28 -98 87c0 56 49 105 112 105c57 0 99 -30 99 -87c0 -60 -50 -105 -113 -105z" />
    <glyph glyph-name="ibreve" unicode="&#x12d;" 
d="M340 -12c-102 0 -168 58 -168 150c0 20 4 40 10 62l46 176h-158l26 124h318l-74 -306c-2 -8 -4 -16 -4 -24c0 -37 22 -52 54 -52c22 0 42 6 72 18l32 -120c-44 -18 -90 -28 -154 -28zM334 572c-117 0 -160 66 -146 160l100 16c-2 -40 18 -70 66 -70s76 30 90 70l92 -16
c-18 -94 -84 -160 -202 -160z" />
    <glyph glyph-name="dotlessi" unicode="&#x131;" 
d="M340 -12c-102 0 -168 58 -168 150c0 20 4 40 10 62l46 176h-158l26 124h318l-74 -306c-2 -8 -4 -16 -4 -24c0 -37 22 -52 54 -52c22 0 42 6 72 18l32 -120c-44 -18 -90 -28 -154 -28z" />
    <glyph glyph-name="jcircumflex" unicode="&#x135;" 
d="M145 -188c-79 0 -135 24 -171 48l64 112c29 -20 58 -34 96 -34c58 0 90 30 108 118l64 320h-196l26 124h354l-92 -458c-30 -148 -108 -230 -253 -230zM274 558l-54 64l128 124h176l84 -128l-70 -60l-110 88h-4z" />
    <glyph glyph-name="uni0137" unicode="&#x137;" 
d="M10 0l140 696h160l-78 -380h4l198 184h184l-223 -208l135 -292h-162l-82 195l-94 -81l-22 -114h-160zM125 -244l3 66c77 4 105 18 105 40c0 12 -11 28 -54 28l44 60c111 -4 135 -35 135 -74c0 -82 -100 -116 -233 -120z" />
    <glyph glyph-name="uni1E33" unicode="&#x1e33;" 
d="M10 0l140 696h160l-78 -380h4l198 184h184l-223 -208l135 -292h-162l-82 195l-94 -81l-22 -114h-160zM234 -256c-50 0 -98 28 -98 87c0 56 49 105 112 105c57 0 99 -30 99 -87c0 -60 -50 -105 -113 -105z" />
    <glyph glyph-name="uni1E35" unicode="&#x1e35;" 
d="M10 0l140 696h160l-78 -380h4l198 184h184l-223 -208l135 -292h-162l-82 195l-94 -81l-22 -114h-160zM88 -194l20 100h294l-20 -100h-294z" />
    <glyph glyph-name="kgreenlandic" unicode="&#x138;" 
d="M10 0l98 500h160l-36 -184h4l198 184h184l-223 -208l135 -292h-160l-83 196l-95 -82l-22 -114h-160z" />
    <glyph glyph-name="lacute" unicode="&#x13a;" 
d="M326 -12c-94 0 -160 62 -160 166c0 20 2 42 8 66l82 352h-134l26 124h292l-112 -498c-2 -8 -4 -18 -4 -34c0 -32 24 -46 52 -46c29 0 46 6 78 20l32 -118c-54 -24 -102 -32 -160 -32zM322 740l-61 92l207 127l70 -117z" />
    <glyph glyph-name="lcaron" unicode="&#x13e;" 
d="M326 -12c-94 0 -160 62 -160 166c0 20 2 42 8 66l82 352h-134l26 124h292l-112 -498c-2 -8 -4 -18 -4 -34c0 -32 24 -46 52 -46c29 0 46 6 78 20l32 -118c-54 -24 -102 -32 -160 -32zM472 548l46 276h148l-24 -104l-68 -172h-102z" />
    <glyph glyph-name="uni013C" unicode="&#x13c;" 
d="M326 -12c-94 0 -160 62 -160 166c0 20 2 42 8 66l82 352h-134l26 124h292l-112 -498c-2 -8 -4 -18 -4 -34c0 -32 24 -46 52 -46c29 0 46 6 78 20l32 -118c-54 -24 -102 -32 -160 -32zM165 -244l3 66c77 4 105 18 105 40c0 12 -11 28 -54 28l44 60c111 -4 135 -35 135 -74
c0 -82 -100 -116 -233 -120z" />
    <glyph glyph-name="uni1E37" unicode="&#x1e37;" 
d="M326 -12c-94 0 -160 62 -160 166c0 20 2 42 8 66l82 352h-134l26 124h292l-112 -498c-2 -8 -4 -18 -4 -34c0 -32 24 -46 52 -46c29 0 46 6 78 20l32 -118c-54 -24 -102 -32 -160 -32zM274 -256c-50 0 -98 28 -98 87c0 56 49 105 112 105c57 0 99 -30 99 -87
c0 -60 -50 -105 -113 -105z" />
    <glyph glyph-name="uni1E39" unicode="&#x1e39;" 
d="M326 -12c-94 0 -160 62 -160 166c0 20 2 42 8 66l82 352h-134l26 124h292l-112 -498c-2 -8 -4 -18 -4 -34c0 -32 24 -46 52 -46c29 0 46 6 78 20l32 -118c-54 -24 -102 -32 -160 -32zM222 776l20 102h300l-20 -102h-300zM274 -256c-50 0 -98 28 -98 87
c0 56 49 105 112 105c57 0 99 -30 99 -87c0 -60 -50 -105 -113 -105z" />
    <glyph glyph-name="uni1E3B" unicode="&#x1e3b;" 
d="M326 -12c-94 0 -160 62 -160 166c0 20 2 42 8 66l82 352h-134l26 124h292l-112 -498c-2 -8 -4 -18 -4 -34c0 -32 24 -46 52 -46c29 0 46 6 78 20l32 -118c-54 -24 -102 -32 -160 -32zM128 -194l20 100h294l-20 -100h-294z" />
    <glyph glyph-name="lslash" unicode="&#x142;" 
d="M326 -12c-94 0 -160 62 -160 166c0 20 2 42 8 66l10 43l-82 -41l-36 94l147 72l43 184h-134l26 124h292l-52 -232l134 68l38 -94l-200 -99l-32 -141c-2 -8 -4 -18 -4 -34c0 -32 24 -46 52 -46c29 0 46 6 78 20l32 -118c-54 -24 -102 -32 -160 -32z" />
    <glyph glyph-name="ldot" unicode="&#x140;" 
d="M274 -12c-94 0 -160 62 -160 166c0 20 2 42 8 66l82 352h-134l26 124h292l-112 -498c-2 -8 -4 -18 -4 -34c0 -32 24 -46 52 -46c29 0 46 6 78 20l32 -118c-54 -24 -102 -32 -160 -32zM544 264c-50 0 -98 28 -98 87c0 56 49 105 112 105c57 0 99 -30 99 -87
c0 -60 -50 -105 -113 -105z" />
    <glyph glyph-name="uni1E3F" unicode="&#x1e3f;" 
d="M-28 0l98 500h114v-64h4c27 39 72 76 132 76c40 0 62 -22 68 -68c32 44 76 68 128 68c48 0 78 -32 78 -90c0 -18 -2 -31 -6 -50l-76 -372h-146l70 340c2 10 2 14 2 18c0 14 -6 18 -16 18c-18 0 -32 -12 -48 -41l-69 -335h-124l71 340c2 10 2 14 2 18c0 14 -7 18 -18 18
c-18 0 -35 -11 -52 -42l-64 -334h-148zM346 578l-69 90l191 172l95 -122z" />
    <glyph glyph-name="uni1E41" unicode="&#x1e41;" 
d="M-28 0l98 500h114v-64h4c27 39 72 76 132 76c40 0 62 -22 68 -68c32 44 76 68 128 68c48 0 78 -32 78 -90c0 -18 -2 -31 -6 -50l-76 -372h-146l70 340c2 10 2 14 2 18c0 14 -6 18 -16 18c-18 0 -32 -12 -48 -41l-69 -335h-124l71 340c2 10 2 14 2 18c0 14 -7 18 -18 18
c-18 0 -35 -11 -52 -42l-64 -334h-148zM374 570c-50 0 -98 28 -98 87c0 56 49 105 112 105c57 0 99 -30 99 -87c0 -60 -50 -105 -113 -105z" />
    <glyph glyph-name="uni1E43" unicode="&#x1e43;" 
d="M-28 0l98 500h114v-64h4c27 39 72 76 132 76c40 0 62 -22 68 -68c32 44 76 68 128 68c48 0 78 -32 78 -90c0 -18 -2 -31 -6 -50l-76 -372h-146l70 340c2 10 2 14 2 18c0 14 -6 18 -16 18c-18 0 -32 -12 -48 -41l-69 -335h-124l71 340c2 10 2 14 2 18c0 14 -7 18 -18 18
c-18 0 -35 -11 -52 -42l-64 -334h-148zM214 -256c-50 0 -98 28 -98 87c0 56 49 105 112 105c57 0 99 -30 99 -87c0 -60 -50 -105 -113 -105z" />
    <glyph glyph-name="nacute" unicode="&#x144;" 
d="M8 0l98 500h129l-3 -80h4c46 46 120 92 184 92c82 0 130 -44 130 -130c0 -22 -3 -48 -8 -72l-62 -310h-160l58 290c4 18 7 33 7 45c0 28 -15 41 -41 41c-33 0 -79 -26 -118 -78l-58 -298h-160zM350 578l-69 90l191 172l95 -122z" />
    <glyph glyph-name="uni01F9" unicode="&#x1f9;" 
d="M8 0l98 500h129l-3 -80h4c46 46 120 92 184 92c82 0 130 -44 130 -130c0 -22 -3 -48 -8 -72l-62 -310h-160l58 290c4 18 7 33 7 45c0 28 -15 41 -41 41c-33 0 -79 -26 -118 -78l-58 -298h-160zM400 569l-162 173l136 102l124 -199z" />
    <glyph glyph-name="ncaron" unicode="&#x148;" 
d="M8 0l98 500h129l-3 -80h4c46 46 120 92 184 92c82 0 130 -44 130 -130c0 -22 -3 -48 -8 -72l-62 -310h-160l58 290c4 18 7 33 7 45c0 28 -15 41 -41 41c-33 0 -79 -26 -118 -78l-58 -298h-160zM290 580l-84 128l70 60l110 -88h4l150 88l54 -64l-128 -124h-176z" />
    <glyph glyph-name="ntilde" unicode="&#xf1;" 
d="M8 0l98 500h129l-3 -80h4c46 46 120 92 184 92c82 0 130 -44 130 -130c0 -22 -3 -48 -8 -72l-62 -310h-160l58 290c4 18 7 33 7 45c0 28 -15 41 -41 41c-33 0 -79 -26 -118 -78l-58 -298h-160zM442 572c-65 0 -86 56 -124 56c-16 0 -32 -10 -38 -46l-104 6
c18 113 75 158 150 158c65 0 86 -56 124 -56c16 0 32 10 38 46l104 -6c-18 -113 -75 -158 -150 -158z" />
    <glyph glyph-name="uni0146" unicode="&#x146;" 
d="M8 0l98 500h129l-3 -80h4c46 46 120 92 184 92c82 0 130 -44 130 -130c0 -22 -3 -48 -8 -72l-62 -310h-160l58 290c4 18 7 33 7 45c0 28 -15 41 -41 41c-33 0 -79 -26 -118 -78l-58 -298h-160zM105 -244l3 66c77 4 105 18 105 40c0 12 -11 28 -54 28l44 60
c111 -4 135 -35 135 -74c0 -82 -100 -116 -233 -120z" />
    <glyph glyph-name="uni1E45" unicode="&#x1e45;" 
d="M8 0l98 500h129l-3 -80h4c46 46 120 92 184 92c82 0 130 -44 130 -130c0 -22 -3 -48 -8 -72l-62 -310h-160l58 290c4 18 7 33 7 45c0 28 -15 41 -41 41c-33 0 -79 -26 -118 -78l-58 -298h-160zM378 570c-50 0 -98 28 -98 87c0 56 49 105 112 105c57 0 99 -30 99 -87
c0 -60 -50 -105 -113 -105z" />
    <glyph glyph-name="uni1E47" unicode="&#x1e47;" 
d="M8 0l98 500h129l-3 -80h4c46 46 120 92 184 92c82 0 130 -44 130 -130c0 -22 -3 -48 -8 -72l-62 -310h-160l58 290c4 18 7 33 7 45c0 28 -15 41 -41 41c-33 0 -79 -26 -118 -78l-58 -298h-160zM214 -256c-50 0 -98 28 -98 87c0 56 49 105 112 105c57 0 99 -30 99 -87
c0 -60 -50 -105 -113 -105z" />
    <glyph glyph-name="uni1E49" unicode="&#x1e49;" 
d="M8 0l98 500h129l-3 -80h4c46 46 120 92 184 92c82 0 130 -44 130 -130c0 -22 -3 -48 -8 -72l-62 -310h-160l58 290c4 18 7 33 7 45c0 28 -15 41 -41 41c-33 0 -79 -26 -118 -78l-58 -298h-160zM68 -194l20 100h294l-20 -100h-294z" />
    <glyph glyph-name="napostrophe" unicode="&#x149;" 
d="M174 0l98 500h130v-64h4c44 40 98 76 160 76c78 0 112 -44 112 -130c0 -22 -3 -48 -8 -72l-62 -310h-160l58 290c4 18 8 32 8 44c0 28 -14 42 -36 42c-24 0 -50 -19 -82 -56l-62 -320h-160zM-30 296l-18 80c84 18 136 68 151 111c-8 -2 -16 -3 -23 -3
c-40 0 -74 30 -74 88c0 70 52 124 118 124c68 0 110 -46 110 -126c0 -138 -110 -242 -264 -274z" />
    <glyph glyph-name="ograve" unicode="&#xf2;" 
d="M256 -12c-140 0 -226 88 -226 224c0 182 142 300 292 300c140 0 226 -88 226 -224c0 -182 -142 -300 -292 -300zM268 118c60 0 118 66 118 166c0 64 -30 98 -76 98c-60 0 -118 -66 -118 -166c0 -64 30 -98 76 -98zM386 569l-162 173l136 102l124 -199z" />
    <glyph glyph-name="oacute" unicode="&#xf3;" 
d="M256 -12c-140 0 -226 88 -226 224c0 182 142 300 292 300c140 0 226 -88 226 -224c0 -182 -142 -300 -292 -300zM268 118c60 0 118 66 118 166c0 64 -30 98 -76 98c-60 0 -118 -66 -118 -166c0 -64 30 -98 76 -98zM336 578l-69 90l191 172l95 -122z" />
    <glyph glyph-name="ocircumflex" unicode="&#xf4;" 
d="M256 -12c-140 0 -226 88 -226 224c0 182 142 300 292 300c140 0 226 -88 226 -224c0 -182 -142 -300 -292 -300zM268 118c60 0 118 66 118 166c0 64 -30 98 -76 98c-60 0 -118 -66 -118 -166c0 -64 30 -98 76 -98zM216 558l-54 64l128 124h176l84 -128l-70 -60l-110 88
h-4z" />
    <glyph glyph-name="otilde" unicode="&#xf5;" 
d="M256 -12c-140 0 -226 88 -226 224c0 182 142 300 292 300c140 0 226 -88 226 -224c0 -182 -142 -300 -292 -300zM268 118c60 0 118 66 118 166c0 64 -30 98 -76 98c-60 0 -118 -66 -118 -166c0 -64 30 -98 76 -98zM428 572c-65 0 -86 56 -124 56c-16 0 -32 -10 -38 -46
l-104 6c18 113 75 158 150 158c65 0 86 -56 124 -56c16 0 32 10 38 46l104 -6c-18 -113 -75 -158 -150 -158z" />
    <glyph glyph-name="odieresis" unicode="&#xf6;" 
d="M256 -12c-140 0 -226 88 -226 224c0 182 142 300 292 300c140 0 226 -88 226 -224c0 -182 -142 -300 -292 -300zM268 118c60 0 118 66 118 166c0 64 -30 98 -76 98c-60 0 -118 -66 -118 -166c0 -64 30 -98 76 -98zM248 566c-37 0 -66 23 -66 66s36 82 84 82
c37 0 66 -25 66 -66c0 -46 -36 -82 -84 -82zM468 566c-37 0 -66 23 -66 66s36 82 84 82c37 0 66 -25 66 -66c0 -46 -36 -82 -84 -82z" />
    <glyph glyph-name="omacron" unicode="&#x14d;" 
d="M256 -12c-140 0 -226 88 -226 224c0 182 142 300 292 300c140 0 226 -88 226 -224c0 -182 -142 -300 -292 -300zM268 118c60 0 118 66 118 166c0 64 -30 98 -76 98c-60 0 -118 -66 -118 -166c0 -64 30 -98 76 -98zM210 590l20 100h294l-20 -100h-294z" />
    <glyph glyph-name="ohungarumlaut" unicode="&#x151;" 
d="M256 -12c-140 0 -226 88 -226 224c0 182 142 300 292 300c140 0 226 -88 226 -224c0 -182 -142 -300 -292 -300zM268 118c60 0 118 66 118 166c0 64 -30 98 -76 98c-60 0 -118 -66 -118 -166c0 -64 30 -98 76 -98zM308 566l-82 48l120 174l104 -60zM498 566l-82 48
l120 174l104 -60z" />
    <glyph glyph-name="uni01D2" unicode="&#x1d2;" 
d="M256 -12c-140 0 -226 88 -226 224c0 182 142 300 292 300c140 0 226 -88 226 -224c0 -182 -142 -300 -292 -300zM268 118c60 0 118 66 118 166c0 64 -30 98 -76 98c-60 0 -118 -66 -118 -166c0 -64 30 -98 76 -98zM276 580l-84 128l70 60l110 -88h4l150 88l54 -64
l-128 -124h-176z" />
    <glyph glyph-name="uni01EB" unicode="&#x1eb;" 
d="M216 -228c-60 0 -102 30 -102 88c0 60 49 109 84 134c-102 18 -168 100 -168 218c0 182 142 300 292 300c140 0 226 -88 226 -224c0 -160 -102 -258 -220 -294c-78 -24 -100 -61 -100 -88c0 -26 22 -40 46 -40c14 0 24 2 40 10l26 -64c-32 -24 -76 -40 -124 -40zM268 114
c60 0 118 68 118 170c0 64 -30 98 -76 98c-60 0 -118 -66 -118 -166c0 -68 30 -102 76 -102z" />
    <glyph glyph-name="uni1ECD" unicode="&#x1ecd;" 
d="M256 -12c-140 0 -226 88 -226 224c0 182 142 300 292 300c140 0 226 -88 226 -224c0 -182 -142 -300 -292 -300zM268 118c60 0 118 66 118 166c0 64 -30 98 -76 98c-60 0 -118 -66 -118 -166c0 -64 30 -98 76 -98zM198 -256c-50 0 -98 28 -98 87c0 56 49 105 112 105
c57 0 99 -30 99 -87c0 -60 -50 -105 -113 -105z" />
    <glyph glyph-name="uni1ECF" unicode="&#x1ecf;" 
d="M256 -12c-140 0 -226 88 -226 224c0 182 142 300 292 300c140 0 226 -88 226 -224c0 -182 -142 -300 -292 -300zM268 118c60 0 118 66 118 166c0 64 -30 98 -76 98c-60 0 -118 -66 -118 -166c0 -64 30 -98 76 -98zM299 566l1 66c22 3 41 10 45 30c5 22 -13 36 -70 40
l30 104c146 -4 181 -58 167 -132c-14 -72 -91 -104 -173 -108z" />
    <glyph glyph-name="uni1ED1" unicode="&#x1ed1;" 
d="M256 -12c-140 0 -226 88 -226 224c0 182 142 300 292 300c140 0 226 -88 226 -224c0 -182 -142 -300 -292 -300zM268 118c60 0 118 66 118 166c0 64 -30 98 -76 98c-60 0 -118 -66 -118 -166c0 -64 30 -98 76 -98zM247 564l-46 64l106 88h136l74 -96l-62 -56l-88 66h-4z
M537 641l-54 55l98 122l79 -66z" />
    <glyph glyph-name="uni1ED3" unicode="&#x1ed3;" 
d="M256 -12c-140 0 -226 88 -226 224c0 182 142 300 292 300c140 0 226 -88 226 -224c0 -182 -142 -300 -292 -300zM268 118c60 0 118 66 118 166c0 64 -30 98 -76 98c-60 0 -118 -66 -118 -166c0 -64 30 -98 76 -98zM247 564l-46 64l106 88h136l74 -96l-62 -56l-88 66h-4z
M153 637l-80 130l100 49l53 -135z" />
    <glyph glyph-name="uni1ED5" unicode="&#x1ed5;" 
d="M256 -12c-140 0 -226 88 -226 224c0 182 142 300 292 300c140 0 226 -88 226 -224c0 -182 -142 -300 -292 -300zM268 118c60 0 118 66 118 166c0 64 -30 98 -76 98c-60 0 -118 -66 -118 -166c0 -64 30 -98 76 -98zM248 564l-46 64l106 88h136l74 -96l-62 -56l-88 66h-4z
M509 648l1 56c16 3 27 8 30 24s-8 26 -58 30l30 70c121 -4 151 -36 142 -82c-14 -70 -74 -90 -145 -98z" />
    <glyph glyph-name="uni1ED7" unicode="&#x1ed7;" 
d="M256 -12c-140 0 -226 88 -226 224c0 182 142 300 292 300c140 0 226 -88 226 -224c0 -182 -142 -300 -292 -300zM268 118c60 0 118 66 118 166c0 64 -30 98 -76 98c-60 0 -118 -66 -118 -166c0 -64 30 -98 76 -98zM256 564l-46 64l102 78h136l78 -86l-62 -56l-92 56h-4z
M440 718c-54 0 -68 42 -94 42c-14 0 -26 -10 -38 -36l-74 8c25 86 66 120 118 120c54 0 68 -42 94 -42c14 0 26 10 36 36l74 -8c-23 -86 -64 -120 -116 -120z" />
    <glyph glyph-name="uni1ED9" unicode="&#x1ed9;" 
d="M256 -12c-140 0 -226 88 -226 224c0 182 142 300 292 300c140 0 226 -88 226 -224c0 -182 -142 -300 -292 -300zM268 118c60 0 118 66 118 166c0 64 -30 98 -76 98c-60 0 -118 -66 -118 -166c0 -64 30 -98 76 -98zM216 558l-54 64l128 124h176l84 -128l-70 -60l-110 88
h-4zM198 -256c-50 0 -98 28 -98 87c0 56 49 105 112 105c57 0 99 -30 99 -87c0 -60 -50 -105 -113 -105z" />
    <glyph glyph-name="obreve" unicode="&#x14f;" 
d="M256 -12c-140 0 -226 88 -226 224c0 182 142 300 292 300c140 0 226 -88 226 -224c0 -182 -142 -300 -292 -300zM268 118c60 0 118 66 118 166c0 64 -30 98 -76 98c-60 0 -118 -66 -118 -166c0 -64 30 -98 76 -98zM354 572c-117 0 -160 66 -146 160l100 16
c-2 -40 18 -70 66 -70s76 30 90 70l92 -16c-18 -94 -84 -160 -202 -160z" />
    <glyph glyph-name="uni1E53" unicode="&#x1e53;" 
d="M256 -12c-140 0 -226 88 -226 224c0 182 142 300 292 300c140 0 226 -88 226 -224c0 -182 -142 -300 -292 -300zM268 118c60 0 118 66 118 166c0 64 -30 98 -76 98c-60 0 -118 -66 -118 -166c0 -64 30 -98 76 -98zM210 590l20 100h294l-20 -100h-294zM396 719l-56 45
l100 132l79 -66z" />
    <glyph glyph-name="ohorn" unicode="&#x1a1;" 
d="M256 -12c-140 0 -226 88 -226 224c0 182 142 300 292 300c41 0 78 -8 109 -22c57 8 91 48 91 120c0 20 -4 38 -10 58l118 36c12 -34 16 -54 16 -86c0 -103 -45 -155 -145 -182c31 -38 47 -89 47 -148c0 -182 -142 -300 -292 -300zM268 118c60 0 118 66 118 166
c0 64 -30 98 -76 98c-60 0 -118 -66 -118 -166c0 -64 30 -98 76 -98z" />
    <glyph glyph-name="uni1EDB" unicode="&#x1edb;" 
d="M256 -12c-140 0 -226 88 -226 224c0 182 142 300 292 300c41 0 78 -8 109 -22c57 8 91 48 91 120c0 20 -4 38 -10 58l118 36c12 -34 16 -54 16 -86c0 -103 -45 -155 -145 -182c31 -38 47 -89 47 -148c0 -182 -142 -300 -292 -300zM268 118c60 0 118 66 118 166
c0 64 -30 98 -76 98c-60 0 -118 -66 -118 -166c0 -64 30 -98 76 -98zM336 578l-69 90l191 172l95 -122z" />
    <glyph glyph-name="uni1EDD" unicode="&#x1edd;" 
d="M256 -12c-140 0 -226 88 -226 224c0 182 142 300 292 300c41 0 78 -8 109 -22c57 8 91 48 91 120c0 20 -4 38 -10 58l118 36c12 -34 16 -54 16 -86c0 -103 -45 -155 -145 -182c31 -38 47 -89 47 -148c0 -182 -142 -300 -292 -300zM268 118c60 0 118 66 118 166
c0 64 -30 98 -76 98c-60 0 -118 -66 -118 -166c0 -64 30 -98 76 -98zM386 569l-162 173l136 102l124 -199z" />
    <glyph glyph-name="uni1EDF" unicode="&#x1edf;" 
d="M256 -12c-140 0 -226 88 -226 224c0 182 142 300 292 300c41 0 78 -8 109 -22c57 8 91 48 91 120c0 20 -4 38 -10 58l118 36c12 -34 16 -54 16 -86c0 -103 -45 -155 -145 -182c31 -38 47 -89 47 -148c0 -182 -142 -300 -292 -300zM268 118c60 0 118 66 118 166
c0 64 -30 98 -76 98c-60 0 -118 -66 -118 -166c0 -64 30 -98 76 -98zM299 566l1 66c22 3 41 10 45 30c5 22 -13 36 -70 40l30 104c146 -4 181 -58 167 -132c-14 -72 -91 -104 -173 -108z" />
    <glyph glyph-name="uni1EE1" unicode="&#x1ee1;" 
d="M256 -12c-140 0 -226 88 -226 224c0 182 142 300 292 300c41 0 78 -8 109 -22c57 8 91 48 91 120c0 20 -4 38 -10 58l118 36c12 -34 16 -54 16 -86c0 -103 -45 -155 -145 -182c31 -38 47 -89 47 -148c0 -182 -142 -300 -292 -300zM268 118c60 0 118 66 118 166
c0 64 -30 98 -76 98c-60 0 -118 -66 -118 -166c0 -64 30 -98 76 -98zM368 572c-65 0 -86 56 -124 56c-16 0 -32 -10 -38 -46l-104 6c18 113 75 158 150 158c65 0 86 -56 124 -56c16 0 32 10 38 46l104 -6c-18 -113 -75 -158 -150 -158z" />
    <glyph glyph-name="uni1EE3" unicode="&#x1ee3;" 
d="M256 -12c-140 0 -226 88 -226 224c0 182 142 300 292 300c41 0 78 -8 109 -22c57 8 91 48 91 120c0 20 -4 38 -10 58l118 36c12 -34 16 -54 16 -86c0 -103 -45 -155 -145 -182c31 -38 47 -89 47 -148c0 -182 -142 -300 -292 -300zM268 118c60 0 118 66 118 166
c0 64 -30 98 -76 98c-60 0 -118 -66 -118 -166c0 -64 30 -98 76 -98zM198 -256c-50 0 -98 28 -98 87c0 56 49 105 112 105c57 0 99 -30 99 -87c0 -60 -50 -105 -113 -105z" />
    <glyph glyph-name="oslash" unicode="&#xf8;" 
d="M256 -12c-60 0 -109 16 -147 45l-61 -59l-46 46l63 61c-23 35 -35 80 -35 131c0 182 142 300 292 300c60 0 109 -16 147 -45l61 59l46 -46l-63 -61c23 -35 35 -80 35 -131c0 -182 -142 -300 -292 -300zM184 208c0 -4 0 -9 1 -13l182 175c-12 11 -29 18 -49 18
c-84 0 -134 -78 -134 -180zM260 112c84 0 134 78 134 180c0 4 0 9 -1 13l-182 -175c12 -11 29 -18 49 -18z" />
    <glyph glyph-name="oslashacute" unicode="&#x1ff;" 
d="M256 -12c-60 0 -109 16 -147 45l-61 -59l-46 46l63 61c-23 35 -35 80 -35 131c0 182 142 300 292 300c60 0 109 -16 147 -45l61 59l46 -46l-63 -61c23 -35 35 -80 35 -131c0 -182 -142 -300 -292 -300zM184 208c0 -4 0 -9 1 -13l182 175c-12 11 -29 18 -49 18
c-84 0 -134 -78 -134 -180zM260 112c84 0 134 78 134 180c0 4 0 9 -1 13l-182 -175c12 -11 29 -18 49 -18zM336 578l-69 90l191 172l95 -122z" />
    <glyph glyph-name="oe" unicode="&#x153;" 
d="M133 -12c-83 0 -141 72 -141 193c0 200 115 331 244 331c52 0 85 -23 100 -68c33 50 88 68 129 68c89 0 130 -70 130 -172c0 -60 -19 -114 -27 -136h-224v-16c0 -60 32 -78 68 -78c38 0 62 17 92 35l44 -101c-44 -36 -100 -56 -161 -56c-44 0 -94 19 -117 57
c-36 -41 -78 -57 -137 -57zM437 390c-32 0 -59 -36 -75 -86h108c2 13 3 25 3 35c0 31 -7 51 -36 51zM134 189c0 -45 10 -74 34 -74c54 0 86 106 86 195c0 44 -9 73 -34 73c-56 0 -86 -129 -86 -194z" />
    <glyph glyph-name="racute" unicode="&#x155;" 
d="M64 0l98 501l130 -1l-12 -130h4c52 90 128 142 200 142c44 0 80 -8 98 -20l-56 -138c-22 11 -46 16 -74 16c-62 0 -132 -62 -186 -164l-42 -206h-160zM376 578l-69 90l191 172l95 -122z" />
    <glyph glyph-name="uni0157" unicode="&#x157;" 
d="M64 0l98 501l130 -1l-12 -130h4c52 90 128 142 200 142c44 0 80 -8 98 -20l-56 -138c-22 11 -46 16 -74 16c-62 0 -132 -62 -186 -164l-42 -206h-160zM5 -244l3 66c77 4 105 18 105 40c0 12 -11 28 -54 28l44 60c111 -4 135 -35 135 -74c0 -82 -100 -116 -233 -120z" />
    <glyph glyph-name="rcaron" unicode="&#x159;" 
d="M64 0l98 501l130 -1l-12 -130h4c52 90 128 142 200 142c44 0 80 -8 98 -20l-56 -138c-22 11 -46 16 -74 16c-62 0 -132 -62 -186 -164l-42 -206h-160zM316 580l-84 128l70 60l110 -88h4l150 88l54 -64l-128 -124h-176z" />
    <glyph glyph-name="uni1E59" unicode="&#x1e59;" 
d="M64 0l98 501l130 -1l-12 -130h4c52 90 128 142 200 142c44 0 80 -8 98 -20l-56 -138c-22 11 -46 16 -74 16c-62 0 -132 -62 -186 -164l-42 -206h-160zM404 570c-50 0 -98 28 -98 87c0 56 49 105 112 105c57 0 99 -30 99 -87c0 -60 -50 -105 -113 -105z" />
    <glyph glyph-name="uni1E5B" unicode="&#x1e5b;" 
d="M64 0l98 501l130 -1l-12 -130h4c52 90 128 142 200 142c44 0 80 -8 98 -20l-56 -138c-22 11 -46 16 -74 16c-62 0 -132 -62 -186 -164l-42 -206h-160zM114 -256c-50 0 -98 28 -98 87c0 56 49 105 112 105c57 0 99 -30 99 -87c0 -60 -50 -105 -113 -105z" />
    <glyph glyph-name="uni1E5D" unicode="&#x1e5d;" 
d="M64 0l98 501l130 -1l-12 -130h4c52 90 128 142 200 142c44 0 80 -8 98 -20l-56 -138c-22 11 -46 16 -74 16c-62 0 -132 -62 -186 -164l-42 -206h-160zM250 590l20 100h294l-20 -100h-294zM114 -256c-50 0 -98 28 -98 87c0 56 49 105 112 105c57 0 99 -30 99 -87
c0 -60 -50 -105 -113 -105z" />
    <glyph glyph-name="uni1E5F" unicode="&#x1e5f;" 
d="M64 0l98 501l130 -1l-12 -130h4c52 90 128 142 200 142c44 0 80 -8 98 -20l-56 -138c-22 11 -46 16 -74 16c-62 0 -132 -62 -186 -164l-42 -206h-160zM-32 -194l20 100h294l-20 -100h-294z" />
    <glyph glyph-name="sacute" unicode="&#x15b;" 
d="M264 -12c-96 0 -176 36 -232 92l87 100c53 -52 113 -74 171 -74c38 0 58 10 58 28c0 22 -16 32 -86 54c-100 32 -158 78 -158 156c0 110 104 168 220 168c98 0 164 -35 212 -82l-87 -93c-40 32 -93 57 -143 57c-31 0 -52 -9 -52 -30c0 -20 22 -30 98 -56
c88 -30 146 -70 146 -152c0 -115 -102 -168 -234 -168zM346 578l-69 90l191 172l95 -122z" />
    <glyph glyph-name="scircumflex" unicode="&#x15d;" 
d="M264 -12c-96 0 -176 36 -232 92l87 100c53 -52 113 -74 171 -74c38 0 58 10 58 28c0 22 -16 32 -86 54c-100 32 -158 78 -158 156c0 110 104 168 220 168c98 0 164 -35 212 -82l-87 -93c-40 32 -93 57 -143 57c-31 0 -52 -9 -52 -30c0 -20 22 -30 98 -56
c88 -30 146 -70 146 -152c0 -115 -102 -168 -234 -168zM226 558l-54 64l128 124h176l84 -128l-70 -60l-110 88h-4z" />
    <glyph glyph-name="scaron" unicode="&#x161;" 
d="M264 -12c-96 0 -176 36 -232 92l87 100c53 -52 113 -74 171 -74c38 0 58 10 58 28c0 22 -16 32 -86 54c-100 32 -158 78 -158 156c0 110 104 168 220 168c98 0 164 -35 212 -82l-87 -93c-40 32 -93 57 -143 57c-31 0 -52 -9 -52 -30c0 -20 22 -30 98 -56
c88 -30 146 -70 146 -152c0 -115 -102 -168 -234 -168zM286 580l-84 128l70 60l110 -88h4l150 88l54 -64l-128 -124h-176z" />
    <glyph glyph-name="uni1E67" unicode="&#x1e67;" 
d="M264 -12c-96 0 -176 36 -232 92l87 100c53 -52 113 -74 171 -74c38 0 58 10 58 28c0 22 -16 32 -86 54c-100 32 -158 78 -158 156c0 110 104 168 220 168c98 0 164 -35 212 -82l-87 -93c-40 32 -93 57 -143 57c-31 0 -52 -9 -52 -30c0 -20 22 -30 98 -56
c88 -30 146 -70 146 -152c0 -115 -102 -168 -234 -168zM394 702c-38 0 -72 20 -72 66c0 52 46 96 96 96c38 0 72 -20 72 -66c0 -52 -46 -96 -96 -96zM286 580l-84 128l60 50l118 -90h4l162 90l44 -54l-128 -124h-176z" />
    <glyph glyph-name="uni015F" unicode="&#x15f;" 
d="M116 -244v66c76 4 102 14 108 42c2 18 -10 32 -70 40l60 87c-74 11 -136 43 -182 89l87 100c53 -52 113 -74 171 -74c38 0 58 10 58 28c0 22 -16 32 -86 54c-100 32 -158 78 -158 156c0 110 104 168 220 168c98 0 164 -35 212 -82l-87 -93c-40 32 -93 57 -143 57
c-31 0 -52 -9 -52 -30c0 -20 22 -30 98 -56c88 -30 146 -70 146 -152c0 -101 -78 -154 -186 -165l-32 -51c50 -12 72 -34 66 -76c-14 -72 -96 -104 -230 -108z" />
    <glyph glyph-name="uni0219" unicode="&#x219;" 
d="M264 -12c-96 0 -176 36 -232 92l87 100c53 -52 113 -74 171 -74c38 0 58 10 58 28c0 22 -16 32 -86 54c-100 32 -158 78 -158 156c0 110 104 168 220 168c98 0 164 -35 212 -82l-87 -93c-40 32 -93 57 -143 57c-31 0 -52 -9 -52 -30c0 -20 22 -30 98 -56
c88 -30 146 -70 146 -152c0 -115 -102 -168 -234 -168zM121 -244l3 66c77 4 105 18 105 40c0 12 -11 28 -54 28l44 60c111 -4 135 -35 135 -74c0 -82 -100 -116 -233 -120z" />
    <glyph glyph-name="uni1E61" unicode="&#x1e61;" 
d="M264 -12c-96 0 -176 36 -232 92l87 100c53 -52 113 -74 171 -74c38 0 58 10 58 28c0 22 -16 32 -86 54c-100 32 -158 78 -158 156c0 110 104 168 220 168c98 0 164 -35 212 -82l-87 -93c-40 32 -93 57 -143 57c-31 0 -52 -9 -52 -30c0 -20 22 -30 98 -56
c88 -30 146 -70 146 -152c0 -115 -102 -168 -234 -168zM374 570c-50 0 -98 28 -98 87c0 56 49 105 112 105c57 0 99 -30 99 -87c0 -60 -50 -105 -113 -105z" />
    <glyph glyph-name="uni1E63" unicode="&#x1e63;" 
d="M264 -12c-96 0 -176 36 -232 92l87 100c53 -52 113 -74 171 -74c38 0 58 10 58 28c0 22 -16 32 -86 54c-100 32 -158 78 -158 156c0 110 104 168 220 168c98 0 164 -35 212 -82l-87 -93c-40 32 -93 57 -143 57c-31 0 -52 -9 -52 -30c0 -20 22 -30 98 -56
c88 -30 146 -70 146 -152c0 -115 -102 -168 -234 -168zM230 -256c-50 0 -98 28 -98 87c0 56 49 105 112 105c57 0 99 -30 99 -87c0 -60 -50 -105 -113 -105z" />
    <glyph glyph-name="germandbls" unicode="&#xdf;" 
d="M354 -12c-52 0 -105 12 -150 47l64 107c25 -21 46 -36 81 -36c30 0 51 18 51 48c0 56 -116 82 -116 181c0 87 94 115 94 195c0 34 -12 52 -42 52c-46 0 -74 -42 -88 -114l-92 -468h-160l100 498c23 120 108 210 246 210c100 0 190 -46 190 -156c0 -108 -92 -134 -92 -186
c0 -50 108 -82 108 -196c0 -102 -74 -182 -194 -182z" />
    <glyph glyph-name="longs" unicode="&#x17f;" 
d="M134 0l75 376h-131l24 118l132 6l2 8c26 130 106 200 242 200c80 0 134 -28 166 -52l-70 -100c-27 18 -50 26 -88 26c-47 0 -81 -20 -92 -74l-100 -508h-160z" />
    <glyph glyph-name="tcaron" unicode="&#x165;" 
d="M310 -12c-124 0 -176 60 -176 154c0 20 2 38 8 66l34 168h-126l24 118l134 6l54 150h130l-32 -150h200l-24 -124h-202l-34 -160c-4 -18 -4 -26 -4 -36c0 -46 27 -62 64 -62c38 0 76 18 104 36l48 -111c-45 -31 -122 -55 -202 -55zM432 548l46 276h148l-24 -104l-68 -172
h-102z" />
    <glyph glyph-name="uni0163" unicode="&#x163;" 
d="M154 -244v66c76 4 102 14 108 42c2 18 -10 32 -70 40l61 89c-83 16 -119 71 -119 149c0 20 2 38 8 66l34 168h-126l24 118l134 6l54 150h130l-32 -150h200l-24 -124h-202l-34 -160c-4 -18 -4 -26 -4 -36c0 -46 27 -62 64 -62c38 0 76 18 104 36l48 -111
c-37 -26 -97 -47 -162 -53l-32 -50c50 -12 72 -34 66 -76c-14 -72 -96 -104 -230 -108z" />
    <glyph glyph-name="uni021B" unicode="&#x21b;" 
d="M310 -12c-124 0 -176 60 -176 154c0 20 2 38 8 66l34 168h-126l24 118l134 6l54 150h130l-32 -150h200l-24 -124h-202l-34 -160c-4 -18 -4 -26 -4 -36c0 -46 27 -62 64 -62c38 0 76 18 104 36l48 -111c-45 -31 -122 -55 -202 -55zM159 -244l3 66c77 4 105 18 105 40
c0 12 -11 28 -54 28l44 60c111 -4 135 -35 135 -74c0 -82 -100 -116 -233 -120z" />
    <glyph glyph-name="uni1E6D" unicode="&#x1e6d;" 
d="M310 -12c-124 0 -176 60 -176 154c0 20 2 38 8 66l34 168h-126l24 118l134 6l54 150h130l-32 -150h200l-24 -124h-202l-34 -160c-4 -18 -4 -26 -4 -36c0 -46 27 -62 64 -62c38 0 76 18 104 36l48 -111c-45 -31 -122 -55 -202 -55zM268 -256c-50 0 -98 28 -98 87
c0 56 49 105 112 105c57 0 99 -30 99 -87c0 -60 -50 -105 -113 -105z" />
    <glyph glyph-name="uni1E6F" unicode="&#x1e6f;" 
d="M310 -12c-124 0 -176 60 -176 154c0 20 2 38 8 66l34 168h-126l24 118l134 6l54 150h130l-32 -150h200l-24 -124h-202l-34 -160c-4 -18 -4 -26 -4 -36c0 -46 27 -62 64 -62c38 0 76 18 104 36l48 -111c-45 -31 -122 -55 -202 -55zM122 -194l20 100h294l-20 -100h-294z
" />
    <glyph glyph-name="uni1E97" unicode="&#x1e97;" 
d="M310 -12c-124 0 -176 60 -176 154c0 20 2 38 8 66l34 168h-126l24 118l134 6l54 150h130l-32 -150h200l-24 -124h-202l-34 -160c-4 -18 -4 -26 -4 -36c0 -46 27 -62 64 -62c38 0 76 18 104 36l48 -111c-45 -31 -122 -55 -202 -55zM234 690c-37 0 -66 23 -66 66
s36 82 84 82c37 0 66 -25 66 -66c0 -46 -36 -82 -84 -82zM454 690c-37 0 -66 23 -66 66s36 82 84 82c37 0 66 -25 66 -66c0 -46 -36 -82 -84 -82z" />
    <glyph glyph-name="tbar" unicode="&#x167;" 
d="M28 218l14 70l117 6l17 82h-126l24 118l134 6l54 150h130l-32 -150h200l-24 -124h-202l-17 -82h203l-16 -76h-204v-2c-4 -18 -4 -26 -4 -36c0 -46 27 -62 64 -62c38 0 76 18 104 36l48 -111c-45 -31 -122 -55 -202 -55c-124 0 -176 60 -176 154c0 20 2 38 8 66l2 10h-116
z" />
    <glyph glyph-name="ugrave" unicode="&#xf9;" 
d="M162 -12c-82 0 -130 44 -130 130c0 22 3 48 8 72l62 310h160l-58 -290c-4 -18 -8 -32 -8 -44c0 -28 16 -42 42 -42c33 0 75 26 114 78l58 298h160l-98 -500h-130l4 80h-4c-46 -46 -116 -92 -180 -92zM380 569l-162 173l136 102l124 -199z" />
    <glyph glyph-name="uacute" unicode="&#xfa;" 
d="M162 -12c-82 0 -130 44 -130 130c0 22 3 48 8 72l62 310h160l-58 -290c-4 -18 -8 -32 -8 -44c0 -28 16 -42 42 -42c33 0 75 26 114 78l58 298h160l-98 -500h-130l4 80h-4c-46 -46 -116 -92 -180 -92zM330 578l-69 90l191 172l95 -122z" />
    <glyph glyph-name="ucircumflex" unicode="&#xfb;" 
d="M162 -12c-82 0 -130 44 -130 130c0 22 3 48 8 72l62 310h160l-58 -290c-4 -18 -8 -32 -8 -44c0 -28 16 -42 42 -42c33 0 75 26 114 78l58 298h160l-98 -500h-130l4 80h-4c-46 -46 -116 -92 -180 -92zM210 558l-54 64l128 124h176l84 -128l-70 -60l-110 88h-4z" />
    <glyph glyph-name="utilde" unicode="&#x169;" 
d="M162 -12c-82 0 -130 44 -130 130c0 22 3 48 8 72l62 310h160l-58 -290c-4 -18 -8 -32 -8 -44c0 -28 16 -42 42 -42c33 0 75 26 114 78l58 298h160l-98 -500h-130l4 80h-4c-46 -46 -116 -92 -180 -92zM422 572c-65 0 -86 56 -124 56c-16 0 -32 -10 -38 -46l-104 6
c18 113 75 158 150 158c65 0 86 -56 124 -56c16 0 32 10 38 46l104 -6c-18 -113 -75 -158 -150 -158z" />
    <glyph glyph-name="udieresis" unicode="&#xfc;" 
d="M162 -12c-82 0 -130 44 -130 130c0 22 3 48 8 72l62 310h160l-58 -290c-4 -18 -8 -32 -8 -44c0 -28 16 -42 42 -42c33 0 75 26 114 78l58 298h160l-98 -500h-130l4 80h-4c-46 -46 -116 -92 -180 -92zM242 566c-37 0 -66 23 -66 66s36 82 84 82c37 0 66 -25 66 -66
c0 -46 -36 -82 -84 -82zM462 566c-37 0 -66 23 -66 66s36 82 84 82c37 0 66 -25 66 -66c0 -46 -36 -82 -84 -82z" />
    <glyph glyph-name="umacron" unicode="&#x16b;" 
d="M162 -12c-82 0 -130 44 -130 130c0 22 3 48 8 72l62 310h160l-58 -290c-4 -18 -8 -32 -8 -44c0 -28 16 -42 42 -42c33 0 75 26 114 78l58 298h160l-98 -500h-130l4 80h-4c-46 -46 -116 -92 -180 -92zM204 590l20 100h294l-20 -100h-294z" />
    <glyph glyph-name="ubreve" unicode="&#x16d;" 
d="M162 -12c-82 0 -130 44 -130 130c0 22 3 48 8 72l62 310h160l-58 -290c-4 -18 -8 -32 -8 -44c0 -28 16 -42 42 -42c33 0 75 26 114 78l58 298h160l-98 -500h-130l4 80h-4c-46 -46 -116 -92 -180 -92zM348 572c-117 0 -160 66 -146 160l100 16c-2 -40 18 -70 66 -70
s76 30 90 70l92 -16c-18 -94 -84 -160 -202 -160z" />
    <glyph glyph-name="uring" unicode="&#x16f;" 
d="M162 -12c-82 0 -130 44 -130 130c0 22 3 48 8 72l62 310h160l-58 -290c-4 -18 -8 -32 -8 -44c0 -28 16 -42 42 -42c33 0 75 26 114 78l58 298h160l-98 -500h-130l4 80h-4c-46 -46 -116 -92 -180 -92zM350 570c-71 0 -122 34 -122 92c0 66 65 116 154 116
c72 0 122 -34 122 -92c0 -66 -65 -116 -154 -116zM360 630c24 0 44 24 44 52c0 18 -10 36 -32 36c-24 0 -44 -24 -44 -52c0 -20 10 -36 32 -36z" />
    <glyph glyph-name="uhungarumlaut" unicode="&#x171;" 
d="M162 -12c-82 0 -130 44 -130 130c0 22 3 48 8 72l62 310h160l-58 -290c-4 -18 -8 -32 -8 -44c0 -28 16 -42 42 -42c33 0 75 26 114 78l58 298h160l-98 -500h-130l4 80h-4c-46 -46 -116 -92 -180 -92zM302 566l-82 48l120 174l104 -60zM492 566l-82 48l120 174l104 -60z
" />
    <glyph glyph-name="uni01D4" unicode="&#x1d4;" 
d="M162 -12c-82 0 -130 44 -130 130c0 22 3 48 8 72l62 310h160l-58 -290c-4 -18 -8 -32 -8 -44c0 -28 16 -42 42 -42c33 0 75 26 114 78l58 298h160l-98 -500h-130l4 80h-4c-46 -46 -116 -92 -180 -92zM270 580l-84 128l70 60l110 -88h4l150 88l54 -64l-128 -124h-176z" />
    <glyph glyph-name="uogonek" unicode="&#x173;" 
d="M344 -228c-60 0 -102 30 -102 88c0 68 64 122 100 142l4 78h-4c-46 -46 -116 -92 -180 -92c-82 0 -130 44 -130 130c0 22 3 48 8 72l62 310h160l-58 -290c-4 -18 -8 -32 -8 -44c0 -28 16 -42 42 -42c33 0 75 26 114 78l58 298h160l-98 -500c-90 -24 -116 -62 -116 -94
c0 -26 22 -40 46 -40c14 0 24 2 40 10l26 -64c-32 -24 -76 -40 -124 -40z" />
    <glyph glyph-name="uni01D6" unicode="&#x1d6;" 
d="M162 -12c-82 0 -130 44 -130 130c0 22 3 48 8 72l62 310h160l-58 -290c-4 -18 -8 -32 -8 -44c0 -28 16 -42 42 -42c33 0 75 26 114 78l58 298h160l-98 -500h-130l4 80h-4c-46 -46 -116 -92 -180 -92zM240 566c-32 0 -54 24 -54 54c0 42 32 76 74 76c34 0 56 -22 56 -52
c0 -42 -32 -78 -76 -78zM458 566c-32 0 -54 24 -54 54c0 42 32 76 74 76c32 0 54 -22 54 -52c0 -42 -32 -78 -74 -78zM238 756l16 74h294l-16 -74h-294z" />
    <glyph glyph-name="uni01D8" unicode="&#x1d8;" 
d="M162 -12c-82 0 -130 44 -130 130c0 22 3 48 8 72l62 310h160l-58 -290c-4 -18 -8 -32 -8 -44c0 -28 16 -42 42 -42c33 0 75 26 114 78l58 298h160l-98 -500h-130l4 80h-4c-46 -46 -116 -92 -180 -92zM240 566c-32 0 -54 24 -54 54c0 42 32 76 74 76c34 0 56 -22 56 -52
c0 -42 -32 -78 -76 -78zM458 566c-32 0 -54 24 -54 54c0 42 32 76 74 76c32 0 54 -22 54 -52c0 -42 -32 -78 -74 -78zM396 719l-56 45l100 132l79 -66z" />
    <glyph glyph-name="uni01DA" unicode="&#x1da;" 
d="M162 -12c-82 0 -130 44 -130 130c0 22 3 48 8 72l62 310h160l-58 -290c-4 -18 -8 -32 -8 -44c0 -28 16 -42 42 -42c33 0 75 26 114 78l58 298h160l-98 -500h-130l4 80h-4c-46 -46 -116 -92 -180 -92zM240 566c-32 0 -54 24 -54 54c0 42 32 76 74 76c34 0 56 -22 56 -52
c0 -42 -32 -78 -76 -78zM458 566c-32 0 -54 24 -54 54c0 42 32 76 74 76c32 0 54 -22 54 -52c0 -42 -32 -78 -74 -78zM314 744l-74 92l62 50l92 -62h4l112 62l46 -50l-106 -92h-136z" />
    <glyph glyph-name="uni01DC" unicode="&#x1dc;" 
d="M162 -12c-82 0 -130 44 -130 130c0 22 3 48 8 72l62 310h160l-58 -290c-4 -18 -8 -32 -8 -44c0 -28 16 -42 42 -42c33 0 75 26 114 78l58 298h160l-98 -500h-130l4 80h-4c-46 -46 -116 -92 -180 -92zM240 566c-32 0 -54 24 -54 54c0 42 32 76 74 76c34 0 56 -22 56 -52
c0 -42 -32 -78 -76 -78zM458 566c-32 0 -54 24 -54 54c0 42 32 76 74 76c32 0 54 -22 54 -52c0 -42 -32 -78 -74 -78zM364 715l-80 130l100 49l51 -145z" />
    <glyph glyph-name="uni1EE5" unicode="&#x1ee5;" 
d="M162 -12c-82 0 -130 44 -130 130c0 22 3 48 8 72l62 310h160l-58 -290c-4 -18 -8 -32 -8 -44c0 -28 16 -42 42 -42c33 0 75 26 114 78l58 298h160l-98 -500h-130l4 80h-4c-46 -46 -116 -92 -180 -92zM210 -256c-50 0 -98 28 -98 87c0 56 49 105 112 105
c57 0 99 -30 99 -87c0 -60 -50 -105 -113 -105z" />
    <glyph glyph-name="uni1EE7" unicode="&#x1ee7;" 
d="M162 -12c-82 0 -130 44 -130 130c0 22 3 48 8 72l62 310h160l-58 -290c-4 -18 -8 -32 -8 -44c0 -28 16 -42 42 -42c33 0 75 26 114 78l58 298h160l-98 -500h-130l4 80h-4c-46 -46 -116 -92 -180 -92zM293 566l1 66c22 3 41 10 45 30c5 22 -13 36 -70 40l30 104
c146 -4 181 -58 167 -132c-14 -72 -91 -104 -173 -108z" />
    <glyph glyph-name="uhorn" unicode="&#x1b0;" 
d="M162 -12c-82 0 -130 44 -130 130c0 22 3 48 8 72l62 310h160l-58 -290c-4 -18 -8 -32 -8 -44c0 -28 16 -42 42 -42c33 0 75 26 114 78l58 298h76c44 6 72 52 72 110c0 20 -4 38 -10 58l118 36c12 -34 16 -54 16 -86c0 -78 -40 -144 -122 -171l-88 -447h-130l4 80h-4
c-46 -46 -116 -92 -180 -92z" />
    <glyph glyph-name="uni1EE9" unicode="&#x1ee9;" 
d="M162 -12c-82 0 -130 44 -130 130c0 22 3 48 8 72l62 310h160l-58 -290c-4 -18 -8 -32 -8 -44c0 -28 16 -42 42 -42c33 0 75 26 114 78l58 298h76c44 6 72 52 72 110c0 20 -4 38 -10 58l118 36c12 -34 16 -54 16 -86c0 -78 -40 -144 -122 -171l-88 -447h-130l4 80h-4
c-46 -46 -116 -92 -180 -92zM330 578l-69 90l191 172l95 -122z" />
    <glyph glyph-name="uni1EEB" unicode="&#x1eeb;" 
d="M162 -12c-82 0 -130 44 -130 130c0 22 3 48 8 72l62 310h160l-58 -290c-4 -18 -8 -32 -8 -44c0 -28 16 -42 42 -42c33 0 75 26 114 78l58 298h76c44 6 72 52 72 110c0 20 -4 38 -10 58l118 36c12 -34 16 -54 16 -86c0 -78 -40 -144 -122 -171l-88 -447h-130l4 80h-4
c-46 -46 -116 -92 -180 -92zM380 569l-162 173l136 102l124 -199z" />
    <glyph glyph-name="uni1EED" unicode="&#x1eed;" 
d="M162 -12c-82 0 -130 44 -130 130c0 22 3 48 8 72l62 310h160l-58 -290c-4 -18 -8 -32 -8 -44c0 -28 16 -42 42 -42c33 0 75 26 114 78l58 298h76c44 6 72 52 72 110c0 20 -4 38 -10 58l118 36c12 -34 16 -54 16 -86c0 -78 -40 -144 -122 -171l-88 -447h-130l4 80h-4
c-46 -46 -116 -92 -180 -92zM293 566l1 66c22 3 41 10 45 30c5 22 -13 36 -70 40l30 104c146 -4 181 -58 167 -132c-14 -72 -91 -104 -173 -108z" />
    <glyph glyph-name="uni1EEF" unicode="&#x1eef;" 
d="M162 -12c-82 0 -130 44 -130 130c0 22 3 48 8 72l62 310h160l-58 -290c-4 -18 -8 -32 -8 -44c0 -28 16 -42 42 -42c33 0 75 26 114 78l58 298h76c44 6 72 52 72 110c0 20 -4 38 -10 58l118 36c12 -34 16 -54 16 -86c0 -78 -40 -144 -122 -171l-88 -447h-130l4 80h-4
c-46 -46 -116 -92 -180 -92zM402 572c-65 0 -86 56 -124 56c-16 0 -32 -10 -38 -46l-104 6c18 113 75 158 150 158c65 0 86 -56 124 -56c16 0 32 10 38 46l104 -6c-18 -113 -75 -158 -150 -158z" />
    <glyph glyph-name="uni1EF1" unicode="&#x1ef1;" 
d="M162 -12c-82 0 -130 44 -130 130c0 22 3 48 8 72l62 310h160l-58 -290c-4 -18 -8 -32 -8 -44c0 -28 16 -42 42 -42c33 0 75 26 114 78l58 298h76c44 6 72 52 72 110c0 20 -4 38 -10 58l118 36c12 -34 16 -54 16 -86c0 -78 -40 -144 -122 -171l-88 -447h-130l4 80h-4
c-46 -46 -116 -92 -180 -92zM210 -256c-50 0 -98 28 -98 87c0 56 49 105 112 105c57 0 99 -30 99 -87c0 -60 -50 -105 -113 -105z" />
    <glyph glyph-name="uni1E7F" unicode="&#x1e7f;" 
d="M148 0l-84 500h158l26 -230c6 -50 9 -101 13 -154h4c22 51 48 104 73 154l114 230h158l-276 -500h-186zM204 -256c-50 0 -98 28 -98 87c0 56 49 105 112 105c57 0 99 -30 99 -87c0 -60 -50 -105 -113 -105z" />
    <glyph glyph-name="wgrave" unicode="&#x1e81;" 
d="M21 0l27 500h152l-25 -223c-6 -50 -12 -100 -16 -151h4c15 51 32 103 52 151l56 149h108l-1 -149c-1 -50 -2 -100 -5 -151h4c16 51 28 101 42 151l61 223h146l-168 -500h-177l7 154c2 46 8 90 13 145h-4c-14 -54 -22 -86 -42 -147l-50 -152h-184zM376 572l-162 173
l136 102l124 -199z" />
    <glyph glyph-name="wacute" unicode="&#x1e83;" 
d="M21 0l27 500h152l-25 -223c-6 -50 -12 -100 -16 -151h4c15 51 32 103 52 151l56 149h108l-1 -149c-1 -50 -2 -100 -5 -151h4c16 51 28 101 42 151l61 223h146l-168 -500h-177l7 154c2 46 8 90 13 145h-4c-14 -54 -22 -86 -42 -147l-50 -152h-184zM326 581l-69 90l191 172
l95 -122z" />
    <glyph glyph-name="wcircumflex" unicode="&#x175;" 
d="M21 0l27 500h152l-25 -223c-6 -50 -12 -100 -16 -151h4c15 51 32 103 52 151l56 149h108l-1 -149c-1 -50 -2 -100 -5 -151h4c16 51 28 101 42 151l61 223h146l-168 -500h-177l7 154c2 46 8 90 13 145h-4c-14 -54 -22 -86 -42 -147l-50 -152h-184zM206 561l-54 64l128 124
h176l84 -128l-70 -60l-110 88h-4z" />
    <glyph glyph-name="wdieresis" unicode="&#x1e85;" 
d="M21 0l27 500h152l-25 -223c-6 -50 -12 -100 -16 -151h4c15 51 32 103 52 151l56 149h108l-1 -149c-1 -50 -2 -100 -5 -151h4c16 51 28 101 42 151l61 223h146l-168 -500h-177l7 154c2 46 8 90 13 145h-4c-14 -54 -22 -86 -42 -147l-50 -152h-184zM238 569
c-37 0 -66 23 -66 66s36 82 84 82c37 0 66 -25 66 -66c0 -46 -36 -82 -84 -82zM458 569c-37 0 -66 23 -66 66s36 82 84 82c37 0 66 -25 66 -66c0 -46 -36 -82 -84 -82z" />
    <glyph glyph-name="ygrave" unicode="&#x1ef3;" 
d="M48 -188c-38 0 -78 12 -98 26l44 108c16 -8 44 -16 64 -16c50 0 82 18 102 52l13 22l-109 496h154l32 -194c8 -50 16 -118 20 -160h4c18 42 50 110 76 160l100 194h162l-284 -500c-74 -130 -158 -188 -280 -188zM376 569l-162 173l136 102l124 -199z" />
    <glyph glyph-name="yacute" unicode="&#xfd;" 
d="M48 -188c-38 0 -78 12 -98 26l44 108c16 -8 44 -16 64 -16c50 0 82 18 102 52l13 22l-109 496h154l32 -194c8 -50 16 -118 20 -160h4c18 42 50 110 76 160l100 194h162l-284 -500c-74 -130 -158 -188 -280 -188zM326 578l-69 90l191 172l95 -122z" />
    <glyph glyph-name="ycircumflex" unicode="&#x177;" 
d="M48 -188c-38 0 -78 12 -98 26l44 108c16 -8 44 -16 64 -16c50 0 82 18 102 52l13 22l-109 496h154l32 -194c8 -50 16 -118 20 -160h4c18 42 50 110 76 160l100 194h162l-284 -500c-74 -130 -158 -188 -280 -188zM206 558l-54 64l128 124h176l84 -128l-70 -60l-110 88h-4z
" />
    <glyph glyph-name="ydieresis" unicode="&#xff;" 
d="M48 -188c-38 0 -78 12 -98 26l44 108c16 -8 44 -16 64 -16c50 0 82 18 102 52l13 22l-109 496h154l32 -194c8 -50 16 -118 20 -160h4c18 42 50 110 76 160l100 194h162l-284 -500c-74 -130 -158 -188 -280 -188zM238 566c-37 0 -66 23 -66 66s36 82 84 82
c37 0 66 -25 66 -66c0 -46 -36 -82 -84 -82zM458 566c-37 0 -66 23 -66 66s36 82 84 82c37 0 66 -25 66 -66c0 -46 -36 -82 -84 -82z" />
    <glyph glyph-name="uni1E8F" unicode="&#x1e8f;" 
d="M48 -188c-38 0 -78 12 -98 26l44 108c16 -8 44 -16 64 -16c50 0 82 18 102 52l13 22l-109 496h154l32 -194c8 -50 16 -118 20 -160h4c18 42 50 110 76 160l100 194h162l-284 -500c-74 -130 -158 -188 -280 -188zM354 570c-50 0 -98 28 -98 87c0 56 49 105 112 105
c57 0 99 -30 99 -87c0 -60 -50 -105 -113 -105z" />
    <glyph glyph-name="uni1EF5" unicode="&#x1ef5;" 
d="M48 -188c-38 0 -78 12 -98 26l44 108c16 -8 44 -16 64 -16c50 0 82 18 102 52l13 22l-109 496h154l32 -194c8 -50 16 -118 20 -160h4c18 42 50 110 76 160l100 194h162l-284 -500c-74 -130 -158 -188 -280 -188zM395 -246c-50 0 -98 28 -98 87c0 56 49 105 112 105
c57 0 99 -30 99 -87c0 -60 -50 -105 -113 -105z" />
    <glyph glyph-name="uni1EF7" unicode="&#x1ef7;" 
d="M48 -188c-38 0 -78 12 -98 26l44 108c16 -8 44 -16 64 -16c50 0 82 18 102 52l13 22l-109 496h154l32 -194c8 -50 16 -118 20 -160h4c18 42 50 110 76 160l100 194h162l-284 -500c-74 -130 -158 -188 -280 -188zM289 566l1 66c22 3 41 10 45 30c5 22 -13 36 -70 40
l30 104c146 -4 181 -58 167 -132c-14 -72 -91 -104 -173 -108z" />
    <glyph glyph-name="uni1EF9" unicode="&#x1ef9;" 
d="M48 -188c-38 0 -78 12 -98 26l44 108c16 -8 44 -16 64 -16c50 0 82 18 102 52l13 22l-109 496h154l32 -194c8 -50 16 -118 20 -160h4c18 42 50 110 76 160l100 194h162l-284 -500c-74 -130 -158 -188 -280 -188zM418 572c-65 0 -86 56 -124 56c-16 0 -32 -10 -38 -46
l-104 6c18 113 75 158 150 158c65 0 86 -56 124 -56c16 0 32 10 38 46l104 -6c-18 -113 -75 -158 -150 -158z" />
    <glyph glyph-name="zacute" unicode="&#x17a;" 
d="M18 0l18 94l294 284h-236l26 122h440l-18 -94l-292 -282h246l-24 -124h-454zM336 578l-69 90l191 172l95 -122z" />
    <glyph glyph-name="zcaron" unicode="&#x17e;" 
d="M18 0l18 94l294 284h-236l26 122h440l-18 -94l-292 -282h246l-24 -124h-454zM276 580l-84 128l70 60l110 -88h4l150 88l54 -64l-128 -124h-176z" />
    <glyph glyph-name="zdotaccent" unicode="&#x17c;" 
d="M18 0l18 94l294 284h-236l26 122h440l-18 -94l-292 -282h246l-24 -124h-454zM364 570c-50 0 -98 28 -98 87c0 56 49 105 112 105c57 0 99 -30 99 -87c0 -60 -50 -105 -113 -105z" />
    <glyph glyph-name="uni1E91" unicode="&#x1e91;" 
d="M18 0l18 94l294 284h-236l26 122h440l-18 -94l-292 -282h246l-24 -124h-454zM216 558l-54 64l128 124h176l84 -128l-70 -60l-110 88h-4z" />
    <glyph glyph-name="uni1E93" unicode="&#x1e93;" 
d="M18 0l18 94l294 284h-236l26 122h440l-18 -94l-292 -282h246l-24 -124h-454zM224 -256c-50 0 -98 28 -98 87c0 56 49 105 112 105c57 0 99 -30 99 -87c0 -60 -50 -105 -113 -105z" />
    <glyph glyph-name="uni1E95" unicode="&#x1e95;" 
d="M18 0l18 94l294 284h-236l26 122h440l-18 -94l-292 -282h246l-24 -124h-454zM78 -194l20 100h294l-20 -100h-294z" />
    <glyph glyph-name="eth" unicode="&#xf0;" 
d="M242 -12c-123 0 -221 70 -221 210c0 161 122 257 247 257c69 0 111 -24 135 -55c-7 57 -28 103 -62 143l-134 -62l-27 69l101 47c-22 17 -47 32 -76 47l68 111c55 -23 105 -54 147 -93l145 68l27 -70l-119 -55c55 -72 87 -162 87 -266c0 -228 -134 -351 -318 -351z
M257 116c70 0 134 52 147 177c-25 32 -57 47 -104 47c-76 0 -125 -59 -125 -133c0 -61 29 -91 82 -91z" />
    <glyph glyph-name="thorn" unicode="&#xfe;" 
d="M-28 -176l176 872h160l-30 -146l-30 -106h2c43 44 100 68 148 68c104 0 162 -70 162 -194c0 -184 -106 -330 -266 -330c-50 0 -98 20 -124 54h-2l-12 -94l-24 -124h-160zM276 118c63 0 118 74 118 180c0 59 -26 84 -60 84c-32 0 -68 -20 -102 -76l-32 -150
c14 -26 48 -38 76 -38z" />
    <glyph glyph-name="eng" unicode="&#x14b;" 
d="M280 -188c-36 0 -68 6 -104 24l48 114c14 -8 28 -12 42 -12c32 0 44 18 56 70l56 282c4 18 7 33 7 45c0 28 -15 41 -41 41c-33 0 -79 -26 -118 -78l-58 -298h-160l98 500h129l-3 -80h4c46 46 120 92 184 92c82 0 130 -44 130 -130c0 -22 -3 -48 -8 -72l-62 -310
c-22 -104 -76 -188 -200 -188z" />
    <glyph glyph-name="uni0237" unicode="&#x237;" 
d="M145 -188c-79 0 -135 24 -171 48l64 112c29 -20 58 -34 96 -34c58 0 90 30 108 118l64 320h-196l26 124h354l-92 -458c-30 -148 -108 -230 -253 -230z" />
    <glyph glyph-name="ij" unicode="&#x133;" 
d="M4 0l100 500h160l-100 -500h-160zM211 564c-50 0 -98 28 -98 87c0 56 49 105 112 105c57 0 99 -30 99 -87c0 -60 -50 -105 -113 -105zM272 -188c-36 0 -68 6 -104 24l48 114c14 -8 28 -12 42 -12c32 0 44 20 56 72l98 490h160l-100 -498c-22 -104 -76 -190 -200 -190z
M517 564c-50 0 -98 28 -98 87c0 56 49 105 112 105c57 0 99 -30 99 -87c0 -60 -50 -105 -113 -105z" />
    <glyph glyph-name="uni006C00B7006C" 
d="M168 -12c-94 0 -160 62 -160 156c0 30 2 52 8 76l82 352h-94l26 124h242l-112 -498c-2 -8 -4 -18 -4 -34c0 -32 20 -46 44 -46c14 0 26 2 40 8l32 -118c-38 -16 -66 -20 -104 -20zM267 306c-42 0 -64 31 -56 70c8 38 42 70 84 70s64 -32 56 -70c-8 -39 -42 -70 -84 -70z
M480 -12c-94 0 -160 62 -160 156c0 30 2 52 8 76l82 352h-94l26 124h242l-112 -498c-2 -8 -4 -18 -4 -34c0 -32 20 -46 44 -46c14 0 26 2 40 8l32 -118c-38 -16 -66 -20 -104 -20z" />
    <glyph glyph-name="uni01330301" 
d="M4 0l100 500h160l-100 -500h-160zM272 -188c-36 0 -68 6 -104 24l48 114c14 -8 28 -12 42 -12c32 0 44 20 56 72l98 490h160l-100 -498c-22 -104 -76 -190 -200 -190zM172 578l-69 90l191 172l95 -122zM479 578l-69 90l191 172l95 -122z" />
    <glyph glyph-name="uni0250" unicode="&#x250;" 
d="M420 512c80 0 138 -50 138 -124c0 -124 -104 -200 -354 -208c-2 -10 -2 -14 -2 -16c0 -32 20 -52 75 -52c48 0 89 12 161 42l46 -110c-80 -36 -158 -56 -249 -56c-109 0 -189 52 -189 164c0 22 2 42 8 72l54 276h130v-62h4c50 48 110 74 178 74zM356 390
c-36 0 -92 -20 -126 -60l-10 -62c134 8 182 48 182 86c0 24 -15 36 -46 36z" />
    <glyph glyph-name="uni0252" unicode="&#x252;" 
d="M294 -12c-54 0 -110 24 -134 62h-2l-22 -50h-128l100 500h130v-66h2c48 50 106 78 159 78c98 0 161 -70 161 -194c0 -184 -128 -330 -266 -330zM264 118c68 0 130 74 130 180c0 59 -22 84 -56 84c-32 0 -74 -20 -108 -70l-32 -156c14 -26 45 -38 66 -38z" />
    <glyph glyph-name="uni0253" unicode="&#x253;" 
d="M294 -12c-54 0 -106 24 -130 62h-2l-22 -50h-132l98 486c24 120 96 222 263 222c53 0 89 -10 117 -22l-54 -126c-22 10 -42 14 -64 14c-52 0 -84 -18 -102 -82l-22 -68h2c43 44 100 68 148 68c106 0 164 -66 164 -184c0 -180 -128 -320 -264 -320zM270 118
c62 0 122 70 122 170c0 52 -26 74 -62 74c-32 0 -70 -20 -104 -76l-26 -130c14 -26 42 -38 70 -38z" />
    <glyph glyph-name="uni0254" unicode="&#x254;" 
d="M222 -12c-90 0 -158 46 -194 92l96 88c32 -34 70 -50 108 -50c72 0 134 70 134 162c0 70 -50 102 -104 102c-47 0 -78 -23 -114 -52l-55 108c49 46 113 74 193 74c130 0 242 -72 242 -218c0 -184 -138 -306 -306 -306z" />
    <glyph glyph-name="uni0255" unicode="&#x255;" 
d="M342 110c50 0 82 28 82 52c0 12 -10 22 -36 22c-38 0 -77 -20 -117 -59c21 -10 45 -15 71 -15zM126 -94l-116 58c27 49 54 92 83 129c-22 31 -35 69 -35 113c0 184 142 306 306 306c90 0 158 -46 194 -92l-92 -82c-32 34 -72 52 -110 52c-70 0 -144 -76 -144 -170v-2
c67 53 135 78 202 78c86 0 134 -44 134 -114c0 -106 -88 -194 -232 -194c-45 0 -90 10 -130 28c-20 -32 -40 -69 -60 -110z" />
    <glyph glyph-name="uni0256" unicode="&#x256;" 
d="M424 -188c-82 0 -114 42 -114 110c0 36 10 76 24 130h-4c-42 -42 -94 -64 -142 -64c-98 0 -160 70 -160 194c0 184 128 330 266 330c64 0 102 -22 126 -56h2l10 94l28 146h160l-144 -712c-2 -10 -2 -14 -2 -19c0 -19 12 -25 26 -25c8 0 14 2 22 4l-6 -118
c-18 -6 -46 -14 -92 -14zM250 118c32 0 74 20 108 70l32 156c-14 26 -45 38 -66 38c-68 0 -130 -74 -130 -180c0 -58 22 -84 56 -84z" />
    <glyph glyph-name="uni0257" unicode="&#x257;" 
d="M188 -12c-98 0 -160 70 -160 194c0 184 128 330 266 330c64 0 102 -22 126 -56h2l12 94c16 80 83 158 208 158c34 0 54 -4 70 -10l-54 -126c-8 2 -10 2 -16 2c-34 0 -50 -16 -60 -64l-102 -510h-130v66h-4c-46 -50 -104 -78 -158 -78zM250 118c32 0 74 20 108 70l32 156
c-14 26 -45 38 -66 38c-68 0 -130 -74 -130 -180c0 -58 22 -84 56 -84z" />
    <glyph glyph-name="uni0258" unicode="&#x258;" 
d="M304 390c-48 0 -88 -34 -103 -86h183c-5 65 -44 86 -80 86zM232 -12c-71 0 -152 26 -196 72l80 98c38 -30 76 -48 127 -48c52 0 104 28 127 94h-312c-2 12 -4 26 -4 53c0 87 64 255 276 255c115 0 214 -73 214 -218c0 -200 -136 -306 -312 -306z" />
    <glyph glyph-name="uni0251" unicode="&#x251;" 
d="M189 -12c-99 0 -161 70 -161 194c0 184 128 330 266 330c64 0 110 -24 132 -62h4l22 50h128l-100 -500h-130v66h-4c-46 -50 -104 -78 -157 -78zM250 118c32 0 74 20 108 70l33 156c-14 26 -46 38 -67 38c-68 0 -130 -74 -130 -180c0 -59 22 -84 56 -84z" />
    <glyph glyph-name="uni0299" unicode="&#x299;" 
d="M24 0l98 500h252c97 0 176 -25 176 -104c0 -60 -34 -112 -106 -132v-4c52 -14 80 -40 80 -88c0 -102 -90 -172 -234 -172h-266zM206 112h96c46 0 64 28 64 54c0 22 -16 38 -46 38h-96zM242 304h84c42 0 62 26 62 54c0 18 -14 30 -46 30h-82z" />
    <glyph glyph-name="uni0259" unicode="&#x259;" 
d="M258 -12c-138 0 -218 80 -218 198c0 44 12 92 18 110h322c-5 74 -47 94 -94 94c-50 0 -88 -20 -132 -48l-52 106c60 42 136 64 222 64c124 0 216 -68 216 -224c0 -180 -132 -300 -282 -300zM262 110c36 0 81 26 104 86h-179c-1 -4 -1 -9 -1 -13c0 -49 30 -73 76 -73z" />
    <glyph glyph-name="uni025A" unicode="&#x25a;" 
d="M141 -12c-152 0 -190 114 -172 236l288 120c-12 26 -36 38 -75 38c-30 0 -66 -10 -103 -30l-31 110c63 38 134 50 184 50c91 0 149 -41 174 -107l103 43l71 -30c-15 -74 -8 -98 23 -98c16 0 30 5 41 10l16 -80c-24 -14 -52 -26 -82 -26c-48 0 -99 16 -105 98l-53 -23
c-1 -19 -4 -39 -8 -60c-28 -139 -140 -251 -271 -251zM161 116c42 0 83 42 96 107l2 8l-155 -65c1 -32 24 -50 57 -50z" />
    <glyph glyph-name="uni025B" unicode="&#x25b;" 
d="M258 -12c-111 0 -214 46 -214 140c0 66 52 118 144 134l1 4c-59 18 -81 55 -81 92c0 96 122 154 256 154c79 0 147 -17 210 -60l-84 -110c-46 27 -84 48 -136 48c-48 0 -80 -24 -80 -52c0 -22 13 -34 56 -34h90l-19 -100h-105c-53 0 -86 -14 -86 -46c0 -30 33 -48 92 -48
c38 0 92 15 150 44l44 -108c-88 -50 -160 -58 -238 -58z" />
    <glyph glyph-name="uni025C" unicode="&#x25c;" 
d="M244 -12c-87 0 -163 14 -230 60l84 110c51 -30 94 -46 154 -46c48 0 82 20 82 48c0 30 -18 44 -76 44h-90l21 100h105c40 0 64 14 64 46c0 26 -31 40 -90 40c-33 0 -80 -18 -132 -44l-44 108c82 47 147 58 218 58c111 0 214 -43 214 -130c0 -57 -37 -104 -104 -116l-1 -4
c60 -18 81 -66 81 -110c0 -102 -122 -164 -256 -164z" />
    <glyph glyph-name="uni025E" unicode="&#x25e;" 
d="M268 -12c-147 0 -238 88 -238 224c0 182 146 300 304 300c110 0 214 -44 214 -130c0 -58 -37 -104 -104 -116l-1 -4c60 -18 81 -66 81 -110c0 -102 -122 -164 -256 -164zM290 112c43 0 68 25 68 50c0 28 -18 42 -76 42h-10l19 100h25c40 0 66 13 66 42
c0 24 -20 44 -54 44c-74 0 -136 -74 -136 -174c0 -64 40 -104 98 -104z" />
    <glyph glyph-name="uni025F" unicode="&#x25f;" 
d="M145 -188c-79 0 -135 24 -171 48l64 112c29 -20 58 -34 96 -34c58 0 90 30 108 118l26 128h-176l14 70l177 6l23 116h-196l26 124h354l-48 -240h104l-16 -76h-103l-29 -142c-30 -148 -108 -230 -253 -230z" />
    <glyph glyph-name="uni0260" unicode="&#x260;" 
d="M209 -188c-94 0 -160 28 -211 67l68 111c37 -32 89 -52 139 -52s105 6 127 76l20 64h-4c-36 -34 -92 -58 -144 -58c-105 0 -168 74 -168 186c0 180 128 306 258 306c64 0 102 -22 126 -56h2l4 48c16 80 83 158 208 158c34 0 54 -4 70 -10l-54 -126c-8 2 -10 2 -16 2
c-34 0 -50 -16 -60 -64l-90 -442c-32 -163 -149 -210 -275 -210zM262 150c34 0 68 17 98 50l30 142c-18 26 -41 40 -69 40c-51 0 -119 -54 -119 -152c0 -56 20 -80 60 -80z" />
    <glyph glyph-name="uni0261" unicode="&#x261;" 
d="M209 -188c-94 0 -160 28 -211 67l68 111c37 -32 89 -52 139 -52s105 6 127 76l20 64h-4c-36 -34 -92 -58 -144 -58c-105 0 -168 74 -168 186c0 180 128 306 258 306c64 0 110 -24 132 -62h4l24 50h126l-96 -478c-33 -163 -149 -210 -275 -210zM262 150c34 0 68 17 98 50
l30 142c-18 26 -41 40 -69 40c-51 0 -119 -54 -119 -152c0 -56 20 -80 60 -80z" />
    <glyph glyph-name="uni0262" unicode="&#x262;" 
d="M292 -12c-120 0 -247 74 -246 218c0 157 114 306 317 306c87 0 148 -33 185 -72l-89 -98c-26 25 -66 48 -111 48c-82 0 -140 -87 -140 -170c0 -86 54 -110 102 -110c18 0 38 4 51 10l14 84h-71l20 100h212l-52 -258c-44 -34 -110 -58 -192 -58z" />
    <glyph glyph-name="uni0263" unicode="&#x263;" 
d="M203 -206c-85 0 -135 46 -135 120c0 60 26 106 87 186l-91 400h158l28 -188c6 -38 12 -78 23 -132h4c33 54 55 94 75 132l100 188h158l-238 -398c17 -48 29 -81 29 -116c0 -103 -81 -192 -198 -192zM224 -100c23 0 40 24 40 63c0 18 -4 39 -13 67h-5
c-31 -49 -46 -81 -46 -103c0 -17 10 -27 24 -27z" />
    <glyph glyph-name="uni0264" unicode="&#x264;" 
d="M238 -12c-102 0 -166 49 -166 146c0 68 43 140 126 208c-17 30 -39 42 -62 42c-17 0 -35 -6 -47 -14l-21 114c27 18 78 28 118 28c53 0 106 -20 140 -76c58 56 120 76 172 76c40 0 88 -10 108 -28l-71 -114c-9 8 -25 14 -42 14c-24 0 -45 -14 -73 -42
c35 -43 56 -92 56 -138c0 -116 -97 -216 -238 -216zM263 118c35 0 59 32 59 76c0 24 -10 50 -29 72c-43 -32 -67 -72 -67 -104c0 -28 14 -44 37 -44z" />
    <glyph glyph-name="uni0265" unicode="&#x265;" 
d="M278 -176l34 164l26 88h-4c-46 -50 -111 -88 -172 -88c-82 0 -130 44 -130 130c0 22 3 48 8 72l62 310h160l-58 -290c-4 -18 -7 -33 -7 -45c0 -28 15 -41 41 -41c33 0 79 26 118 78l58 298h160l-136 -676h-160z" />
    <glyph glyph-name="uni0266" unicode="&#x266;" 
d="M8 0l98 486c24 120 96 222 263 222c53 0 89 -10 117 -22l-54 -126c-22 10 -42 14 -64 14c-52 0 -84 -18 -102 -82l-26 -88h4c46 50 111 88 172 88c82 0 130 -44 130 -130c0 -22 -3 -48 -8 -72l-58 -290h-160l54 270c4 18 7 33 7 45c0 28 -15 41 -41 41
c-33 0 -79 -26 -118 -78l-54 -278h-160z" />
    <glyph glyph-name="uni0267" unicode="&#x267;" 
d="M280 -188c-36 0 -68 6 -104 24l48 114c14 -8 28 -12 42 -12c32 0 46 18 56 70l52 262c3 18 7 33 7 45c0 28 -15 41 -41 41c-33 0 -79 -26 -118 -78l-54 -278h-160l98 486c24 120 96 222 263 222c53 0 89 -10 117 -22l-54 -126c-22 10 -42 14 -64 14
c-52 0 -84 -18 -102 -82l-26 -88h4c46 50 111 88 172 88c82 0 130 -44 130 -130c0 -22 -3 -48 -8 -72l-58 -290c-21 -104 -76 -188 -200 -188z" />
    <glyph glyph-name="uni029C" unicode="&#x29c;" 
d="M10 1l98 500h160l-34 -178h138l34 178h160l-98 -500h-160l37 184h-139l-36 -184h-160z" />
    <glyph glyph-name="uni0268" unicode="&#x268;" 
d="M56 216l14 70l136 6l22 84h-158l26 124h318l-50 -208h120l-16 -76h-123l-5 -22c-2 -8 -4 -16 -4 -24c0 -37 22 -52 54 -52c22 0 42 6 72 18l32 -120c-44 -18 -90 -28 -154 -28c-102 0 -168 58 -168 150c0 20 4 40 10 62l4 16h-130zM344 570c-50 0 -98 28 -98 87
c0 56 49 105 112 105c57 0 99 -30 99 -87c0 -60 -50 -105 -113 -105z" />
    <glyph glyph-name="uni026A" unicode="&#x26a;" 
d="M22 0l26 134h136l46 232h-136l26 134h440l-26 -134h-138l-46 -232h138l-26 -134h-440z" />
    <glyph glyph-name="uni029D" unicode="&#x29d;" 
d="M336 -220c-6 35 -14 66 -25 93c-39 -38 -88 -61 -145 -61c-92 0 -160 56 -160 138c0 102 66 170 178 170c20 0 44 -4 68 -13l54 269h-196l26 124h354l-92 -458c-2 -10 -5 -21 -8 -31c39 -44 70 -101 84 -173zM170 -62c26 0 48 18 58 52c-18 12 -36 18 -54 18
c-28 0 -44 -16 -44 -40c0 -18 12 -30 40 -30zM422 570c-50 0 -98 28 -98 87c0 56 49 105 112 105c57 0 99 -30 99 -87c0 -60 -50 -105 -113 -105z" />
    <glyph glyph-name="uni029E" unicode="&#x29e;" 
d="M274 -176l74 360h-4l-198 -184h-184l223 208l-135 292h162l82 -195l94 81l22 114h160l-136 -676h-160z" />
    <glyph glyph-name="uni026B" unicode="&#x26b;" 
d="M326 -12c-94 0 -160 62 -160 166c0 20 2 42 8 66l25 108h-9c-16 0 -32 -10 -38 -46l-104 6c18 112 70 158 140 158c14 0 26 -1 38 -3l30 129h-134l26 124h292l-69 -305c4 -1 7 -1 11 -1c16 0 32 10 38 46l104 -6c-18 -112 -70 -158 -140 -158c-14 0 -27 1 -39 4l-17 -78
c-2 -8 -4 -18 -4 -34c0 -32 24 -46 52 -46c29 0 46 6 78 20l32 -118c-54 -24 -102 -32 -160 -32z" />
    <glyph glyph-name="uni026C" unicode="&#x26c;" 
d="M176 262c-88 0 -134 48 -134 110s46 106 104 106c37 0 63 -14 79 -37l31 132h-134l26 124h292l-80 -355h130l-16 -80h-132l-14 -63c-2 -8 -4 -18 -4 -34c0 -32 24 -46 52 -46c29 0 46 6 78 20l32 -118c-54 -24 -102 -32 -160 -32c-94 0 -160 62 -160 166c0 20 2 42 8 66
l10 41h-8zM202 342c6 26 -6 58 -46 58c-20 0 -30 -12 -30 -28s14 -30 48 -30h28z" />
    <glyph glyph-name="uni026D" unicode="&#x26d;" 
d="M288 -188c-94 0 -160 62 -160 166c0 20 3 42 8 66l120 528h-134l26 124h292l-150 -674c-2 -8 -4 -18 -4 -34c0 -32 24 -46 52 -46c29 0 46 6 78 20l32 -118c-54 -24 -102 -32 -160 -32z" />
    <glyph glyph-name="uni026E" unicode="&#x26e;" 
d="M282 -188c-92 0 -158 38 -194 84l82 92c28 -30 64 -50 118 -50c58 0 100 46 100 120c0 48 -34 70 -72 70c-25 0 -33 -2 -56 -10l-36 80l176 178h-196l-76 -376h-160l140 696h160l-39 -196h383l-18 -92l-168 -174c72 -14 124 -68 124 -144c0 -146 -112 -278 -268 -278z
" />
    <glyph glyph-name="uni029F" unicode="&#x29f;" 
d="M66 0l98 500h160l-74 -376h258l-26 -124h-416z" />
    <glyph glyph-name="uni026F" unicode="&#x26f;" 
d="M608 500l-98 -500h-114v64h-4c-27 -39 -72 -76 -132 -76c-40 0 -62 22 -68 68c-32 -44 -76 -68 -128 -68c-48 0 -78 32 -78 90c0 18 2 31 6 50l76 372h146l-70 -340c-2 -10 -2 -14 -2 -18c0 -14 6 -18 16 -18c18 0 32 12 48 41l69 335h124l-71 -340c-2 -10 -2 -14 -2 -18
c0 -14 7 -18 18 -18c18 0 35 11 52 42l64 334h148z" />
    <glyph glyph-name="uni0270" unicode="&#x270;" 
d="M326 -176l28 128c5 22 20 59 42 112h-4c-27 -39 -72 -76 -132 -76c-40 0 -62 22 -68 68c-32 -44 -76 -68 -128 -68c-48 0 -78 32 -78 90c0 18 2 31 6 50l76 372h146l-70 -340c-2 -10 -2 -14 -2 -18c0 -14 6 -18 16 -18c18 0 32 12 48 41l69 335h124l-71 -340
c-2 -10 -2 -14 -2 -18c0 -14 7 -18 18 -18c18 0 35 11 52 42l64 334h148l-136 -676h-146z" />
    <glyph glyph-name="uni0271" unicode="&#x271;" 
d="M337 -188c-33 0 -63 4 -95 20l48 114c10 -6 20 -8 29 -8c29 0 39 22 51 80l66 322c2 10 2 14 2 18c0 14 -6 18 -16 18c-18 0 -32 -12 -48 -41l-69 -335h-124l71 340c2 10 2 14 2 18c0 14 -7 18 -18 18c-18 0 -35 -11 -52 -42l-64 -334h-148l98 500h114v-64h4
c27 39 72 76 132 76c40 0 62 -22 68 -68c32 44 76 68 128 68c48 0 78 -32 78 -90c0 -18 -2 -31 -6 -50l-75 -368c-23 -114 -67 -192 -176 -192z" />
    <glyph glyph-name="uni0272" unicode="&#x272;" 
d="M-32 -188c-41 0 -62 6 -79 14l55 126c9 -4 15 -6 23 -6c23 0 33 14 39 44l100 510h129l-3 -80h4c46 46 120 92 184 92c82 0 130 -44 130 -130c0 -22 -3 -48 -8 -72l-62 -310h-160l58 290c4 18 7 33 7 45c0 28 -15 41 -41 41c-33 0 -79 -26 -118 -78l-58 -302
c-20 -102 -72 -184 -200 -184z" />
    <glyph glyph-name="uni0273" unicode="&#x273;" 
d="M424 -188c-82 0 -114 42 -114 110c0 20 2 40 8 68l60 300c4 18 7 33 7 45c0 28 -15 41 -41 41c-33 0 -79 -26 -118 -78l-58 -298h-160l98 500h129l-3 -80h4c46 46 120 92 184 92c82 0 130 -44 130 -130c0 -22 -3 -48 -8 -72l-66 -326c-2 -10 -2 -14 -2 -19
c0 -19 12 -25 26 -25c8 0 14 2 22 4l-6 -118c-18 -6 -46 -14 -92 -14z" />
    <glyph glyph-name="uni0274" unicode="&#x274;" 
d="M16 0l98 500h152l64 -184c9 -28 24 -74 32 -104h4c4 62 10 124 20 174l22 114h152l-98 -500h-152l-64 184c-10 28 -24 74 -32 104h-4c-4 -62 -10 -124 -20 -174l-22 -114h-152z" />
    <glyph glyph-name="uni0275" unicode="&#x275;" 
d="M256 -12c-140 0 -226 88 -226 224c0 182 141 300 292 300c140 0 226 -88 226 -224c0 -182 -141 -300 -292 -300zM310 390c-47 0 -89 -31 -111 -84h196c-6 56 -35 84 -85 84zM268 110c50 0 93 34 114 92h-200c4 -61 33 -92 86 -92z" />
    <glyph glyph-name="uni0276" unicode="&#x276;" 
d="M190 -12c-96 0 -190 62 -190 200c0 188 128 324 270 324c38 0 72 -4 112 -12h236l-23 -112h-147l-16 -84h118l-18 -100h-120l-18 -92h156l-22 -112h-246c-32 -8 -58 -12 -92 -12zM218 118c10 0 18 2 28 6l50 254c-8 2 -17 4 -29 4c-55 0 -105 -88 -105 -184
c0 -64 26 -80 56 -80z" />
    <glyph glyph-name="uni0278" unicode="&#x278;" 
d="M157 216c0 -50 12 -83 33 -98l61 270c-50 -6 -94 -84 -94 -172zM426 282c0 50 -12 82 -33 97l-61 -269c50 7 94 85 94 172zM124 -176l39 173c-89 19 -159 83 -159 207c0 189 133 296 273 302l43 190h144l-44 -196c88 -18 158 -83 158 -206c0 -188 -132 -296 -272 -302
l-38 -168h-144z" />
    <glyph glyph-name="uni0279" unicode="&#x279;" 
d="M530 500l-98 -501l-130 1l12 130h-4c-52 -90 -128 -142 -200 -142c-44 0 -80 8 -98 20l56 138c22 -11 46 -16 74 -16c62 0 132 62 186 164l42 206h160z" />
    <glyph glyph-name="uni027A" unicode="&#x27a;" 
d="M109 -12c-44 0 -79 8 -97 20l56 138c24 -12 52 -17 84 -14c56 5 123 63 176 164l100 400h160l-156 -696h-130l12 129h-4c-52 -90 -128 -141 -201 -141z" />
    <glyph glyph-name="uni027B" unicode="&#x27b;" 
d="M360 -188c-96 0 -128 54 -128 122c0 18 2 37 6 56l19 96h-4c-49 -68 -89 -98 -155 -98c-28 0 -54 6 -86 20l56 138c29 -14 56 -16 78 -16c35 0 82 14 119 92l55 278h160l-98 -490c-2 -10 -4 -21 -4 -34c0 -26 20 -36 44 -36c10 0 16 2 26 6l-6 -120
c-21 -8 -43 -14 -82 -14z" />
    <glyph glyph-name="uni027D" unicode="&#x27d;" 
d="M238 -188c-124 0 -176 60 -176 154c0 20 2 38 8 66l92 469l130 -1l-12 -130h4c52 90 128 142 200 142c44 0 80 -8 98 -20l-56 -138c-22 11 -46 16 -74 16c-62 0 -132 -62 -186 -164l-34 -166c-4 -18 -4 -26 -4 -36c0 -46 23 -62 60 -62c38 0 76 18 104 36l48 -111
c-45 -31 -122 -55 -202 -55z" />
    <glyph glyph-name="uni027E" unicode="&#x27e;" 
d="M64 0l60 300c24 118 116 212 294 212c74 0 130 -8 164 -20l-54 -144c-46 14 -64 18 -114 18s-120 -30 -134 -104l-51 -262h-165z" />
    <glyph glyph-name="uni0280" unicode="&#x280;" 
d="M34 0l98 500h230c98 0 174 -42 174 -140c0 -80 -47 -144 -117 -179l75 -181h-162l-49 150h-59l-30 -150h-160zM246 264h50c46 0 74 32 74 64c0 34 -16 51 -52 50h-50z" />
    <glyph glyph-name="uni0281" unicode="&#x281;" 
d="M546 500l-98 -500h-230c-98 0 -174 42 -174 140c0 80 47 144 117 179l-75 181h162l49 -150h59l30 150h160zM334 236h-50c-46 0 -74 -32 -74 -64c0 -34 16 -51 52 -50h50z" />
    <glyph glyph-name="uni0282" unicode="&#x282;" 
d="M156 -188c-109 0 -144 67 -144 138c0 37 8 76 20 130l87 100c53 -52 113 -74 171 -74c38 0 58 10 58 28c0 22 -16 32 -86 54c-100 32 -158 78 -158 156c0 110 104 168 220 168c98 0 164 -35 212 -82l-87 -93c-40 32 -93 57 -143 57c-31 0 -52 -9 -52 -30
c0 -20 22 -30 98 -56c88 -30 146 -70 146 -152c0 -115 -102 -168 -234 -168c-36 0 -71 5 -102 15c-2 -12 -2 -20 -2 -25c0 -26 14 -36 38 -36c14 0 24 2 36 6l6 -122c-21 -8 -44 -14 -84 -14z" />
    <glyph glyph-name="uni0283" unicode="&#x283;" 
d="M100 -188c-58 0 -98 20 -126 48l64 104c24 -20 42 -26 62 -26c34 0 51 22 63 82l96 474c23 112 86 214 227 214c64 0 120 -24 158 -52l-70 -100c-30 18 -53 26 -76 26c-44 0 -68 -22 -80 -82l-92 -474c-22 -112 -84 -214 -226 -214z" />
    <glyph glyph-name="uni0284" unicode="&#x284;" 
d="M100 -188c-58 0 -98 20 -126 48l64 104c24 -20 42 -26 62 -26c34 0 51 22 63 82l41 204h-130l14 70l132 6l39 194c23 112 86 214 227 214c64 0 120 -24 158 -52l-70 -100c-30 18 -53 26 -76 26c-44 0 -68 -22 -80 -82l-39 -200h147l-16 -76h-146l-38 -198
c-22 -112 -84 -214 -226 -214z" />
    <glyph glyph-name="uni0287" unicode="&#x287;" 
d="M270 512c124 0 176 -60 176 -154c0 -20 -2 -38 -8 -66l-34 -168h126l-24 -118l-134 -6l-54 -150h-130l32 150h-200l24 124h202l34 160c4 18 4 26 4 36c0 46 -27 62 -64 62c-38 0 -76 -18 -104 -36l-48 111c45 31 122 55 202 55z" />
    <glyph glyph-name="uni0288" unicode="&#x288;" 
d="M274 -188c-124 0 -176 60 -176 154c0 20 2 38 8 66l70 344h-126l24 118l134 6l54 150h130l-32 -150h200l-24 -124h-202l-70 -336c-4 -18 -4 -26 -4 -36c0 -46 27 -62 64 -62c38 0 76 18 104 36l48 -111c-45 -31 -122 -55 -202 -55z" />
    <glyph glyph-name="uni0289" unicode="&#x289;" 
d="M252 124c26 0 50 18 82 56l17 90h-121l-12 -60c-4 -18 -8 -32 -8 -44c0 -28 16 -42 42 -42zM164 -12c-82 0 -118 44 -118 130c0 22 3 48 8 72l16 80h-68l14 70l69 6l31 154h160l-31 -154h121l30 154h160l-30 -154h66l-16 -76h-65l-53 -270h-130v64h-4
c-42 -40 -100 -76 -160 -76z" />
    <glyph glyph-name="uni028A" unicode="&#x28a;" 
d="M238 -12c-132 0 -198 82 -198 172s60 170 110 215l1 3h-83l24 122h212l-20 -110c-47 -57 -80 -126 -80 -198c0 -44 18 -74 61 -74c61 0 107 74 107 174c0 34 -6 65 -22 98l22 110h212l-24 -122h-83l-1 -3c23 -31 44 -74 44 -129c0 -132 -118 -258 -282 -258z" />
    <glyph glyph-name="uni028B" unicode="&#x28b;" 
d="M256 -12c-138 0 -218 52 -218 168c0 20 5 52 10 76l54 268h160l-54 -266c-4 -22 -4 -34 -4 -46c0 -48 18 -70 64 -70c72 0 118 116 118 210c0 36 -14 52 -44 52c-5 0 -7 0 -16 -2l8 126c20 6 40 8 72 8c82 0 142 -47 142 -156c0 -196 -114 -368 -292 -368z" />
    <glyph glyph-name="uni028C" unicode="&#x28c;" 
d="M432 500l84 -500h-158l-26 230c-6 50 -9 101 -13 154h-4c-22 -51 -48 -104 -73 -154l-114 -230h-158l276 500h186z" />
    <glyph glyph-name="uni028D" unicode="&#x28d;" 
d="M559 500l-27 -500h-152l25 223c6 50 12 100 16 151h-4c-15 -51 -32 -103 -52 -151l-56 -149h-108l1 149c1 50 2 100 5 151h-4c-16 -51 -28 -101 -42 -151l-61 -223h-146l168 500h177l-7 -154c-2 -46 -8 -90 -13 -145h4c14 54 22 86 42 147l50 152h184z" />
    <glyph glyph-name="uni028E" unicode="&#x28e;" 
d="M-32 0l298 520c74 130 152 188 270 188c38 0 78 -12 98 -26l-44 -108c-16 8 -44 16 -64 16c-46 0 -71 -16 -92 -50l-27 -44l109 -496h-154l-32 194c-8 50 -16 118 -20 160h-4c-18 -42 -50 -110 -76 -160l-100 -194h-162z" />
    <glyph glyph-name="uni028F" unicode="&#x28f;" 
d="M159 0l28 144l-120 356h173l24 -96c3 -41 28 -77 32 -120h4c21 43 61 79 82 120l60 96h171l-260 -356l-29 -144h-165z" />
    <glyph glyph-name="uni0290" unicode="&#x290;" 
d="M446 -188c-109 0 -144 67 -144 138c0 18 2 30 6 50h-290l18 94l294 284h-236l26 122h440l-18 -94l-292 -282h246c-18 -86 -26 -130 -26 -146c0 -23 10 -32 30 -32c9 0 16 2 26 6l4 -126c-21 -8 -44 -14 -84 -14z" />
    <glyph glyph-name="uni0291" unicode="&#x291;" 
d="M282 -112l-72 16c13 34 26 66 40 96h-232l18 94l274 284h-216l26 122h414l-18 -94l-278 -284c25 -3 48 -5 72 -7c56 91 115 143 174 143c58 0 86 -26 86 -80c0 -88 -66 -178 -212 -178h-30c-14 -32 -30 -69 -46 -112zM427 112c37 0 57 22 57 40c0 12 -8 18 -22 18
c-17 0 -41 -16 -71 -58h36z" />
    <glyph glyph-name="uni0292" unicode="&#x292;" 
d="M194 -188c-98 0 -170 42 -210 94l82 92c32 -36 76 -60 134 -60c74 0 124 46 124 108c0 56 -43 82 -92 82c-29 0 -39 -1 -66 -10l-36 80l196 178h-218l24 124h416l-18 -92l-188 -174c92 -16 144 -80 144 -162c0 -136 -120 -260 -292 -260z" />
    <glyph glyph-name="uni02A4" unicode="&#x2a4;" 
d="M146 118c12 0 26 8 36 42l40 198c-4 16 -14 24 -26 24c-36 0 -78 -84 -78 -204c0 -42 10 -60 28 -60zM334 -188c-64 0 -100 26 -128 60l82 92c16 -18 32 -26 48 -26c46 0 86 58 86 120c0 42 -18 60 -40 60c-8 0 -12 0 -24 -6l-32 92l130 172h-100l-76 -376h-100l-6 38h-2
c-33 -35 -64 -50 -94 -50c-67 0 -106 70 -106 188c0 180 102 336 208 336c28 0 54 -14 72 -42h2l10 90l26 136h130l-39 -196h251l-18 -92l-139 -187c60 -13 93 -67 93 -133c0 -134 -92 -276 -234 -276z" />
    <glyph glyph-name="uni02A6" unicode="&#x2a6;" 
d="M268 -12c-161 0 -228 66 -228 160c0 28 8 57 14 86l30 142h-64l24 118l72 6l54 150h130l-32 -150h135c21 8 45 12 69 12c55 0 96 -25 130 -60l-76 -86c-19 19 -34 28 -56 28c-19 0 -30 -14 -30 -36c0 -49 120 -66 120 -184c0 -108 -84 -186 -292 -186zM310 108
c78 0 100 20 100 48c0 67 -120 68 -120 188c0 11 1 22 3 32h-51l-30 -148c-4 -21 -8 -35 -8 -52c0 -47 36 -68 106 -68z" />
    <glyph glyph-name="uni02A7" unicode="&#x2a7;" 
d="M281 -188c-37 0 -61 6 -79 14l46 118c12 -4 22 -6 34 -6c26 0 40 22 52 82l71 356h-159l-38 -188c-2 -12 -2 -22 -2 -32c0 -30 12 -44 38 -44c8 0 18 2 26 6l28 -112c-26 -10 -66 -18 -116 -18c-98 0 -140 58 -140 140c0 22 4 44 8 66l38 182h-64l24 118l72 6l54 150h130
l-32 -150h157l1 4c20 100 78 204 223 204c39 0 59 -6 77 -14l-52 -118c-8 4 -16 6 -26 6c-32 0 -48 -18 -61 -82l-95 -474c-22 -112 -77 -214 -215 -214z" />
    <glyph glyph-name="uni0294" unicode="&#x294;" 
d="M138 0l64 314c164 80 200 140 200 198c0 46 -28 70 -74 70c-48 0 -88 -22 -146 -62l-62 108c74 52 134 80 236 80c114 0 212 -60 212 -178c0 -112 -84 -196 -220 -274l-50 -256h-160z" />
    <glyph glyph-name="uni0295" unicode="&#x295;" 
d="M178 0l50 252c-72 72 -122 134 -122 220c0 142 117 236 258 236c115 0 188 -44 234 -104l-88 -90c-44 46 -82 68 -144 68c-58 0 -94 -42 -94 -92c0 -63 26 -104 128 -176l-62 -314h-160z" />
    <glyph glyph-name="uni02A1" unicode="&#x2a1;" 
d="M138 0l47 234h-121l14 70l124 6c162 82 200 144 200 202c0 46 -28 70 -74 70c-48 0 -88 -22 -146 -62l-62 108c74 52 134 80 236 80c114 0 212 -60 212 -178c0 -87 -66 -158 -162 -220h118l-16 -76h-164l-46 -234h-160z" />
    <glyph glyph-name="uni02A2" unicode="&#x2a2;" 
d="M178 0l47 234h-161l14 70l112 6c-56 50 -84 104 -84 162c0 142 117 236 258 236c115 0 188 -44 234 -104l-88 -90c-44 46 -82 68 -144 68c-58 0 -94 -42 -94 -92c0 -73 38 -118 112 -180h140l-16 -76h-123l-47 -234h-160z" />
    <glyph glyph-name="uni01C2" unicode="&#x1c2;" 
d="M116 -176l68 300h-144l14 74l148 6l29 126h-151l14 74l155 6l65 286h156l-65 -286h129l-16 -80h-131l-29 -126h136l-16 -80h-138l-68 -300h-156z" />
    <glyph glyph-name="uni0298" unicode="&#x298;" 
d="M254 -12c-134 0 -210 103 -210 246c0 260 118 474 316 474c134 0 210 -103 210 -246c0 -260 -118 -474 -316 -474zM264 118c78 0 158 154 158 348c0 73 -22 112 -72 112c-78 0 -158 -154 -158 -348c0 -73 22 -112 72 -112zM306 274c-38 0 -66 22 -66 66c0 46 32 86 78 86
c38 0 66 -22 66 -66c0 -46 -32 -86 -78 -86z" />
    <glyph glyph-name="uni014A.a" 
d="M269 -188c-36 0 -68 6 -104 24l48 114c14 -8 28 -12 42 -12c29 0 45 14 57 62l-63 310l-21 144h-4c-6 -73 -16 -189 -28 -252l-39 -202h-151l130 650h160l57 -310l21 -144h4c6 70 18 195 27 242l42 212h151l-130 -650c-22 -104 -76 -188 -199 -188z" />
    <glyph glyph-name="a.a" 
d="M160 -12c-80 0 -138 50 -138 124c0 124 104 200 354 208c2 10 2 14 2 16c0 32 -20 52 -75 52c-48 0 -89 -12 -161 -42l-46 110c80 36 158 56 249 56c109 0 189 -52 189 -164c0 -22 -2 -42 -8 -72l-54 -276h-130v62h-4c-50 -48 -110 -74 -178 -74zM224 110
c36 0 92 20 126 60l10 62c-134 -8 -182 -48 -182 -86c0 -24 15 -36 46 -36z" />
    <glyph glyph-name="agrave.a" 
d="M160 -12c-80 0 -138 50 -138 124c0 124 104 200 354 208c2 10 2 14 2 16c0 32 -20 52 -75 52c-48 0 -89 -12 -161 -42l-46 110c80 36 158 56 249 56c109 0 189 -52 189 -164c0 -22 -2 -42 -8 -72l-54 -276h-130v62h-4c-50 -48 -110 -74 -178 -74zM224 110
c36 0 92 20 126 60l10 62c-134 -8 -182 -48 -182 -86c0 -24 15 -36 46 -36zM376 569l-162 173l136 102l124 -199z" />
    <glyph glyph-name="aacute.a" 
d="M160 -12c-80 0 -138 50 -138 124c0 124 104 200 354 208c2 10 2 14 2 16c0 32 -20 52 -75 52c-48 0 -89 -12 -161 -42l-46 110c80 36 158 56 249 56c109 0 189 -52 189 -164c0 -22 -2 -42 -8 -72l-54 -276h-130v62h-4c-50 -48 -110 -74 -178 -74zM224 110
c36 0 92 20 126 60l10 62c-134 -8 -182 -48 -182 -86c0 -24 15 -36 46 -36zM326 578l-69 90l191 172l95 -122z" />
    <glyph glyph-name="acircumflex.a" 
d="M160 -12c-80 0 -138 50 -138 124c0 124 104 200 354 208c2 10 2 14 2 16c0 32 -20 52 -75 52c-48 0 -89 -12 -161 -42l-46 110c80 36 158 56 249 56c109 0 189 -52 189 -164c0 -22 -2 -42 -8 -72l-54 -276h-130v62h-4c-50 -48 -110 -74 -178 -74zM224 110
c36 0 92 20 126 60l10 62c-134 -8 -182 -48 -182 -86c0 -24 15 -36 46 -36zM206 558l-54 64l128 124h176l84 -128l-70 -60l-110 88h-4z" />
    <glyph glyph-name="atilde.a" 
d="M160 -12c-80 0 -138 50 -138 124c0 124 104 200 354 208c2 10 2 14 2 16c0 32 -20 52 -75 52c-48 0 -89 -12 -161 -42l-46 110c80 36 158 56 249 56c109 0 189 -52 189 -164c0 -22 -2 -42 -8 -72l-54 -276h-130v62h-4c-50 -48 -110 -74 -178 -74zM224 110
c36 0 92 20 126 60l10 62c-134 -8 -182 -48 -182 -86c0 -24 15 -36 46 -36zM418 572c-65 0 -86 56 -124 56c-16 0 -32 -10 -38 -46l-104 6c18 113 75 158 150 158c65 0 86 -56 124 -56c16 0 32 10 38 46l104 -6c-18 -113 -75 -158 -150 -158z" />
    <glyph glyph-name="adieresis.a" 
d="M160 -12c-80 0 -138 50 -138 124c0 124 104 200 354 208c2 10 2 14 2 16c0 32 -20 52 -75 52c-48 0 -89 -12 -161 -42l-46 110c80 36 158 56 249 56c109 0 189 -52 189 -164c0 -22 -2 -42 -8 -72l-54 -276h-130v62h-4c-50 -48 -110 -74 -178 -74zM224 110
c36 0 92 20 126 60l10 62c-134 -8 -182 -48 -182 -86c0 -24 15 -36 46 -36zM238 566c-37 0 -66 23 -66 66s36 82 84 82c37 0 66 -25 66 -66c0 -46 -36 -82 -84 -82zM458 566c-37 0 -66 23 -66 66s36 82 84 82c37 0 66 -25 66 -66c0 -46 -36 -82 -84 -82z" />
    <glyph glyph-name="amacron.a" 
d="M160 -12c-80 0 -138 50 -138 124c0 124 104 200 354 208c2 10 2 14 2 16c0 32 -20 52 -75 52c-48 0 -89 -12 -161 -42l-46 110c80 36 158 56 249 56c109 0 189 -52 189 -164c0 -22 -2 -42 -8 -72l-54 -276h-130v62h-4c-50 -48 -110 -74 -178 -74zM224 110
c36 0 92 20 126 60l10 62c-134 -8 -182 -48 -182 -86c0 -24 15 -36 46 -36zM200 590l20 100h294l-20 -100h-294z" />
    <glyph glyph-name="abreve.a" 
d="M160 -12c-80 0 -138 50 -138 124c0 124 104 200 354 208c2 10 2 14 2 16c0 32 -20 52 -75 52c-48 0 -89 -12 -161 -42l-46 110c80 36 158 56 249 56c109 0 189 -52 189 -164c0 -22 -2 -42 -8 -72l-54 -276h-130v62h-4c-50 -48 -110 -74 -178 -74zM224 110
c36 0 92 20 126 60l10 62c-134 -8 -182 -48 -182 -86c0 -24 15 -36 46 -36zM344 572c-117 0 -160 66 -146 160l100 16c-2 -40 18 -70 66 -70s76 30 90 70l92 -16c-18 -94 -84 -160 -202 -160z" />
    <glyph glyph-name="aring.a" 
d="M160 -12c-80 0 -138 50 -138 124c0 124 104 200 354 208c2 10 2 14 2 16c0 32 -20 52 -75 52c-48 0 -89 -12 -161 -42l-46 110c80 36 158 56 249 56c109 0 189 -52 189 -164c0 -22 -2 -42 -8 -72l-54 -276h-130v62h-4c-50 -48 -110 -74 -178 -74zM224 110
c36 0 92 20 126 60l10 62c-134 -8 -182 -48 -182 -86c0 -24 15 -36 46 -36zM346 570c-71 0 -122 34 -122 92c0 66 65 116 154 116c72 0 122 -34 122 -92c0 -66 -65 -116 -154 -116zM356 630c24 0 44 24 44 52c0 18 -10 36 -32 36c-24 0 -44 -24 -44 -52c0 -20 10 -36 32 -36
z" />
    <glyph glyph-name="aringacute.a" 
d="M160 -12c-80 0 -138 50 -138 124c0 124 104 200 354 208c2 10 2 14 2 16c0 32 -20 52 -75 52c-48 0 -89 -12 -161 -42l-46 110c80 36 158 56 249 56c109 0 189 -52 189 -164c0 -22 -2 -42 -8 -72l-54 -276h-130v62h-4c-50 -48 -110 -74 -178 -74zM224 110
c36 0 92 20 126 60l10 62c-134 -8 -182 -48 -182 -86c0 -24 15 -36 46 -36zM346 570c-71 0 -122 34 -122 92c0 39 22 72 59 93l157 141l69 -66l-92 -56c51 -10 83 -41 83 -88c0 -66 -65 -116 -154 -116zM356 630c24 0 44 24 44 52c0 18 -10 36 -32 36c-24 0 -44 -24 -44 -52
c0 -20 10 -36 32 -36z" />
    <glyph glyph-name="uni01CE.a" 
d="M160 -12c-80 0 -138 50 -138 124c0 124 104 200 354 208c2 10 2 14 2 16c0 32 -20 52 -75 52c-48 0 -89 -12 -161 -42l-46 110c80 36 158 56 249 56c109 0 189 -52 189 -164c0 -22 -2 -42 -8 -72l-54 -276h-130v62h-4c-50 -48 -110 -74 -178 -74zM224 110
c36 0 92 20 126 60l10 62c-134 -8 -182 -48 -182 -86c0 -24 15 -36 46 -36zM266 580l-84 128l70 60l110 -88h4l150 88l54 -64l-128 -124h-176z" />
    <glyph glyph-name="uni1EA1.a" 
d="M160 -12c-80 0 -138 50 -138 124c0 124 104 200 354 208c2 10 2 14 2 16c0 32 -20 52 -75 52c-48 0 -89 -12 -161 -42l-46 110c80 36 158 56 249 56c109 0 189 -52 189 -164c0 -22 -2 -42 -8 -72l-54 -276h-130v62h-4c-50 -48 -110 -74 -178 -74zM224 110
c36 0 92 20 126 60l10 62c-134 -8 -182 -48 -182 -86c0 -24 15 -36 46 -36zM204 -256c-50 0 -98 28 -98 87c0 56 49 105 112 105c57 0 99 -30 99 -87c0 -60 -50 -105 -113 -105z" />
    <glyph glyph-name="uni1EA3.a" 
d="M160 -12c-80 0 -138 50 -138 124c0 124 104 200 354 208c2 10 2 14 2 16c0 32 -20 52 -75 52c-48 0 -89 -12 -161 -42l-46 110c80 36 158 56 249 56c109 0 189 -52 189 -164c0 -22 -2 -42 -8 -72l-54 -276h-130v62h-4c-50 -48 -110 -74 -178 -74zM224 110
c36 0 92 20 126 60l10 62c-134 -8 -182 -48 -182 -86c0 -24 15 -36 46 -36zM289 566l1 66c22 3 41 10 45 30c5 22 -13 36 -70 40l30 104c146 -4 181 -58 167 -132c-14 -72 -91 -104 -173 -108z" />
    <glyph glyph-name="uni1EA5.a" 
d="M160 -12c-80 0 -138 50 -138 124c0 124 104 200 354 208c2 10 2 14 2 16c0 32 -20 52 -75 52c-48 0 -89 -12 -161 -42l-46 110c80 36 158 56 249 56c109 0 189 -52 189 -164c0 -22 -2 -42 -8 -72l-54 -276h-130v62h-4c-50 -48 -110 -74 -178 -74zM224 110
c36 0 92 20 126 60l10 62c-134 -8 -182 -48 -182 -86c0 -24 15 -36 46 -36zM237 564l-46 64l106 88h136l74 -96l-62 -56l-88 66h-4zM527 641l-54 55l98 122l79 -66z" />
    <glyph glyph-name="uni1EA7.a" 
d="M160 -12c-80 0 -138 50 -138 124c0 124 104 200 354 208c2 10 2 14 2 16c0 32 -20 52 -75 52c-48 0 -89 -12 -161 -42l-46 110c80 36 158 56 249 56c109 0 189 -52 189 -164c0 -22 -2 -42 -8 -72l-54 -276h-130v62h-4c-50 -48 -110 -74 -178 -74zM224 110
c36 0 92 20 126 60l10 62c-134 -8 -182 -48 -182 -86c0 -24 15 -36 46 -36zM237 564l-46 64l106 88h136l74 -96l-62 -56l-88 66h-4zM143 637l-80 130l100 49l53 -135z" />
    <glyph glyph-name="uni1EA9.a" 
d="M160 -12c-80 0 -138 50 -138 124c0 124 104 200 354 208c2 10 2 14 2 16c0 32 -20 52 -75 52c-48 0 -89 -12 -161 -42l-46 110c80 36 158 56 249 56c109 0 189 -52 189 -164c0 -22 -2 -42 -8 -72l-54 -276h-130v62h-4c-50 -48 -110 -74 -178 -74zM224 110
c36 0 92 20 126 60l10 62c-134 -8 -182 -48 -182 -86c0 -24 15 -36 46 -36zM238 564l-46 64l106 88h136l74 -96l-62 -56l-88 66h-4zM499 648l1 56c16 3 27 8 30 24s-8 26 -58 30l30 70c121 -4 151 -36 142 -82c-14 -70 -74 -90 -145 -98z" />
    <glyph glyph-name="uni1EAB.a" 
d="M160 -12c-80 0 -138 50 -138 124c0 124 104 200 354 208c2 10 2 14 2 16c0 32 -20 52 -75 52c-48 0 -89 -12 -161 -42l-46 110c80 36 158 56 249 56c109 0 189 -52 189 -164c0 -22 -2 -42 -8 -72l-54 -276h-130v62h-4c-50 -48 -110 -74 -178 -74zM224 110
c36 0 92 20 126 60l10 62c-134 -8 -182 -48 -182 -86c0 -24 15 -36 46 -36zM246 564l-46 64l102 78h136l78 -86l-62 -56l-92 56h-4zM430 718c-54 0 -68 42 -94 42c-14 0 -26 -10 -38 -36l-74 8c25 86 66 120 118 120c54 0 68 -42 94 -42c14 0 26 10 36 36l74 -8
c-23 -86 -64 -120 -116 -120z" />
    <glyph glyph-name="uni1EAD.a" 
d="M160 -12c-80 0 -138 50 -138 124c0 124 104 200 354 208c2 10 2 14 2 16c0 32 -20 52 -75 52c-48 0 -89 -12 -161 -42l-46 110c80 36 158 56 249 56c109 0 189 -52 189 -164c0 -22 -2 -42 -8 -72l-54 -276h-130v62h-4c-50 -48 -110 -74 -178 -74zM224 110
c36 0 92 20 126 60l10 62c-134 -8 -182 -48 -182 -86c0 -24 15 -36 46 -36zM206 558l-54 64l128 124h176l84 -128l-70 -60l-110 88h-4zM204 -256c-50 0 -98 28 -98 87c0 56 49 105 112 105c57 0 99 -30 99 -87c0 -60 -50 -105 -113 -105z" />
    <glyph glyph-name="uni1EAF.a" 
d="M160 -12c-80 0 -138 50 -138 124c0 124 104 200 354 208c2 10 2 14 2 16c0 32 -20 52 -75 52c-48 0 -89 -12 -161 -42l-46 110c80 36 158 56 249 56c109 0 189 -52 189 -164c0 -22 -2 -42 -8 -72l-54 -276h-130v62h-4c-50 -48 -110 -74 -178 -74zM224 110
c36 0 92 20 126 60l10 62c-134 -8 -182 -48 -182 -86c0 -24 15 -36 46 -36zM342 572c-117 0 -160 66 -146 160l90 16c-1 -46 20 -80 74 -80s87 34 102 80l82 -16c-18 -94 -84 -160 -202 -160zM374 709l-64 56l122 138l86 -82z" />
    <glyph glyph-name="uni1EB1.a" 
d="M160 -12c-80 0 -138 50 -138 124c0 124 104 200 354 208c2 10 2 14 2 16c0 32 -20 52 -75 52c-48 0 -89 -12 -161 -42l-46 110c80 36 158 56 249 56c109 0 189 -52 189 -164c0 -22 -2 -42 -8 -72l-54 -276h-130v62h-4c-50 -48 -110 -74 -178 -74zM224 110
c36 0 92 20 126 60l10 62c-134 -8 -182 -48 -182 -86c0 -24 15 -36 46 -36zM342 572c-117 0 -160 66 -146 160l90 16c-1 -46 20 -80 74 -80s87 34 102 80l82 -16c-18 -94 -84 -160 -202 -160zM356 705l-99 133l113 65l69 -155z" />
    <glyph glyph-name="uni1EB3.a" 
d="M160 -12c-80 0 -138 50 -138 124c0 124 104 200 354 208c2 10 2 14 2 16c0 32 -20 52 -75 52c-48 0 -89 -12 -161 -42l-46 110c80 36 158 56 249 56c109 0 189 -52 189 -164c0 -22 -2 -42 -8 -72l-54 -276h-130v62h-4c-50 -48 -110 -74 -178 -74zM224 110
c36 0 92 20 126 60l10 62c-134 -8 -182 -48 -182 -86c0 -24 15 -36 46 -36zM342 572c-117 0 -159 66 -143 160l89 16c-2 -46 18 -80 72 -80s88 34 104 80l83 -16c-20 -94 -87 -160 -205 -160zM329 703l1 56c17 3 28 8 31 24s-8 26 -58 30l33 91c121 -4 149 -45 138 -103
c-13 -70 -73 -90 -145 -98z" />
    <glyph glyph-name="uni1EB5.a" 
d="M160 -12c-80 0 -138 50 -138 124c0 124 104 200 354 208c2 10 2 14 2 16c0 32 -20 52 -75 52c-48 0 -89 -12 -161 -42l-46 110c80 36 158 56 249 56c109 0 189 -52 189 -164c0 -22 -2 -42 -8 -72l-54 -276h-130v62h-4c-50 -48 -110 -74 -178 -74zM224 110
c36 0 92 20 126 60l10 62c-134 -8 -182 -48 -182 -86c0 -24 15 -36 46 -36zM342 572c-106 0 -144 52 -138 116l84 14c3 -24 19 -46 68 -46c50 0 74 22 84 46l80 -14c-18 -64 -72 -116 -178 -116zM422 716c-54 0 -68 42 -94 42c-14 0 -26 -10 -36 -36l-84 8
c23 86 69 120 126 120c54 0 68 -42 94 -42c14 0 26 10 38 36l84 -8c-25 -86 -71 -120 -128 -120z" />
    <glyph glyph-name="uni1EB7.a" 
d="M160 -12c-80 0 -138 50 -138 124c0 124 104 200 354 208c2 10 2 14 2 16c0 32 -20 52 -75 52c-48 0 -89 -12 -161 -42l-46 110c80 36 158 56 249 56c109 0 189 -52 189 -164c0 -22 -2 -42 -8 -72l-54 -276h-130v62h-4c-50 -48 -110 -74 -178 -74zM224 110
c36 0 92 20 126 60l10 62c-134 -8 -182 -48 -182 -86c0 -24 15 -36 46 -36zM344 572c-117 0 -160 66 -146 160l100 16c-2 -40 18 -70 66 -70s76 30 90 70l92 -16c-18 -94 -84 -160 -202 -160zM204 -256c-50 0 -98 28 -98 87c0 56 49 105 112 105c57 0 99 -30 99 -87
c0 -60 -50 -105 -113 -105z" />
    <glyph glyph-name="aogonek.a" 
d="M344 -228c-60 0 -102 30 -102 88c0 68 64 122 100 142v60h-4c-50 -48 -110 -74 -178 -74c-80 0 -138 50 -138 124c0 124 104 200 354 208c2 10 2 14 2 16c0 32 -20 52 -75 52c-48 0 -89 -12 -161 -42l-46 110c80 36 158 56 249 56c109 0 189 -52 189 -164
c0 -22 -2 -42 -8 -72l-54 -276c-90 -24 -116 -62 -116 -94c0 -26 22 -40 46 -40c14 0 24 2 40 10l26 -64c-32 -24 -76 -40 -124 -40zM224 110c36 0 92 20 126 60l10 62c-134 -8 -182 -48 -182 -86c0 -24 15 -36 46 -36z" />
    <glyph glyph-name="g.a" 
d="M198 -206c-83 0 -224 14 -224 118c0 54 41 90 99 114v4c-16 16 -27 39 -27 68c0 42 32 78 74 98v4c-34 28 -52 66 -52 116c0 114 108 196 234 196c29 0 55 -4 78 -12h200l-22 -118h-66c3 -11 4 -22 4 -34c0 -108 -104 -190 -232 -190c-20 0 -50 2 -70 8
c-12 -7 -18 -20 -18 -34c0 -22 10 -30 96 -37c168 -13 212 -56 212 -119c0 -123 -142 -182 -286 -182zM276 254c54 0 84 48 84 92c0 38 -24 58 -62 58c-54 0 -84 -48 -84 -92c0 -38 24 -58 62 -58zM214 -108c76 0 112 16 112 44s-40 34 -100 42c-30 4 -46 6 -78 14
c-19 -13 -38 -30 -38 -52c0 -32 30 -48 104 -48z" />
    <glyph glyph-name="uni01F5.a" 
d="M198 -206c-83 0 -224 14 -224 118c0 54 41 90 99 114v4c-16 16 -27 39 -27 68c0 42 32 78 74 98v4c-34 28 -52 66 -52 116c0 114 108 196 234 196c29 0 55 -4 78 -12h200l-22 -118h-66c3 -11 4 -22 4 -34c0 -108 -104 -190 -232 -190c-20 0 -50 2 -70 8
c-12 -7 -18 -20 -18 -34c0 -22 10 -30 96 -37c168 -13 212 -56 212 -119c0 -123 -142 -182 -286 -182zM276 254c54 0 84 48 84 92c0 38 -24 58 -62 58c-54 0 -84 -48 -84 -92c0 -38 24 -58 62 -58zM214 -108c76 0 112 16 112 44s-40 34 -100 42c-30 4 -46 6 -78 14
c-19 -13 -38 -30 -38 -52c0 -32 30 -48 104 -48zM326 578l-69 90l191 172l95 -122z" />
    <glyph glyph-name="gcircumflex.a" 
d="M198 -206c-83 0 -224 14 -224 118c0 54 41 90 99 114v4c-16 16 -27 39 -27 68c0 42 32 78 74 98v4c-34 28 -52 66 -52 116c0 114 108 196 234 196c29 0 55 -4 78 -12h200l-22 -118h-66c3 -11 4 -22 4 -34c0 -108 -104 -190 -232 -190c-20 0 -50 2 -70 8
c-12 -7 -18 -20 -18 -34c0 -22 10 -30 96 -37c168 -13 212 -56 212 -119c0 -123 -142 -182 -286 -182zM276 254c54 0 84 48 84 92c0 38 -24 58 -62 58c-54 0 -84 -48 -84 -92c0 -38 24 -58 62 -58zM214 -108c76 0 112 16 112 44s-40 34 -100 42c-30 4 -46 6 -78 14
c-19 -13 -38 -30 -38 -52c0 -32 30 -48 104 -48zM206 558l-54 64l128 124h176l84 -128l-70 -60l-110 88h-4z" />
    <glyph glyph-name="gbreve.a" 
d="M198 -206c-83 0 -224 14 -224 118c0 54 41 90 99 114v4c-16 16 -27 39 -27 68c0 42 32 78 74 98v4c-34 28 -52 66 -52 116c0 114 108 196 234 196c29 0 55 -4 78 -12h200l-22 -118h-66c3 -11 4 -22 4 -34c0 -108 -104 -190 -232 -190c-20 0 -50 2 -70 8
c-12 -7 -18 -20 -18 -34c0 -22 10 -30 96 -37c168 -13 212 -56 212 -119c0 -123 -142 -182 -286 -182zM276 254c54 0 84 48 84 92c0 38 -24 58 -62 58c-54 0 -84 -48 -84 -92c0 -38 24 -58 62 -58zM214 -108c76 0 112 16 112 44s-40 34 -100 42c-30 4 -46 6 -78 14
c-19 -13 -38 -30 -38 -52c0 -32 30 -48 104 -48zM344 572c-117 0 -160 66 -146 160l100 16c-2 -40 18 -70 66 -70s76 30 90 70l92 -16c-18 -94 -84 -160 -202 -160z" />
    <glyph glyph-name="gdotaccent.a" 
d="M198 -206c-83 0 -224 14 -224 118c0 54 41 90 99 114v4c-16 16 -27 39 -27 68c0 42 32 78 74 98v4c-34 28 -52 66 -52 116c0 114 108 196 234 196c29 0 55 -4 78 -12h200l-22 -118h-66c3 -11 4 -22 4 -34c0 -108 -104 -190 -232 -190c-20 0 -50 2 -70 8
c-12 -7 -18 -20 -18 -34c0 -22 10 -30 96 -37c168 -13 212 -56 212 -119c0 -123 -142 -182 -286 -182zM276 254c54 0 84 48 84 92c0 38 -24 58 -62 58c-54 0 -84 -48 -84 -92c0 -38 24 -58 62 -58zM214 -108c76 0 112 16 112 44s-40 34 -100 42c-30 4 -46 6 -78 14
c-19 -13 -38 -30 -38 -52c0 -32 30 -48 104 -48zM354 570c-50 0 -98 28 -98 87c0 56 49 105 112 105c57 0 99 -30 99 -87c0 -60 -50 -105 -113 -105z" />
    <glyph glyph-name="uni0123.a" 
d="M198 -206c-83 0 -224 14 -224 118c0 54 41 90 99 114v4c-16 16 -27 39 -27 68c0 42 32 78 74 98v4c-34 28 -52 66 -52 116c0 114 108 196 234 196c29 0 55 -4 78 -12h200l-22 -118h-66c3 -11 4 -22 4 -34c0 -108 -104 -190 -232 -190c-20 0 -50 2 -70 8
c-12 -7 -18 -20 -18 -34c0 -22 10 -30 96 -37c168 -13 212 -56 212 -119c0 -123 -142 -182 -286 -182zM276 254c54 0 84 48 84 92c0 38 -24 58 -62 58c-54 0 -84 -48 -84 -92c0 -38 24 -58 62 -58zM214 -108c76 0 112 16 112 44s-40 34 -100 42c-30 4 -46 6 -78 14
c-19 -13 -38 -30 -38 -52c0 -32 30 -48 104 -48zM374 546c-73 7 -107 29 -107 69c0 81 84 117 206 121l-1 -62c-51 -5 -89 -14 -89 -41c0 -14 8 -23 32 -30z" />
    <glyph glyph-name="gcaron.a" 
d="M198 -206c-83 0 -224 14 -224 118c0 54 41 90 99 114v4c-16 16 -27 39 -27 68c0 42 32 78 74 98v4c-34 28 -52 66 -52 116c0 114 108 196 234 196c29 0 55 -4 78 -12h200l-22 -118h-66c3 -11 4 -22 4 -34c0 -108 -104 -190 -232 -190c-20 0 -50 2 -70 8
c-12 -7 -18 -20 -18 -34c0 -22 10 -30 96 -37c168 -13 212 -56 212 -119c0 -123 -142 -182 -286 -182zM276 254c54 0 84 48 84 92c0 38 -24 58 -62 58c-54 0 -84 -48 -84 -92c0 -38 24 -58 62 -58zM214 -108c76 0 112 16 112 44s-40 34 -100 42c-30 4 -46 6 -78 14
c-19 -13 -38 -30 -38 -52c0 -32 30 -48 104 -48zM266 580l-84 128l70 60l110 -88h4l150 88l54 -64l-128 -124h-176z" />
    <glyph glyph-name="uni1E21.a" 
d="M198 -206c-83 0 -224 14 -224 118c0 54 41 90 99 114v4c-16 16 -27 39 -27 68c0 42 32 78 74 98v4c-34 28 -52 66 -52 116c0 114 108 196 234 196c29 0 55 -4 78 -12h200l-22 -118h-66c3 -11 4 -22 4 -34c0 -108 -104 -190 -232 -190c-20 0 -50 2 -70 8
c-12 -7 -18 -20 -18 -34c0 -22 10 -30 96 -37c168 -13 212 -56 212 -119c0 -123 -142 -182 -286 -182zM276 254c54 0 84 48 84 92c0 38 -24 58 -62 58c-54 0 -84 -48 -84 -92c0 -38 24 -58 62 -58zM214 -108c76 0 112 16 112 44s-40 34 -100 42c-30 4 -46 6 -78 14
c-19 -13 -38 -30 -38 -52c0 -32 30 -48 104 -48zM200 590l20 100h294l-20 -100h-294z" />
    <glyph glyph-name="uni00670303.a" 
d="M198 -206c-83 0 -224 14 -224 118c0 54 41 90 99 114v4c-16 16 -27 39 -27 68c0 42 32 78 74 98v4c-34 28 -52 66 -52 116c0 114 108 196 234 196c29 0 55 -4 78 -12h200l-22 -118h-66c3 -11 4 -22 4 -34c0 -108 -104 -190 -232 -190c-20 0 -50 2 -70 8
c-12 -7 -18 -20 -18 -34c0 -22 10 -30 96 -37c168 -13 212 -56 212 -119c0 -123 -142 -182 -286 -182zM276 254c54 0 84 48 84 92c0 38 -24 58 -62 58c-54 0 -84 -48 -84 -92c0 -38 24 -58 62 -58zM214 -108c76 0 112 16 112 44s-40 34 -100 42c-30 4 -46 6 -78 14
c-19 -13 -38 -30 -38 -52c0 -32 30 -48 104 -48zM418 572c-65 0 -86 56 -124 56c-16 0 -32 -10 -38 -46l-104 6c18 113 75 158 150 158c65 0 86 -56 124 -56c16 0 32 10 38 46l104 -6c-18 -113 -75 -158 -150 -158z" />
    <glyph glyph-name="iogonek.d" 
d="M342 -228c-60 0 -102 30 -102 88s42 96 94 128h-4c-90 0 -158 58 -158 150c0 20 4 40 10 62l46 176h-158l26 124h318l-74 -306c-2 -8 -4 -16 -4 -24c0 -37 22 -52 54 -52c22 0 42 6 72 18l32 -120c-102 -42 -140 -74 -140 -110c0 -26 22 -40 46 -40c14 0 24 2 40 10
l26 -64c-32 -24 -76 -40 -124 -40z" />
    <glyph glyph-name="uni0268.d" 
d="M56 216l14 70l136 6l22 84h-158l26 124h318l-50 -208h120l-16 -76h-123l-5 -22c-2 -8 -4 -16 -4 -24c0 -37 22 -52 54 -52c22 0 42 6 72 18l32 -120c-44 -18 -90 -28 -154 -28c-102 0 -168 58 -168 150c0 20 4 40 10 62l4 16h-130z" />
    <glyph glyph-name="uni029D.d" 
d="M336 -220c-6 35 -14 66 -25 93c-39 -38 -88 -61 -145 -61c-92 0 -160 56 -160 138c0 102 66 170 178 170c20 0 44 -4 68 -13l54 269h-196l26 124h354l-92 -458c-2 -10 -5 -21 -8 -31c39 -44 70 -101 84 -173zM170 -62c26 0 48 18 58 52c-18 12 -36 18 -54 18
c-28 0 -44 -16 -44 -40c0 -18 12 -30 40 -30z" />
    <glyph glyph-name="pi" unicode="&#x3c0;" 
d="M178 -9l-156 9c42 128 81 272 101 378h-96l23 116l76 6h505l-24 -122h-83c-25 -95 -50 -200 -50 -232c0 -24 12 -31 27 -31c11 0 22 3 32 6l11 -115c-19 -7 -61 -18 -99 -18c-89 0 -122 49 -122 116s32 193 52 274h-106c-23 -114 -57 -263 -91 -387z" />
    <glyph glyph-name="uni2116" unicode="&#x2116;" 
d="M-58 -12c-12 0 -25 1 -37 4l16 124c21 0 30 8 38 46l94 472h151l15 -354l4 -98h4c8 118 20 215 30 268l10 52c18 92 60 144 133 144c12 0 25 -1 37 -4l-16 -124c-21 0 -30 -8 -38 -46l-94 -472h-151l-15 354l-4 98h-4c-8 -118 -20 -215 -30 -268l-10 -52
c-18 -92 -60 -144 -133 -144zM501 266c-54 0 -96 34 -96 114c0 126 70 226 164 226c54 0 96 -34 96 -114c0 -126 -70 -226 -164 -226zM523 360c24 0 46 64 46 118c0 27 -7 34 -22 34c-24 0 -46 -65 -46 -118c0 -27 7 -34 22 -34zM387 142l16 84h180l-16 -84h-180z" />
    <glyph glyph-name="ampersand" unicode="&#x26;" 
d="M188 -12c-120 0 -188 68 -188 166c0 96 62 151 133 194c-15 41 -23 81 -23 118c0 106 78 196 204 196c92 0 144 -54 144 -140c0 -106 -80 -163 -157 -209c23 -35 53 -67 84 -96c32 43 54 92 75 145h140c-35 -80 -71 -150 -120 -213c35 -18 70 -29 96 -35l-62 -126
c-47 9 -94 29 -139 57c-54 -37 -117 -57 -187 -57zM242 470c0 -18 3 -36 8 -55c48 30 84 63 84 110c0 21 -12 33 -30 33c-34 0 -62 -32 -62 -88zM216 108c20 0 41 5 63 16c-35 34 -66 73 -91 114c-21 -20 -34 -41 -34 -68c0 -36 22 -62 62 -62z" />
    <glyph glyph-name="zero" unicode="0" 
d="M256 -12c-132 0 -222 98 -222 254c0 220 118 404 314 404c132 0 222 -98 222 -254c0 -220 -118 -404 -314 -404zM270 110c92 0 152 126 152 272c0 92 -30 142 -88 142c-92 0 -152 -126 -152 -272c0 -92 30 -142 88 -142zM292 246c-36 0 -56 24 -56 64c0 50 32 94 78 94
c36 0 56 -24 56 -64c0 -50 -32 -94 -78 -94z" />
    <glyph glyph-name="one" unicode="1" 
d="M14 0l26 128h168l70 346h-140l20 100c88 12 142 28 194 60h118l-102 -506h140l-26 -128h-468z" />
    <glyph glyph-name="two" unicode="2" 
d="M10 0l18 90c188 152 330 258 330 364c0 40 -24 66 -66 66c-34 0 -70 -22 -114 -66l-76 92c60 60 126 100 210 100c124 0 202 -70 202 -176c0 -124 -110 -218 -240 -340c39 4 89 4 124 4h116l-26 -134h-478z" />
    <glyph glyph-name="three" unicode="3" 
d="M242 -12c-78 0 -168 30 -230 116l100 82c34 -46 86 -70 130 -70c60 0 96 26 96 72c0 50 -30 78 -154 78l22 112c130 0 164 36 164 86c0 34 -26 56 -72 56c-28 0 -58 -10 -98 -36l-70 98c68 48 130 64 198 64c122 0 206 -62 206 -156c0 -80 -35 -131 -140 -168v-4
c73 -30 104 -78 104 -132c0 -130 -110 -198 -256 -198z" />
    <glyph glyph-name="four" unicode="4" 
d="M282 0l28 146h-308l22 112l332 376h196l-73 -366h73l-24 -122h-73l-29 -146h-144zM186 268h148l18 92c10 50 22 108 32 148h-4c-28 -38 -58 -80 -88 -116z" />
    <glyph glyph-name="five" unicode="5" 
d="M230 -12c-82 0 -168 28 -230 116l100 82c36 -48 83 -70 132 -70c60 0 114 36 114 100c0 50 -34 76 -92 76c-38 0 -58 -2 -110 -28l-58 48l78 322h382l-26 -134h-244l-28 -100c26 8 48 10 74 10c104 0 186 -58 186 -168c0 -158 -138 -254 -278 -254z" />
    <glyph glyph-name="six" unicode="6" 
d="M276 -12c-138 0 -226 93 -226 230c0 260 144 428 346 428c94 0 154 -50 184 -90l-100 -84c-22 30 -50 46 -94 46c-74 0 -142 -53 -172 -171c38 35 98 53 134 53c98 0 178 -50 178 -166c0 -124 -103 -246 -250 -246zM284 106c68 0 96 68 96 115c0 45 -26 71 -76 71
c-30 0 -68 -11 -105 -56c-1 -11 -1 -22 -1 -34c0 -64 36 -96 86 -96z" />
    <glyph glyph-name="seven" unicode="7" 
d="M118 0c48 220 122 367 261 500h-285l26 134h472l-20 -100c-198 -174 -230 -288 -290 -534h-164z" />
    <glyph glyph-name="eight" unicode="8" 
d="M250 -12c-138 0 -214 60 -214 152c0 82 38 138 142 182v4c-38 38 -66 80 -66 134c0 114 96 186 230 186c108 0 196 -49 196 -144c0 -78 -44 -132 -116 -166v-4c44 -30 80 -72 80 -144c0 -118 -96 -200 -252 -200zM344 375c41 28 58 63 58 99c0 37 -26 60 -72 60
c-44 0 -78 -26 -78 -64c0 -39 41 -69 92 -95zM262 100c48 0 94 22 94 70c0 42 -38 64 -112 104c-40 -28 -66 -64 -66 -102c0 -48 38 -72 84 -72z" />
    <glyph glyph-name="nine" unicode="9" 
d="M296 342c30 0 68 11 105 56c1 11 1 22 1 34c0 64 -36 96 -86 96c-68 0 -96 -68 -96 -115c0 -45 26 -71 76 -71zM204 -12c-94 0 -154 50 -184 90l100 84c22 -30 50 -46 94 -46c74 0 142 53 172 171c-38 -35 -98 -53 -134 -53c-98 0 -178 50 -178 166
c0 124 103 246 250 246c138 0 226 -93 226 -230c0 -260 -144 -428 -346 -428z" />
    <glyph glyph-name="zero.a" 
d="M256 -12c-132 0 -222 98 -222 254c0 220 118 404 314 404c132 0 222 -98 222 -254c0 -220 -118 -404 -314 -404zM334 524c-30 0 -57 -14 -79 -37l137 -271c19 47 30 105 30 166c0 92 -30 142 -88 142zM270 110c32 0 60 15 83 41l-138 273c-21 -47 -33 -108 -33 -172
c0 -92 30 -142 88 -142z" />
    <glyph glyph-name="one.a" 
d="M14 0l26 128h168l58 286l-101 -60l-65 92l245 188h125l-102 -506h140l-26 -128h-468z" />
    <glyph glyph-name="zero.onum" 
d="M256 -12c-126 0 -222 82 -222 244c0 186 106 362 304 362c126 0 222 -84 222 -244c0 -188 -106 -362 -304 -362zM270 110c88 0 142 106 142 238c0 72 -24 124 -88 124c-88 0 -142 -108 -142 -238c0 -74 24 -124 88 -124zM286 216c-36 0 -56 24 -56 64c0 50 32 94 78 94
c36 0 56 -24 56 -64c0 -50 -32 -94 -78 -94z" />
    <glyph glyph-name="one.onum" 
d="M14 0l26 128h168l58 292h-140l20 100c88 12 142 28 194 60h118l-90 -452h140l-26 -128h-468z" />
    <glyph glyph-name="two.onum" 
d="M8 0l18 90c186 126 320 224 320 310c0 46 -30 66 -68 66c-46 0 -84 -22 -124 -60l-72 90c70 70 130 96 234 96c108 0 186 -64 186 -168c0 -126 -94 -204 -212 -298c36 6 72 8 96 8h122l-26 -134h-474z" />
    <glyph glyph-name="three.onum" 
d="M217 -90c-113 0 -185 55 -224 117l95 84c32 -44 70 -78 131 -78c59 0 105 26 105 85c0 57 -52 85 -171 85l23 108c125 0 177 46 177 98c0 38 -24 59 -66 59c-48 0 -88 -18 -134 -51l-66 97c65 49 140 78 246 78c104 0 178 -56 178 -156c0 -79 -48 -140 -147 -170l-1 -4
c66 -15 118 -62 118 -145c0 -145 -132 -207 -264 -207z" />
    <glyph glyph-name="four.onum" 
d="M262 -80l30 154h-308l22 112l336 394h196l-77 -384h73l-24 -122h-73l-31 -154h-144zM162 196h154l22 110c10 50 22 108 32 148h-4c-28 -38 -59 -81 -88 -116z" />
    <glyph glyph-name="five.onum" 
d="M225 -91c-116 0 -181 54 -225 110l93 94c35 -44 68 -79 130 -79c69 0 115 39 115 115c0 59 -42 84 -90 84c-47 0 -68 -9 -112 -33l-60 45l75 334h395l-26 -132h-259l-28 -116c29 12 54 19 100 19c80 0 167 -59 167 -188c0 -169 -129 -253 -275 -253z" />
    <glyph glyph-name="six.onum" 
d="M276 -12c-138 0 -226 93 -226 230c0 260 144 428 346 428c94 0 154 -50 184 -90l-100 -84c-22 30 -50 46 -94 46c-74 0 -142 -53 -172 -171c38 35 98 53 134 53c98 0 178 -50 178 -166c0 -124 -103 -246 -250 -246zM284 106c68 0 96 68 96 115c0 45 -26 71 -76 71
c-30 0 -68 -11 -105 -56c-1 -11 -1 -22 -1 -34c0 -64 36 -96 86 -96z" />
    <glyph glyph-name="seven.onum" 
d="M103 -79c54 218 120 372 280 530h-303l26 128h480l-19 -97c-196 -179 -239 -314 -299 -561h-165z" />
    <glyph glyph-name="eight.onum" 
d="M250 -12c-138 0 -214 60 -214 152c0 82 38 138 142 182v4c-38 38 -66 80 -66 134c0 114 96 186 230 186c108 0 196 -49 196 -144c0 -78 -44 -132 -116 -166v-4c44 -30 80 -72 80 -144c0 -118 -96 -200 -252 -200zM344 375c41 28 58 63 58 99c0 37 -26 60 -72 60
c-44 0 -78 -26 -78 -64c0 -39 41 -69 92 -95zM262 100c48 0 94 22 94 70c0 42 -38 64 -112 104c-40 -28 -66 -64 -66 -102c0 -48 38 -72 84 -72z" />
    <glyph glyph-name="nine.onum" 
d="M282 268c30 0 69 10 106 54c1 18 2 37 2 56c0 64 -36 96 -86 96c-68 0 -98 -74 -98 -124c0 -52 26 -82 76 -82zM188 -90c-94 0 -154 50 -184 90l100 84c22 -30 50 -46 94 -46c73 0 141 54 172 172c-38 -33 -97 -50 -132 -50c-98 0 -178 54 -178 176
c0 130 106 256 252 256c138 0 226 -92 226 -230c0 -276 -146 -452 -350 -452z" />
    </font>
</defs>
</svg>
