<?xml version="1.0" standalone="no"?>
<!DOCTYPE svg PUBLIC "-//W3C//DTD SVG 1.1//EN" "http://www.w3.org/Graphics/SVG/1.1/DTD/svg11.dtd" >
<svg xmlns="http://www.w3.org/2000/svg" xmlns:xlink="http://www.w3.org/1999/xlink" version="1.1">
<metadata>
Created by FontForge 20201107 at Fri Oct  9 14:03:29 2020
 By Giddeon
Copyright 2010, 2012 Adobe Systems Incorporated. All Rights Reserved.
</metadata>
<defs>
<font id="SourceCodePro-MediumIt" horiz-adv-x="600" >
  <font-face 
    font-family="Source Code Pro"
    font-weight="500"
    font-style="italic"
    font-stretch="normal"
    units-per-em="1000"
    panose-1="2 11 5 9 3 4 3 9 2 4"
    ascent="750"
    descent="-250"
    x-height="489"
    cap-height="655"
    bbox="-287 -454 813 1060"
    underline-thickness="50"
    underline-position="-100"
    slope="-11"
    stemh="80"
    stemv="101"
    unicode-range="U+0020-1F916"
  />
<missing-glyph 
d="M58 0v660h484v-660h-484zM177 63h244l-68 125l-51 101h-4l-52 -101zM128 116l123 224l-123 226v-450zM298 391h4l48 94l62 111h-225l61 -111zM349 340l122 -224v450z" />
    <glyph glyph-name=".notdef" 
d="M58 0v660h484v-660h-484zM177 63h244l-68 125l-51 101h-4l-52 -101zM128 116l123 224l-123 226v-450zM298 391h4l48 94l62 111h-225l61 -111zM349 340l122 -224v450z" />
    <glyph glyph-name="space" unicode=" " 
 />
    <glyph glyph-name="A" unicode="A" 
d="M259 373l-53 -107h183l-9 105c-6 68 -11 139 -17 209h-5c-34 -70 -65 -137 -99 -207zM-28 0l350 655h109l77 -655h-97l-16 194h-225l-96 -194h-102z" />
    <glyph glyph-name="B" unicode="B" 
d="M37 0l132 655h175c131 0 208 -49 208 -146c0 -86 -70 -145 -146 -164v-4c68 -16 118 -58 118 -130c0 -148 -120 -211 -275 -211h-212zM206 380h81c115 0 169 45 169 115c0 55 -37 83 -133 83h-76zM145 76h101c116 0 187 38 187 131c0 62 -48 99 -138 99h-103z" />
    <glyph glyph-name="C" unicode="C" 
d="M312 -12c-150 0 -237 106 -237 267c0 211 140 412 341 412c75 0 131 -40 165 -99l-65 -49c-25 42 -58 68 -105 68c-144 0 -241 -169 -241 -324c0 -115 48 -195 159 -195c49 0 92 22 132 57l42 -60c-47 -40 -110 -77 -191 -77z" />
    <glyph glyph-name="D" unicode="D" 
d="M19 0l131 655h135c177 0 274 -91 274 -256c0 -243 -137 -399 -356 -399h-184zM127 76h76c158 0 261 117 261 317c0 121 -66 187 -182 187h-54z" />
    <glyph glyph-name="E" unicode="E" 
d="M55 0l131 655h409l-16 -78h-317l-38 -195h265l-16 -78h-264l-46 -226h326l-16 -78h-418z" />
    <glyph glyph-name="F" unicode="F" 
d="M73 0l131 655h404l-16 -78h-312l-41 -210h260l-16 -79h-259l-58 -288h-93z" />
    <glyph glyph-name="G" unicode="G" 
d="M298 -12c-155 0 -241 104 -241 267c0 213 137 412 345 412c80 0 136 -41 170 -99l-65 -49c-25 41 -59 68 -110 68c-149 0 -244 -169 -244 -324c0 -113 44 -196 160 -196c42 0 77 16 101 36l34 167h-128l15 76h212l-58 -291c-48 -39 -114 -67 -191 -67z" />
    <glyph glyph-name="H" unicode="H" 
d="M14 0l131 655h94l-55 -271h260l54 271h94l-131 -655h-94l62 303h-261l-60 -303h-94z" />
    <glyph glyph-name="I" unicode="I" 
d="M30 0l16 78h160l100 499h-161l17 78h415l-16 -78h-162l-100 -499h162l-17 -78h-414z" />
    <glyph glyph-name="J" unicode="J" 
d="M213 -12c-95 0 -157 48 -194 105l61 55c31 -48 73 -80 135 -80c88 0 134 52 156 163l69 346h-270l15 78h363l-89 -444c-28 -139 -104 -223 -246 -223z" />
    <glyph glyph-name="K" unicode="K" 
d="M623 655l-268 -265l168 -390h-105l-132 321l-118 -117l-41 -204h-92l131 655h93l-66 -324h4l322 324h104z" />
    <glyph glyph-name="L" unicode="L" 
d="M90 0l131 655h93l-115 -577h317l-16 -78h-410z" />
    <glyph glyph-name="M" unicode="M" 
d="M11 0l131 655h107l33 -281l5 -98h4l43 96l153 283h106l-130 -655h-84l70 349c11 54 39 150 56 206h-4c-9 -18 -52 -108 -69 -138l-126 -240h-68l-30 233c-2 17 -10 126 -13 145h-4c-6 -64 -16 -153 -24 -195l-74 -360h-82z" />
    <glyph glyph-name="N" unicode="N" 
d="M21 0l131 655h94l120 -401l34 -137h4c8 66 19 156 29 210l65 328h89l-131 -655h-93l-121 401l-34 138h-4c-9 -68 -19 -153 -31 -216l-63 -323h-89z" />
    <glyph glyph-name="O" unicode="O" 
d="M253 -12c-134 0 -215 103 -215 261c0 212 123 418 318 418c133 0 214 -103 214 -261c0 -212 -123 -418 -317 -418zM262 68c132 0 213 175 213 344c0 109 -41 175 -128 175c-132 0 -214 -175 -214 -344c0 -109 42 -175 129 -175z" />
    <glyph glyph-name="P" unicode="P" 
d="M46 0l131 655h188c125 0 212 -47 212 -163c0 -167 -124 -238 -290 -238h-97l-51 -254h-93zM205 329h85c126 0 193 51 193 150c0 71 -48 102 -139 102h-90z" />
    <glyph glyph-name="Q" unicode="Q" 
d="M263 64c131 0 212 173 212 348c0 109 -41 175 -128 175c-132 0 -214 -175 -214 -344c0 -114 42 -179 130 -179zM400 -168c-94 0 -170 51 -201 162c-101 25 -161 120 -161 255c0 212 123 418 318 418c133 0 214 -103 214 -261c0 -197 -107 -390 -278 -415
c18 -55 62 -83 118 -83c34 0 59 6 80 14l16 -73c-24 -10 -62 -17 -106 -17z" />
    <glyph glyph-name="R" unicode="R" 
d="M30 0l131 655h183c124 0 212 -44 212 -160c0 -120 -82 -193 -188 -218l115 -277h-104l-102 268h-101l-53 -268h-93zM192 343h85c118 0 185 55 185 143c0 67 -47 95 -137 95h-87z" />
    <glyph glyph-name="S" unicode="S" 
d="M262 -12c-107 0 -183 48 -228 120l62 53c39 -60 94 -93 166 -93c76 0 132 42 132 109c0 47 -31 76 -79 104l-72 43c-57 34 -107 85 -107 163c0 104 87 180 206 180c87 0 160 -44 200 -100l-61 -52c-32 40 -79 73 -142 73s-108 -43 -108 -94c0 -46 33 -73 73 -96l77 -47
c62 -39 108 -85 108 -166c0 -124 -100 -197 -227 -197z" />
    <glyph glyph-name="T" unicode="T" 
d="M191 0l114 576h-212l15 79h519l-16 -79h-213l-114 -576h-93z" />
    <glyph glyph-name="U" unicode="U" 
d="M254 -12c-126 0 -193 78 -193 200c0 33 3 61 10 96l74 371h94l-75 -376c-7 -30 -11 -56 -11 -81c0 -83 38 -130 113 -130c71 0 127 47 155 188l79 399h92l-82 -407c-38 -194 -131 -260 -256 -260z" />
    <glyph glyph-name="V" unicode="V" 
d="M177 0l-63 655h96l27 -353c5 -70 10 -143 14 -214h4c32 68 74 154 104 214l176 353h101l-347 -655h-112z" />
    <glyph glyph-name="W" unicode="W" 
d="M47 0l43 656h88l-37 -431c-5 -57 -13 -118 -17 -143h4c9 27 46 120 57 144l111 250h71l17 -214c3 -43 9 -129 9 -177h6c5 25 27 118 34 144l124 427h89l-203 -656h-111l-13 252c-2 40 -4 93 -4 126h-4c-11 -34 -28 -86 -45 -126l-105 -252h-114z" />
    <glyph glyph-name="X" unicode="X" 
d="M-11 0l259 344l-126 312h102l61 -162c11 -28 23 -70 33 -100h4c21 32 49 79 64 100l121 162h102l-249 -327l134 -329h-101l-66 171c-9 24 -25 72 -36 102h-4c-23 -36 -48 -75 -69 -103l-126 -170h-103z" />
    <glyph glyph-name="Y" unicode="Y" 
d="M191 0l46 224l-133 432h96l55 -194c15 -53 31 -116 41 -162h4c27 44 67 108 102 162l131 194h98l-304 -442l-43 -214h-93z" />
    <glyph glyph-name="Z" unicode="Z" 
d="M485 0h-471l12 55l423 523h-326l16 78h450l-12 -56l-424 -522h349z" />
    <glyph glyph-name="a" unicode="a" 
d="M213 -12c-100 0 -165 66 -165 188c0 176 120 325 267 325c68 0 119 -28 145 -72h4l20 60h74l-98 -489h-75l6 72h-4c-50 -51 -113 -84 -174 -84zM244 65c48 0 106 30 155 89l43 204c-30 47 -73 66 -114 66c-103 0 -185 -110 -185 -235c0 -86 39 -124 101 -124z" />
    <glyph glyph-name="b" unicode="b" 
d="M274 -12c-62 0 -116 29 -145 71h-3l-19 -59h-76l142 709h92l-37 -182l-27 -107h3c47 45 111 81 171 81c103 0 166 -69 166 -193c0 -178 -117 -320 -267 -320zM264 65c102 0 182 103 182 230c0 88 -41 129 -103 129c-46 0 -105 -32 -153 -90l-41 -206
c30 -46 71 -63 115 -63z" />
    <glyph glyph-name="c" unicode="c" 
d="M293 -12c-128 0 -228 72 -228 215c0 178 141 298 296 298c86 0 150 -42 185 -88l-58 -52c-35 42 -79 63 -137 63c-95 0 -193 -93 -193 -211c0 -100 64 -148 147 -148c55 0 104 26 147 64l36 -63c-50 -47 -121 -78 -195 -78z" />
    <glyph glyph-name="d" unicode="d" 
d="M213 -12c-100 0 -165 66 -165 188c0 176 120 325 267 325c68 0 115 -27 142 -69h3l15 95l36 182h93l-144 -709h-75l6 72h-4c-50 -51 -113 -84 -174 -84zM244 65c48 0 106 30 155 89l42 204c-29 47 -72 66 -113 66c-103 0 -185 -110 -185 -235c0 -85 39 -124 101 -124z
" />
    <glyph glyph-name="e" unicode="e" 
d="M269 -12c-126 0 -210 73 -210 213c0 176 131 300 280 300c121 0 189 -80 189 -189c0 -36 -9 -78 -14 -92h-364v-15c0 -96 57 -145 139 -145c62 0 116 26 161 61l33 -62c-51 -40 -128 -71 -214 -71zM335 428c-68 0 -142 -52 -172 -140h277c1 9 2 18 2 27
c0 71 -41 113 -107 113z" />
    <glyph glyph-name="f" unicode="f" 
d="M163 0l83 415h-138l14 69l139 5l9 45c26 129 102 187 217 187c63 0 113 -22 146 -50l-44 -58c-29 22 -59 34 -99 34c-65 0 -112 -33 -129 -115l-9 -43h197l-15 -74h-196l-83 -415h-92z" />
    <glyph glyph-name="g" unicode="g" 
d="M202 -212c-82 0 -144 26 -190 62l43 65c38 -33 94 -52 147 -52c80 0 147 33 168 122l22 96h-4c-45 -43 -107 -74 -168 -74c-103 0 -169 67 -169 183c0 172 121 311 264 311c68 0 119 -28 145 -72h4l21 60h73l-101 -505c-28 -141 -132 -196 -255 -196zM250 83
c49 0 103 29 150 80l41 194c-31 47 -70 67 -114 67c-95 0 -181 -99 -181 -220c0 -82 39 -121 104 -121z" />
    <glyph glyph-name="h" unicode="h" 
d="M31 0l142 709h92l-51 -247l-17 -67h4c57 57 126 106 207 106c85 0 126 -47 126 -123c0 -27 -4 -52 -9 -78l-60 -300h-93l58 289c5 24 9 44 9 64c0 44 -25 68 -70 68c-60 0 -123 -40 -184 -110l-62 -311h-92z" />
    <glyph glyph-name="i" unicode="i" 
d="M346 -12c-82 0 -138 45 -138 127c0 17 3 35 8 55l56 245h-174l15 74h266l-73 -326c-2 -11 -4 -21 -4 -30c0 -49 29 -68 71 -68c29 0 55 9 89 24l21 -70c-42 -19 -82 -31 -137 -31zM343 585c-36 0 -65 21 -65 60c0 41 35 76 77 76c39 0 65 -22 65 -60
c0 -42 -35 -76 -77 -76z" />
    <glyph glyph-name="j" unicode="j" 
d="M126 -212c-64 0 -115 23 -146 45l39 66c29 -21 62 -36 105 -36c81 0 121 48 139 136l83 416h-219l16 74h310l-99 -493c-27 -134 -93 -208 -228 -208zM417 585c-36 0 -65 21 -65 60c0 41 35 76 77 76c39 0 65 -22 65 -60c0 -42 -35 -76 -77 -76z" />
    <glyph glyph-name="k" unicode="k" 
d="M42 0l142 709h92l-93 -465h4l294 245h110l-228 -197l150 -292h-96l-119 237l-139 -112l-25 -125h-92z" />
    <glyph glyph-name="l" unicode="l" 
d="M325 -12c-79 0 -135 48 -135 136c0 17 2 35 7 56l97 456h-157l16 73h247l-113 -536c-3 -13 -5 -27 -5 -42c0 -46 28 -66 69 -66c32 0 58 8 93 25l21 -70c-45 -22 -90 -32 -140 -32z" />
    <glyph glyph-name="m" unicode="m" 
d="M-5 0l97 489h69l-5 -66h3c36 47 79 78 131 78c45 0 70 -25 72 -77c43 54 89 77 134 77c48 0 77 -28 77 -86c0 -18 -1 -31 -6 -54l-73 -361h-89l70 347c3 14 4 24 4 34c0 29 -11 41 -31 41c-32 0 -59 -25 -91 -73l-71 -349h-83l72 347c3 14 3 24 3 34c0 29 -12 41 -31 41
c-34 0 -61 -24 -95 -73l-68 -349h-89z" />
    <glyph glyph-name="n" unicode="n" 
d="M31 0l97 489h75l-11 -96h4c56 56 129 108 212 108c85 0 126 -47 126 -123c0 -27 -4 -52 -9 -78l-60 -300h-93l58 289c5 24 9 44 9 64c0 44 -25 68 -70 68c-60 0 -123 -40 -184 -110l-62 -311h-92z" />
    <glyph glyph-name="o" unicode="o" 
d="M251 -12c-130 0 -208 87 -208 215c0 172 133 298 282 298c130 0 208 -87 208 -215c0 -173 -133 -298 -282 -298zM258 65c95 0 181 94 181 216c0 89 -45 143 -121 143c-95 0 -182 -95 -182 -216c0 -89 46 -143 122 -143z" />
    <glyph glyph-name="p" unicode="p" 
d="M-9 -200l138 689h75l-7 -74h4c50 47 109 86 175 86c101 0 165 -69 165 -193c0 -178 -107 -320 -267 -320c-59 0 -112 27 -142 67h-3l-17 -102l-29 -153h-92zM267 65c102 0 179 103 179 230c0 87 -41 129 -103 129c-46 0 -104 -32 -152 -90l-42 -206
c30 -46 74 -63 118 -63z" />
    <glyph glyph-name="q" unicode="q" 
d="M329 -200l32 155c2 11 20 92 31 117h-4c-50 -51 -115 -84 -175 -84c-100 0 -165 66 -165 188c0 176 120 325 267 325c68 0 119 -28 145 -72h4l21 60h73l-138 -689h-91zM244 65c48 0 106 30 155 89l42 204c-29 47 -72 66 -113 66c-103 0 -185 -110 -185 -235
c0 -85 39 -124 101 -124z" />
    <glyph glyph-name="r" unicode="r" 
d="M91 0l97 489h75l-19 -138h4c54 84 132 150 214 150c43 0 76 -9 98 -24l-35 -80c-24 15 -48 20 -80 20c-72 0 -149 -69 -213 -173l-49 -244h-92z" />
    <glyph glyph-name="s" unicode="s" 
d="M269 -12c-87 0 -170 35 -218 90l52 58c48 -53 115 -77 182 -77c63 0 107 21 107 68c0 42 -41 59 -120 85c-101 34 -148 76 -148 145c0 96 86 144 189 144c94 0 162 -38 204 -80l-51 -56c-40 34 -95 65 -163 65c-57 0 -92 -23 -92 -62c0 -40 38 -59 116 -85
c90 -31 152 -65 152 -144c0 -107 -93 -151 -210 -151z" />
    <glyph glyph-name="t" unicode="t" 
d="M308 -12c-107 0 -153 57 -153 142c0 21 3 40 8 64l45 221h-138l13 69l144 5l44 155h76l-32 -155h232l-15 -74h-233l-46 -222c-4 -18 -5 -30 -5 -43c0 -59 33 -85 85 -85c46 0 89 15 122 35l29 -66c-42 -27 -106 -46 -176 -46z" />
    <glyph glyph-name="u" unicode="u" 
d="M178 -12c-86 0 -126 47 -126 123c0 27 3 52 9 78l60 300h92l-58 -289c-5 -24 -9 -44 -9 -64c0 -44 25 -69 70 -69c60 0 121 41 182 110l62 312h93l-97 -489h-76l11 95h-4c-56 -55 -127 -107 -209 -107z" />
    <glyph glyph-name="v" unicode="v" 
d="M188 0l-105 489h91l54 -273c10 -48 17 -98 25 -145h4c23 46 51 96 80 146l157 272h93l-291 -489h-108z" />
    <glyph glyph-name="w" unicode="w" 
d="M51 0l-5 489h91l-3 -275c-1 -47 -3 -90 -4 -137h4c16 47 31 91 51 137l101 240h84l8 -240c1 -47 0 -90 -1 -137h4c18 47 31 89 49 137l105 275h88l-197 -489h-112l-3 232c-1 46 1 84 2 135h-4c-17 -53 -27 -85 -47 -135l-95 -232h-116z" />
    <glyph glyph-name="x" unicode="x" 
d="M4 0l232 254l-123 235h94l54 -105c5 -11 34 -72 38 -83h4c6 10 55 74 62 83l90 105h106l-221 -243l136 -246h-97l-59 109c-4 12 -35 70 -41 83h-6c-9 -14 -56 -68 -65 -79l-98 -113h-106z" />
    <glyph glyph-name="y" unicode="y" 
d="M36 -205c-32 0 -61 7 -81 19l28 65c16 -8 38 -14 59 -14c58 0 91 25 132 91l27 43l-118 490h89l57 -258c9 -44 21 -107 28 -150h4c22 43 56 106 81 150l151 258h95l-322 -531c-66 -112 -127 -163 -230 -163z" />
    <glyph glyph-name="z" unicode="z" 
d="M31 0l10 55l364 361h-296l16 73h415l-9 -55l-363 -360h312l-15 -74h-434z" />
    <glyph glyph-name="Agrave" unicode="&#xc0;" 
d="M259 373l-53 -107h183l-9 105c-6 68 -11 139 -17 209h-5c-34 -70 -65 -137 -99 -207zM-28 0l350 655h109l77 -655h-97l-16 194h-225l-96 -194h-102zM400 689l-142 128l66 60l128 -143z" />
    <glyph glyph-name="Aacute" unicode="&#xc1;" 
d="M259 373l-53 -107h183l-9 105c-6 68 -11 139 -17 209h-5c-34 -70 -65 -137 -99 -207zM-28 0l350 655h109l77 -655h-97l-16 194h-225l-96 -194h-102zM353 699l-36 52l172 119l44 -71z" />
    <glyph glyph-name="Acircumflex" unicode="&#xc2;" 
d="M259 373l-53 -107h183l-9 105c-6 68 -11 139 -17 209h-5c-34 -70 -65 -137 -99 -207zM-28 0l350 655h109l77 -655h-97l-16 194h-225l-96 -194h-102zM259 695l-39 33l128 120h106l86 -123l-46 -29l-96 96h-4z" />
    <glyph glyph-name="Atilde" unicode="&#xc3;" 
d="M259 373l-53 -107h183l-9 105c-6 68 -11 139 -17 209h-5c-34 -70 -65 -137 -99 -207zM-28 0l350 655h109l77 -655h-97l-16 194h-225l-96 -194h-102zM453 705c-69 0 -89 68 -130 68c-24 0 -44 -21 -56 -63l-64 5c18 85 68 129 130 129c69 0 88 -69 130 -69
c24 0 43 21 56 63l64 -5c-18 -84 -68 -128 -130 -128z" />
    <glyph glyph-name="Adieresis" unicode="&#xc4;" 
d="M259 373l-53 -107h183l-9 105c-6 68 -11 139 -17 209h-5c-34 -70 -65 -137 -99 -207zM-28 0l350 655h109l77 -655h-97l-16 194h-225l-96 -194h-102zM289 711c-25 0 -44 17 -44 45c0 31 25 60 56 60c25 0 45 -17 45 -45c0 -30 -25 -60 -57 -60zM482 711
c-26 0 -45 17 -45 45c0 31 25 60 56 60c25 0 45 -17 45 -45c0 -30 -25 -60 -56 -60z" />
    <glyph glyph-name="Amacron" unicode="&#x100;" 
d="M259 373l-53 -107h183l-9 105c-6 68 -11 139 -17 209h-5c-34 -70 -65 -137 -99 -207zM-28 0l350 655h109l77 -655h-97l-16 194h-225l-96 -194h-102zM252 726l12 63h264l-12 -63h-264z" />
    <glyph glyph-name="Abreve" unicode="&#x102;" 
d="M259 373l-53 -107h183l-9 105c-6 68 -11 139 -17 209h-5c-34 -70 -65 -137 -99 -207zM-28 0l350 655h109l77 -655h-97l-16 194h-225l-96 -194h-102zM377 703c-95 0 -133 58 -128 136l60 10c-1 -49 25 -85 80 -85c54 0 90 36 108 85l56 -10c-21 -78 -80 -136 -176 -136z
" />
    <glyph glyph-name="Aring" unicode="&#xc5;" 
d="M259 373l-53 -107h183l-9 105c-6 68 -11 139 -17 209h-5c-34 -70 -65 -137 -99 -207zM-28 0l350 655h109l77 -655h-97l-16 194h-225l-96 -194h-102zM388 699c-49 0 -92 25 -92 81s49 102 110 102c48 0 92 -26 92 -81c0 -57 -48 -102 -110 -102zM390 740c29 0 55 25 55 57
c0 26 -14 44 -41 44c-30 0 -55 -26 -55 -57c0 -26 15 -44 41 -44z" />
    <glyph glyph-name="Aringacute" unicode="&#x1fa;" 
d="M259 373l-53 -107h183l-9 105c-6 68 -11 139 -17 209h-5c-34 -70 -65 -137 -99 -207zM-28 0l350 655h109l77 -655h-97l-16 194h-225l-96 -194h-102zM388 699c-49 0 -92 25 -92 81c0 36 20 68 51 86l146 111l42 -53l-88 -49c29 -11 51 -36 51 -74
c0 -57 -48 -102 -110 -102zM390 740c29 0 55 25 55 57c0 26 -14 44 -41 44c-30 0 -55 -26 -55 -57c0 -26 15 -44 41 -44z" />
    <glyph glyph-name="uni01CD" unicode="&#x1cd;" 
d="M259 373l-53 -107h183l-9 105c-6 68 -11 139 -17 209h-5c-34 -70 -65 -137 -99 -207zM-28 0l350 655h109l77 -655h-97l-16 194h-225l-96 -194h-102zM332 705l-86 123l46 28l96 -95h4l135 96l39 -32l-128 -120h-106z" />
    <glyph glyph-name="Aogonek" unicode="&#x104;" 
d="M415 -226c-52 0 -94 25 -94 77c0 67 63 122 112 149h-22l-16 194h-225l-96 -194h-102l350 655h109l77 -655c-59 -23 -113 -75 -113 -120c0 -29 23 -43 53 -43c16 0 29 5 43 14l21 -46c-25 -19 -62 -31 -97 -31zM259 373l-53 -107h183l-9 105c-6 68 -12 139 -17 209h-5
c-34 -72 -65 -137 -99 -207z" />
    <glyph glyph-name="uni1EA0" unicode="&#x1ea0;" 
d="M259 373l-53 -107h183l-9 105c-6 68 -11 139 -17 209h-5c-34 -70 -65 -137 -99 -207zM-28 0l350 655h109l77 -655h-97l-16 194h-225l-96 -194h-102zM215 -240c-36 0 -65 21 -65 60c0 41 35 76 77 76c39 0 65 -22 65 -60c0 -42 -35 -76 -77 -76z" />
    <glyph glyph-name="uni1EA2" unicode="&#x1ea2;" 
d="M259 373l-53 -107h183l-9 105c-6 68 -11 139 -17 209h-5c-34 -70 -65 -137 -99 -207zM-28 0l350 655h109l77 -655h-97l-16 194h-225l-96 -194h-102zM326 696l-1 44c32 7 57 18 61 41c4 24 -20 37 -75 40l21 55c97 -3 140 -32 131 -84c-12 -61 -73 -87 -137 -96z" />
    <glyph glyph-name="uni1EA4" unicode="&#x1ea4;" 
d="M259 373l-53 -107h183l-9 105c-6 68 -11 139 -17 209h-5c-34 -70 -65 -137 -99 -207zM-28 0l350 655h109l77 -655h-97l-16 194h-225l-96 -194h-102zM284 695l-36 30l109 93h86l75 -94l-44 -29l-79 70h-4zM513 767l-26 38l114 81l29 -47z" />
    <glyph glyph-name="uni1EA6" unicode="&#x1ea6;" 
d="M259 373l-53 -107h183l-9 105c-6 68 -11 139 -17 209h-5c-34 -70 -65 -137 -99 -207zM-28 0l350 655h109l77 -655h-97l-16 194h-225l-96 -194h-102zM284 695l-36 30l109 93h86l75 -94l-44 -29l-79 70h-4zM266 770l-89 82l44 40l83 -90z" />
    <glyph glyph-name="uni1EA8" unicode="&#x1ea8;" 
d="M259 373l-53 -107h183l-9 105c-6 68 -11 139 -17 209h-5c-34 -70 -65 -137 -99 -207zM-28 0l350 655h109l77 -655h-97l-16 194h-225l-96 -194h-102zM284 695l-36 30l109 93h86l75 -94l-44 -29l-79 70h-4zM508 754l-4 37c24 5 44 14 47 34c5 25 -12 35 -62 38l17 46
c86 -3 123 -29 114 -75c-9 -52 -60 -73 -112 -80z" />
    <glyph glyph-name="uni1EAA" unicode="&#x1eaa;" 
d="M259 373l-53 -107h183l-9 105c-6 68 -11 139 -17 209h-5c-34 -70 -65 -137 -99 -207zM-28 0l350 655h109l77 -655h-97l-16 194h-225l-96 -194h-102zM283 695l-35 30l108 88h86l76 -89l-45 -29l-79 66h-4zM467 839c-61 0 -77 48 -114 48c-23 0 -36 -15 -45 -44l-50 6
c13 58 45 96 100 96c61 0 77 -48 114 -48c22 0 35 16 44 44l51 -6c-13 -57 -45 -96 -100 -96z" />
    <glyph glyph-name="uni1EAC" unicode="&#x1eac;" 
d="M259 373l-53 -107h183l-9 105c-6 68 -11 139 -17 209h-5c-34 -70 -65 -137 -99 -207zM-28 0l350 655h109l77 -655h-97l-16 194h-225l-96 -194h-102zM259 695l-39 33l128 120h106l86 -123l-46 -29l-96 96h-4zM215 -240c-36 0 -65 21 -65 60c0 41 35 76 77 76
c39 0 65 -22 65 -60c0 -42 -35 -76 -77 -76z" />
    <glyph glyph-name="uni1EAE" unicode="&#x1eae;" 
d="M259 373l-53 -107h183l-9 105c-6 68 -11 139 -17 209h-5c-34 -70 -65 -137 -99 -207zM-28 0l350 655h109l77 -655h-97l-16 194h-225l-96 -194h-102zM377 703c-93 0 -131 56 -126 131l55 10c0 -49 26 -85 82 -85s94 36 112 85l51 -10c-20 -75 -79 -131 -174 -131zM398 818
l-43 37l117 112l54 -47z" />
    <glyph glyph-name="uni1EB0" unicode="&#x1eb0;" 
d="M259 373l-53 -107h183l-9 105c-6 68 -11 139 -17 209h-5c-34 -70 -65 -137 -99 -207zM-28 0l350 655h109l77 -655h-97l-16 194h-225l-96 -194h-102zM377 703c-93 0 -131 56 -126 131l55 10c0 -49 26 -85 82 -85s94 36 112 85l51 -10c-20 -75 -79 -131 -174 -131zM399 813
l-89 121l68 35l73 -128z" />
    <glyph glyph-name="uni1EB2" unicode="&#x1eb2;" 
d="M259 373l-53 -107h183l-9 105c-6 68 -11 139 -17 209h-5c-34 -70 -65 -137 -99 -207zM-28 0l350 655h109l77 -655h-97l-16 194h-225l-96 -194h-102zM377 703c-93 0 -130 56 -125 131l55 10c-1 -49 25 -85 81 -85s95 36 113 85l52 -10c-22 -75 -81 -131 -176 -131z
M371 802l-4 37c25 6 45 15 49 35c4 24 -14 34 -62 37l19 46c85 -3 121 -28 112 -74c-10 -53 -60 -74 -114 -81z" />
    <glyph glyph-name="uni1EB4" unicode="&#x1eb4;" 
d="M259 373l-53 -107h183l-9 105c-6 68 -11 139 -17 209h-5c-34 -70 -65 -137 -99 -207zM-28 0l350 655h109l77 -655h-97l-16 194h-225l-96 -194h-102zM378 706c-95 0 -131 49 -127 108l54 9c1 -34 23 -65 82 -65c60 0 92 31 106 65l52 -9c-19 -59 -73 -108 -167 -108z
M468 844c-62 0 -78 48 -116 48c-22 0 -35 -16 -44 -44l-50 6c13 57 45 96 100 96c61 0 78 -48 115 -48c22 0 35 16 44 44l50 -6c-13 -57 -44 -96 -99 -96z" />
    <glyph glyph-name="uni1EB6" unicode="&#x1eb6;" 
d="M259 373l-53 -107h183l-9 105c-6 68 -11 139 -17 209h-5c-34 -70 -65 -137 -99 -207zM-28 0l350 655h109l77 -655h-97l-16 194h-225l-96 -194h-102zM377 703c-95 0 -133 58 -128 136l60 10c-1 -49 25 -85 80 -85c54 0 90 36 108 85l56 -10c-21 -78 -80 -136 -176 -136z
M215 -240c-36 0 -65 21 -65 60c0 41 35 76 77 76c39 0 65 -22 65 -60c0 -42 -35 -76 -77 -76z" />
    <glyph glyph-name="AE" unicode="&#xc6;" 
d="M247 375l-66 -116h126l65 325h-5c-40 -71 -81 -140 -120 -209zM-62 0l386 655h325l-16 -78h-180l-39 -194h145l-16 -78h-145l-45 -227h190l-15 -78h-273l37 187h-152l-107 -187h-95z" />
    <glyph glyph-name="AEacute" unicode="&#x1fc;" 
d="M247 375l-66 -116h126l65 325h-5c-40 -71 -81 -140 -120 -209zM-62 0l386 655h325l-16 -78h-180l-39 -194h145l-16 -78h-145l-45 -227h190l-15 -78h-273l37 187h-152l-107 -187h-95zM462 699l-36 52l172 119l44 -71z" />
    <glyph glyph-name="uni01E2" unicode="&#x1e2;" 
d="M247 375l-66 -116h126l65 325h-5c-40 -71 -81 -140 -120 -209zM-62 0l386 655h325l-16 -78h-180l-39 -194h145l-16 -78h-145l-45 -227h190l-15 -78h-273l37 187h-152l-107 -187h-95zM361 726l12 63h264l-12 -63h-264z" />
    <glyph glyph-name="uni0243" unicode="&#x243;" 
d="M38 0l35 172h-78l14 56l76 4l85 424h179c116 0 203 -44 203 -134c0 -78 -48 -145 -147 -167l-2 -4c71 -14 122 -57 122 -135c0 -148 -119 -216 -284 -216h-203zM144 75h99c126 0 192 44 192 145c0 66 -54 96 -143 96h-97l-18 -84h142l-15 -60h-139zM207 387h80
c122 0 170 40 170 116c0 55 -49 77 -135 77h-75z" />
    <glyph glyph-name="uni1E06" unicode="&#x1e06;" 
d="M37 0l132 655h175c131 0 208 -49 208 -146c0 -86 -70 -145 -146 -164v-4c68 -16 118 -58 118 -130c0 -148 -120 -211 -275 -211h-212zM206 380h81c115 0 169 45 169 115c0 55 -37 83 -133 83h-76zM145 76h101c116 0 187 38 187 131c0 62 -48 99 -138 99h-103zM86 -188
l12 62h262l-11 -62h-263z" />
    <glyph glyph-name="Ccedilla" unicode="&#xc7;" 
d="M156 -230l-1 45c79 3 114 20 117 51c1 24 -17 37 -69 43l55 84c-117 23 -183 121 -183 262c0 211 140 412 341 412c75 0 131 -40 165 -99l-65 -49c-25 42 -58 68 -105 68c-144 0 -241 -169 -241 -324c0 -115 48 -195 159 -195c49 0 92 22 132 57l42 -60
c-47 -40 -110 -77 -185 -77l-33 -52c48 -12 64 -31 61 -66c-7 -64 -78 -97 -190 -100z" />
    <glyph glyph-name="Cacute" unicode="&#x106;" 
d="M312 -12c-150 0 -237 106 -237 267c0 211 140 412 341 412c75 0 131 -40 165 -99l-65 -49c-25 42 -58 68 -105 68c-144 0 -241 -169 -241 -324c0 -115 48 -195 159 -195c49 0 92 22 132 57l42 -60c-47 -40 -110 -77 -191 -77zM391 699l-36 52l172 119l44 -71z" />
    <glyph glyph-name="Ccircumflex" unicode="&#x108;" 
d="M312 -12c-150 0 -237 106 -237 267c0 211 140 412 341 412c75 0 131 -40 165 -99l-65 -49c-25 42 -58 68 -105 68c-144 0 -241 -169 -241 -324c0 -115 48 -195 159 -195c49 0 92 22 132 57l42 -60c-47 -40 -110 -77 -191 -77zM297 695l-39 33l128 120h106l86 -123
l-46 -29l-96 96h-4z" />
    <glyph glyph-name="Ccaron" unicode="&#x10c;" 
d="M312 -12c-150 0 -237 106 -237 267c0 211 140 412 341 412c75 0 131 -40 165 -99l-65 -49c-25 42 -58 68 -105 68c-144 0 -241 -169 -241 -324c0 -115 48 -195 159 -195c49 0 92 22 132 57l42 -60c-47 -40 -110 -77 -191 -77zM370 705l-86 123l46 28l96 -95h4l135 96
l39 -32l-128 -120h-106z" />
    <glyph glyph-name="Cdotaccent" unicode="&#x10a;" 
d="M312 -12c-150 0 -237 106 -237 267c0 211 140 412 341 412c75 0 131 -40 165 -99l-65 -49c-25 42 -58 68 -105 68c-144 0 -241 -169 -241 -324c0 -115 48 -195 159 -195c49 0 92 22 132 57l42 -60c-47 -40 -110 -77 -191 -77zM425 712c-29 0 -55 18 -55 51
c0 35 29 64 65 64c29 0 55 -19 55 -51c0 -37 -30 -64 -65 -64z" />
    <glyph glyph-name="Dcaron" unicode="&#x10e;" 
d="M19 0l131 655h135c177 0 274 -91 274 -256c0 -243 -137 -399 -356 -399h-184zM127 76h76c158 0 261 117 261 317c0 121 -66 187 -182 187h-54zM325 705l-86 123l46 28l96 -95h4l135 96l39 -32l-128 -120h-106z" />
    <glyph glyph-name="uni1E0C" unicode="&#x1e0c;" 
d="M19 0l131 655h135c177 0 274 -91 274 -256c0 -243 -137 -399 -356 -399h-184zM127 76h76c158 0 261 117 261 317c0 121 -66 187 -182 187h-54zM190 -240c-36 0 -65 21 -65 60c0 41 35 76 77 76c39 0 65 -22 65 -60c0 -42 -35 -76 -77 -76z" />
    <glyph glyph-name="uni1E0E" unicode="&#x1e0e;" 
d="M19 0l131 655h135c177 0 274 -91 274 -256c0 -243 -137 -399 -356 -399h-184zM127 76h76c158 0 261 117 261 317c0 121 -66 187 -182 187h-54zM61 -188l12 62h262l-11 -62h-263z" />
    <glyph glyph-name="uni1E10" unicode="&#x1e10;" 
d="M127 76h76c158 0 261 117 261 317c0 121 -66 187 -182 187h-54zM87 -230l-1 45c79 3 114 20 117 51c1 24 -17 37 -69 43l60 91h-175l131 655h135c177 0 274 -91 274 -256c0 -222 -114 -371 -301 -396l-42 -67c48 -12 64 -31 61 -66c-7 -64 -78 -97 -190 -100z" />
    <glyph glyph-name="Dcroat" unicode="&#x110;" 
d="M31 0l63 314h-75l14 56l73 4l56 281h135c177 0 274 -91 274 -256c0 -243 -137 -399 -356 -399h-184zM139 76h76c158 0 261 117 261 317c0 121 -66 187 -182 187h-54l-41 -206h137l-14 -60h-135z" />
    <glyph glyph-name="uni018A" unicode="&#x18a;" 
d="M136 0l117 588c-93 -18 -146 -99 -146 -178c0 -39 16 -68 49 -88l-48 -60c-48 25 -77 69 -77 135c0 135 105 271 298 271c166 0 260 -89 260 -249c0 -248 -146 -419 -376 -419h-77zM239 76h7c133 0 247 132 247 337c0 111 -46 175 -151 179z" />
    <glyph glyph-name="Egrave" unicode="&#xc8;" 
d="M55 0l131 655h409l-16 -78h-317l-38 -195h265l-16 -78h-264l-46 -226h326l-16 -78h-418zM430 689l-142 128l66 60l128 -143z" />
    <glyph glyph-name="Eacute" unicode="&#xc9;" 
d="M55 0l131 655h409l-16 -78h-317l-38 -195h265l-16 -78h-264l-46 -226h326l-16 -78h-418zM383 699l-36 52l172 119l44 -71z" />
    <glyph glyph-name="Ecircumflex" unicode="&#xca;" 
d="M55 0l131 655h409l-16 -78h-317l-38 -195h265l-16 -78h-264l-46 -226h326l-16 -78h-418zM289 695l-39 33l128 120h106l86 -123l-46 -29l-96 96h-4z" />
    <glyph glyph-name="Ecaron" unicode="&#x11a;" 
d="M55 0l131 655h409l-16 -78h-317l-38 -195h265l-16 -78h-264l-46 -226h326l-16 -78h-418zM362 705l-86 123l46 28l96 -95h4l135 96l39 -32l-128 -120h-106z" />
    <glyph glyph-name="Edieresis" unicode="&#xcb;" 
d="M55 0l131 655h409l-16 -78h-317l-38 -195h265l-16 -78h-264l-46 -226h326l-16 -78h-418zM319 711c-25 0 -44 17 -44 45c0 31 25 60 56 60c25 0 45 -17 45 -45c0 -30 -25 -60 -57 -60zM512 711c-26 0 -45 17 -45 45c0 31 25 60 56 60c25 0 45 -17 45 -45
c0 -30 -25 -60 -56 -60z" />
    <glyph glyph-name="Emacron" unicode="&#x112;" 
d="M55 0l131 655h409l-16 -78h-317l-38 -195h265l-16 -78h-264l-46 -226h326l-16 -78h-418zM282 726l12 63h264l-12 -63h-264z" />
    <glyph glyph-name="Ebreve" unicode="&#x114;" 
d="M55 0l131 655h409l-16 -78h-317l-38 -195h265l-16 -78h-264l-46 -226h326l-16 -78h-418zM407 703c-95 0 -133 58 -128 136l60 10c-1 -49 25 -85 80 -85c54 0 90 36 108 85l56 -10c-21 -78 -80 -136 -176 -136z" />
    <glyph glyph-name="Edotaccent" unicode="&#x116;" 
d="M55 0l131 655h409l-16 -78h-317l-38 -195h265l-16 -78h-264l-46 -226h326l-16 -78h-418zM417 712c-29 0 -55 18 -55 51c0 35 29 64 65 64c29 0 55 -19 55 -51c0 -37 -30 -64 -65 -64z" />
    <glyph glyph-name="Eogonek" unicode="&#x118;" 
d="M363 -226c-53 0 -95 25 -95 77c0 67 60 121 114 149h-327l131 655h409l-16 -78h-317l-38 -195h265l-16 -78h-264l-46 -226h326l-16 -78h-2c-48 0 -129 -64 -129 -120c0 -29 24 -43 53 -43c16 0 29 5 43 14l21 -46c-25 -19 -62 -31 -96 -31z" />
    <glyph glyph-name="uni1EB8" unicode="&#x1eb8;" 
d="M55 0l131 655h409l-16 -78h-317l-38 -195h265l-16 -78h-264l-46 -226h326l-16 -78h-418zM240 -240c-36 0 -65 21 -65 60c0 41 35 76 77 76c39 0 65 -22 65 -60c0 -42 -35 -76 -77 -76z" />
    <glyph glyph-name="uni1EBA" unicode="&#x1eba;" 
d="M55 0l131 655h409l-16 -78h-317l-38 -195h265l-16 -78h-264l-46 -226h326l-16 -78h-418zM356 696l-1 44c32 7 57 18 61 41c4 24 -20 37 -75 40l21 55c97 -3 140 -32 131 -84c-12 -61 -73 -87 -137 -96z" />
    <glyph glyph-name="uni1EBC" unicode="&#x1ebc;" 
d="M55 0l131 655h409l-16 -78h-317l-38 -195h265l-16 -78h-264l-46 -226h326l-16 -78h-418zM483 705c-69 0 -89 68 -130 68c-24 0 -44 -21 -56 -63l-64 5c18 85 68 129 130 129c69 0 88 -69 130 -69c24 0 43 21 56 63l64 -5c-18 -84 -68 -128 -130 -128z" />
    <glyph glyph-name="uni1EBE" unicode="&#x1ebe;" 
d="M55 0l131 655h409l-16 -78h-317l-38 -195h265l-16 -78h-264l-46 -226h326l-16 -78h-418zM314 695l-36 30l109 93h86l75 -94l-44 -29l-79 70h-4zM543 767l-26 38l114 81l29 -47z" />
    <glyph glyph-name="uni1EC0" unicode="&#x1ec0;" 
d="M55 0l131 655h409l-16 -78h-317l-38 -195h265l-16 -78h-264l-46 -226h326l-16 -78h-418zM314 695l-36 30l109 93h86l75 -94l-44 -29l-79 70h-4zM296 770l-89 82l44 40l83 -90z" />
    <glyph glyph-name="uni1EC2" unicode="&#x1ec2;" 
d="M55 0l131 655h409l-16 -78h-317l-38 -195h265l-16 -78h-264l-46 -226h326l-16 -78h-418zM314 695l-36 30l109 93h86l75 -94l-44 -29l-79 70h-4zM538 754l-4 37c24 5 44 14 47 34c5 25 -12 35 -62 38l17 46c86 -3 123 -29 114 -75c-9 -52 -60 -73 -112 -80z" />
    <glyph glyph-name="uni1EC4" unicode="&#x1ec4;" 
d="M55 0l131 655h409l-16 -78h-317l-38 -195h265l-16 -78h-264l-46 -226h326l-16 -78h-418zM313 695l-35 30l108 88h86l76 -89l-45 -29l-79 66h-4zM497 839c-61 0 -77 48 -114 48c-23 0 -36 -15 -45 -44l-50 6c13 58 45 96 100 96c61 0 77 -48 114 -48c22 0 35 16 44 44
l51 -6c-13 -57 -45 -96 -100 -96z" />
    <glyph glyph-name="uni1EC6" unicode="&#x1ec6;" 
d="M55 0l131 655h409l-16 -78h-317l-38 -195h265l-16 -78h-264l-46 -226h326l-16 -78h-418zM289 695l-39 33l128 120h106l86 -123l-46 -29l-96 96h-4zM240 -240c-36 0 -65 21 -65 60c0 41 35 76 77 76c39 0 65 -22 65 -60c0 -42 -35 -76 -77 -76z" />
    <glyph glyph-name="uni1E16" unicode="&#x1e16;" 
d="M55 0l131 655h409l-16 -78h-317l-38 -195h265l-16 -78h-264l-46 -226h326l-16 -78h-418zM282 726l12 63h264l-12 -63h-264zM438 827l-40 33l118 116l55 -46z" />
    <glyph glyph-name="uni01F4" unicode="&#x1f4;" 
d="M298 -12c-155 0 -241 104 -241 267c0 213 137 412 345 412c80 0 136 -41 170 -99l-65 -49c-25 41 -59 68 -110 68c-149 0 -244 -169 -244 -324c0 -113 44 -196 160 -196c42 0 77 16 101 36l34 167h-128l15 76h212l-58 -291c-48 -39 -114 -67 -191 -67zM375 699l-36 52
l172 119l44 -71z" />
    <glyph glyph-name="Gcircumflex" unicode="&#x11c;" 
d="M298 -12c-155 0 -241 104 -241 267c0 213 137 412 345 412c80 0 136 -41 170 -99l-65 -49c-25 41 -59 68 -110 68c-149 0 -244 -169 -244 -324c0 -113 44 -196 160 -196c42 0 77 16 101 36l34 167h-128l15 76h212l-58 -291c-48 -39 -114 -67 -191 -67zM281 695l-39 33
l128 120h106l86 -123l-46 -29l-96 96h-4z" />
    <glyph glyph-name="Gbreve" unicode="&#x11e;" 
d="M298 -12c-155 0 -241 104 -241 267c0 213 137 412 345 412c80 0 136 -41 170 -99l-65 -49c-25 41 -59 68 -110 68c-149 0 -244 -169 -244 -324c0 -113 44 -196 160 -196c42 0 77 16 101 36l34 167h-128l15 76h212l-58 -291c-48 -39 -114 -67 -191 -67zM399 703
c-95 0 -133 58 -128 136l60 10c-1 -49 25 -85 80 -85c54 0 90 36 108 85l56 -10c-21 -78 -80 -136 -176 -136z" />
    <glyph glyph-name="Gdotaccent" unicode="&#x120;" 
d="M298 -12c-155 0 -241 104 -241 267c0 213 137 412 345 412c80 0 136 -41 170 -99l-65 -49c-25 41 -59 68 -110 68c-149 0 -244 -169 -244 -324c0 -113 44 -196 160 -196c42 0 77 16 101 36l34 167h-128l15 76h212l-58 -291c-48 -39 -114 -67 -191 -67zM409 712
c-29 0 -55 18 -55 51c0 35 29 64 65 64c29 0 55 -19 55 -51c0 -37 -30 -64 -65 -64z" />
    <glyph glyph-name="uni0122" unicode="&#x122;" 
d="M298 -12c-155 0 -241 104 -241 267c0 213 137 412 345 412c80 0 136 -41 170 -99l-65 -49c-25 41 -59 68 -110 68c-149 0 -244 -169 -244 -324c0 -113 44 -196 160 -196c42 0 77 16 101 36l34 167h-128l15 76h212l-58 -291c-48 -39 -114 -67 -191 -67zM167 -230v45
c80 3 115 22 115 50c0 21 -17 35 -61 37l26 42c91 -7 111 -31 111 -68c0 -69 -80 -103 -191 -106z" />
    <glyph glyph-name="Gcaron" unicode="&#x1e6;" 
d="M298 -12c-155 0 -241 104 -241 267c0 213 137 412 345 412c80 0 136 -41 170 -99l-65 -49c-25 41 -59 68 -110 68c-149 0 -244 -169 -244 -324c0 -113 44 -196 160 -196c42 0 77 16 101 36l34 167h-128l15 76h212l-58 -291c-48 -39 -114 -67 -191 -67zM354 705l-86 123
l46 28l96 -95h4l135 96l39 -32l-128 -120h-106z" />
    <glyph glyph-name="uni1E20" unicode="&#x1e20;" 
d="M298 -12c-155 0 -241 104 -241 267c0 213 137 412 345 412c80 0 136 -41 170 -99l-65 -49c-25 41 -59 68 -110 68c-149 0 -244 -169 -244 -324c0 -113 44 -196 160 -196c42 0 77 16 101 36l34 167h-128l15 76h212l-58 -291c-48 -39 -114 -67 -191 -67zM274 726l12 63h264
l-12 -63h-264z" />
    <glyph glyph-name="uni00470303" 
d="M298 -12c-155 0 -241 104 -241 267c0 213 137 412 345 412c80 0 136 -41 170 -99l-65 -49c-25 41 -59 68 -110 68c-149 0 -244 -169 -244 -324c0 -113 44 -196 160 -196c42 0 77 16 101 36l34 167h-128l15 76h212l-58 -291c-48 -39 -114 -67 -191 -67zM475 705
c-69 0 -89 68 -130 68c-24 0 -44 -21 -56 -63l-64 5c18 85 68 129 130 129c69 0 88 -69 130 -69c24 0 43 21 56 63l64 -5c-18 -84 -68 -128 -130 -128z" />
    <glyph glyph-name="uni0193" unicode="&#x193;" 
d="M572 568l-65 -49c-25 41 -59 68 -110 68c-149 0 -244 -169 -244 -324c0 -113 44 -196 160 -196c42 0 77 16 101 36l34 167h-128l15 76h212l-58 -291c-48 -39 -114 -67 -191 -67c-155 0 -241 104 -241 267c0 213 137 412 345 412c25 0 49 -4 69 -12c-1 8 -1 16 -1 23
c0 71 46 127 121 127c31 0 55 -9 73 -20l-30 -65c-12 8 -21 11 -33 11c-33 0 -55 -26 -55 -62c0 -39 9 -66 26 -101z" />
    <glyph glyph-name="Hcircumflex" unicode="&#x124;" 
d="M14 0l131 655h94l-55 -271h260l54 271h94l-131 -655h-94l62 303h-261l-60 -303h-94zM259 695l-39 33l128 120h106l86 -123l-46 -29l-96 96h-4z" />
    <glyph glyph-name="uni1E26" unicode="&#x1e26;" 
d="M14 0l131 655h94l-55 -271h260l54 271h94l-131 -655h-94l62 303h-261l-60 -303h-94zM289 711c-25 0 -44 17 -44 45c0 31 25 60 56 60c25 0 45 -17 45 -45c0 -30 -25 -60 -57 -60zM482 711c-26 0 -45 17 -45 45c0 31 25 60 56 60c25 0 45 -17 45 -45
c0 -30 -25 -60 -56 -60z" />
    <glyph glyph-name="uni1E24" unicode="&#x1e24;" 
d="M14 0l131 655h94l-55 -271h260l54 271h94l-131 -655h-94l62 303h-261l-60 -303h-94zM199 -240c-36 0 -65 21 -65 60c0 41 35 76 77 76c39 0 65 -22 65 -60c0 -42 -35 -76 -77 -76z" />
    <glyph glyph-name="uni1E28" unicode="&#x1e28;" 
d="M14 0l131 655h94l-55 -271h260l54 271h94l-131 -655h-94l62 303h-261l-60 -303h-13l-40 -64c48 -12 64 -31 61 -66c-7 -64 -78 -97 -190 -100l-1 45c79 3 114 20 117 51c1 24 -17 37 -69 43l60 91h-19z" />
    <glyph glyph-name="uni1E2A" unicode="&#x1e2a;" 
d="M14 0l131 655h94l-55 -271h260l54 271h94l-131 -655h-94l62 303h-261l-60 -303h-94zM195 -227c-107 0 -139 75 -132 153l62 10c-3 -50 21 -98 83 -98c61 0 99 48 117 98l58 -10c-18 -78 -78 -153 -188 -153z" />
    <glyph glyph-name="Hbar" unicode="&#x126;" 
d="M44 487l9 54l70 6l22 108h94l-22 -108h259l22 108h94l-22 -108h68l-14 -60h-66l-97 -487h-94l62 303h-261l-60 -303h-94l97 487h-67zM184 384h260l21 103h-260z" />
    <glyph glyph-name="Igrave" unicode="&#xcc;" 
d="M30 0l16 78h160l100 499h-161l17 78h415l-16 -78h-162l-100 -499h162l-17 -78h-414zM400 689l-142 128l66 60l128 -143z" />
    <glyph glyph-name="Iacute" unicode="&#xcd;" 
d="M30 0l16 78h160l100 499h-161l17 78h415l-16 -78h-162l-100 -499h162l-17 -78h-414zM353 699l-36 52l172 119l44 -71z" />
    <glyph glyph-name="Icircumflex" unicode="&#xce;" 
d="M30 0l16 78h160l100 499h-161l17 78h415l-16 -78h-162l-100 -499h162l-17 -78h-414zM259 695l-39 33l128 120h106l86 -123l-46 -29l-96 96h-4z" />
    <glyph glyph-name="Itilde" unicode="&#x128;" 
d="M30 0l16 78h160l100 499h-161l17 78h415l-16 -78h-162l-100 -499h162l-17 -78h-414zM453 705c-69 0 -89 68 -130 68c-24 0 -44 -21 -56 -63l-64 5c18 85 68 129 130 129c69 0 88 -69 130 -69c24 0 43 21 56 63l64 -5c-18 -84 -68 -128 -130 -128z" />
    <glyph glyph-name="Idieresis" unicode="&#xcf;" 
d="M30 0l16 78h160l100 499h-161l17 78h415l-16 -78h-162l-100 -499h162l-17 -78h-414zM289 711c-25 0 -44 17 -44 45c0 31 25 60 56 60c25 0 45 -17 45 -45c0 -30 -25 -60 -57 -60zM482 711c-26 0 -45 17 -45 45c0 31 25 60 56 60c25 0 45 -17 45 -45
c0 -30 -25 -60 -56 -60z" />
    <glyph glyph-name="Imacron" unicode="&#x12a;" 
d="M30 0l16 78h160l100 499h-161l17 78h415l-16 -78h-162l-100 -499h162l-17 -78h-414zM252 726l12 63h264l-12 -63h-264z" />
    <glyph glyph-name="Idotaccent" unicode="&#x130;" 
d="M30 0l16 78h160l100 499h-161l17 78h415l-16 -78h-162l-100 -499h162l-17 -78h-414zM387 712c-29 0 -55 18 -55 51c0 35 29 64 65 64c29 0 55 -19 55 -51c0 -37 -30 -64 -65 -64z" />
    <glyph glyph-name="uni01CF" unicode="&#x1cf;" 
d="M30 0l16 78h160l100 499h-161l17 78h415l-16 -78h-162l-100 -499h162l-17 -78h-414zM332 705l-86 123l46 28l96 -95h4l135 96l39 -32l-128 -120h-106z" />
    <glyph glyph-name="Iogonek" unicode="&#x12e;" 
d="M214 -226c-52 0 -95 25 -95 77c0 64 58 121 99 149h-188l16 78h160l100 499h-161l17 78h415l-16 -78h-162l-100 -499h162l-17 -78h-153c-62 -32 -97 -82 -97 -120c0 -29 23 -43 52 -43c16 0 29 5 44 14l20 -46c-25 -19 -61 -31 -96 -31z" />
    <glyph glyph-name="uni1EC8" unicode="&#x1ec8;" 
d="M30 0l16 78h160l100 499h-161l17 78h415l-16 -78h-162l-100 -499h162l-17 -78h-414zM326 696l-1 44c32 7 57 18 61 41c4 24 -20 37 -75 40l21 55c97 -3 140 -32 131 -84c-12 -61 -73 -87 -137 -96z" />
    <glyph glyph-name="uni1ECA" unicode="&#x1eca;" 
d="M30 0l16 78h160l100 499h-161l17 78h415l-16 -78h-162l-100 -499h162l-17 -78h-414zM199 -240c-36 0 -65 21 -65 60c0 41 35 76 77 76c39 0 65 -22 65 -60c0 -42 -35 -76 -77 -76z" />
    <glyph glyph-name="Ibreve" unicode="&#x12c;" 
d="M30 0l16 78h160l100 499h-161l17 78h415l-16 -78h-162l-100 -499h162l-17 -78h-414zM377 703c-95 0 -133 58 -128 136l60 10c-1 -49 25 -85 80 -85c54 0 90 36 108 85l56 -10c-21 -78 -80 -136 -176 -136z" />
    <glyph glyph-name="Jcircumflex" unicode="&#x134;" 
d="M213 -12c-95 0 -157 48 -194 105l61 55c31 -48 73 -80 135 -80c88 0 134 52 156 163l69 346h-270l15 78h363l-89 -444c-28 -139 -104 -223 -246 -223zM262 695l-39 33l128 120h106l86 -123l-46 -29l-96 96h-4z" />
    <glyph glyph-name="uni0136" unicode="&#x136;" 
d="M623 655l-268 -265l168 -390h-105l-132 321l-118 -117l-41 -204h-92l131 655h93l-66 -324h4l322 324h104zM153 -230v45c80 3 115 22 115 50c0 21 -17 35 -61 37l26 42c91 -7 111 -31 111 -68c0 -69 -80 -103 -191 -106z" />
    <glyph glyph-name="uni1E32" unicode="&#x1e32;" 
d="M623 655l-268 -265l168 -390h-105l-132 321l-118 -117l-41 -204h-92l131 655h93l-66 -324h4l322 324h104zM248 -240c-36 0 -65 21 -65 60c0 41 35 76 77 76c39 0 65 -22 65 -60c0 -42 -35 -76 -77 -76z" />
    <glyph glyph-name="uni1E34" unicode="&#x1e34;" 
d="M623 655l-268 -265l168 -390h-105l-132 321l-118 -117l-41 -204h-92l131 655h93l-66 -324h4l322 324h104zM119 -188l12 62h262l-11 -62h-263z" />
    <glyph glyph-name="Lacute" unicode="&#x139;" 
d="M90 0l131 655h93l-115 -577h317l-16 -78h-410zM254 699l-36 52l172 119l44 -71z" />
    <glyph glyph-name="Lcaron" unicode="&#x13d;" 
d="M90 0l131 655h93l-115 -577h317l-16 -78h-410zM423 529l49 270h86l-19 -86l-56 -184h-60z" />
    <glyph glyph-name="uni013B" unicode="&#x13b;" 
d="M90 0l131 655h93l-115 -577h317l-16 -78h-410zM171 -230v45c80 3 115 22 115 50c0 21 -17 35 -61 37l26 42c91 -7 111 -31 111 -68c0 -69 -80 -103 -191 -106z" />
    <glyph glyph-name="uni1E36" unicode="&#x1e36;" 
d="M90 0l131 655h93l-115 -577h317l-16 -78h-410zM266 -240c-36 0 -65 21 -65 60c0 41 35 76 77 76c39 0 65 -22 65 -60c0 -42 -35 -76 -77 -76z" />
    <glyph glyph-name="uni1E38" unicode="&#x1e38;" 
d="M90 0l131 655h93l-115 -577h317l-16 -78h-410zM153 726l12 63h264l-12 -63h-264zM266 -240c-36 0 -65 21 -65 60c0 41 35 76 77 76c39 0 65 -22 65 -60c0 -42 -35 -76 -77 -76z" />
    <glyph glyph-name="uni1E3A" unicode="&#x1e3a;" 
d="M90 0l131 655h93l-115 -577h317l-16 -78h-410zM137 -188l12 62h262l-11 -62h-263z" />
    <glyph glyph-name="Lslash" unicode="&#x141;" 
d="M57 192l-23 62l118 56l69 345h93l-60 -299l214 105l24 -62l-253 -122l-40 -199h317l-16 -78h-410l46 230z" />
    <glyph glyph-name="Ldot" unicode="&#x13f;" 
d="M90 0l131 655h93l-115 -577h317l-16 -78h-410zM487 282c-36 0 -65 21 -65 60c0 41 35 76 77 76c39 0 65 -22 65 -60c0 -42 -35 -76 -77 -76z" />
    <glyph glyph-name="uni1E3E" unicode="&#x1e3e;" 
d="M11 0l131 655h107l33 -281l5 -98h4l43 96l153 283h106l-130 -655h-84l70 349c11 54 39 150 56 206h-4c-9 -18 -52 -108 -69 -138l-126 -240h-68l-30 233c-2 17 -10 126 -13 145h-4c-6 -64 -16 -153 -24 -195l-74 -360h-82zM353 699l-36 52l172 119l44 -71z" />
    <glyph glyph-name="uni1E40" unicode="&#x1e40;" 
d="M11 0l131 655h107l33 -281l5 -98h4l43 96l153 283h106l-130 -655h-84l70 349c11 54 39 150 56 206h-4c-9 -18 -52 -108 -69 -138l-126 -240h-68l-30 233c-2 17 -10 126 -13 145h-4c-6 -64 -16 -153 -24 -195l-74 -360h-82zM387 712c-29 0 -55 18 -55 51c0 35 29 64 65 64
c29 0 55 -19 55 -51c0 -37 -30 -64 -65 -64z" />
    <glyph glyph-name="uni1E42" unicode="&#x1e42;" 
d="M11 0l131 655h107l33 -281l5 -98h4l43 96l153 283h106l-130 -655h-84l70 349c11 54 39 150 56 206h-4c-9 -18 -52 -108 -69 -138l-126 -240h-68l-30 233c-2 17 -10 126 -13 145h-4c-6 -64 -16 -153 -24 -195l-74 -360h-82zM199 -240c-36 0 -65 21 -65 60
c0 41 35 76 77 76c39 0 65 -22 65 -60c0 -42 -35 -76 -77 -76z" />
    <glyph glyph-name="Nacute" unicode="&#x143;" 
d="M21 0l131 655h94l120 -401l34 -137h4c8 66 19 156 29 210l65 328h89l-131 -655h-93l-121 401l-34 138h-4c-9 -68 -19 -153 -31 -216l-63 -323h-89zM351 699l-36 52l172 119l44 -71z" />
    <glyph glyph-name="uni01F8" unicode="&#x1f8;" 
d="M21 0l131 655h94l120 -401l34 -137h4c8 66 19 156 29 210l65 328h89l-131 -655h-93l-121 401l-34 138h-4c-9 -68 -19 -153 -31 -216l-63 -323h-89zM398 689l-142 128l66 60l128 -143z" />
    <glyph glyph-name="Ncaron" unicode="&#x147;" 
d="M21 0l131 655h94l120 -401l34 -137h4c8 66 19 156 29 210l65 328h89l-131 -655h-93l-121 401l-34 138h-4c-9 -68 -19 -153 -31 -216l-63 -323h-89zM330 705l-86 123l46 28l96 -95h4l135 96l39 -32l-128 -120h-106z" />
    <glyph glyph-name="Ntilde" unicode="&#xd1;" 
d="M21 0l131 655h94l120 -401l34 -137h4c8 66 19 156 29 210l65 328h89l-131 -655h-93l-121 401l-34 138h-4c-9 -68 -19 -153 -31 -216l-63 -323h-89zM451 705c-69 0 -89 68 -130 68c-24 0 -44 -21 -56 -63l-64 5c18 85 68 129 130 129c69 0 88 -69 130 -69
c24 0 43 21 56 63l64 -5c-18 -84 -68 -128 -130 -128z" />
    <glyph glyph-name="uni0145" unicode="&#x145;" 
d="M21 0l131 655h94l120 -401l34 -137h4c8 66 19 156 29 210l65 328h89l-131 -655h-93l-121 401l-34 138h-4c-9 -68 -19 -153 -31 -216l-63 -323h-89zM119 -230v45c80 3 115 22 115 50c0 21 -17 35 -61 37l26 42c91 -7 111 -31 111 -68c0 -69 -80 -103 -191 -106z" />
    <glyph glyph-name="uni1E44" unicode="&#x1e44;" 
d="M21 0l131 655h94l120 -401l34 -137h4c8 66 19 156 29 210l65 328h89l-131 -655h-93l-121 401l-34 138h-4c-9 -68 -19 -153 -31 -216l-63 -323h-89zM385 712c-29 0 -55 18 -55 51c0 35 29 64 65 64c29 0 55 -19 55 -51c0 -37 -30 -64 -65 -64z" />
    <glyph glyph-name="uni1E46" unicode="&#x1e46;" 
d="M21 0l131 655h94l120 -401l34 -137h4c8 66 19 156 29 210l65 328h89l-131 -655h-93l-121 401l-34 138h-4c-9 -68 -19 -153 -31 -216l-63 -323h-89zM214 -240c-36 0 -65 21 -65 60c0 41 35 76 77 76c39 0 65 -22 65 -60c0 -42 -35 -76 -77 -76z" />
    <glyph glyph-name="uni1E48" unicode="&#x1e48;" 
d="M21 0l131 655h94l120 -401l34 -137h4c8 66 19 156 29 210l65 328h89l-131 -655h-93l-121 401l-34 138h-4c-9 -68 -19 -153 -31 -216l-63 -323h-89zM85 -188l12 62h262l-11 -62h-263z" />
    <glyph glyph-name="Ograve" unicode="&#xd2;" 
d="M253 -12c-134 0 -215 103 -215 261c0 212 123 418 318 418c133 0 214 -103 214 -261c0 -212 -123 -418 -317 -418zM262 68c132 0 213 175 213 344c0 109 -41 175 -128 175c-132 0 -214 -175 -214 -344c0 -109 42 -175 129 -175zM400 689l-142 128l66 60l128 -143z" />
    <glyph glyph-name="Oacute" unicode="&#xd3;" 
d="M253 -12c-134 0 -215 103 -215 261c0 212 123 418 318 418c133 0 214 -103 214 -261c0 -212 -123 -418 -317 -418zM262 68c132 0 213 175 213 344c0 109 -41 175 -128 175c-132 0 -214 -175 -214 -344c0 -109 42 -175 129 -175zM353 699l-36 52l172 119l44 -71z" />
    <glyph glyph-name="Ocircumflex" unicode="&#xd4;" 
d="M253 -12c-134 0 -215 103 -215 261c0 212 123 418 318 418c133 0 214 -103 214 -261c0 -212 -123 -418 -317 -418zM262 68c132 0 213 175 213 344c0 109 -41 175 -128 175c-132 0 -214 -175 -214 -344c0 -109 42 -175 129 -175zM259 695l-39 33l128 120h106l86 -123
l-46 -29l-96 96h-4z" />
    <glyph glyph-name="Otilde" unicode="&#xd5;" 
d="M253 -12c-134 0 -215 103 -215 261c0 212 123 418 318 418c133 0 214 -103 214 -261c0 -212 -123 -418 -317 -418zM262 68c132 0 213 175 213 344c0 109 -41 175 -128 175c-132 0 -214 -175 -214 -344c0 -109 42 -175 129 -175zM453 705c-69 0 -89 68 -130 68
c-24 0 -44 -21 -56 -63l-64 5c18 85 68 129 130 129c69 0 88 -69 130 -69c24 0 43 21 56 63l64 -5c-18 -84 -68 -128 -130 -128z" />
    <glyph glyph-name="Odieresis" unicode="&#xd6;" 
d="M253 -12c-134 0 -215 103 -215 261c0 212 123 418 318 418c133 0 214 -103 214 -261c0 -212 -123 -418 -317 -418zM262 68c132 0 213 175 213 344c0 109 -41 175 -128 175c-132 0 -214 -175 -214 -344c0 -109 42 -175 129 -175zM289 711c-25 0 -44 17 -44 45
c0 31 25 60 56 60c25 0 45 -17 45 -45c0 -30 -25 -60 -57 -60zM482 711c-26 0 -45 17 -45 45c0 31 25 60 56 60c25 0 45 -17 45 -45c0 -30 -25 -60 -56 -60z" />
    <glyph glyph-name="Omacron" unicode="&#x14c;" 
d="M253 -12c-134 0 -215 103 -215 261c0 212 123 418 318 418c133 0 214 -103 214 -261c0 -212 -123 -418 -317 -418zM262 68c132 0 213 175 213 344c0 109 -41 175 -128 175c-132 0 -214 -175 -214 -344c0 -109 42 -175 129 -175zM252 726l12 63h264l-12 -63h-264z" />
    <glyph glyph-name="Ohungarumlaut" unicode="&#x150;" 
d="M253 -12c-134 0 -215 103 -215 261c0 212 123 418 318 418c133 0 214 -103 214 -261c0 -212 -123 -418 -317 -418zM262 68c132 0 213 175 213 344c0 109 -41 175 -128 175c-132 0 -214 -175 -214 -344c0 -109 42 -175 129 -175zM317 704l-46 29l122 144l58 -43zM484 704
l-46 29l122 144l58 -43z" />
    <glyph glyph-name="Obreve" unicode="&#x14e;" 
d="M253 -12c-134 0 -215 103 -215 261c0 212 123 418 318 418c133 0 214 -103 214 -261c0 -212 -123 -418 -317 -418zM262 68c132 0 213 175 213 344c0 109 -41 175 -128 175c-132 0 -214 -175 -214 -344c0 -109 42 -175 129 -175zM377 703c-95 0 -133 58 -128 136l60 10
c-1 -49 25 -85 80 -85c54 0 90 36 108 85l56 -10c-21 -78 -80 -136 -176 -136z" />
    <glyph glyph-name="uni01D1" unicode="&#x1d1;" 
d="M253 -12c-134 0 -215 103 -215 261c0 212 123 418 318 418c133 0 214 -103 214 -261c0 -212 -123 -418 -317 -418zM262 68c132 0 213 175 213 344c0 109 -41 175 -128 175c-132 0 -214 -175 -214 -344c0 -109 42 -175 129 -175zM332 705l-86 123l46 28l96 -95h4l135 96
l39 -32l-128 -120h-106z" />
    <glyph glyph-name="uni01EA" unicode="&#x1ea;" 
d="M213 -226c-52 0 -95 25 -95 77c0 57 49 110 97 139c-102 18 -177 105 -177 259c0 212 123 418 318 418c133 0 214 -103 214 -261c0 -189 -96 -376 -264 -414c-79 -18 -113 -81 -113 -112c0 -29 23 -43 52 -43c16 0 29 5 44 14l20 -46c-25 -19 -61 -31 -96 -31zM262 66
c132 0 213 174 213 346c0 109 -41 175 -128 175c-132 0 -214 -175 -214 -344c0 -111 42 -177 129 -177z" />
    <glyph glyph-name="uni1ECC" unicode="&#x1ecc;" 
d="M253 -12c-134 0 -215 103 -215 261c0 212 123 418 318 418c133 0 214 -103 214 -261c0 -212 -123 -418 -317 -418zM262 68c132 0 213 175 213 344c0 109 -41 175 -128 175c-132 0 -214 -175 -214 -344c0 -109 42 -175 129 -175zM197 -240c-36 0 -65 21 -65 60
c0 41 35 76 77 76c39 0 65 -22 65 -60c0 -42 -35 -76 -77 -76z" />
    <glyph glyph-name="uni1ECE" unicode="&#x1ece;" 
d="M253 -12c-134 0 -215 103 -215 261c0 212 123 418 318 418c133 0 214 -103 214 -261c0 -212 -123 -418 -317 -418zM262 68c132 0 213 175 213 344c0 109 -41 175 -128 175c-132 0 -214 -175 -214 -344c0 -109 42 -175 129 -175zM326 696l-1 44c32 7 57 18 61 41
c4 24 -20 37 -75 40l21 55c97 -3 140 -32 131 -84c-12 -61 -73 -87 -137 -96z" />
    <glyph glyph-name="uni1ED0" unicode="&#x1ed0;" 
d="M253 -12c-134 0 -215 103 -215 261c0 212 123 418 318 418c133 0 214 -103 214 -261c0 -212 -123 -418 -317 -418zM262 68c132 0 213 175 213 344c0 109 -41 175 -128 175c-132 0 -214 -175 -214 -344c0 -109 42 -175 129 -175zM284 695l-36 30l109 93h86l75 -94l-44 -29
l-79 70h-4zM513 767l-26 38l114 81l29 -47z" />
    <glyph glyph-name="uni1ED2" unicode="&#x1ed2;" 
d="M253 -12c-134 0 -215 103 -215 261c0 212 123 418 318 418c133 0 214 -103 214 -261c0 -212 -123 -418 -317 -418zM262 68c132 0 213 175 213 344c0 109 -41 175 -128 175c-132 0 -214 -175 -214 -344c0 -109 42 -175 129 -175zM284 695l-36 30l109 93h86l75 -94l-44 -29
l-79 70h-4zM266 770l-89 82l44 40l83 -90z" />
    <glyph glyph-name="uni1ED4" unicode="&#x1ed4;" 
d="M253 -12c-134 0 -215 103 -215 261c0 212 123 418 318 418c133 0 214 -103 214 -261c0 -212 -123 -418 -317 -418zM262 68c132 0 213 175 213 344c0 109 -41 175 -128 175c-132 0 -214 -175 -214 -344c0 -109 42 -175 129 -175zM284 695l-36 30l109 93h86l75 -94l-44 -29
l-79 70h-4zM508 754l-4 37c24 5 44 14 47 34c5 25 -12 35 -62 38l17 46c86 -3 123 -29 114 -75c-9 -52 -60 -73 -112 -80z" />
    <glyph glyph-name="uni1ED6" unicode="&#x1ed6;" 
d="M253 -12c-134 0 -215 103 -215 261c0 212 123 418 318 418c133 0 214 -103 214 -261c0 -212 -123 -418 -317 -418zM262 68c132 0 213 175 213 344c0 109 -41 175 -128 175c-132 0 -214 -175 -214 -344c0 -109 42 -175 129 -175zM283 695l-35 30l108 88h86l76 -89l-45 -29
l-79 66h-4zM467 839c-61 0 -77 48 -114 48c-23 0 -36 -15 -45 -44l-50 6c13 58 45 96 100 96c61 0 77 -48 114 -48c22 0 35 16 44 44l51 -6c-13 -57 -45 -96 -100 -96z" />
    <glyph glyph-name="uni1ED8" unicode="&#x1ed8;" 
d="M253 -12c-134 0 -215 103 -215 261c0 212 123 418 318 418c133 0 214 -103 214 -261c0 -212 -123 -418 -317 -418zM262 68c132 0 213 175 213 344c0 109 -41 175 -128 175c-132 0 -214 -175 -214 -344c0 -109 42 -175 129 -175zM259 695l-39 33l128 120h106l86 -123
l-46 -29l-96 96h-4zM197 -240c-36 0 -65 21 -65 60c0 41 35 76 77 76c39 0 65 -22 65 -60c0 -42 -35 -76 -77 -76z" />
    <glyph glyph-name="Ohorn" unicode="&#x1a0;" 
d="M253 -12c-134 0 -215 103 -215 261c0 212 123 418 318 418c41 0 77 -10 107 -28c66 6 104 41 104 98c0 15 -3 36 -10 53l73 25c9 -24 14 -48 14 -69c0 -84 -53 -129 -135 -145c39 -46 61 -113 61 -195c0 -212 -123 -418 -317 -418zM262 68c132 0 213 175 213 344
c0 109 -41 175 -128 175c-132 0 -214 -175 -214 -344c0 -109 42 -175 129 -175z" />
    <glyph glyph-name="uni1EDA" unicode="&#x1eda;" 
d="M253 -12c-134 0 -215 103 -215 261c0 212 123 418 318 418c41 0 77 -10 107 -28c66 6 104 41 104 98c0 15 -3 36 -10 53l73 25c9 -24 14 -48 14 -69c0 -84 -53 -129 -135 -145c39 -46 61 -113 61 -195c0 -212 -123 -418 -317 -418zM262 68c132 0 213 175 213 344
c0 109 -41 175 -128 175c-132 0 -214 -175 -214 -344c0 -109 42 -175 129 -175zM353 699l-36 52l172 119l44 -71z" />
    <glyph glyph-name="uni1EDC" unicode="&#x1edc;" 
d="M253 -12c-134 0 -215 103 -215 261c0 212 123 418 318 418c41 0 77 -10 107 -28c66 6 104 41 104 98c0 15 -3 36 -10 53l73 25c9 -24 14 -48 14 -69c0 -84 -53 -129 -135 -145c39 -46 61 -113 61 -195c0 -212 -123 -418 -317 -418zM262 68c132 0 213 175 213 344
c0 109 -41 175 -128 175c-132 0 -214 -175 -214 -344c0 -109 42 -175 129 -175zM400 689l-142 128l66 60l128 -143z" />
    <glyph glyph-name="uni1EDE" unicode="&#x1ede;" 
d="M253 -12c-134 0 -215 103 -215 261c0 212 123 418 318 418c41 0 77 -10 107 -28c66 6 104 41 104 98c0 15 -3 36 -10 53l73 25c9 -24 14 -48 14 -69c0 -84 -53 -129 -135 -145c39 -46 61 -113 61 -195c0 -212 -123 -418 -317 -418zM262 68c132 0 213 175 213 344
c0 109 -41 175 -128 175c-132 0 -214 -175 -214 -344c0 -109 42 -175 129 -175zM326 696l-1 44c32 7 57 18 61 41c4 24 -20 37 -75 40l21 55c97 -3 140 -32 131 -84c-12 -61 -73 -87 -137 -96z" />
    <glyph glyph-name="uni1EE0" unicode="&#x1ee0;" 
d="M253 -12c-134 0 -215 103 -215 261c0 212 123 418 318 418c41 0 77 -10 107 -28c66 6 104 41 104 98c0 15 -3 36 -10 53l73 25c9 -24 14 -48 14 -69c0 -84 -53 -129 -135 -145c39 -46 61 -113 61 -195c0 -212 -123 -418 -317 -418zM262 68c132 0 213 175 213 344
c0 109 -41 175 -128 175c-132 0 -214 -175 -214 -344c0 -109 42 -175 129 -175zM414 705c-69 0 -89 68 -130 68c-24 0 -44 -21 -56 -63l-64 5c18 85 68 129 130 129c69 0 88 -69 130 -69c24 0 43 21 56 63l64 -5c-18 -84 -68 -128 -130 -128z" />
    <glyph glyph-name="uni1EE2" unicode="&#x1ee2;" 
d="M253 -12c-134 0 -215 103 -215 261c0 212 123 418 318 418c41 0 77 -10 107 -28c66 6 104 41 104 98c0 15 -3 36 -10 53l73 25c9 -24 14 -48 14 -69c0 -84 -53 -129 -135 -145c39 -46 61 -113 61 -195c0 -212 -123 -418 -317 -418zM262 68c132 0 213 175 213 344
c0 109 -41 175 -128 175c-132 0 -214 -175 -214 -344c0 -109 42 -175 129 -175zM197 -240c-36 0 -65 21 -65 60c0 41 35 76 77 76c39 0 65 -22 65 -60c0 -42 -35 -76 -77 -76z" />
    <glyph glyph-name="uni1E52" unicode="&#x1e52;" 
d="M253 -12c-134 0 -215 103 -215 261c0 212 123 418 318 418c133 0 214 -103 214 -261c0 -212 -123 -418 -317 -418zM262 68c132 0 213 175 213 344c0 109 -41 175 -128 175c-132 0 -214 -175 -214 -344c0 -109 42 -175 129 -175zM252 726l12 63h264l-12 -63h-264zM408 827
l-40 33l118 116l55 -46z" />
    <glyph glyph-name="Oslash" unicode="&#xd8;" 
d="M253 -12c-60 0 -110 21 -146 58l-71 -82l-53 43l84 97c-19 40 -29 89 -29 145c0 213 124 418 318 418c61 0 110 -21 146 -59l72 83l53 -43l-86 -99c18 -40 28 -88 28 -143c0 -212 -122 -418 -316 -418zM130 249c0 -24 2 -46 6 -65l308 357c-22 30 -54 46 -97 46
c-132 0 -217 -176 -217 -338zM262 68c132 0 215 175 215 339c0 22 -2 43 -5 62l-307 -356c22 -29 55 -45 97 -45z" />
    <glyph glyph-name="Oslashacute" unicode="&#x1fe;" 
d="M253 -12c-60 0 -110 21 -146 58l-71 -82l-53 43l84 97c-19 40 -29 89 -29 145c0 213 124 418 318 418c61 0 110 -21 146 -59l72 83l53 -43l-86 -99c18 -40 28 -88 28 -143c0 -212 -122 -418 -316 -418zM130 249c0 -24 2 -46 6 -65l308 357c-22 30 -54 46 -97 46
c-132 0 -217 -176 -217 -338zM262 68c132 0 215 175 215 339c0 22 -2 43 -5 62l-307 -356c22 -29 55 -45 97 -45zM353 699l-36 52l172 119l44 -71z" />
    <glyph glyph-name="OE" unicode="&#x152;" 
d="M258 0c-163 0 -234 89 -234 246c0 246 147 409 346 409h283l-16 -78h-190l-39 -195h145l-16 -78h-143l-47 -226h200l-16 -78h-273zM261 76h4l100 504h-9c-140 0 -237 -142 -237 -328c0 -113 40 -176 142 -176z" />
    <glyph glyph-name="Racute" unicode="&#x154;" 
d="M30 0l131 655h183c124 0 212 -44 212 -160c0 -120 -82 -193 -188 -218l115 -277h-104l-102 268h-101l-53 -268h-93zM192 343h85c118 0 185 55 185 143c0 67 -47 95 -137 95h-87zM351 699l-36 52l172 119l44 -71z" />
    <glyph glyph-name="Rcaron" unicode="&#x158;" 
d="M30 0l131 655h183c124 0 212 -44 212 -160c0 -120 -82 -193 -188 -218l115 -277h-104l-102 268h-101l-53 -268h-93zM192 343h85c118 0 185 55 185 143c0 67 -47 95 -137 95h-87zM330 705l-86 123l46 28l96 -95h4l135 96l39 -32l-128 -120h-106z" />
    <glyph glyph-name="uni1E58" unicode="&#x1e58;" 
d="M30 0l131 655h183c124 0 212 -44 212 -160c0 -120 -82 -193 -188 -218l115 -277h-104l-102 268h-101l-53 -268h-93zM192 343h85c118 0 185 55 185 143c0 67 -47 95 -137 95h-87zM385 712c-29 0 -55 18 -55 51c0 35 29 64 65 64c29 0 55 -19 55 -51c0 -37 -30 -64 -65 -64
z" />
    <glyph glyph-name="uni0156" unicode="&#x156;" 
d="M30 0l131 655h183c124 0 212 -44 212 -160c0 -120 -82 -193 -188 -218l115 -277h-104l-102 268h-101l-53 -268h-93zM192 343h85c118 0 185 55 185 143c0 67 -47 95 -137 95h-87zM130 -230v45c80 3 115 22 115 50c0 21 -17 35 -61 37l26 42c91 -7 111 -31 111 -68
c0 -69 -80 -103 -191 -106z" />
    <glyph glyph-name="uni1E5A" unicode="&#x1e5a;" 
d="M30 0l131 655h183c124 0 212 -44 212 -160c0 -120 -82 -193 -188 -218l115 -277h-104l-102 268h-101l-53 -268h-93zM192 343h85c118 0 185 55 185 143c0 67 -47 95 -137 95h-87zM225 -240c-36 0 -65 21 -65 60c0 41 35 76 77 76c39 0 65 -22 65 -60
c0 -42 -35 -76 -77 -76z" />
    <glyph glyph-name="uni1E5C" unicode="&#x1e5c;" 
d="M30 0l131 655h183c124 0 212 -44 212 -160c0 -120 -82 -193 -188 -218l115 -277h-104l-102 268h-101l-53 -268h-93zM192 343h85c118 0 185 55 185 143c0 67 -47 95 -137 95h-87zM250 726l12 63h264l-12 -63h-264zM225 -240c-36 0 -65 21 -65 60c0 41 35 76 77 76
c39 0 65 -22 65 -60c0 -42 -35 -76 -77 -76z" />
    <glyph glyph-name="uni1E5E" unicode="&#x1e5e;" 
d="M30 0l131 655h183c124 0 212 -44 212 -160c0 -120 -82 -193 -188 -218l115 -277h-104l-102 268h-101l-53 -268h-93zM192 343h85c118 0 185 55 185 143c0 67 -47 95 -137 95h-87zM96 -188l12 62h262l-11 -62h-263z" />
    <glyph glyph-name="Sacute" unicode="&#x15a;" 
d="M262 -12c-107 0 -183 48 -228 120l62 53c39 -60 94 -93 166 -93c76 0 132 42 132 109c0 47 -31 76 -79 104l-72 43c-57 34 -107 85 -107 163c0 104 87 180 206 180c87 0 160 -44 200 -100l-61 -52c-32 40 -79 73 -142 73s-108 -43 -108 -94c0 -46 33 -73 73 -96l77 -47
c62 -39 108 -85 108 -166c0 -124 -100 -197 -227 -197zM338 699l-36 52l172 119l44 -71z" />
    <glyph glyph-name="Scircumflex" unicode="&#x15c;" 
d="M262 -12c-107 0 -183 48 -228 120l62 53c39 -60 94 -93 166 -93c76 0 132 42 132 109c0 47 -31 76 -79 104l-72 43c-57 34 -107 85 -107 163c0 104 87 180 206 180c87 0 160 -44 200 -100l-61 -52c-32 40 -79 73 -142 73s-108 -43 -108 -94c0 -46 33 -73 73 -96l77 -47
c62 -39 108 -85 108 -166c0 -124 -100 -197 -227 -197zM244 695l-39 33l128 120h106l86 -123l-46 -29l-96 96h-4z" />
    <glyph glyph-name="Scaron" unicode="&#x160;" 
d="M262 -12c-107 0 -183 48 -228 120l62 53c39 -60 94 -93 166 -93c76 0 132 42 132 109c0 47 -31 76 -79 104l-72 43c-57 34 -107 85 -107 163c0 104 87 180 206 180c87 0 160 -44 200 -100l-61 -52c-32 40 -79 73 -142 73s-108 -43 -108 -94c0 -46 33 -73 73 -96l77 -47
c62 -39 108 -85 108 -166c0 -124 -100 -197 -227 -197zM317 705l-86 123l46 28l96 -95h4l135 96l39 -32l-128 -120h-106z" />
    <glyph glyph-name="uni1E66" unicode="&#x1e66;" 
d="M262 -12c-107 0 -183 48 -228 120l62 53c39 -60 94 -93 166 -93c76 0 132 42 132 109c0 47 -31 76 -79 104l-72 43c-57 34 -107 85 -107 163c0 104 87 180 206 180c87 0 160 -44 200 -100l-61 -52c-32 40 -79 73 -142 73s-108 -43 -108 -94c0 -46 33 -73 73 -96l77 -47
c62 -39 108 -85 108 -166c0 -124 -100 -197 -227 -197zM390 818c-30 0 -52 17 -52 50c0 38 33 71 69 71c30 0 52 -17 52 -50c0 -38 -33 -71 -69 -71zM317 705l-86 123l41 26l100 -99h4l141 100l34 -30l-128 -120h-106z" />
    <glyph glyph-name="uni015E" unicode="&#x15e;" 
d="M122 -230l-1 45c79 3 114 20 117 51c1 24 -17 37 -69 43l53 81c-86 11 -149 55 -188 118l62 53c39 -60 94 -93 166 -93c76 0 132 42 132 109c0 47 -31 76 -79 104l-72 43c-57 34 -107 85 -107 163c0 104 87 180 206 180c87 0 160 -44 200 -100l-61 -52
c-32 40 -79 73 -142 73s-108 -43 -108 -94c0 -46 33 -73 73 -96l77 -47c62 -39 108 -85 108 -166c0 -117 -89 -188 -205 -196l-33 -53c48 -12 64 -31 61 -66c-7 -64 -78 -97 -190 -100z" />
    <glyph glyph-name="uni0218" unicode="&#x218;" 
d="M262 -12c-107 0 -183 48 -228 120l62 53c39 -60 94 -93 166 -93c76 0 132 42 132 109c0 47 -31 76 -79 104l-72 43c-57 34 -107 85 -107 163c0 104 87 180 206 180c87 0 160 -44 200 -100l-61 -52c-32 40 -79 73 -142 73s-108 -43 -108 -94c0 -46 33 -73 73 -96l77 -47
c62 -39 108 -85 108 -166c0 -124 -100 -197 -227 -197zM130 -230v45c80 3 115 22 115 50c0 21 -17 35 -61 37l26 42c91 -7 111 -31 111 -68c0 -69 -80 -103 -191 -106z" />
    <glyph glyph-name="uni1E60" unicode="&#x1e60;" 
d="M262 -12c-107 0 -183 48 -228 120l62 53c39 -60 94 -93 166 -93c76 0 132 42 132 109c0 47 -31 76 -79 104l-72 43c-57 34 -107 85 -107 163c0 104 87 180 206 180c87 0 160 -44 200 -100l-61 -52c-32 40 -79 73 -142 73s-108 -43 -108 -94c0 -46 33 -73 73 -96l77 -47
c62 -39 108 -85 108 -166c0 -124 -100 -197 -227 -197zM372 712c-29 0 -55 18 -55 51c0 35 29 64 65 64c29 0 55 -19 55 -51c0 -37 -30 -64 -65 -64z" />
    <glyph glyph-name="uni1E62" unicode="&#x1e62;" 
d="M262 -12c-107 0 -183 48 -228 120l62 53c39 -60 94 -93 166 -93c76 0 132 42 132 109c0 47 -31 76 -79 104l-72 43c-57 34 -107 85 -107 163c0 104 87 180 206 180c87 0 160 -44 200 -100l-61 -52c-32 40 -79 73 -142 73s-108 -43 -108 -94c0 -46 33 -73 73 -96l77 -47
c62 -39 108 -85 108 -166c0 -124 -100 -197 -227 -197zM225 -240c-36 0 -65 21 -65 60c0 41 35 76 77 76c39 0 65 -22 65 -60c0 -42 -35 -76 -77 -76z" />
    <glyph glyph-name="uni1E9E" unicode="&#x1e9e;" 
d="M338 -12c-71 0 -126 34 -153 71l47 58c24 -33 55 -52 101 -52c71 0 120 48 120 111c0 69 -52 106 -143 129l6 58l154 166c-18 38 -54 64 -102 64c-84 0 -152 -52 -176 -172l-84 -421h-93l88 439c28 140 119 228 269 228c97 0 166 -56 186 -152l-156 -165
c84 -30 143 -84 143 -173c0 -107 -78 -189 -207 -189z" />
    <glyph glyph-name="Tcaron" unicode="&#x164;" 
d="M191 0l114 576h-212l15 79h519l-16 -79h-213l-114 -576h-93zM332 705l-86 123l46 28l96 -95h4l135 96l39 -32l-128 -120h-106z" />
    <glyph glyph-name="uni0162" unicode="&#x162;" 
d="M191 0l114 576h-212l15 79h519l-16 -79h-213l-114 -576h-14l-40 -64c48 -12 64 -31 61 -66c-7 -64 -78 -97 -190 -100l-1 45c79 3 114 20 117 51c1 24 -17 37 -69 43l60 91h-17z" />
    <glyph glyph-name="uni021A" unicode="&#x21a;" 
d="M191 0l114 576h-212l15 79h519l-16 -79h-213l-114 -576h-93zM105 -230v45c80 3 115 22 115 50c0 21 -17 35 -61 37l26 42c91 -7 111 -31 111 -68c0 -69 -80 -103 -191 -106z" />
    <glyph glyph-name="uni1E6C" unicode="&#x1e6c;" 
d="M191 0l114 576h-212l15 79h519l-16 -79h-213l-114 -576h-93zM200 -240c-36 0 -65 21 -65 60c0 41 35 76 77 76c39 0 65 -22 65 -60c0 -42 -35 -76 -77 -76z" />
    <glyph glyph-name="uni1E6E" unicode="&#x1e6e;" 
d="M191 0l114 576h-212l15 79h519l-16 -79h-213l-114 -576h-93zM71 -188l12 62h262l-11 -62h-263z" />
    <glyph glyph-name="Tbar" unicode="&#x166;" 
d="M119 317l11 54l75 6h61l39 199h-212l15 79h519l-16 -79h-213l-39 -199h134l-13 -60h-133l-63 -317h-93l63 317h-135z" />
    <glyph glyph-name="Ugrave" unicode="&#xd9;" 
d="M254 -12c-126 0 -193 78 -193 200c0 33 3 61 10 96l74 371h94l-75 -376c-7 -30 -11 -56 -11 -81c0 -83 38 -130 113 -130c71 0 127 47 155 188l79 399h92l-82 -407c-38 -194 -131 -260 -256 -260zM400 689l-142 128l66 60l128 -143z" />
    <glyph glyph-name="Uacute" unicode="&#xda;" 
d="M254 -12c-126 0 -193 78 -193 200c0 33 3 61 10 96l74 371h94l-75 -376c-7 -30 -11 -56 -11 -81c0 -83 38 -130 113 -130c71 0 127 47 155 188l79 399h92l-82 -407c-38 -194 -131 -260 -256 -260zM353 699l-36 52l172 119l44 -71z" />
    <glyph glyph-name="Ucircumflex" unicode="&#xdb;" 
d="M254 -12c-126 0 -193 78 -193 200c0 33 3 61 10 96l74 371h94l-75 -376c-7 -30 -11 -56 -11 -81c0 -83 38 -130 113 -130c71 0 127 47 155 188l79 399h92l-82 -407c-38 -194 -131 -260 -256 -260zM259 695l-39 33l128 120h106l86 -123l-46 -29l-96 96h-4z" />
    <glyph glyph-name="Utilde" unicode="&#x168;" 
d="M254 -12c-126 0 -193 78 -193 200c0 33 3 61 10 96l74 371h94l-75 -376c-7 -30 -11 -56 -11 -81c0 -83 38 -130 113 -130c71 0 127 47 155 188l79 399h92l-82 -407c-38 -194 -131 -260 -256 -260zM453 705c-69 0 -89 68 -130 68c-24 0 -44 -21 -56 -63l-64 5
c18 85 68 129 130 129c69 0 88 -69 130 -69c24 0 43 21 56 63l64 -5c-18 -84 -68 -128 -130 -128z" />
    <glyph glyph-name="Udieresis" unicode="&#xdc;" 
d="M254 -12c-126 0 -193 78 -193 200c0 33 3 61 10 96l74 371h94l-75 -376c-7 -30 -11 -56 -11 -81c0 -83 38 -130 113 -130c71 0 127 47 155 188l79 399h92l-82 -407c-38 -194 -131 -260 -256 -260zM289 711c-25 0 -44 17 -44 45c0 31 25 60 56 60c25 0 45 -17 45 -45
c0 -30 -25 -60 -57 -60zM482 711c-26 0 -45 17 -45 45c0 31 25 60 56 60c25 0 45 -17 45 -45c0 -30 -25 -60 -56 -60z" />
    <glyph glyph-name="Umacron" unicode="&#x16a;" 
d="M254 -12c-126 0 -193 78 -193 200c0 33 3 61 10 96l74 371h94l-75 -376c-7 -30 -11 -56 -11 -81c0 -83 38 -130 113 -130c71 0 127 47 155 188l79 399h92l-82 -407c-38 -194 -131 -260 -256 -260zM252 726l12 63h264l-12 -63h-264z" />
    <glyph glyph-name="Ubreve" unicode="&#x16c;" 
d="M254 -12c-126 0 -193 78 -193 200c0 33 3 61 10 96l74 371h94l-75 -376c-7 -30 -11 -56 -11 -81c0 -83 38 -130 113 -130c71 0 127 47 155 188l79 399h92l-82 -407c-38 -194 -131 -260 -256 -260zM377 703c-95 0 -133 58 -128 136l60 10c-1 -49 25 -85 80 -85
c54 0 90 36 108 85l56 -10c-21 -78 -80 -136 -176 -136z" />
    <glyph glyph-name="Uring" unicode="&#x16e;" 
d="M254 -12c-126 0 -193 78 -193 200c0 33 3 61 10 96l74 371h94l-75 -376c-7 -30 -11 -56 -11 -81c0 -83 38 -130 113 -130c71 0 127 47 155 188l79 399h92l-82 -407c-38 -194 -131 -260 -256 -260zM388 699c-49 0 -92 25 -92 81s49 102 110 102c48 0 92 -26 92 -81
c0 -57 -48 -102 -110 -102zM390 740c29 0 55 25 55 57c0 26 -14 44 -41 44c-30 0 -55 -26 -55 -57c0 -26 15 -44 41 -44z" />
    <glyph glyph-name="Uhungarumlaut" unicode="&#x170;" 
d="M254 -12c-126 0 -193 78 -193 200c0 33 3 61 10 96l74 371h94l-75 -376c-7 -30 -11 -56 -11 -81c0 -83 38 -130 113 -130c71 0 127 47 155 188l79 399h92l-82 -407c-38 -194 -131 -260 -256 -260zM317 704l-46 29l122 144l58 -43zM484 704l-46 29l122 144l58 -43z" />
    <glyph glyph-name="uni01D3" unicode="&#x1d3;" 
d="M254 -12c-126 0 -193 78 -193 200c0 33 3 61 10 96l74 371h94l-75 -376c-7 -30 -11 -56 -11 -81c0 -83 38 -130 113 -130c71 0 127 47 155 188l79 399h92l-82 -407c-38 -194 -131 -260 -256 -260zM332 705l-86 123l46 28l96 -95h4l135 96l39 -32l-128 -120h-106z" />
    <glyph glyph-name="Uogonek" unicode="&#x172;" 
d="M213 -226c-52 0 -95 25 -95 77c0 58 51 112 95 140c-90 14 -152 78 -152 197c0 33 3 61 10 96l74 371h94l-75 -376c-7 -30 -11 -56 -11 -81c0 -83 38 -130 113 -130c71 0 127 47 155 188l79 399h92l-82 -407c-30 -150 -86 -222 -192 -256c-83 -23 -125 -74 -125 -112
c0 -29 23 -43 52 -43c16 0 29 5 44 14l20 -46c-25 -19 -61 -31 -96 -31z" />
    <glyph glyph-name="uni01D5" unicode="&#x1d5;" 
d="M254 -12c-126 0 -193 78 -193 200c0 33 3 61 10 96l74 371h94l-75 -376c-7 -30 -11 -56 -11 -81c0 -83 38 -130 113 -130c71 0 127 47 155 188l79 399h92l-82 -407c-38 -194 -131 -260 -256 -260zM285 711c-24 0 -41 16 -41 41c0 29 23 55 51 55c24 0 41 -15 41 -41
c0 -28 -23 -55 -51 -55zM474 711c-24 0 -41 16 -41 41c0 29 23 55 52 55c24 0 40 -15 40 -41c0 -28 -22 -55 -51 -55zM272 862l9 49h265l-10 -49h-264z" />
    <glyph glyph-name="uni01D7" unicode="&#x1d7;" 
d="M254 -12c-126 0 -193 78 -193 200c0 33 3 61 10 96l74 371h94l-75 -376c-7 -30 -11 -56 -11 -81c0 -83 38 -130 113 -130c71 0 127 47 155 188l79 399h92l-82 -407c-38 -194 -131 -260 -256 -260zM285 711c-24 0 -41 16 -41 41c0 29 23 55 51 55c24 0 41 -15 41 -41
c0 -28 -23 -55 -51 -55zM474 711c-24 0 -41 16 -41 41c0 29 23 55 52 55c24 0 40 -15 40 -41c0 -28 -22 -55 -51 -55zM399 827l-39 33l117 116l55 -46z" />
    <glyph glyph-name="uni01D9" unicode="&#x1d9;" 
d="M254 -12c-126 0 -193 78 -193 200c0 33 3 61 10 96l74 371h94l-75 -376c-7 -30 -11 -56 -11 -81c0 -83 38 -130 113 -130c71 0 127 47 155 188l79 399h92l-82 -407c-38 -194 -131 -260 -256 -260zM285 711c-24 0 -41 16 -41 41c0 29 23 55 51 55c24 0 41 -15 41 -41
c0 -28 -23 -55 -51 -55zM474 711c-24 0 -41 16 -41 41c0 29 23 55 52 55c24 0 40 -15 40 -41c0 -28 -22 -55 -51 -55zM357 843l-75 93l44 29l79 -70h4l107 70l36 -30l-109 -92h-86z" />
    <glyph glyph-name="uni01DB" unicode="&#x1db;" 
d="M254 -12c-126 0 -193 78 -193 200c0 33 3 61 10 96l74 371h94l-75 -376c-7 -30 -11 -56 -11 -81c0 -83 38 -130 113 -130c71 0 127 47 155 188l79 399h92l-82 -407c-38 -194 -131 -260 -256 -260zM285 711c-24 0 -41 16 -41 41c0 29 23 55 51 55c24 0 41 -15 41 -41
c0 -28 -23 -55 -51 -55zM474 711c-24 0 -41 16 -41 41c0 29 23 55 52 55c24 0 40 -15 40 -41c0 -28 -22 -55 -51 -55zM394 822l-94 122l69 35l72 -133z" />
    <glyph glyph-name="uni1EE4" unicode="&#x1ee4;" 
d="M254 -12c-126 0 -193 78 -193 200c0 33 3 61 10 96l74 371h94l-75 -376c-7 -30 -11 -56 -11 -81c0 -83 38 -130 113 -130c71 0 127 47 155 188l79 399h92l-82 -407c-38 -194 -131 -260 -256 -260zM197 -240c-36 0 -65 21 -65 60c0 41 35 76 77 76c39 0 65 -22 65 -60
c0 -42 -35 -76 -77 -76z" />
    <glyph glyph-name="uni1EE6" unicode="&#x1ee6;" 
d="M254 -12c-126 0 -193 78 -193 200c0 33 3 61 10 96l74 371h94l-75 -376c-7 -30 -11 -56 -11 -81c0 -83 38 -130 113 -130c71 0 127 47 155 188l79 399h92l-82 -407c-38 -194 -131 -260 -256 -260zM326 696l-1 44c32 7 57 18 61 41c4 24 -20 37 -75 40l21 55
c97 -3 140 -32 131 -84c-12 -61 -73 -87 -137 -96z" />
    <glyph glyph-name="Uhorn" unicode="&#x1af;" 
d="M254 -12c-126 0 -193 78 -193 200c0 33 3 61 10 96l74 371h94l-75 -376c-7 -30 -11 -56 -11 -81c0 -83 38 -130 113 -130c71 0 127 47 155 188l79 399h43c64 4 99 37 99 90c0 15 -3 36 -10 54l72 24c10 -24 14 -47 14 -69c0 -82 -55 -125 -134 -138l-74 -368
c-38 -194 -131 -260 -256 -260z" />
    <glyph glyph-name="uni1EE8" unicode="&#x1ee8;" 
d="M254 -12c-126 0 -193 78 -193 200c0 33 3 61 10 96l74 371h94l-75 -376c-7 -30 -11 -56 -11 -81c0 -83 38 -130 113 -130c71 0 127 47 155 188l79 399h43c64 4 99 37 99 90c0 15 -3 36 -10 54l72 24c10 -24 14 -47 14 -69c0 -82 -55 -125 -134 -138l-74 -368
c-38 -194 -131 -260 -256 -260zM353 699l-36 52l172 119l44 -71z" />
    <glyph glyph-name="uni1EEA" unicode="&#x1eea;" 
d="M254 -12c-126 0 -193 78 -193 200c0 33 3 61 10 96l74 371h94l-75 -376c-7 -30 -11 -56 -11 -81c0 -83 38 -130 113 -130c71 0 127 47 155 188l79 399h43c64 4 99 37 99 90c0 15 -3 36 -10 54l72 24c10 -24 14 -47 14 -69c0 -82 -55 -125 -134 -138l-74 -368
c-38 -194 -131 -260 -256 -260zM400 689l-142 128l66 60l128 -143z" />
    <glyph glyph-name="uni1EEC" unicode="&#x1eec;" 
d="M254 -12c-126 0 -193 78 -193 200c0 33 3 61 10 96l74 371h94l-75 -376c-7 -30 -11 -56 -11 -81c0 -83 38 -130 113 -130c71 0 127 47 155 188l79 399h43c64 4 99 37 99 90c0 15 -3 36 -10 54l72 24c10 -24 14 -47 14 -69c0 -82 -55 -125 -134 -138l-74 -368
c-38 -194 -131 -260 -256 -260zM326 696l-1 44c32 7 57 18 61 41c4 24 -20 37 -75 40l21 55c97 -3 140 -32 131 -84c-12 -61 -73 -87 -137 -96z" />
    <glyph glyph-name="uni1EEE" unicode="&#x1eee;" 
d="M254 -12c-126 0 -193 78 -193 200c0 33 3 61 10 96l74 371h94l-75 -376c-7 -30 -11 -56 -11 -81c0 -83 38 -130 113 -130c71 0 127 47 155 188l79 399h43c64 4 99 37 99 90c0 15 -3 36 -10 54l72 24c10 -24 14 -47 14 -69c0 -82 -55 -125 -134 -138l-74 -368
c-38 -194 -131 -260 -256 -260zM453 705c-69 0 -89 68 -130 68c-24 0 -44 -21 -56 -63l-64 5c18 85 68 129 130 129c69 0 88 -69 130 -69c24 0 43 21 56 63l64 -5c-18 -84 -68 -128 -130 -128z" />
    <glyph glyph-name="uni1EF0" unicode="&#x1ef0;" 
d="M254 -12c-126 0 -193 78 -193 200c0 33 3 61 10 96l74 371h94l-75 -376c-7 -30 -11 -56 -11 -81c0 -83 38 -130 113 -130c71 0 127 47 155 188l79 399h43c64 4 99 37 99 90c0 15 -3 36 -10 54l72 24c10 -24 14 -47 14 -69c0 -82 -55 -125 -134 -138l-74 -368
c-38 -194 -131 -260 -256 -260zM197 -240c-36 0 -65 21 -65 60c0 41 35 76 77 76c39 0 65 -22 65 -60c0 -42 -35 -76 -77 -76z" />
    <glyph glyph-name="uni1E7E" unicode="&#x1e7e;" 
d="M177 0l-63 655h96l27 -353c5 -70 10 -143 14 -214h4c32 68 74 154 104 214l176 353h101l-347 -655h-112zM197 -240c-36 0 -65 21 -65 60c0 41 35 76 77 76c39 0 65 -22 65 -60c0 -42 -35 -76 -77 -76z" />
    <glyph glyph-name="Wgrave" unicode="&#x1e80;" 
d="M47 0l43 656h88l-37 -431c-5 -57 -13 -118 -17 -143h4c9 27 46 120 57 144l111 250h71l17 -214c3 -43 9 -129 9 -177h6c5 25 27 118 34 144l124 427h89l-203 -656h-111l-13 252c-2 40 -4 93 -4 126h-4c-11 -34 -28 -86 -45 -126l-105 -252h-114zM395 689l-142 128l66 60
l128 -143z" />
    <glyph glyph-name="Wacute" unicode="&#x1e82;" 
d="M47 0l43 656h88l-37 -431c-5 -57 -13 -118 -17 -143h4c9 27 46 120 57 144l111 250h71l17 -214c3 -43 9 -129 9 -177h6c5 25 27 118 34 144l124 427h89l-203 -656h-111l-13 252c-2 40 -4 93 -4 126h-4c-11 -34 -28 -86 -45 -126l-105 -252h-114zM348 699l-36 52l172 119
l44 -71z" />
    <glyph glyph-name="Wcircumflex" unicode="&#x174;" 
d="M47 0l43 656h88l-37 -431c-5 -57 -13 -118 -17 -143h4c9 27 46 120 57 144l111 250h71l17 -214c3 -43 9 -129 9 -177h6c5 25 27 118 34 144l124 427h89l-203 -656h-111l-13 252c-2 40 -4 93 -4 126h-4c-11 -34 -28 -86 -45 -126l-105 -252h-114zM254 695l-39 33l128 120
h106l86 -123l-46 -29l-96 96h-4z" />
    <glyph glyph-name="Wdieresis" unicode="&#x1e84;" 
d="M47 0l43 656h88l-37 -431c-5 -57 -13 -118 -17 -143h4c9 27 46 120 57 144l111 250h71l17 -214c3 -43 9 -129 9 -177h6c5 25 27 118 34 144l124 427h89l-203 -656h-111l-13 252c-2 40 -4 93 -4 126h-4c-11 -34 -28 -86 -45 -126l-105 -252h-114zM284 711
c-25 0 -44 17 -44 45c0 31 25 60 56 60c25 0 45 -17 45 -45c0 -30 -25 -60 -57 -60zM477 711c-26 0 -45 17 -45 45c0 31 25 60 56 60c25 0 45 -17 45 -45c0 -30 -25 -60 -56 -60z" />
    <glyph glyph-name="Ygrave" unicode="&#x1ef2;" 
d="M191 0l46 224l-133 432h96l55 -194c15 -53 31 -116 41 -162h4c27 44 67 108 102 162l131 194h98l-304 -442l-43 -214h-93zM388 689l-142 128l66 60l128 -143z" />
    <glyph glyph-name="Yacute" unicode="&#xdd;" 
d="M191 0l46 224l-133 432h96l55 -194c15 -53 31 -116 41 -162h4c27 44 67 108 102 162l131 194h98l-304 -442l-43 -214h-93zM341 699l-36 52l172 119l44 -71z" />
    <glyph glyph-name="Ycircumflex" unicode="&#x176;" 
d="M191 0l46 224l-133 432h96l55 -194c15 -53 31 -116 41 -162h4c27 44 67 108 102 162l131 194h98l-304 -442l-43 -214h-93zM247 695l-39 33l128 120h106l86 -123l-46 -29l-96 96h-4z" />
    <glyph glyph-name="Ydieresis" unicode="&#x178;" 
d="M191 0l46 224l-133 432h96l55 -194c15 -53 31 -116 41 -162h4c27 44 67 108 102 162l131 194h98l-304 -442l-43 -214h-93zM277 711c-25 0 -44 17 -44 45c0 31 25 60 56 60c25 0 45 -17 45 -45c0 -30 -25 -60 -57 -60zM470 711c-26 0 -45 17 -45 45c0 31 25 60 56 60
c25 0 45 -17 45 -45c0 -30 -25 -60 -56 -60z" />
    <glyph glyph-name="uni1E8E" unicode="&#x1e8e;" 
d="M191 0l46 224l-133 432h96l55 -194c15 -53 31 -116 41 -162h4c27 44 67 108 102 162l131 194h98l-304 -442l-43 -214h-93zM375 712c-29 0 -55 18 -55 51c0 35 29 64 65 64c29 0 55 -19 55 -51c0 -37 -30 -64 -65 -64z" />
    <glyph glyph-name="uni1EF4" unicode="&#x1ef4;" 
d="M191 0l46 224l-133 432h96l55 -194c15 -53 31 -116 41 -162h4c27 44 67 108 102 162l131 194h98l-304 -442l-43 -214h-93zM199 -240c-36 0 -65 21 -65 60c0 41 35 76 77 76c39 0 65 -22 65 -60c0 -42 -35 -76 -77 -76z" />
    <glyph glyph-name="uni1EF6" unicode="&#x1ef6;" 
d="M191 0l46 224l-133 432h96l55 -194c15 -53 31 -116 41 -162h4c27 44 67 108 102 162l131 194h98l-304 -442l-43 -214h-93zM314 696l-1 44c32 7 57 18 61 41c4 24 -20 37 -75 40l21 55c97 -3 140 -32 131 -84c-12 -61 -73 -87 -137 -96z" />
    <glyph glyph-name="uni1EF8" unicode="&#x1ef8;" 
d="M191 0l46 224l-133 432h96l55 -194c15 -53 31 -116 41 -162h4c27 44 67 108 102 162l131 194h98l-304 -442l-43 -214h-93zM441 705c-69 0 -89 68 -130 68c-24 0 -44 -21 -56 -63l-64 5c18 85 68 129 130 129c69 0 88 -69 130 -69c24 0 43 21 56 63l64 -5
c-18 -84 -68 -128 -130 -128z" />
    <glyph glyph-name="Zacute" unicode="&#x179;" 
d="M485 0h-471l12 55l423 523h-326l16 78h450l-12 -56l-424 -522h349zM341 699l-36 52l172 119l44 -71z" />
    <glyph glyph-name="Zcaron" unicode="&#x17d;" 
d="M485 0h-471l12 55l423 523h-326l16 78h450l-12 -56l-424 -522h349zM320 705l-86 123l46 28l96 -95h4l135 96l39 -32l-128 -120h-106z" />
    <glyph glyph-name="Zdotaccent" unicode="&#x17b;" 
d="M485 0h-471l12 55l423 523h-326l16 78h450l-12 -56l-424 -522h349zM375 712c-29 0 -55 18 -55 51c0 35 29 64 65 64c29 0 55 -19 55 -51c0 -37 -30 -64 -65 -64z" />
    <glyph glyph-name="uni1E90" unicode="&#x1e90;" 
d="M485 0h-471l12 55l423 523h-326l16 78h450l-12 -56l-424 -522h349zM247 695l-39 33l128 120h106l86 -123l-46 -29l-96 96h-4z" />
    <glyph glyph-name="uni1E92" unicode="&#x1e92;" 
d="M485 0h-471l12 55l423 523h-326l16 78h450l-12 -56l-424 -522h349zM230 -240c-36 0 -65 21 -65 60c0 41 35 76 77 76c39 0 65 -22 65 -60c0 -42 -35 -76 -77 -76z" />
    <glyph glyph-name="uni1E94" unicode="&#x1e94;" 
d="M485 0h-471l12 55l423 523h-326l16 78h450l-12 -56l-424 -522h349zM101 -188l12 62h262l-11 -62h-263z" />
    <glyph glyph-name="Eth" unicode="&#xd0;" 
d="M31 0l63 314h-75l14 56l73 4l56 281h135c177 0 274 -91 274 -256c0 -243 -137 -399 -356 -399h-184zM139 76h76c158 0 261 117 261 317c0 121 -66 187 -182 187h-54l-41 -206h137l-14 -60h-135z" />
    <glyph glyph-name="Thorn" unicode="&#xde;" 
d="M37 0l131 655h94l-23 -110h114c119 0 202 -47 202 -164c0 -166 -125 -237 -291 -237h-105l-29 -144h-93zM174 218h95c126 0 194 52 194 150c0 72 -47 102 -134 102h-105z" />
    <glyph glyph-name="uni018F" unicode="&#x18f;" 
d="M236 -12c-114 0 -184 78 -184 232c0 50 9 95 17 130h401c3 21 4 43 4 65c0 108 -41 175 -125 175c-60 0 -116 -28 -157 -60l-39 63c50 40 129 75 215 75c131 0 197 -91 197 -245c0 -253 -141 -435 -329 -435zM247 65c97 0 178 85 211 216h-311c-18 -133 15 -216 100 -216
z" />
    <glyph glyph-name="Eng" unicode="&#x14a;" 
d="M321 -12c-30 0 -68 7 -87 18l36 75c12 -8 25 -13 42 -13c81 0 153 185 153 365c0 113 -41 154 -103 154c-41 0 -102 -29 -156 -86l-98 -501h-93l131 655h89l-14 -69c48 48 118 81 173 81c99 0 166 -64 166 -226c0 -238 -96 -453 -239 -453z" />
    <glyph glyph-name="IJ" unicode="&#x132;" 
d="M35 0l131 655h93l-131 -655h-93zM286 -166c-32 0 -55 7 -80 20l29 69c13 -8 25 -13 45 -13c37 0 56 30 69 87l131 658h93l-131 -657c-19 -95 -65 -164 -156 -164z" />
    <glyph glyph-name="uni004C00B7004C" 
d="M-8 0l130 655h90l-116 -576h151l-16 -79h-239zM250 286c-39 0 -64 28 -62 68c1 48 40 90 89 90c39 0 63 -29 61 -69c-1 -47 -39 -89 -88 -89zM300 0l131 655h89l-115 -576h151l-16 -79h-240z" />
    <glyph glyph-name="uni01320301" 
d="M35 0l131 655h93l-131 -655h-93zM286 -166c-32 0 -55 7 -80 20l29 69c13 -8 25 -13 45 -13c37 0 56 30 69 87l131 658h93l-131 -657c-19 -95 -65 -164 -156 -164zM198 699l-36 52l172 119l44 -71zM510 699l-36 52l172 119l44 -71z" />
    <glyph glyph-name="agrave" unicode="&#xe0;" 
d="M213 -12c-100 0 -165 66 -165 188c0 176 120 325 267 325c68 0 119 -28 145 -72h4l20 60h74l-98 -489h-75l6 72h-4c-50 -51 -113 -84 -174 -84zM244 65c48 0 106 30 155 89l43 204c-30 47 -73 66 -114 66c-103 0 -185 -110 -185 -235c0 -86 39 -124 101 -124zM401 570
l-137 166l79 59l116 -181z" />
    <glyph glyph-name="aacute" unicode="&#xe1;" 
d="M213 -12c-100 0 -165 66 -165 188c0 176 120 325 267 325c68 0 119 -28 145 -72h4l20 60h74l-98 -489h-75l6 72h-4c-50 -51 -113 -84 -174 -84zM244 65c48 0 106 30 155 89l43 204c-30 47 -73 66 -114 66c-103 0 -185 -110 -185 -235c0 -86 39 -124 101 -124zM343 579
l-42 53l172 157l57 -72z" />
    <glyph glyph-name="acircumflex" unicode="&#xe2;" 
d="M213 -12c-100 0 -165 66 -165 188c0 176 120 325 267 325c68 0 119 -28 145 -72h4l20 60h74l-98 -489h-75l6 72h-4c-50 -51 -113 -84 -174 -84zM244 65c48 0 106 30 155 89l43 204c-30 47 -73 66 -114 66c-103 0 -185 -110 -185 -235c0 -86 39 -124 101 -124zM242 566
l-35 40l136 135h100l88 -138l-44 -37l-98 111h-4z" />
    <glyph glyph-name="atilde" unicode="&#xe3;" 
d="M213 -12c-100 0 -165 66 -165 188c0 176 120 325 267 325c68 0 119 -28 145 -72h4l20 60h74l-98 -489h-75l6 72h-4c-50 -51 -113 -84 -174 -84zM244 65c48 0 106 30 155 89l43 204c-30 47 -73 66 -114 66c-103 0 -185 -110 -185 -235c0 -86 39 -124 101 -124zM446 576
c-68 0 -79 80 -128 80c-27 0 -46 -28 -55 -74l-64 4c16 85 57 139 125 139s79 -79 128 -79c27 0 46 29 56 74l63 -4c-15 -84 -57 -140 -125 -140z" />
    <glyph glyph-name="adieresis" unicode="&#xe4;" 
d="M213 -12c-100 0 -165 66 -165 188c0 176 120 325 267 325c68 0 119 -28 145 -72h4l20 60h74l-98 -489h-75l6 72h-4c-50 -51 -113 -84 -174 -84zM244 65c48 0 106 30 155 89l43 204c-30 47 -73 66 -114 66c-103 0 -185 -110 -185 -235c0 -86 39 -124 101 -124zM276 585
c-27 0 -47 17 -47 48c0 34 27 64 61 64c28 0 48 -19 48 -49c0 -36 -27 -63 -62 -63zM469 585c-28 0 -48 17 -48 48c0 34 27 64 62 64c27 0 47 -19 47 -49c0 -36 -27 -63 -61 -63z" />
    <glyph glyph-name="amacron" unicode="&#x101;" 
d="M213 -12c-100 0 -165 66 -165 188c0 176 120 325 267 325c68 0 119 -28 145 -72h4l20 60h74l-98 -489h-75l6 72h-4c-50 -51 -113 -84 -174 -84zM244 65c48 0 106 30 155 89l43 204c-30 47 -73 66 -114 66c-103 0 -185 -110 -185 -235c0 -86 39 -124 101 -124zM240 599
l12 62h262l-11 -62h-263z" />
    <glyph glyph-name="abreve" unicode="&#x103;" 
d="M213 -12c-100 0 -165 66 -165 188c0 176 120 325 267 325c68 0 119 -28 145 -72h4l20 60h74l-98 -489h-75l6 72h-4c-50 -51 -113 -84 -174 -84zM244 65c48 0 106 30 155 89l43 204c-30 47 -73 66 -114 66c-103 0 -185 -110 -185 -235c0 -86 39 -124 101 -124zM367 571
c-107 0 -139 75 -132 153l62 10c-3 -50 21 -98 83 -98c61 0 99 48 117 98l58 -10c-18 -78 -78 -153 -188 -153z" />
    <glyph glyph-name="aring" unicode="&#xe5;" 
d="M213 -12c-100 0 -165 66 -165 188c0 176 120 325 267 325c68 0 119 -28 145 -72h4l20 60h74l-98 -489h-75l6 72h-4c-50 -51 -113 -84 -174 -84zM244 65c48 0 106 30 155 89l43 204c-30 47 -73 66 -114 66c-103 0 -185 -110 -185 -235c0 -86 39 -124 101 -124zM370 559
c-57 0 -100 30 -100 83c0 62 52 112 125 112c57 0 100 -30 100 -83c0 -62 -52 -112 -125 -112zM376 599c32 0 58 31 58 69c0 26 -16 46 -45 46c-32 0 -58 -31 -58 -69c0 -27 16 -46 45 -46z" />
    <glyph glyph-name="aringacute" unicode="&#x1fb;" 
d="M213 -12c-100 0 -165 66 -165 188c0 176 120 325 267 325c68 0 119 -28 145 -72h4l20 60h74l-98 -489h-75l6 72h-4c-50 -51 -113 -84 -174 -84zM244 65c48 0 106 30 155 89l43 204c-30 47 -73 66 -114 66c-103 0 -185 -110 -185 -235c0 -86 39 -124 101 -124zM370 559
c-57 0 -100 30 -100 83c0 40 22 76 58 95l-1 1l143 115l42 -46l-91 -55c43 -8 74 -36 74 -81c0 -62 -52 -112 -125 -112zM376 599c32 0 58 31 58 69c0 26 -16 46 -45 46c-32 0 -58 -31 -58 -69c0 -27 16 -46 45 -46z" />
    <glyph glyph-name="uni01CE" unicode="&#x1ce;" 
d="M213 -12c-100 0 -165 66 -165 188c0 176 120 325 267 325c68 0 119 -28 145 -72h4l20 60h74l-98 -489h-75l6 72h-4c-50 -51 -113 -84 -174 -84zM244 65c48 0 106 30 155 89l43 204c-30 47 -73 66 -114 66c-103 0 -185 -110 -185 -235c0 -86 39 -124 101 -124zM321 576
l-88 138l44 37l98 -111h4l143 111l35 -40l-136 -135h-100z" />
    <glyph glyph-name="aogonek" unicode="&#x105;" 
d="M363 -226c-51 0 -93 25 -93 80c0 68 60 118 115 147l6 71h-4c-50 -51 -113 -84 -174 -84c-100 0 -165 66 -165 188c0 176 120 325 267 325c68 0 119 -28 145 -72h4l20 60h74l-99 -493c-82 -33 -120 -74 -120 -116c0 -32 25 -47 56 -47c18 0 32 5 48 15l19 -40
c-25 -20 -59 -34 -99 -34zM244 65c48 0 106 30 155 89l43 204c-30 47 -73 66 -114 66c-103 0 -185 -110 -185 -235c0 -86 39 -124 101 -124z" />
    <glyph glyph-name="uni1EA1" unicode="&#x1ea1;" 
d="M213 -12c-100 0 -165 66 -165 188c0 176 120 325 267 325c68 0 119 -28 145 -72h4l20 60h74l-98 -489h-75l6 72h-4c-50 -51 -113 -84 -174 -84zM244 65c48 0 106 30 155 89l43 204c-30 47 -73 66 -114 66c-103 0 -185 -110 -185 -235c0 -86 39 -124 101 -124zM214 -240
c-36 0 -65 21 -65 60c0 41 35 76 77 76c39 0 65 -22 65 -60c0 -42 -35 -76 -77 -76z" />
    <glyph glyph-name="uni1EA3" unicode="&#x1ea3;" 
d="M213 -12c-100 0 -165 66 -165 188c0 176 120 325 267 325c68 0 119 -28 145 -72h4l20 60h74l-98 -489h-75l6 72h-4c-50 -51 -113 -84 -174 -84zM244 65c48 0 106 30 155 89l43 204c-30 47 -73 66 -114 66c-103 0 -185 -110 -185 -235c0 -86 39 -124 101 -124zM330 571
l-2 45c32 7 57 19 61 44c6 27 -18 42 -73 45l18 64c101 -3 144 -40 134 -101c-12 -61 -75 -88 -138 -97z" />
    <glyph glyph-name="uni1EA5" unicode="&#x1ea5;" 
d="M213 -12c-100 0 -165 66 -165 188c0 176 120 325 267 325c68 0 119 -28 145 -72h4l20 60h74l-98 -489h-75l6 72h-4c-50 -51 -113 -84 -174 -84zM244 65c48 0 106 30 155 89l43 204c-30 47 -73 66 -114 66c-103 0 -185 -110 -185 -235c0 -86 39 -124 101 -124zM262 569
l-29 40l114 91h81l82 -95l-38 -36l-87 73h-4zM514 640l-35 36l106 113l50 -43z" />
    <glyph glyph-name="uni1EA7" unicode="&#x1ea7;" 
d="M213 -12c-100 0 -165 66 -165 188c0 176 120 325 267 325c68 0 119 -28 145 -72h4l20 60h74l-98 -489h-75l6 72h-4c-50 -51 -113 -84 -174 -84zM244 65c48 0 106 30 155 89l43 204c-30 47 -73 66 -114 66c-103 0 -185 -110 -185 -235c0 -86 39 -124 101 -124zM262 569
l-29 40l114 91h81l82 -95l-38 -36l-87 73h-4zM224 639l-89 118l62 34l73 -123z" />
    <glyph glyph-name="uni1EA9" unicode="&#x1ea9;" 
d="M213 -12c-100 0 -165 66 -165 188c0 176 120 325 267 325c68 0 119 -28 145 -72h4l20 60h74l-98 -489h-75l6 72h-4c-50 -51 -113 -84 -174 -84zM244 65c48 0 106 30 155 89l43 204c-30 47 -73 66 -114 66c-103 0 -185 -110 -185 -235c0 -86 39 -124 101 -124zM262 569
l-28 40l114 91h80l82 -95l-38 -36l-87 73h-4zM500 638l-4 38c24 7 42 16 46 37c4 24 -12 36 -61 39l16 46c85 -3 124 -28 116 -75c-11 -56 -61 -76 -113 -85z" />
    <glyph glyph-name="uni1EAB" unicode="&#x1eab;" 
d="M213 -12c-100 0 -165 66 -165 188c0 176 120 325 267 325c68 0 119 -28 145 -72h4l20 60h74l-98 -489h-75l6 72h-4c-50 -51 -113 -84 -174 -84zM244 65c48 0 106 30 155 89l43 204c-30 47 -73 66 -114 66c-103 0 -185 -110 -185 -235c0 -86 39 -124 101 -124zM266 569
l-29 40l113 86h80l84 -90l-38 -36l-89 68h-4zM457 712c-57 0 -79 42 -114 42c-19 0 -30 -13 -41 -41l-48 5c16 57 47 94 95 94c57 0 77 -42 113 -42c19 0 29 13 39 41l48 -5c-15 -58 -44 -94 -92 -94z" />
    <glyph glyph-name="uni1EAD" unicode="&#x1ead;" 
d="M213 -12c-100 0 -165 66 -165 188c0 176 120 325 267 325c68 0 119 -28 145 -72h4l20 60h74l-98 -489h-75l6 72h-4c-50 -51 -113 -84 -174 -84zM244 65c48 0 106 30 155 89l43 204c-30 47 -73 66 -114 66c-103 0 -185 -110 -185 -235c0 -86 39 -124 101 -124zM242 566
l-35 40l136 135h100l88 -138l-44 -37l-98 111h-4zM214 -240c-36 0 -65 21 -65 60c0 41 35 76 77 76c39 0 65 -22 65 -60c0 -42 -35 -76 -77 -76z" />
    <glyph glyph-name="uni1EAF" unicode="&#x1eaf;" 
d="M213 -12c-100 0 -165 66 -165 188c0 176 120 325 267 325c68 0 119 -28 145 -72h4l20 60h74l-98 -489h-75l6 72h-4c-50 -51 -113 -84 -174 -84zM244 65c48 0 106 30 155 89l43 204c-30 47 -73 66 -114 66c-103 0 -185 -110 -185 -235c0 -86 39 -124 101 -124zM366 571
c-107 0 -139 75 -132 153l58 10c-3 -53 21 -103 86 -103c64 0 105 50 122 103l54 -10c-18 -78 -78 -153 -188 -153zM391 705l-39 36l112 115l52 -51z" />
    <glyph glyph-name="uni1EB1" unicode="&#x1eb1;" 
d="M213 -12c-100 0 -165 66 -165 188c0 176 120 325 267 325c68 0 119 -28 145 -72h4l20 60h74l-98 -489h-75l6 72h-4c-50 -51 -113 -84 -174 -84zM244 65c48 0 106 30 155 89l43 204c-30 47 -73 66 -114 66c-103 0 -185 -110 -185 -235c0 -86 39 -124 101 -124zM366 571
c-107 0 -139 75 -132 153l58 10c-3 -53 21 -103 86 -103c64 0 105 50 122 103l54 -10c-18 -78 -78 -153 -188 -153zM390 700l-87 117l66 41l71 -131z" />
    <glyph glyph-name="uni1EB3" unicode="&#x1eb3;" 
d="M213 -12c-100 0 -165 66 -165 188c0 176 120 325 267 325c68 0 119 -28 145 -72h4l20 60h74l-98 -489h-75l6 72h-4c-50 -51 -113 -84 -174 -84zM244 65c48 0 106 30 155 89l43 204c-30 47 -73 66 -114 66c-103 0 -185 -110 -185 -235c0 -86 39 -124 101 -124zM366 571
c-107 0 -139 75 -130 153l56 10c-3 -53 21 -103 86 -103c64 0 105 50 123 103l54 -10c-19 -78 -79 -153 -189 -153zM360 686l-2 40c27 5 48 16 52 36c5 24 -14 36 -67 39l20 58c89 -3 128 -33 118 -86c-11 -57 -66 -79 -121 -87z" />
    <glyph glyph-name="uni1EB5" unicode="&#x1eb5;" 
d="M213 -12c-100 0 -165 66 -165 188c0 176 120 325 267 325c68 0 119 -28 145 -72h4l20 60h74l-98 -489h-75l6 72h-4c-50 -51 -113 -84 -174 -84zM244 65c48 0 106 30 155 89l43 204c-30 47 -73 66 -114 66c-103 0 -185 -110 -185 -235c0 -86 39 -124 101 -124zM366 571
c-100 0 -131 55 -127 109l55 9c0 -32 22 -64 81 -64c60 0 94 32 105 64l53 -9c-17 -54 -67 -109 -167 -109zM454 711c-57 0 -78 42 -113 42c-19 0 -30 -13 -40 -41l-53 5c16 57 48 94 98 94c58 0 77 -42 114 -42c18 0 29 13 40 41l53 -5c-16 -58 -48 -94 -99 -94z" />
    <glyph glyph-name="uni1EB7" unicode="&#x1eb7;" 
d="M213 -12c-100 0 -165 66 -165 188c0 176 120 325 267 325c68 0 119 -28 145 -72h4l20 60h74l-98 -489h-75l6 72h-4c-50 -51 -113 -84 -174 -84zM244 65c48 0 106 30 155 89l43 204c-30 47 -73 66 -114 66c-103 0 -185 -110 -185 -235c0 -86 39 -124 101 -124zM367 571
c-107 0 -139 75 -132 153l62 10c-3 -50 21 -98 83 -98c61 0 99 48 117 98l58 -10c-18 -78 -78 -153 -188 -153zM214 -240c-36 0 -65 21 -65 60c0 41 35 76 77 76c39 0 65 -22 65 -60c0 -42 -35 -76 -77 -76z" />
    <glyph glyph-name="ae" unicode="&#xe6;" 
d="M91 -12c-71 0 -112 43 -112 111c0 119 95 180 284 210c15 68 -5 118 -64 118c-43 0 -84 -20 -116 -42l-33 56c41 30 101 60 171 60c57 0 97 -34 108 -87c42 59 98 87 154 87c81 0 115 -72 115 -155c0 -62 -14 -104 -22 -126h-257c-2 -16 -3 -32 -3 -48
c0 -67 30 -112 90 -112c38 0 70 12 105 36l27 -59c-36 -29 -92 -49 -142 -49c-70 0 -115 35 -137 83c-55 -57 -112 -83 -168 -83zM118 60c37 0 87 27 125 68c-1 8 -2 17 -2 25c0 36 2 63 8 95c-123 -23 -185 -61 -185 -130c0 -39 22 -58 54 -58zM464 428
c-57 0 -107 -59 -132 -141h187c3 20 5 38 5 56c0 52 -18 85 -60 85z" />
    <glyph glyph-name="aeacute" unicode="&#x1fd;" 
d="M91 -12c-71 0 -112 43 -112 111c0 119 95 180 284 210c15 68 -5 118 -64 118c-43 0 -84 -20 -116 -42l-33 56c41 30 101 60 171 60c57 0 97 -34 108 -87c42 59 98 87 154 87c81 0 115 -72 115 -155c0 -62 -14 -104 -22 -126h-257c-2 -16 -3 -32 -3 -48
c0 -67 30 -112 90 -112c38 0 70 12 105 36l27 -59c-36 -29 -92 -49 -142 -49c-70 0 -115 35 -137 83c-55 -57 -112 -83 -168 -83zM118 60c37 0 87 27 125 68c-1 8 -2 17 -2 25c0 36 2 63 8 95c-123 -23 -185 -61 -185 -130c0 -39 22 -58 54 -58zM464 428
c-57 0 -107 -59 -132 -141h187c3 20 5 38 5 56c0 52 -18 85 -60 85zM331 579l-42 53l172 157l57 -72z" />
    <glyph glyph-name="uni01E3" unicode="&#x1e3;" 
d="M91 -12c-71 0 -112 43 -112 111c0 119 95 180 284 210c15 68 -5 118 -64 118c-43 0 -84 -20 -116 -42l-33 56c41 30 101 60 171 60c57 0 97 -34 108 -87c42 59 98 87 154 87c81 0 115 -72 115 -155c0 -62 -14 -104 -22 -126h-257c-2 -16 -3 -32 -3 -48
c0 -67 30 -112 90 -112c38 0 70 12 105 36l27 -59c-36 -29 -92 -49 -142 -49c-70 0 -115 35 -137 83c-55 -57 -112 -83 -168 -83zM118 60c37 0 87 27 125 68c-1 8 -2 17 -2 25c0 36 2 63 8 95c-123 -23 -185 -61 -185 -130c0 -39 22 -58 54 -58zM464 428
c-57 0 -107 -59 -132 -141h187c3 20 5 38 5 56c0 52 -18 85 -60 85zM228 599l12 62h262l-11 -62h-263z" />
    <glyph glyph-name="uni0180" unicode="&#x180;" 
d="M274 -12c-62 0 -116 29 -145 71h-3l-19 -59h-76l112 564h-71l10 56l73 6l17 83h93l-17 -83h207l-11 -62h-208l-12 -57l-26 -107h2c48 46 112 81 174 81c103 0 167 -67 167 -188c0 -171 -120 -305 -267 -305zM263 64c101 0 183 98 183 216c0 84 -42 124 -105 124
c-47 0 -107 -32 -155 -90l-37 -186c30 -46 71 -64 114 -64z" />
    <glyph glyph-name="uni1E07" unicode="&#x1e07;" 
d="M274 -12c-62 0 -116 29 -145 71h-3l-19 -59h-76l142 709h92l-37 -182l-27 -107h3c47 45 111 81 171 81c103 0 166 -69 166 -193c0 -178 -117 -320 -267 -320zM264 65c102 0 182 103 182 230c0 88 -41 129 -103 129c-46 0 -105 -32 -153 -90l-41 -206
c30 -46 71 -63 115 -63zM86 -188l12 62h262l-11 -62h-263z" />
    <glyph glyph-name="ccedilla" unicode="&#xe7;" 
d="M137 -230l-1 45c79 3 114 20 117 51c1 24 -17 37 -69 43l55 84c-101 18 -174 88 -174 210c0 178 141 298 296 298c86 0 150 -42 185 -88l-58 -52c-35 42 -79 63 -137 63c-95 0 -193 -93 -193 -211c0 -100 64 -148 147 -148c55 0 104 26 147 64l36 -63
c-49 -46 -117 -76 -189 -78l-33 -52c48 -12 64 -31 61 -66c-7 -64 -78 -97 -190 -100z" />
    <glyph glyph-name="cacute" unicode="&#x107;" 
d="M293 -12c-128 0 -228 72 -228 215c0 178 141 298 296 298c86 0 150 -42 185 -88l-58 -52c-35 42 -79 63 -137 63c-95 0 -193 -93 -193 -211c0 -100 64 -148 147 -148c55 0 104 26 147 64l36 -63c-50 -47 -121 -78 -195 -78zM358 579l-42 53l172 157l57 -72z" />
    <glyph glyph-name="ccircumflex" unicode="&#x109;" 
d="M293 -12c-128 0 -228 72 -228 215c0 178 141 298 296 298c86 0 150 -42 185 -88l-58 -52c-35 42 -79 63 -137 63c-95 0 -193 -93 -193 -211c0 -100 64 -148 147 -148c55 0 104 26 147 64l36 -63c-50 -47 -121 -78 -195 -78zM257 566l-35 40l136 135h100l88 -138l-44 -37
l-98 111h-4z" />
    <glyph glyph-name="ccaron" unicode="&#x10d;" 
d="M293 -12c-128 0 -228 72 -228 215c0 178 141 298 296 298c86 0 150 -42 185 -88l-58 -52c-35 42 -79 63 -137 63c-95 0 -193 -93 -193 -211c0 -100 64 -148 147 -148c55 0 104 26 147 64l36 -63c-50 -47 -121 -78 -195 -78zM336 576l-88 138l44 37l98 -111h4l143 111
l35 -40l-136 -135h-100z" />
    <glyph glyph-name="cdotaccent" unicode="&#x10b;" 
d="M293 -12c-128 0 -228 72 -228 215c0 178 141 298 296 298c86 0 150 -42 185 -88l-58 -52c-35 42 -79 63 -137 63c-95 0 -193 -93 -193 -211c0 -100 64 -148 147 -148c55 0 104 26 147 64l36 -63c-50 -47 -121 -78 -195 -78zM390 585c-36 0 -65 21 -65 60
c0 41 35 76 77 76c39 0 65 -22 65 -60c0 -42 -35 -76 -77 -76z" />
    <glyph glyph-name="dcaron" unicode="&#x10f;" 
d="M180 -12c-88 0 -146 66 -146 188c0 176 114 325 258 325c54 0 97 -25 123 -64h3l15 95l36 177h92l-143 -709h-76l4 62h-3c-48 -48 -107 -74 -163 -74zM220 65c42 0 89 24 134 79l46 219c-27 43 -60 61 -99 61c-95 0 -172 -110 -172 -235c0 -86 37 -124 91 -124zM595 548
l49 270h86l-19 -86l-56 -184h-60z" />
    <glyph glyph-name="uni1E0D" unicode="&#x1e0d;" 
d="M213 -12c-100 0 -165 66 -165 188c0 176 120 325 267 325c68 0 115 -27 142 -69h3l15 95l36 182h93l-144 -709h-75l6 72h-4c-50 -51 -113 -84 -174 -84zM244 65c48 0 106 30 155 89l42 204c-29 47 -72 66 -113 66c-103 0 -185 -110 -185 -235c0 -85 39 -124 101 -124z
M214 -240c-36 0 -65 21 -65 60c0 41 35 76 77 76c39 0 65 -22 65 -60c0 -42 -35 -76 -77 -76z" />
    <glyph glyph-name="uni1E0F" unicode="&#x1e0f;" 
d="M213 -12c-100 0 -165 66 -165 188c0 176 120 325 267 325c68 0 115 -27 142 -69h3l15 95l36 182h93l-144 -709h-75l6 72h-4c-50 -51 -113 -84 -174 -84zM244 65c48 0 106 30 155 89l42 204c-29 47 -72 66 -113 66c-103 0 -185 -110 -185 -235c0 -85 39 -124 101 -124z
M85 -188l12 62h262l-11 -62h-263z" />
    <glyph glyph-name="uni1E11" unicode="&#x1e11;" 
d="M244 65c48 0 106 30 155 89l42 204c-29 47 -72 66 -113 66c-103 0 -185 -110 -185 -235c0 -85 39 -124 101 -124zM93 -230l-1 45c79 3 114 20 117 51c1 24 -17 37 -69 43l53 80c-89 9 -145 74 -145 187c0 176 120 325 267 325c68 0 115 -27 142 -69h3l15 95l36 182h93
l-144 -709h-75l6 72h-4c-38 -38 -83 -67 -129 -78l-36 -58c48 -12 64 -31 61 -66c-7 -64 -78 -97 -190 -100z" />
    <glyph glyph-name="dcroat" unicode="&#x111;" 
d="M207 -12c-101 0 -165 66 -165 187c0 166 116 306 264 306c69 0 114 -27 141 -69h3l16 95l11 57h-170l11 62h172l16 83h91l-17 -83h70l-9 -56l-73 -6l-113 -564h-76l6 73h-4c-50 -52 -113 -85 -174 -85zM238 64c48 0 106 31 155 90l39 185c-30 46 -70 65 -112 65
c-105 0 -184 -101 -184 -215c0 -85 40 -125 102 -125z" />
    <glyph glyph-name="egrave" unicode="&#xe8;" 
d="M269 -12c-126 0 -210 73 -210 213c0 176 131 300 280 300c121 0 189 -80 189 -189c0 -36 -9 -78 -14 -92h-364v-15c0 -96 57 -145 139 -145c62 0 116 26 161 61l33 -62c-51 -40 -128 -71 -214 -71zM335 428c-68 0 -142 -52 -172 -140h277c1 9 2 18 2 27
c0 71 -41 113 -107 113zM394 570l-137 166l79 59l116 -181z" />
    <glyph glyph-name="eacute" unicode="&#xe9;" 
d="M269 -12c-126 0 -210 73 -210 213c0 176 131 300 280 300c121 0 189 -80 189 -189c0 -36 -9 -78 -14 -92h-364v-15c0 -96 57 -145 139 -145c62 0 116 26 161 61l33 -62c-51 -40 -128 -71 -214 -71zM335 428c-68 0 -142 -52 -172 -140h277c1 9 2 18 2 27
c0 71 -41 113 -107 113zM336 579l-42 53l172 157l57 -72z" />
    <glyph glyph-name="ecircumflex" unicode="&#xea;" 
d="M269 -12c-126 0 -210 73 -210 213c0 176 131 300 280 300c121 0 189 -80 189 -189c0 -36 -9 -78 -14 -92h-364v-15c0 -96 57 -145 139 -145c62 0 116 26 161 61l33 -62c-51 -40 -128 -71 -214 -71zM335 428c-68 0 -142 -52 -172 -140h277c1 9 2 18 2 27
c0 71 -41 113 -107 113zM235 566l-35 40l136 135h100l88 -138l-44 -37l-98 111h-4z" />
    <glyph glyph-name="ecaron" unicode="&#x11b;" 
d="M269 -12c-126 0 -210 73 -210 213c0 176 131 300 280 300c121 0 189 -80 189 -189c0 -36 -9 -78 -14 -92h-364v-15c0 -96 57 -145 139 -145c62 0 116 26 161 61l33 -62c-51 -40 -128 -71 -214 -71zM335 428c-68 0 -142 -52 -172 -140h277c1 9 2 18 2 27
c0 71 -41 113 -107 113zM314 576l-88 138l44 37l98 -111h4l143 111l35 -40l-136 -135h-100z" />
    <glyph glyph-name="edieresis" unicode="&#xeb;" 
d="M269 -12c-126 0 -210 73 -210 213c0 176 131 300 280 300c121 0 189 -80 189 -189c0 -36 -9 -78 -14 -92h-364v-15c0 -96 57 -145 139 -145c62 0 116 26 161 61l33 -62c-51 -40 -128 -71 -214 -71zM335 428c-68 0 -142 -52 -172 -140h277c1 9 2 18 2 27
c0 71 -41 113 -107 113zM269 585c-27 0 -47 17 -47 48c0 34 27 64 61 64c28 0 48 -19 48 -49c0 -36 -27 -63 -62 -63zM462 585c-28 0 -48 17 -48 48c0 34 27 64 62 64c27 0 47 -19 47 -49c0 -36 -27 -63 -61 -63z" />
    <glyph glyph-name="emacron" unicode="&#x113;" 
d="M269 -12c-126 0 -210 73 -210 213c0 176 131 300 280 300c121 0 189 -80 189 -189c0 -36 -9 -78 -14 -92h-364v-15c0 -96 57 -145 139 -145c62 0 116 26 161 61l33 -62c-51 -40 -128 -71 -214 -71zM335 428c-68 0 -142 -52 -172 -140h277c1 9 2 18 2 27
c0 71 -41 113 -107 113zM233 599l12 62h262l-11 -62h-263z" />
    <glyph glyph-name="ebreve" unicode="&#x115;" 
d="M269 -12c-126 0 -210 73 -210 213c0 176 131 300 280 300c121 0 189 -80 189 -189c0 -36 -9 -78 -14 -92h-364v-15c0 -96 57 -145 139 -145c62 0 116 26 161 61l33 -62c-51 -40 -128 -71 -214 -71zM335 428c-68 0 -142 -52 -172 -140h277c1 9 2 18 2 27
c0 71 -41 113 -107 113zM360 571c-107 0 -139 75 -132 153l62 10c-3 -50 21 -98 83 -98c61 0 99 48 117 98l58 -10c-18 -78 -78 -153 -188 -153z" />
    <glyph glyph-name="eogonek" unicode="&#x119;" 
d="M334 -226c-51 0 -94 25 -94 79c0 60 45 106 93 144c-19 -5 -42 -9 -64 -9c-126 0 -210 73 -210 213c0 176 131 300 280 300c121 0 189 -80 189 -189c0 -36 -9 -78 -14 -92h-364v-15c0 -96 57 -145 139 -145c62 0 116 26 161 61l33 -62c-106 -69 -173 -127 -173 -179
c0 -32 26 -47 55 -47c18 0 32 5 48 15l20 -40c-26 -20 -59 -34 -99 -34zM335 428c-68 0 -142 -52 -172 -140h277c1 9 2 18 2 27c0 71 -41 113 -107 113z" />
    <glyph glyph-name="edotaccent" unicode="&#x117;" 
d="M269 -12c-126 0 -210 73 -210 213c0 176 131 300 280 300c121 0 189 -80 189 -189c0 -36 -9 -78 -14 -92h-364v-15c0 -96 57 -145 139 -145c62 0 116 26 161 61l33 -62c-51 -40 -128 -71 -214 -71zM335 428c-68 0 -142 -52 -172 -140h277c1 9 2 18 2 27
c0 71 -41 113 -107 113zM368 585c-36 0 -65 21 -65 60c0 41 35 76 77 76c39 0 65 -22 65 -60c0 -42 -35 -76 -77 -76z" />
    <glyph glyph-name="uni1EB9" unicode="&#x1eb9;" 
d="M269 -12c-126 0 -210 73 -210 213c0 176 131 300 280 300c121 0 189 -80 189 -189c0 -36 -9 -78 -14 -92h-364v-15c0 -96 57 -145 139 -145c62 0 116 26 161 61l33 -62c-51 -40 -128 -71 -214 -71zM335 428c-68 0 -142 -52 -172 -140h277c1 9 2 18 2 27
c0 71 -41 113 -107 113zM226 -240c-36 0 -65 21 -65 60c0 41 35 76 77 76c39 0 65 -22 65 -60c0 -42 -35 -76 -77 -76z" />
    <glyph glyph-name="uni1EBB" unicode="&#x1ebb;" 
d="M269 -12c-126 0 -210 73 -210 213c0 176 131 300 280 300c121 0 189 -80 189 -189c0 -36 -9 -78 -14 -92h-364v-15c0 -96 57 -145 139 -145c62 0 116 26 161 61l33 -62c-51 -40 -128 -71 -214 -71zM335 428c-68 0 -142 -52 -172 -140h277c1 9 2 18 2 27
c0 71 -41 113 -107 113zM323 571l-2 45c32 7 57 19 61 44c6 27 -18 42 -73 45l18 64c101 -3 144 -40 134 -101c-12 -61 -75 -88 -138 -97z" />
    <glyph glyph-name="uni1EBD" unicode="&#x1ebd;" 
d="M269 -12c-126 0 -210 73 -210 213c0 176 131 300 280 300c121 0 189 -80 189 -189c0 -36 -9 -78 -14 -92h-364v-15c0 -96 57 -145 139 -145c62 0 116 26 161 61l33 -62c-51 -40 -128 -71 -214 -71zM335 428c-68 0 -142 -52 -172 -140h277c1 9 2 18 2 27
c0 71 -41 113 -107 113zM439 576c-68 0 -79 80 -128 80c-27 0 -46 -28 -55 -74l-64 4c16 85 57 139 125 139s79 -79 128 -79c27 0 46 29 56 74l63 -4c-15 -84 -57 -140 -125 -140z" />
    <glyph glyph-name="uni1EBF" unicode="&#x1ebf;" 
d="M269 -12c-126 0 -210 73 -210 213c0 176 131 300 280 300c121 0 189 -80 189 -189c0 -36 -9 -78 -14 -92h-364v-15c0 -96 57 -145 139 -145c62 0 116 26 161 61l33 -62c-51 -40 -128 -71 -214 -71zM335 428c-68 0 -142 -52 -172 -140h277c1 9 2 18 2 27
c0 71 -41 113 -107 113zM255 569l-29 40l114 91h81l82 -95l-38 -36l-87 73h-4zM507 640l-35 36l106 113l50 -43z" />
    <glyph glyph-name="uni1EC1" unicode="&#x1ec1;" 
d="M269 -12c-126 0 -210 73 -210 213c0 176 131 300 280 300c121 0 189 -80 189 -189c0 -36 -9 -78 -14 -92h-364v-15c0 -96 57 -145 139 -145c62 0 116 26 161 61l33 -62c-51 -40 -128 -71 -214 -71zM335 428c-68 0 -142 -52 -172 -140h277c1 9 2 18 2 27
c0 71 -41 113 -107 113zM255 569l-29 40l114 91h81l82 -95l-38 -36l-87 73h-4zM217 639l-89 118l62 34l73 -123z" />
    <glyph glyph-name="uni1EC3" unicode="&#x1ec3;" 
d="M269 -12c-126 0 -210 73 -210 213c0 176 131 300 280 300c121 0 189 -80 189 -189c0 -36 -9 -78 -14 -92h-364v-15c0 -96 57 -145 139 -145c62 0 116 26 161 61l33 -62c-51 -40 -128 -71 -214 -71zM335 428c-68 0 -142 -52 -172 -140h277c1 9 2 18 2 27
c0 71 -41 113 -107 113zM255 569l-28 40l114 91h80l82 -95l-38 -36l-87 73h-4zM493 638l-4 38c24 7 42 16 46 37c4 24 -12 36 -61 39l16 46c85 -3 124 -28 116 -75c-11 -56 -61 -76 -113 -85z" />
    <glyph glyph-name="uni1EC5" unicode="&#x1ec5;" 
d="M269 -12c-126 0 -210 73 -210 213c0 176 131 300 280 300c121 0 189 -80 189 -189c0 -36 -9 -78 -14 -92h-364v-15c0 -96 57 -145 139 -145c62 0 116 26 161 61l33 -62c-51 -40 -128 -71 -214 -71zM335 428c-68 0 -142 -52 -172 -140h277c1 9 2 18 2 27
c0 71 -41 113 -107 113zM259 569l-29 40l113 86h80l84 -90l-38 -36l-89 68h-4zM450 712c-57 0 -79 42 -114 42c-19 0 -30 -13 -41 -41l-48 5c16 57 47 94 95 94c57 0 77 -42 113 -42c19 0 29 13 39 41l48 -5c-15 -58 -44 -94 -92 -94z" />
    <glyph glyph-name="uni1EC7" unicode="&#x1ec7;" 
d="M269 -12c-126 0 -210 73 -210 213c0 176 131 300 280 300c121 0 189 -80 189 -189c0 -36 -9 -78 -14 -92h-364v-15c0 -96 57 -145 139 -145c62 0 116 26 161 61l33 -62c-51 -40 -128 -71 -214 -71zM335 428c-68 0 -142 -52 -172 -140h277c1 9 2 18 2 27
c0 71 -41 113 -107 113zM235 566l-35 40l136 135h100l88 -138l-44 -37l-98 111h-4zM226 -240c-36 0 -65 21 -65 60c0 41 35 76 77 76c39 0 65 -22 65 -60c0 -42 -35 -76 -77 -76z" />
    <glyph glyph-name="uni1E17" unicode="&#x1e17;" 
d="M269 -12c-126 0 -210 73 -210 213c0 176 131 300 280 300c121 0 189 -80 189 -189c0 -36 -9 -78 -14 -92h-364v-15c0 -96 57 -145 139 -145c62 0 116 26 161 61l33 -62c-51 -40 -128 -71 -214 -71zM335 428c-68 0 -142 -52 -172 -140h277c1 9 2 18 2 27
c0 71 -41 113 -107 113zM233 599l12 62h262l-11 -62h-263zM390 710l-35 31l101 111l49 -43z" />
    <glyph glyph-name="uni01F5" unicode="&#x1f5;" 
d="M202 -212c-82 0 -144 26 -190 62l43 65c38 -33 94 -52 147 -52c80 0 147 33 168 122l22 96h-4c-45 -43 -107 -74 -168 -74c-103 0 -169 67 -169 183c0 172 121 311 264 311c68 0 119 -28 145 -72h4l21 60h73l-101 -505c-28 -141 -132 -196 -255 -196zM250 83
c49 0 103 29 150 80l41 194c-31 47 -70 67 -114 67c-95 0 -181 -99 -181 -220c0 -82 39 -121 104 -121zM343 579l-42 53l172 157l57 -72z" />
    <glyph glyph-name="gcircumflex" unicode="&#x11d;" 
d="M202 -212c-82 0 -144 26 -190 62l43 65c38 -33 94 -52 147 -52c80 0 147 33 168 122l22 96h-4c-45 -43 -107 -74 -168 -74c-103 0 -169 67 -169 183c0 172 121 311 264 311c68 0 119 -28 145 -72h4l21 60h73l-101 -505c-28 -141 -132 -196 -255 -196zM250 83
c49 0 103 29 150 80l41 194c-31 47 -70 67 -114 67c-95 0 -181 -99 -181 -220c0 -82 39 -121 104 -121zM242 566l-35 40l136 135h100l88 -138l-44 -37l-98 111h-4z" />
    <glyph glyph-name="gbreve" unicode="&#x11f;" 
d="M202 -212c-82 0 -144 26 -190 62l43 65c38 -33 94 -52 147 -52c80 0 147 33 168 122l22 96h-4c-45 -43 -107 -74 -168 -74c-103 0 -169 67 -169 183c0 172 121 311 264 311c68 0 119 -28 145 -72h4l21 60h73l-101 -505c-28 -141 -132 -196 -255 -196zM250 83
c49 0 103 29 150 80l41 194c-31 47 -70 67 -114 67c-95 0 -181 -99 -181 -220c0 -82 39 -121 104 -121zM367 571c-107 0 -139 75 -132 153l62 10c-3 -50 21 -98 83 -98c61 0 99 48 117 98l58 -10c-18 -78 -78 -153 -188 -153z" />
    <glyph glyph-name="gdotaccent" unicode="&#x121;" 
d="M202 -212c-82 0 -144 26 -190 62l43 65c38 -33 94 -52 147 -52c80 0 147 33 168 122l22 96h-4c-45 -43 -107 -74 -168 -74c-103 0 -169 67 -169 183c0 172 121 311 264 311c68 0 119 -28 145 -72h4l21 60h73l-101 -505c-28 -141 -132 -196 -255 -196zM250 83
c49 0 103 29 150 80l41 194c-31 47 -70 67 -114 67c-95 0 -181 -99 -181 -220c0 -82 39 -121 104 -121zM375 585c-36 0 -65 21 -65 60c0 41 35 76 77 76c39 0 65 -22 65 -60c0 -42 -35 -76 -77 -76z" />
    <glyph glyph-name="uni0123" unicode="&#x123;" 
d="M202 -212c-82 0 -144 26 -190 62l43 65c38 -33 94 -52 147 -52c80 0 147 33 168 122l22 96h-4c-45 -43 -107 -74 -168 -74c-103 0 -169 67 -169 183c0 172 121 311 264 311c68 0 119 -28 145 -72h4l21 60h73l-101 -505c-28 -141 -132 -196 -255 -196zM250 83
c49 0 103 29 150 80l41 194c-31 47 -70 67 -114 67c-95 0 -181 -99 -181 -220c0 -82 39 -121 104 -121zM390 542c-55 8 -86 29 -86 67c0 66 72 97 170 103v-43c-54 -5 -98 -20 -98 -50c0 -20 17 -31 41 -37z" />
    <glyph glyph-name="gcaron" unicode="&#x1e7;" 
d="M202 -212c-82 0 -144 26 -190 62l43 65c38 -33 94 -52 147 -52c80 0 147 33 168 122l22 96h-4c-45 -43 -107 -74 -168 -74c-103 0 -169 67 -169 183c0 172 121 311 264 311c68 0 119 -28 145 -72h4l21 60h73l-101 -505c-28 -141 -132 -196 -255 -196zM250 83
c49 0 103 29 150 80l41 194c-31 47 -70 67 -114 67c-95 0 -181 -99 -181 -220c0 -82 39 -121 104 -121zM321 576l-88 138l44 37l98 -111h4l143 111l35 -40l-136 -135h-100z" />
    <glyph glyph-name="uni1E21" unicode="&#x1e21;" 
d="M202 -212c-82 0 -144 26 -190 62l43 65c38 -33 94 -52 147 -52c80 0 147 33 168 122l22 96h-4c-45 -43 -107 -74 -168 -74c-103 0 -169 67 -169 183c0 172 121 311 264 311c68 0 119 -28 145 -72h4l21 60h73l-101 -505c-28 -141 -132 -196 -255 -196zM250 83
c49 0 103 29 150 80l41 194c-31 47 -70 67 -114 67c-95 0 -181 -99 -181 -220c0 -82 39 -121 104 -121zM240 599l12 62h262l-11 -62h-263z" />
    <glyph glyph-name="uni00670303" 
d="M202 -212c-82 0 -144 26 -190 62l43 65c38 -33 94 -52 147 -52c80 0 147 33 168 122l22 96h-4c-45 -43 -107 -74 -168 -74c-103 0 -169 67 -169 183c0 172 121 311 264 311c68 0 119 -28 145 -72h4l21 60h73l-101 -505c-28 -141 -132 -196 -255 -196zM250 83
c49 0 103 29 150 80l41 194c-31 47 -70 67 -114 67c-95 0 -181 -99 -181 -220c0 -82 39 -121 104 -121zM446 576c-68 0 -79 80 -128 80c-27 0 -46 -28 -55 -74l-64 4c16 85 57 139 125 139s79 -79 128 -79c27 0 46 29 56 74l63 -4c-15 -84 -57 -140 -125 -140z" />
    <glyph glyph-name="hcircumflex" unicode="&#x125;" 
d="M31 0l142 709h92l-51 -247l-17 -67h4c57 57 126 106 207 106c85 0 126 -47 126 -123c0 -27 -4 -52 -9 -78l-60 -300h-93l58 289c5 24 9 44 9 64c0 44 -25 68 -70 68c-60 0 -123 -40 -184 -110l-62 -311h-92zM107 755l-39 33l128 120h106l86 -123l-46 -29l-96 96h-4z" />
    <glyph glyph-name="uni1E27" unicode="&#x1e27;" 
d="M31 0l142 709h92l-51 -247l-17 -67h4c57 57 126 106 207 106c85 0 126 -47 126 -123c0 -27 -4 -52 -9 -78l-60 -300h-93l58 289c5 24 9 44 9 64c0 44 -25 68 -70 68c-60 0 -123 -40 -184 -110l-62 -311h-92zM137 771c-25 0 -44 17 -44 45c0 31 25 60 56 60
c25 0 45 -17 45 -45c0 -30 -25 -60 -57 -60zM330 771c-26 0 -45 17 -45 45c0 31 25 60 56 60c25 0 45 -17 45 -45c0 -30 -25 -60 -56 -60z" />
    <glyph glyph-name="uni1E25" unicode="&#x1e25;" 
d="M31 0l142 709h92l-51 -247l-17 -67h4c57 57 126 106 207 106c85 0 126 -47 126 -123c0 -27 -4 -52 -9 -78l-60 -300h-93l58 289c5 24 9 44 9 64c0 44 -25 68 -70 68c-60 0 -123 -40 -184 -110l-62 -311h-92zM219 -240c-36 0 -65 21 -65 60c0 41 35 76 77 76
c39 0 65 -22 65 -60c0 -42 -35 -76 -77 -76z" />
    <glyph glyph-name="uni1E96" unicode="&#x1e96;" 
d="M31 0l142 709h92l-51 -247l-17 -67h4c57 57 126 106 207 106c85 0 126 -47 126 -123c0 -27 -4 -52 -9 -78l-60 -300h-93l58 289c5 24 9 44 9 64c0 44 -25 68 -70 68c-60 0 -123 -40 -184 -110l-62 -311h-92zM90 -188l12 62h262l-11 -62h-263z" />
    <glyph glyph-name="uni1E29" unicode="&#x1e29;" 
d="M31 0l142 709h92l-51 -247l-17 -67h4c57 57 126 106 207 106c85 0 126 -47 126 -123c0 -27 -4 -52 -9 -78l-60 -300h-93l58 289c5 24 9 44 9 64c0 44 -25 68 -70 68c-60 0 -123 -40 -184 -110l-62 -311h-14l-40 -64c48 -12 64 -31 61 -66c-7 -64 -78 -97 -190 -100l-1 45
c79 3 114 20 117 51c1 24 -17 37 -69 43l60 91h-16z" />
    <glyph glyph-name="uni1E2B" unicode="&#x1e2b;" 
d="M31 0l142 709h92l-51 -247l-17 -67h4c57 57 126 106 207 106c85 0 126 -47 126 -123c0 -27 -4 -52 -9 -78l-60 -300h-93l58 289c5 24 9 44 9 64c0 44 -25 68 -70 68c-60 0 -123 -40 -184 -110l-62 -311h-92zM215 -227c-107 0 -139 75 -132 153l62 10
c-3 -50 21 -98 83 -98c61 0 99 48 117 98l58 -10c-18 -78 -78 -153 -188 -153z" />
    <glyph glyph-name="hbar" unicode="&#x127;" 
d="M32 0l113 564h-73l9 56l76 6l17 83h92l-17 -83h206l-10 -62h-209l-25 -124l-17 -66h4c57 58 126 105 207 105c84 0 126 -46 126 -122c0 -27 -4 -52 -10 -78l-55 -279h-93l54 268c5 25 9 44 9 64c0 45 -25 68 -70 68c-59 0 -123 -40 -184 -109l-58 -291h-92z" />
    <glyph glyph-name="igrave" unicode="&#xec;" 
d="M346 -12c-82 0 -138 45 -138 127c0 17 3 35 8 55l56 245h-174l15 74h266l-73 -326c-2 -11 -4 -21 -4 -30c0 -49 29 -68 71 -68c29 0 55 9 89 24l21 -70c-42 -19 -82 -31 -137 -31zM369 570l-137 166l79 59l116 -181z" />
    <glyph glyph-name="iacute" unicode="&#xed;" 
d="M346 -12c-82 0 -138 45 -138 127c0 17 3 35 8 55l56 245h-174l15 74h266l-73 -326c-2 -11 -4 -21 -4 -30c0 -49 29 -68 71 -68c29 0 55 9 89 24l21 -70c-42 -19 -82 -31 -137 -31zM311 579l-42 53l172 157l57 -72z" />
    <glyph glyph-name="icircumflex" unicode="&#xee;" 
d="M346 -12c-82 0 -138 45 -138 127c0 17 3 35 8 55l56 245h-174l15 74h266l-73 -326c-2 -11 -4 -21 -4 -30c0 -49 29 -68 71 -68c29 0 55 9 89 24l21 -70c-42 -19 -82 -31 -137 -31zM210 566l-35 40l136 135h100l88 -138l-44 -37l-98 111h-4z" />
    <glyph glyph-name="itilde" unicode="&#x129;" 
d="M346 -12c-82 0 -138 45 -138 127c0 17 3 35 8 55l56 245h-174l15 74h266l-73 -326c-2 -11 -4 -21 -4 -30c0 -49 29 -68 71 -68c29 0 55 9 89 24l21 -70c-42 -19 -82 -31 -137 -31zM414 576c-68 0 -79 80 -128 80c-27 0 -46 -28 -55 -74l-64 4c16 85 57 139 125 139
s79 -79 128 -79c27 0 46 29 56 74l63 -4c-15 -84 -57 -140 -125 -140z" />
    <glyph glyph-name="idieresis" unicode="&#xef;" 
d="M346 -12c-82 0 -138 45 -138 127c0 17 3 35 8 55l56 245h-174l15 74h266l-73 -326c-2 -11 -4 -21 -4 -30c0 -49 29 -68 71 -68c29 0 55 9 89 24l21 -70c-42 -19 -82 -31 -137 -31zM244 585c-27 0 -47 17 -47 48c0 34 27 64 61 64c28 0 48 -19 48 -49
c0 -36 -27 -63 -62 -63zM437 585c-28 0 -48 17 -48 48c0 34 27 64 62 64c27 0 47 -19 47 -49c0 -36 -27 -63 -61 -63z" />
    <glyph glyph-name="imacron" unicode="&#x12b;" 
d="M346 -12c-82 0 -138 45 -138 127c0 17 3 35 8 55l56 245h-174l15 74h266l-73 -326c-2 -11 -4 -21 -4 -30c0 -49 29 -68 71 -68c29 0 55 9 89 24l21 -70c-42 -19 -82 -31 -137 -31zM208 599l12 62h262l-11 -62h-263z" />
    <glyph glyph-name="uni01D0" unicode="&#x1d0;" 
d="M346 -12c-82 0 -138 45 -138 127c0 17 3 35 8 55l56 245h-174l15 74h266l-73 -326c-2 -11 -4 -21 -4 -30c0 -49 29 -68 71 -68c29 0 55 9 89 24l21 -70c-42 -19 -82 -31 -137 -31zM289 576l-88 138l44 37l98 -111h4l143 111l35 -40l-136 -135h-100z" />
    <glyph glyph-name="iogonek" unicode="&#x12f;" 
d="M347 -226c-51 0 -94 25 -94 80c0 56 41 99 95 134h-7c-76 0 -133 45 -133 127c0 17 3 35 8 55l56 245h-174l15 74h266l-73 -326c-2 -11 -4 -21 -4 -30c0 -49 29 -68 71 -68c29 0 55 9 89 24l21 -70c-120 -53 -160 -98 -160 -139c0 -32 25 -47 55 -47c19 0 33 5 49 15
l18 -40c-24 -20 -58 -34 -98 -34zM343 585c-36 0 -65 21 -65 60c0 41 35 76 77 76c39 0 65 -22 65 -60c0 -42 -35 -76 -77 -76z" />
    <glyph glyph-name="uni1EC9" unicode="&#x1ec9;" 
d="M346 -12c-82 0 -138 45 -138 127c0 17 3 35 8 55l56 245h-174l15 74h266l-73 -326c-2 -11 -4 -21 -4 -30c0 -49 29 -68 71 -68c29 0 55 9 89 24l21 -70c-42 -19 -82 -31 -137 -31zM298 571l-2 45c32 7 57 19 61 44c6 27 -18 42 -73 45l18 64c101 -3 144 -40 134 -101
c-12 -61 -75 -88 -138 -97z" />
    <glyph glyph-name="uni1ECB" unicode="&#x1ecb;" 
d="M346 -12c-82 0 -138 45 -138 127c0 17 3 35 8 55l56 245h-174l15 74h266l-73 -326c-2 -11 -4 -21 -4 -30c0 -49 29 -68 71 -68c29 0 55 9 89 24l21 -70c-42 -19 -82 -31 -137 -31zM343 585c-36 0 -65 21 -65 60c0 41 35 76 77 76c39 0 65 -22 65 -60
c0 -42 -35 -76 -77 -76zM293 -240c-36 0 -65 21 -65 60c0 41 35 76 77 76c39 0 65 -22 65 -60c0 -42 -35 -76 -77 -76z" />
    <glyph glyph-name="ibreve" unicode="&#x12d;" 
d="M346 -12c-82 0 -138 45 -138 127c0 17 3 35 8 55l56 245h-174l15 74h266l-73 -326c-2 -11 -4 -21 -4 -30c0 -49 29 -68 71 -68c29 0 55 9 89 24l21 -70c-42 -19 -82 -31 -137 -31zM335 571c-107 0 -139 75 -132 153l62 10c-3 -50 21 -98 83 -98c61 0 99 48 117 98l58 -10
c-18 -78 -78 -153 -188 -153z" />
    <glyph glyph-name="dotlessi" unicode="&#x131;" 
d="M346 -12c-82 0 -138 45 -138 127c0 17 3 35 8 55l56 245h-174l15 74h266l-73 -326c-2 -11 -4 -21 -4 -30c0 -49 29 -68 71 -68c29 0 55 9 89 24l21 -70c-42 -19 -82 -31 -137 -31z" />
    <glyph glyph-name="jcircumflex" unicode="&#x135;" 
d="M126 -212c-64 0 -115 23 -146 45l39 66c29 -21 62 -36 105 -36c81 0 121 48 139 136l83 416h-219l16 74h310l-99 -493c-27 -134 -93 -208 -228 -208zM284 566l-35 40l136 135h100l88 -138l-44 -37l-98 111h-4z" />
    <glyph glyph-name="uni0137" unicode="&#x137;" 
d="M42 0l142 709h92l-93 -465h4l294 245h110l-228 -197l150 -292h-96l-119 237l-139 -112l-25 -125h-92zM147 -230v45c80 3 115 22 115 50c0 21 -17 35 -61 37l26 42c91 -7 111 -31 111 -68c0 -69 -80 -103 -191 -106z" />
    <glyph glyph-name="uni1E33" unicode="&#x1e33;" 
d="M42 0l142 709h92l-93 -465h4l294 245h110l-228 -197l150 -292h-96l-119 237l-139 -112l-25 -125h-92zM242 -240c-36 0 -65 21 -65 60c0 41 35 76 77 76c39 0 65 -22 65 -60c0 -42 -35 -76 -77 -76z" />
    <glyph glyph-name="uni1E35" unicode="&#x1e35;" 
d="M42 0l142 709h92l-93 -465h4l294 245h110l-228 -197l150 -292h-96l-119 237l-139 -112l-25 -125h-92zM113 -188l12 62h262l-11 -62h-263z" />
    <glyph glyph-name="kgreenlandic" unicode="&#x138;" 
d="M42 0l97 489h92l-48 -245h4l294 245h110l-228 -197l150 -292h-95l-119 238l-140 -113l-25 -125h-92z" />
    <glyph glyph-name="lacute" unicode="&#x13a;" 
d="M325 -12c-79 0 -135 48 -135 136c0 17 2 35 7 56l97 456h-157l16 73h247l-113 -536c-3 -13 -5 -27 -5 -42c0 -46 28 -66 69 -66c32 0 58 8 93 25l21 -70c-45 -22 -90 -32 -140 -32zM333 759l-36 52l172 119l44 -71z" />
    <glyph glyph-name="lcaron" unicode="&#x13e;" 
d="M325 -12c-79 0 -135 48 -135 136c0 17 2 35 7 56l97 456h-157l16 73h247l-113 -536c-3 -13 -5 -27 -5 -42c0 -46 28 -66 69 -66c32 0 58 8 93 25l21 -70c-45 -22 -90 -32 -140 -32zM456 548l49 270h86l-19 -86l-56 -184h-60z" />
    <glyph glyph-name="uni013C" unicode="&#x13c;" 
d="M325 -12c-79 0 -135 48 -135 136c0 17 2 35 7 56l97 456h-157l16 73h247l-113 -536c-3 -13 -5 -27 -5 -42c0 -46 28 -66 69 -66c32 0 58 8 93 25l21 -70c-45 -22 -90 -32 -140 -32zM190 -230v45c80 3 115 22 115 50c0 21 -17 35 -61 37l26 42c91 -7 111 -31 111 -68
c0 -69 -80 -103 -191 -106z" />
    <glyph glyph-name="uni1E37" unicode="&#x1e37;" 
d="M325 -12c-79 0 -135 48 -135 136c0 17 2 35 7 56l97 456h-157l16 73h247l-113 -536c-3 -13 -5 -27 -5 -42c0 -46 28 -66 69 -66c32 0 58 8 93 25l21 -70c-45 -22 -90 -32 -140 -32zM285 -240c-36 0 -65 21 -65 60c0 41 35 76 77 76c39 0 65 -22 65 -60
c0 -42 -35 -76 -77 -76z" />
    <glyph glyph-name="uni1E39" unicode="&#x1e39;" 
d="M325 -12c-79 0 -135 48 -135 136c0 17 2 35 7 56l97 456h-157l16 73h247l-113 -536c-3 -13 -5 -27 -5 -42c0 -46 28 -66 69 -66c32 0 58 8 93 25l21 -70c-45 -22 -90 -32 -140 -32zM232 786l12 63h264l-12 -63h-264zM285 -240c-36 0 -65 21 -65 60c0 41 35 76 77 76
c39 0 65 -22 65 -60c0 -42 -35 -76 -77 -76z" />
    <glyph glyph-name="uni1E3B" unicode="&#x1e3b;" 
d="M325 -12c-79 0 -135 48 -135 136c0 17 2 35 7 56l97 456h-157l16 73h247l-113 -536c-3 -13 -5 -27 -5 -42c0 -46 28 -66 69 -66c32 0 58 8 93 25l21 -70c-45 -22 -90 -32 -140 -32zM156 -188l12 62h262l-11 -62h-263z" />
    <glyph glyph-name="lslash" unicode="&#x142;" 
d="M325 -12c-79 0 -135 48 -135 136c0 17 2 35 7 56l30 143l-112 -58l-22 57l151 77l50 237h-157l16 73h247l-56 -266l159 83l24 -57l-199 -101l-41 -195c-3 -13 -5 -27 -5 -42c0 -46 28 -66 69 -66c32 0 58 8 93 25l21 -70c-45 -22 -90 -32 -140 -32z" />
    <glyph glyph-name="ldot" unicode="&#x140;" 
d="M285 -12c-79 0 -135 48 -135 136c0 17 2 35 7 56l97 456h-157l16 73h247l-113 -536c-3 -13 -5 -27 -5 -42c0 -46 28 -66 69 -66c32 0 58 8 93 25l21 -70c-45 -22 -90 -32 -140 -32zM547 282c-36 0 -65 21 -65 60c0 41 35 76 77 76c39 0 65 -22 65 -60
c0 -42 -35 -76 -77 -76z" />
    <glyph glyph-name="uni1E3F" unicode="&#x1e3f;" 
d="M-5 0l97 489h69l-5 -66h3c36 47 79 78 131 78c45 0 70 -25 72 -77c43 54 89 77 134 77c48 0 77 -28 77 -86c0 -18 -1 -31 -6 -54l-73 -361h-89l70 347c3 14 4 24 4 34c0 29 -11 41 -31 41c-32 0 -59 -25 -91 -73l-71 -349h-83l72 347c3 14 3 24 3 34c0 29 -12 41 -31 41
c-34 0 -61 -24 -95 -73l-68 -349h-89zM341 578l-42 53l172 157l57 -72z" />
    <glyph glyph-name="uni1E41" unicode="&#x1e41;" 
d="M-5 0l97 489h69l-5 -66h3c36 47 79 78 131 78c45 0 70 -25 72 -77c43 54 89 77 134 77c48 0 77 -28 77 -86c0 -18 -1 -31 -6 -54l-73 -361h-89l70 347c3 14 4 24 4 34c0 29 -11 41 -31 41c-32 0 -59 -25 -91 -73l-71 -349h-83l72 347c3 14 3 24 3 34c0 29 -12 41 -31 41
c-34 0 -61 -24 -95 -73l-68 -349h-89zM373 584c-36 0 -65 21 -65 60c0 41 35 76 77 76c39 0 65 -22 65 -60c0 -42 -35 -76 -77 -76z" />
    <glyph glyph-name="uni1E43" unicode="&#x1e43;" 
d="M-5 0l97 489h69l-5 -66h3c36 47 79 78 131 78c45 0 70 -25 72 -77c43 54 89 77 134 77c48 0 77 -28 77 -86c0 -18 -1 -31 -6 -54l-73 -361h-89l70 347c3 14 4 24 4 34c0 29 -11 41 -31 41c-32 0 -59 -25 -91 -73l-71 -349h-83l72 347c3 14 3 24 3 34c0 29 -12 41 -31 41
c-34 0 -61 -24 -95 -73l-68 -349h-89zM210 -240c-36 0 -65 21 -65 60c0 41 35 76 77 76c39 0 65 -22 65 -60c0 -42 -35 -76 -77 -76z" />
    <glyph glyph-name="nacute" unicode="&#x144;" 
d="M31 0l97 489h75l-11 -96h4c56 56 129 108 212 108c85 0 126 -47 126 -123c0 -27 -4 -52 -9 -78l-60 -300h-93l58 289c5 24 9 44 9 64c0 44 -25 68 -70 68c-60 0 -123 -40 -184 -110l-62 -311h-92zM343 579l-42 53l172 157l57 -72z" />
    <glyph glyph-name="uni01F9" unicode="&#x1f9;" 
d="M31 0l97 489h75l-11 -96h4c56 56 129 108 212 108c85 0 126 -47 126 -123c0 -27 -4 -52 -9 -78l-60 -300h-93l58 289c5 24 9 44 9 64c0 44 -25 68 -70 68c-60 0 -123 -40 -184 -110l-62 -311h-92zM401 570l-137 166l79 59l116 -181z" />
    <glyph glyph-name="ncaron" unicode="&#x148;" 
d="M31 0l97 489h75l-11 -96h4c56 56 129 108 212 108c85 0 126 -47 126 -123c0 -27 -4 -52 -9 -78l-60 -300h-93l58 289c5 24 9 44 9 64c0 44 -25 68 -70 68c-60 0 -123 -40 -184 -110l-62 -311h-92zM321 576l-88 138l44 37l98 -111h4l143 111l35 -40l-136 -135h-100z" />
    <glyph glyph-name="ntilde" unicode="&#xf1;" 
d="M31 0l97 489h75l-11 -96h4c56 56 129 108 212 108c85 0 126 -47 126 -123c0 -27 -4 -52 -9 -78l-60 -300h-93l58 289c5 24 9 44 9 64c0 44 -25 68 -70 68c-60 0 -123 -40 -184 -110l-62 -311h-92zM446 576c-68 0 -79 80 -128 80c-27 0 -46 -28 -55 -74l-64 4
c16 85 57 139 125 139s79 -79 128 -79c27 0 46 29 56 74l63 -4c-15 -84 -57 -140 -125 -140z" />
    <glyph glyph-name="uni0146" unicode="&#x146;" 
d="M31 0l97 489h75l-11 -96h4c56 56 129 108 212 108c85 0 126 -47 126 -123c0 -27 -4 -52 -9 -78l-60 -300h-93l58 289c5 24 9 44 9 64c0 44 -25 68 -70 68c-60 0 -123 -40 -184 -110l-62 -311h-92zM124 -230v45c80 3 115 22 115 50c0 21 -17 35 -61 37l26 42
c91 -7 111 -31 111 -68c0 -69 -80 -103 -191 -106z" />
    <glyph glyph-name="uni1E45" unicode="&#x1e45;" 
d="M31 0l97 489h75l-11 -96h4c56 56 129 108 212 108c85 0 126 -47 126 -123c0 -27 -4 -52 -9 -78l-60 -300h-93l58 289c5 24 9 44 9 64c0 44 -25 68 -70 68c-60 0 -123 -40 -184 -110l-62 -311h-92zM375 585c-36 0 -65 21 -65 60c0 41 35 76 77 76c39 0 65 -22 65 -60
c0 -42 -35 -76 -77 -76z" />
    <glyph glyph-name="uni1E47" unicode="&#x1e47;" 
d="M31 0l97 489h75l-11 -96h4c56 56 129 108 212 108c85 0 126 -47 126 -123c0 -27 -4 -52 -9 -78l-60 -300h-93l58 289c5 24 9 44 9 64c0 44 -25 68 -70 68c-60 0 -123 -40 -184 -110l-62 -311h-92zM219 -240c-36 0 -65 21 -65 60c0 41 35 76 77 76c39 0 65 -22 65 -60
c0 -42 -35 -76 -77 -76z" />
    <glyph glyph-name="uni1E49" unicode="&#x1e49;" 
d="M31 0l97 489h75l-11 -96h4c56 56 129 108 212 108c85 0 126 -47 126 -123c0 -27 -4 -52 -9 -78l-60 -300h-93l58 289c5 24 9 44 9 64c0 44 -25 68 -70 68c-60 0 -123 -40 -184 -110l-62 -311h-92zM90 -188l12 62h262l-11 -62h-263z" />
    <glyph glyph-name="napostrophe" unicode="&#x149;" 
d="M147 0l97 489h76l-9 -88h4c55 52 115 100 194 100s112 -47 112 -123c0 -27 -3 -52 -9 -78l-60 -300h-92l58 289c5 24 9 43 9 64c0 44 -22 68 -62 68c-53 0 -104 -38 -162 -99l-64 -322h-92zM-4 359l-13 51c80 23 131 71 147 131c-8 -3 -17 -4 -26 -4c-33 0 -57 25 -57 66
c0 53 41 95 91 95c47 0 81 -32 81 -96c0 -114 -87 -208 -223 -243z" />
    <glyph glyph-name="ograve" unicode="&#xf2;" 
d="M251 -12c-130 0 -208 87 -208 215c0 172 133 298 282 298c130 0 208 -87 208 -215c0 -173 -133 -298 -282 -298zM258 65c95 0 181 94 181 216c0 89 -45 143 -121 143c-95 0 -182 -95 -182 -216c0 -89 46 -143 122 -143zM388 570l-137 166l79 59l116 -181z" />
    <glyph glyph-name="oacute" unicode="&#xf3;" 
d="M251 -12c-130 0 -208 87 -208 215c0 172 133 298 282 298c130 0 208 -87 208 -215c0 -173 -133 -298 -282 -298zM258 65c95 0 181 94 181 216c0 89 -45 143 -121 143c-95 0 -182 -95 -182 -216c0 -89 46 -143 122 -143zM330 579l-42 53l172 157l57 -72z" />
    <glyph glyph-name="ocircumflex" unicode="&#xf4;" 
d="M251 -12c-130 0 -208 87 -208 215c0 172 133 298 282 298c130 0 208 -87 208 -215c0 -173 -133 -298 -282 -298zM258 65c95 0 181 94 181 216c0 89 -45 143 -121 143c-95 0 -182 -95 -182 -216c0 -89 46 -143 122 -143zM229 566l-35 40l136 135h100l88 -138l-44 -37
l-98 111h-4z" />
    <glyph glyph-name="otilde" unicode="&#xf5;" 
d="M251 -12c-130 0 -208 87 -208 215c0 172 133 298 282 298c130 0 208 -87 208 -215c0 -173 -133 -298 -282 -298zM258 65c95 0 181 94 181 216c0 89 -45 143 -121 143c-95 0 -182 -95 -182 -216c0 -89 46 -143 122 -143zM433 576c-68 0 -79 80 -128 80
c-27 0 -46 -28 -55 -74l-64 4c16 85 57 139 125 139s79 -79 128 -79c27 0 46 29 56 74l63 -4c-15 -84 -57 -140 -125 -140z" />
    <glyph glyph-name="odieresis" unicode="&#xf6;" 
d="M251 -12c-130 0 -208 87 -208 215c0 172 133 298 282 298c130 0 208 -87 208 -215c0 -173 -133 -298 -282 -298zM258 65c95 0 181 94 181 216c0 89 -45 143 -121 143c-95 0 -182 -95 -182 -216c0 -89 46 -143 122 -143zM263 585c-27 0 -47 17 -47 48c0 34 27 64 61 64
c28 0 48 -19 48 -49c0 -36 -27 -63 -62 -63zM456 585c-28 0 -48 17 -48 48c0 34 27 64 62 64c27 0 47 -19 47 -49c0 -36 -27 -63 -61 -63z" />
    <glyph glyph-name="omacron" unicode="&#x14d;" 
d="M251 -12c-130 0 -208 87 -208 215c0 172 133 298 282 298c130 0 208 -87 208 -215c0 -173 -133 -298 -282 -298zM258 65c95 0 181 94 181 216c0 89 -45 143 -121 143c-95 0 -182 -95 -182 -216c0 -89 46 -143 122 -143zM227 599l12 62h262l-11 -62h-263z" />
    <glyph glyph-name="ohungarumlaut" unicode="&#x151;" 
d="M251 -12c-130 0 -208 87 -208 215c0 172 133 298 282 298c130 0 208 -87 208 -215c0 -173 -133 -298 -282 -298zM258 65c95 0 181 94 181 216c0 89 -45 143 -121 143c-95 0 -182 -95 -182 -216c0 -89 46 -143 122 -143zM305 570l-49 30l118 164l62 -38zM463 570l-49 30
l118 164l62 -38z" />
    <glyph glyph-name="uni01D2" unicode="&#x1d2;" 
d="M251 -12c-130 0 -208 87 -208 215c0 172 133 298 282 298c130 0 208 -87 208 -215c0 -173 -133 -298 -282 -298zM258 65c95 0 181 94 181 216c0 89 -45 143 -121 143c-95 0 -182 -95 -182 -216c0 -89 46 -143 122 -143zM308 576l-88 138l44 37l98 -111h4l143 111l35 -40
l-136 -135h-100z" />
    <glyph glyph-name="uni01EB" unicode="&#x1eb;" 
d="M214 -226c-51 0 -94 25 -94 80c0 58 49 110 91 138c-99 12 -168 91 -168 211c0 172 133 298 282 298c130 0 208 -87 208 -215c0 -158 -103 -262 -219 -292c-88 -22 -124 -79 -124 -114c0 -32 25 -47 55 -47c18 0 32 5 48 15l19 -40c-25 -20 -58 -34 -98 -34zM258 63
c95 0 181 95 181 218c0 89 -45 143 -121 143c-95 0 -182 -95 -182 -216c0 -91 46 -145 122 -145z" />
    <glyph glyph-name="uni1ECD" unicode="&#x1ecd;" 
d="M251 -12c-130 0 -208 87 -208 215c0 172 133 298 282 298c130 0 208 -87 208 -215c0 -173 -133 -298 -282 -298zM258 65c95 0 181 94 181 216c0 89 -45 143 -121 143c-95 0 -182 -95 -182 -216c0 -89 46 -143 122 -143zM199 -240c-36 0 -65 21 -65 60c0 41 35 76 77 76
c39 0 65 -22 65 -60c0 -42 -35 -76 -77 -76z" />
    <glyph glyph-name="uni1ECF" unicode="&#x1ecf;" 
d="M251 -12c-130 0 -208 87 -208 215c0 172 133 298 282 298c130 0 208 -87 208 -215c0 -173 -133 -298 -282 -298zM258 65c95 0 181 94 181 216c0 89 -45 143 -121 143c-95 0 -182 -95 -182 -216c0 -89 46 -143 122 -143zM317 571l-2 45c32 7 57 19 61 44
c6 27 -18 42 -73 45l18 64c101 -3 144 -40 134 -101c-12 -61 -75 -88 -138 -97z" />
    <glyph glyph-name="uni1ED1" unicode="&#x1ed1;" 
d="M251 -12c-130 0 -208 87 -208 215c0 172 133 298 282 298c130 0 208 -87 208 -215c0 -173 -133 -298 -282 -298zM258 65c95 0 181 94 181 216c0 89 -45 143 -121 143c-95 0 -182 -95 -182 -216c0 -89 46 -143 122 -143zM249 569l-29 40l114 91h81l82 -95l-38 -36l-87 73
h-4zM501 640l-35 36l106 113l50 -43z" />
    <glyph glyph-name="uni1ED3" unicode="&#x1ed3;" 
d="M251 -12c-130 0 -208 87 -208 215c0 172 133 298 282 298c130 0 208 -87 208 -215c0 -173 -133 -298 -282 -298zM258 65c95 0 181 94 181 216c0 89 -45 143 -121 143c-95 0 -182 -95 -182 -216c0 -89 46 -143 122 -143zM249 569l-29 40l114 91h81l82 -95l-38 -36l-87 73
h-4zM211 639l-89 118l62 34l73 -123z" />
    <glyph glyph-name="uni1ED5" unicode="&#x1ed5;" 
d="M251 -12c-130 0 -208 87 -208 215c0 172 133 298 282 298c130 0 208 -87 208 -215c0 -173 -133 -298 -282 -298zM258 65c95 0 181 94 181 216c0 89 -45 143 -121 143c-95 0 -182 -95 -182 -216c0 -89 46 -143 122 -143zM249 569l-28 40l114 91h80l82 -95l-38 -36l-87 73
h-4zM487 638l-4 38c24 7 42 16 46 37c4 24 -12 36 -61 39l16 46c85 -3 124 -28 116 -75c-11 -56 -61 -76 -113 -85z" />
    <glyph glyph-name="uni1ED7" unicode="&#x1ed7;" 
d="M251 -12c-130 0 -208 87 -208 215c0 172 133 298 282 298c130 0 208 -87 208 -215c0 -173 -133 -298 -282 -298zM258 65c95 0 181 94 181 216c0 89 -45 143 -121 143c-95 0 -182 -95 -182 -216c0 -89 46 -143 122 -143zM253 569l-29 40l113 86h80l84 -90l-38 -36l-89 68
h-4zM444 712c-57 0 -79 42 -114 42c-19 0 -30 -13 -41 -41l-48 5c16 57 47 94 95 94c57 0 77 -42 113 -42c19 0 29 13 39 41l48 -5c-15 -58 -44 -94 -92 -94z" />
    <glyph glyph-name="uni1ED9" unicode="&#x1ed9;" 
d="M251 -12c-130 0 -208 87 -208 215c0 172 133 298 282 298c130 0 208 -87 208 -215c0 -173 -133 -298 -282 -298zM258 65c95 0 181 94 181 216c0 89 -45 143 -121 143c-95 0 -182 -95 -182 -216c0 -89 46 -143 122 -143zM229 566l-35 40l136 135h100l88 -138l-44 -37
l-98 111h-4zM199 -240c-36 0 -65 21 -65 60c0 41 35 76 77 76c39 0 65 -22 65 -60c0 -42 -35 -76 -77 -76z" />
    <glyph glyph-name="obreve" unicode="&#x14f;" 
d="M251 -12c-130 0 -208 87 -208 215c0 172 133 298 282 298c130 0 208 -87 208 -215c0 -173 -133 -298 -282 -298zM258 65c95 0 181 94 181 216c0 89 -45 143 -121 143c-95 0 -182 -95 -182 -216c0 -89 46 -143 122 -143zM354 571c-107 0 -139 75 -132 153l62 10
c-3 -50 21 -98 83 -98c61 0 99 48 117 98l58 -10c-18 -78 -78 -153 -188 -153z" />
    <glyph glyph-name="uni1E53" unicode="&#x1e53;" 
d="M251 -12c-130 0 -208 87 -208 215c0 172 133 298 282 298c130 0 208 -87 208 -215c0 -173 -133 -298 -282 -298zM258 65c95 0 181 94 181 216c0 89 -45 143 -121 143c-95 0 -182 -95 -182 -216c0 -89 46 -143 122 -143zM227 599l12 62h262l-11 -62h-263zM384 710l-35 31
l101 111l49 -43z" />
    <glyph glyph-name="ohorn" unicode="&#x1a1;" 
d="M251 -12c-130 0 -208 87 -208 215c0 172 133 298 282 298c40 0 74 -8 104 -23c61 8 100 46 100 109c0 16 -2 32 -8 49l72 25c9 -26 12 -45 12 -69c0 -88 -56 -131 -127 -151c36 -37 55 -91 55 -155c0 -173 -133 -298 -282 -298zM258 65c95 0 181 94 181 216
c0 89 -45 143 -121 143c-95 0 -182 -95 -182 -216c0 -89 46 -143 122 -143z" />
    <glyph glyph-name="uni1EDB" unicode="&#x1edb;" 
d="M251 -12c-130 0 -208 87 -208 215c0 172 133 298 282 298c40 0 74 -8 104 -23c61 8 100 46 100 109c0 16 -2 32 -8 49l72 25c9 -26 12 -45 12 -69c0 -88 -56 -131 -127 -151c36 -37 55 -91 55 -155c0 -173 -133 -298 -282 -298zM258 65c95 0 181 94 181 216
c0 89 -45 143 -121 143c-95 0 -182 -95 -182 -216c0 -89 46 -143 122 -143zM330 579l-42 53l172 157l57 -72z" />
    <glyph glyph-name="uni1EDD" unicode="&#x1edd;" 
d="M251 -12c-130 0 -208 87 -208 215c0 172 133 298 282 298c40 0 74 -8 104 -23c61 8 100 46 100 109c0 16 -2 32 -8 49l72 25c9 -26 12 -45 12 -69c0 -88 -56 -131 -127 -151c36 -37 55 -91 55 -155c0 -173 -133 -298 -282 -298zM258 65c95 0 181 94 181 216
c0 89 -45 143 -121 143c-95 0 -182 -95 -182 -216c0 -89 46 -143 122 -143zM388 570l-137 166l79 59l116 -181z" />
    <glyph glyph-name="uni1EDF" unicode="&#x1edf;" 
d="M251 -12c-130 0 -208 87 -208 215c0 172 133 298 282 298c40 0 74 -8 104 -23c61 8 100 46 100 109c0 16 -2 32 -8 49l72 25c9 -26 12 -45 12 -69c0 -88 -56 -131 -127 -151c36 -37 55 -91 55 -155c0 -173 -133 -298 -282 -298zM258 65c95 0 181 94 181 216
c0 89 -45 143 -121 143c-95 0 -182 -95 -182 -216c0 -89 46 -143 122 -143zM317 571l-2 45c32 7 57 19 61 44c6 27 -18 42 -73 45l18 64c101 -3 144 -40 134 -101c-12 -61 -75 -88 -138 -97z" />
    <glyph glyph-name="uni1EE1" unicode="&#x1ee1;" 
d="M251 -12c-130 0 -208 87 -208 215c0 172 133 298 282 298c40 0 74 -8 104 -23c61 8 100 46 100 109c0 16 -2 32 -8 49l72 25c9 -26 12 -45 12 -69c0 -88 -56 -131 -127 -151c36 -37 55 -91 55 -155c0 -173 -133 -298 -282 -298zM258 65c95 0 181 94 181 216
c0 89 -45 143 -121 143c-95 0 -182 -95 -182 -216c0 -89 46 -143 122 -143zM394 576c-68 0 -79 80 -128 80c-27 0 -46 -28 -55 -74l-64 4c16 85 57 139 125 139s79 -79 128 -79c27 0 46 29 56 74l63 -4c-15 -84 -57 -140 -125 -140z" />
    <glyph glyph-name="uni1EE3" unicode="&#x1ee3;" 
d="M251 -12c-130 0 -208 87 -208 215c0 172 133 298 282 298c40 0 74 -8 104 -23c61 8 100 46 100 109c0 16 -2 32 -8 49l72 25c9 -26 12 -45 12 -69c0 -88 -56 -131 -127 -151c36 -37 55 -91 55 -155c0 -173 -133 -298 -282 -298zM258 65c95 0 181 94 181 216
c0 89 -45 143 -121 143c-95 0 -182 -95 -182 -216c0 -89 46 -143 122 -143zM199 -240c-36 0 -65 21 -65 60c0 41 35 76 77 76c39 0 65 -22 65 -60c0 -42 -35 -76 -77 -76z" />
    <glyph glyph-name="oslash" unicode="&#xf8;" 
d="M251 -12c-58 0 -105 17 -140 47l-68 -64l-43 44l72 68c-19 33 -29 74 -29 120c0 172 133 298 282 298c57 0 104 -17 139 -47l68 64l44 -45l-72 -68c19 -33 29 -73 29 -119c0 -173 -134 -298 -282 -298zM133 204c0 -21 3 -39 7 -56l264 249c-20 19 -48 30 -82 30
c-107 0 -189 -101 -189 -223zM253 62c107 0 191 100 191 223c0 21 -3 40 -8 56l-264 -248c20 -20 47 -31 81 -31z" />
    <glyph glyph-name="oslashacute" unicode="&#x1ff;" 
d="M251 -12c-58 0 -105 17 -140 47l-68 -64l-43 44l72 68c-19 33 -29 74 -29 120c0 172 133 298 282 298c57 0 104 -17 139 -47l68 64l44 -45l-72 -68c19 -33 29 -73 29 -119c0 -173 -134 -298 -282 -298zM133 204c0 -21 3 -39 7 -56l264 249c-20 19 -48 30 -82 30
c-107 0 -189 -101 -189 -223zM253 62c107 0 191 100 191 223c0 21 -3 40 -8 56l-264 -248c20 -20 47 -31 81 -31zM330 579l-42 53l172 157l57 -72z" />
    <glyph glyph-name="oe" unicode="&#x153;" 
d="M126 -12c-85 0 -135 70 -135 186c0 195 109 327 231 327c62 0 98 -38 110 -106c36 70 94 106 150 106c79 0 116 -60 116 -158c0 -50 -15 -102 -21 -123h-245c-2 -17 -3 -35 -3 -52c0 -74 33 -108 87 -108c41 0 74 17 103 37l27 -60c-35 -28 -90 -49 -145 -49
c-57 0 -107 31 -122 91c-39 -63 -93 -91 -153 -91zM466 428c-51 0 -96 -61 -120 -140h172c4 18 6 36 6 53c0 50 -12 87 -58 87zM75 178c0 -69 23 -115 69 -115c76 0 134 120 134 245c0 72 -21 117 -64 117c-82 0 -139 -135 -139 -247z" />
    <glyph glyph-name="racute" unicode="&#x155;" 
d="M91 0l97 489h75l-19 -138h4c54 84 132 150 214 150c43 0 76 -9 98 -24l-35 -80c-24 15 -48 20 -80 20c-72 0 -149 -69 -213 -173l-49 -244h-92zM368 579l-42 53l172 157l57 -72z" />
    <glyph glyph-name="uni0157" unicode="&#x157;" 
d="M91 0l97 489h75l-19 -138h4c54 84 132 150 214 150c43 0 76 -9 98 -24l-35 -80c-24 15 -48 20 -80 20c-72 0 -149 -69 -213 -173l-49 -244h-92zM10 -230v45c80 3 115 22 115 50c0 21 -17 35 -61 37l26 42c91 -7 111 -31 111 -68c0 -69 -80 -103 -191 -106z" />
    <glyph glyph-name="rcaron" unicode="&#x159;" 
d="M91 0l97 489h75l-19 -138h4c54 84 132 150 214 150c43 0 76 -9 98 -24l-35 -80c-24 15 -48 20 -80 20c-72 0 -149 -69 -213 -173l-49 -244h-92zM346 576l-88 138l44 37l98 -111h4l143 111l35 -40l-136 -135h-100z" />
    <glyph glyph-name="uni1E59" unicode="&#x1e59;" 
d="M91 0l97 489h75l-19 -138h4c54 84 132 150 214 150c43 0 76 -9 98 -24l-35 -80c-24 15 -48 20 -80 20c-72 0 -149 -69 -213 -173l-49 -244h-92zM400 585c-36 0 -65 21 -65 60c0 41 35 76 77 76c39 0 65 -22 65 -60c0 -42 -35 -76 -77 -76z" />
    <glyph glyph-name="uni1E5B" unicode="&#x1e5b;" 
d="M91 0l97 489h75l-19 -138h4c54 84 132 150 214 150c43 0 76 -9 98 -24l-35 -80c-24 15 -48 20 -80 20c-72 0 -149 -69 -213 -173l-49 -244h-92zM105 -240c-36 0 -65 21 -65 60c0 41 35 76 77 76c39 0 65 -22 65 -60c0 -42 -35 -76 -77 -76z" />
    <glyph glyph-name="uni1E5D" unicode="&#x1e5d;" 
d="M91 0l97 489h75l-19 -138h4c54 84 132 150 214 150c43 0 76 -9 98 -24l-35 -80c-24 15 -48 20 -80 20c-72 0 -149 -69 -213 -173l-49 -244h-92zM265 599l12 62h262l-11 -62h-263zM105 -240c-36 0 -65 21 -65 60c0 41 35 76 77 76c39 0 65 -22 65 -60
c0 -42 -35 -76 -77 -76z" />
    <glyph glyph-name="uni1E5F" unicode="&#x1e5f;" 
d="M91 0l97 489h75l-19 -138h4c54 84 132 150 214 150c43 0 76 -9 98 -24l-35 -80c-24 15 -48 20 -80 20c-72 0 -149 -69 -213 -173l-49 -244h-92zM-24 -188l12 62h262l-11 -62h-263z" />
    <glyph glyph-name="sacute" unicode="&#x15b;" 
d="M269 -12c-87 0 -170 35 -218 90l52 58c48 -53 115 -77 182 -77c63 0 107 21 107 68c0 42 -41 59 -120 85c-101 34 -148 76 -148 145c0 96 86 144 189 144c94 0 162 -38 204 -80l-51 -56c-40 34 -95 65 -163 65c-57 0 -92 -23 -92 -62c0 -40 38 -59 116 -85
c90 -31 152 -65 152 -144c0 -107 -93 -151 -210 -151zM331 579l-42 53l172 157l57 -72z" />
    <glyph glyph-name="scircumflex" unicode="&#x15d;" 
d="M269 -12c-87 0 -170 35 -218 90l52 58c48 -53 115 -77 182 -77c63 0 107 21 107 68c0 42 -41 59 -120 85c-101 34 -148 76 -148 145c0 96 86 144 189 144c94 0 162 -38 204 -80l-51 -56c-40 34 -95 65 -163 65c-57 0 -92 -23 -92 -62c0 -40 38 -59 116 -85
c90 -31 152 -65 152 -144c0 -107 -93 -151 -210 -151zM230 566l-35 40l136 135h100l88 -138l-44 -37l-98 111h-4z" />
    <glyph glyph-name="scaron" unicode="&#x161;" 
d="M269 -12c-87 0 -170 35 -218 90l52 58c48 -53 115 -77 182 -77c63 0 107 21 107 68c0 42 -41 59 -120 85c-101 34 -148 76 -148 145c0 96 86 144 189 144c94 0 162 -38 204 -80l-51 -56c-40 34 -95 65 -163 65c-57 0 -92 -23 -92 -62c0 -40 38 -59 116 -85
c90 -31 152 -65 152 -144c0 -107 -93 -151 -210 -151zM309 576l-88 138l44 37l98 -111h4l143 111l35 -40l-136 -135h-100z" />
    <glyph glyph-name="uni1E67" unicode="&#x1e67;" 
d="M269 -12c-87 0 -170 35 -218 90l52 58c48 -53 115 -77 182 -77c63 0 107 21 107 68c0 42 -41 59 -120 85c-101 34 -148 76 -148 145c0 96 86 144 189 144c94 0 162 -38 204 -80l-51 -56c-40 34 -95 65 -163 65c-57 0 -92 -23 -92 -62c0 -40 38 -59 116 -85
c90 -31 152 -65 152 -144c0 -107 -93 -151 -210 -151zM383 701c-30 0 -53 17 -53 50c0 38 34 71 70 71c30 0 52 -17 52 -50c0 -38 -33 -71 -69 -71zM309 576l-88 138l39 32l102 -112h4l148 112l31 -35l-136 -135h-100z" />
    <glyph glyph-name="uni015F" unicode="&#x15f;" 
d="M125 -230l-1 45c79 3 114 20 117 51c1 24 -17 37 -69 43l54 82c-71 9 -135 41 -175 87l52 58c48 -53 115 -77 182 -77c63 0 107 21 107 68c0 42 -41 59 -120 85c-101 34 -148 76 -148 145c0 96 86 144 189 144c94 0 162 -38 204 -80l-51 -56c-40 34 -95 65 -163 65
c-57 0 -92 -23 -92 -62c0 -40 38 -59 116 -85c90 -31 152 -65 152 -144c0 -102 -84 -146 -192 -151l-33 -52c48 -12 64 -31 61 -66c-7 -64 -78 -97 -190 -100z" />
    <glyph glyph-name="uni0219" unicode="&#x219;" 
d="M269 -12c-87 0 -170 35 -218 90l52 58c48 -53 115 -77 182 -77c63 0 107 21 107 68c0 42 -41 59 -120 85c-101 34 -148 76 -148 145c0 96 86 144 189 144c94 0 162 -38 204 -80l-51 -56c-40 34 -95 65 -163 65c-57 0 -92 -23 -92 -62c0 -40 38 -59 116 -85
c90 -31 152 -65 152 -144c0 -107 -93 -151 -210 -151zM132 -230v45c80 3 115 22 115 50c0 21 -17 35 -61 37l26 42c91 -7 111 -31 111 -68c0 -69 -80 -103 -191 -106z" />
    <glyph glyph-name="uni1E61" unicode="&#x1e61;" 
d="M269 -12c-87 0 -170 35 -218 90l52 58c48 -53 115 -77 182 -77c63 0 107 21 107 68c0 42 -41 59 -120 85c-101 34 -148 76 -148 145c0 96 86 144 189 144c94 0 162 -38 204 -80l-51 -56c-40 34 -95 65 -163 65c-57 0 -92 -23 -92 -62c0 -40 38 -59 116 -85
c90 -31 152 -65 152 -144c0 -107 -93 -151 -210 -151zM363 585c-36 0 -65 21 -65 60c0 41 35 76 77 76c39 0 65 -22 65 -60c0 -42 -35 -76 -77 -76z" />
    <glyph glyph-name="uni1E63" unicode="&#x1e63;" 
d="M269 -12c-87 0 -170 35 -218 90l52 58c48 -53 115 -77 182 -77c63 0 107 21 107 68c0 42 -41 59 -120 85c-101 34 -148 76 -148 145c0 96 86 144 189 144c94 0 162 -38 204 -80l-51 -56c-40 34 -95 65 -163 65c-57 0 -92 -23 -92 -62c0 -40 38 -59 116 -85
c90 -31 152 -65 152 -144c0 -107 -93 -151 -210 -151zM227 -240c-36 0 -65 21 -65 60c0 41 35 76 77 76c39 0 65 -22 65 -60c0 -42 -35 -76 -77 -76z" />
    <glyph glyph-name="germandbls" unicode="&#xdf;" 
d="M353 -12c-50 0 -102 14 -145 51l39 63c32 -27 62 -43 105 -43c53 0 96 32 96 78c0 89 -151 108 -151 210c0 101 129 126 129 227c0 43 -21 73 -74 73c-68 0 -117 -55 -136 -152l-99 -495h-92l103 514c25 125 106 207 228 207c89 0 160 -44 160 -136
c0 -121 -128 -147 -128 -221c0 -70 147 -93 147 -218c0 -89 -72 -158 -182 -158z" />
    <glyph glyph-name="longs" unicode="&#x17f;" 
d="M163 0l83 415h-138l14 69l139 5l9 45c26 129 102 187 217 187c63 0 113 -22 146 -50l-44 -58c-29 22 -59 34 -99 34c-65 0 -112 -33 -129 -115l-106 -532h-92z" />
    <glyph glyph-name="tcaron" unicode="&#x165;" 
d="M308 -12c-107 0 -153 57 -153 142c0 21 3 40 8 64l45 221h-138l13 69l144 5l44 155h76l-32 -155h232l-15 -74h-233l-46 -222c-4 -18 -5 -30 -5 -43c0 -59 33 -85 85 -85c46 0 89 15 122 35l29 -66c-42 -27 -106 -46 -176 -46zM426 548l49 270h86l-19 -86l-56 -184h-60z
" />
    <glyph glyph-name="uni0163" unicode="&#x163;" 
d="M169 -230l-1 45c79 3 114 20 117 51c1 24 -17 37 -69 43l54 82c-80 12 -115 65 -115 139c0 21 3 40 8 64l45 221h-138l13 69l144 5l44 155h76l-32 -155h232l-15 -74h-233l-46 -222c-4 -18 -5 -30 -5 -43c0 -59 33 -85 85 -85c46 0 89 15 122 35l29 -66
c-37 -24 -92 -42 -153 -45l-33 -53c48 -12 64 -31 61 -66c-7 -64 -78 -97 -190 -100z" />
    <glyph glyph-name="uni021B" unicode="&#x21b;" 
d="M308 -12c-107 0 -153 57 -153 142c0 21 3 40 8 64l45 221h-138l13 69l144 5l44 155h76l-32 -155h232l-15 -74h-233l-46 -222c-4 -18 -5 -30 -5 -43c0 -59 33 -85 85 -85c46 0 89 15 122 35l29 -66c-42 -27 -106 -46 -176 -46zM177 -230v45c80 3 115 22 115 50
c0 21 -17 35 -61 37l26 42c91 -7 111 -31 111 -68c0 -69 -80 -103 -191 -106z" />
    <glyph glyph-name="uni1E6D" unicode="&#x1e6d;" 
d="M308 -12c-107 0 -153 57 -153 142c0 21 3 40 8 64l45 221h-138l13 69l144 5l44 155h76l-32 -155h232l-15 -74h-233l-46 -222c-4 -18 -5 -30 -5 -43c0 -59 33 -85 85 -85c46 0 89 15 122 35l29 -66c-42 -27 -106 -46 -176 -46zM272 -240c-36 0 -65 21 -65 60
c0 41 35 76 77 76c39 0 65 -22 65 -60c0 -42 -35 -76 -77 -76z" />
    <glyph glyph-name="uni1E6F" unicode="&#x1e6f;" 
d="M308 -12c-107 0 -153 57 -153 142c0 21 3 40 8 64l45 221h-138l13 69l144 5l44 155h76l-32 -155h232l-15 -74h-233l-46 -222c-4 -18 -5 -30 -5 -43c0 -59 33 -85 85 -85c46 0 89 15 122 35l29 -66c-42 -27 -106 -46 -176 -46zM143 -188l12 62h262l-11 -62h-263z" />
    <glyph glyph-name="uni1E97" unicode="&#x1e97;" 
d="M308 -12c-107 0 -153 57 -153 142c0 21 3 40 8 64l45 221h-138l13 69l144 5l44 155h76l-32 -155h232l-15 -74h-233l-46 -222c-4 -18 -5 -30 -5 -43c0 -59 33 -85 85 -85c46 0 89 15 122 35l29 -66c-42 -27 -106 -46 -176 -46zM226 712c-27 0 -47 17 -47 48
c0 34 27 64 61 64c28 0 48 -19 48 -49c0 -36 -27 -63 -62 -63zM419 712c-28 0 -48 17 -48 48c0 34 27 64 62 64c27 0 47 -19 47 -49c0 -36 -27 -63 -61 -63z" />
    <glyph glyph-name="tbar" unicode="&#x167;" 
d="M36 223l13 58l133 5l26 129h-138l13 69l144 5l44 155h76l-32 -155h232l-15 -74h-233l-27 -129h224l-13 -63h-224l-6 -30c-4 -18 -5 -30 -5 -43c0 -59 33 -85 85 -85c46 0 89 15 122 35l29 -66c-42 -27 -106 -46 -176 -46c-107 0 -153 57 -153 142c0 21 3 40 8 64l6 29
h-133z" />
    <glyph glyph-name="ugrave" unicode="&#xf9;" 
d="M178 -12c-86 0 -126 47 -126 123c0 27 3 52 9 78l60 300h92l-58 -289c-5 -24 -9 -44 -9 -64c0 -44 25 -69 70 -69c60 0 121 41 182 110l62 312h93l-97 -489h-76l11 95h-4c-56 -55 -127 -107 -209 -107zM385 570l-137 166l79 59l116 -181z" />
    <glyph glyph-name="uacute" unicode="&#xfa;" 
d="M178 -12c-86 0 -126 47 -126 123c0 27 3 52 9 78l60 300h92l-58 -289c-5 -24 -9 -44 -9 -64c0 -44 25 -69 70 -69c60 0 121 41 182 110l62 312h93l-97 -489h-76l11 95h-4c-56 -55 -127 -107 -209 -107zM327 579l-42 53l172 157l57 -72z" />
    <glyph glyph-name="ucircumflex" unicode="&#xfb;" 
d="M178 -12c-86 0 -126 47 -126 123c0 27 3 52 9 78l60 300h92l-58 -289c-5 -24 -9 -44 -9 -64c0 -44 25 -69 70 -69c60 0 121 41 182 110l62 312h93l-97 -489h-76l11 95h-4c-56 -55 -127 -107 -209 -107zM226 566l-35 40l136 135h100l88 -138l-44 -37l-98 111h-4z" />
    <glyph glyph-name="utilde" unicode="&#x169;" 
d="M178 -12c-86 0 -126 47 -126 123c0 27 3 52 9 78l60 300h92l-58 -289c-5 -24 -9 -44 -9 -64c0 -44 25 -69 70 -69c60 0 121 41 182 110l62 312h93l-97 -489h-76l11 95h-4c-56 -55 -127 -107 -209 -107zM430 576c-68 0 -79 80 -128 80c-27 0 -46 -28 -55 -74l-64 4
c16 85 57 139 125 139s79 -79 128 -79c27 0 46 29 56 74l63 -4c-15 -84 -57 -140 -125 -140z" />
    <glyph glyph-name="udieresis" unicode="&#xfc;" 
d="M178 -12c-86 0 -126 47 -126 123c0 27 3 52 9 78l60 300h92l-58 -289c-5 -24 -9 -44 -9 -64c0 -44 25 -69 70 -69c60 0 121 41 182 110l62 312h93l-97 -489h-76l11 95h-4c-56 -55 -127 -107 -209 -107zM260 585c-27 0 -47 17 -47 48c0 34 27 64 61 64c28 0 48 -19 48 -49
c0 -36 -27 -63 -62 -63zM453 585c-28 0 -48 17 -48 48c0 34 27 64 62 64c27 0 47 -19 47 -49c0 -36 -27 -63 -61 -63z" />
    <glyph glyph-name="umacron" unicode="&#x16b;" 
d="M178 -12c-86 0 -126 47 -126 123c0 27 3 52 9 78l60 300h92l-58 -289c-5 -24 -9 -44 -9 -64c0 -44 25 -69 70 -69c60 0 121 41 182 110l62 312h93l-97 -489h-76l11 95h-4c-56 -55 -127 -107 -209 -107zM224 599l12 62h262l-11 -62h-263z" />
    <glyph glyph-name="ubreve" unicode="&#x16d;" 
d="M178 -12c-86 0 -126 47 -126 123c0 27 3 52 9 78l60 300h92l-58 -289c-5 -24 -9 -44 -9 -64c0 -44 25 -69 70 -69c60 0 121 41 182 110l62 312h93l-97 -489h-76l11 95h-4c-56 -55 -127 -107 -209 -107zM351 571c-107 0 -139 75 -132 153l62 10c-3 -50 21 -98 83 -98
c61 0 99 48 117 98l58 -10c-18 -78 -78 -153 -188 -153z" />
    <glyph glyph-name="uring" unicode="&#x16f;" 
d="M178 -12c-86 0 -126 47 -126 123c0 27 3 52 9 78l60 300h92l-58 -289c-5 -24 -9 -44 -9 -64c0 -44 25 -69 70 -69c60 0 121 41 182 110l62 312h93l-97 -489h-76l11 95h-4c-56 -55 -127 -107 -209 -107zM354 559c-57 0 -100 30 -100 83c0 62 52 112 125 112
c57 0 100 -30 100 -83c0 -62 -52 -112 -125 -112zM360 599c32 0 58 31 58 69c0 26 -16 46 -45 46c-32 0 -58 -31 -58 -69c0 -27 16 -46 45 -46z" />
    <glyph glyph-name="uhungarumlaut" unicode="&#x171;" 
d="M178 -12c-86 0 -126 47 -126 123c0 27 3 52 9 78l60 300h92l-58 -289c-5 -24 -9 -44 -9 -64c0 -44 25 -69 70 -69c60 0 121 41 182 110l62 312h93l-97 -489h-76l11 95h-4c-56 -55 -127 -107 -209 -107zM302 570l-49 30l118 164l62 -38zM460 570l-49 30l118 164l62 -38z
" />
    <glyph glyph-name="uni01D4" unicode="&#x1d4;" 
d="M178 -12c-86 0 -126 47 -126 123c0 27 3 52 9 78l60 300h92l-58 -289c-5 -24 -9 -44 -9 -64c0 -44 25 -69 70 -69c60 0 121 41 182 110l62 312h93l-97 -489h-76l11 95h-4c-56 -55 -127 -107 -209 -107zM305 576l-88 138l44 37l98 -111h4l143 111l35 -40l-136 -135h-100z
" />
    <glyph glyph-name="uogonek" unicode="&#x173;" 
d="M358 -226c-51 0 -93 25 -93 80c0 68 61 118 115 147l11 94h-4c-56 -55 -127 -107 -209 -107c-86 0 -126 47 -126 123c0 27 3 52 9 78l60 300h92l-58 -289c-5 -24 -9 -44 -9 -64c0 -44 25 -69 70 -69c60 0 121 41 182 110l62 312h93l-98 -493c-83 -33 -121 -74 -121 -116
c0 -32 25 -47 56 -47c18 0 32 5 48 15l19 -40c-25 -20 -59 -34 -99 -34z" />
    <glyph glyph-name="uni01D6" unicode="&#x1d6;" 
d="M178 -12c-86 0 -126 47 -126 123c0 27 3 52 9 78l60 300h92l-58 -289c-5 -24 -9 -44 -9 -64c0 -44 25 -69 70 -69c60 0 121 41 182 110l62 312h93l-97 -489h-76l11 95h-4c-56 -55 -127 -107 -209 -107zM260 585c-23 0 -39 16 -39 39c0 32 24 57 52 57c25 0 41 -16 41 -40
c0 -31 -24 -56 -54 -56zM452 585c-24 0 -40 16 -40 39c0 32 24 57 53 57c23 0 39 -16 39 -40c0 -31 -24 -56 -52 -56zM256 750l11 49h261l-10 -49h-262z" />
    <glyph glyph-name="uni01D8" unicode="&#x1d8;" 
d="M178 -12c-86 0 -126 47 -126 123c0 27 3 52 9 78l60 300h92l-58 -289c-5 -24 -9 -44 -9 -64c0 -44 25 -69 70 -69c60 0 121 41 182 110l62 312h93l-97 -489h-76l11 95h-4c-56 -55 -127 -107 -209 -107zM260 585c-23 0 -39 16 -39 39c0 32 24 57 52 57c25 0 41 -16 41 -40
c0 -31 -24 -56 -54 -56zM452 585c-24 0 -40 16 -40 39c0 32 24 57 53 57c23 0 39 -16 39 -40c0 -31 -24 -56 -52 -56zM384 710l-35 31l101 111l49 -43z" />
    <glyph glyph-name="uni01DA" unicode="&#x1da;" 
d="M178 -12c-86 0 -126 47 -126 123c0 27 3 52 9 78l60 300h92l-58 -289c-5 -24 -9 -44 -9 -64c0 -44 25 -69 70 -69c60 0 121 41 182 110l62 312h93l-97 -489h-76l11 95h-4c-56 -55 -127 -107 -209 -107zM260 585c-23 0 -39 16 -39 39c0 32 24 57 52 57c25 0 41 -16 41 -40
c0 -31 -24 -56 -54 -56zM452 585c-24 0 -40 16 -40 39c0 32 24 57 53 57c23 0 39 -16 39 -40c0 -31 -24 -56 -52 -56zM341 724l-83 93l39 33l89 -71h4l117 71l28 -34l-114 -92h-80z" />
    <glyph glyph-name="uni01DC" unicode="&#x1dc;" 
d="M178 -12c-86 0 -126 47 -126 123c0 27 3 52 9 78l60 300h92l-58 -289c-5 -24 -9 -44 -9 -64c0 -44 25 -69 70 -69c60 0 121 41 182 110l62 312h93l-97 -489h-76l11 95h-4c-56 -55 -127 -107 -209 -107zM260 585c-23 0 -39 16 -39 39c0 32 24 57 52 57c25 0 41 -16 41 -40
c0 -31 -24 -56 -54 -56zM452 585c-24 0 -40 16 -40 39c0 32 24 57 53 57c23 0 39 -16 39 -40c0 -31 -24 -56 -52 -56zM376 705l-78 116l60 33l62 -126z" />
    <glyph glyph-name="uni1EE5" unicode="&#x1ee5;" 
d="M178 -12c-86 0 -126 47 -126 123c0 27 3 52 9 78l60 300h92l-58 -289c-5 -24 -9 -44 -9 -64c0 -44 25 -69 70 -69c60 0 121 41 182 110l62 312h93l-97 -489h-76l11 95h-4c-56 -55 -127 -107 -209 -107zM213 -240c-36 0 -65 21 -65 60c0 41 35 76 77 76
c39 0 65 -22 65 -60c0 -42 -35 -76 -77 -76z" />
    <glyph glyph-name="uni1EE7" unicode="&#x1ee7;" 
d="M178 -12c-86 0 -126 47 -126 123c0 27 3 52 9 78l60 300h92l-58 -289c-5 -24 -9 -44 -9 -64c0 -44 25 -69 70 -69c60 0 121 41 182 110l62 312h93l-97 -489h-76l11 95h-4c-56 -55 -127 -107 -209 -107zM314 571l-2 45c32 7 57 19 61 44c6 27 -18 42 -73 45l18 64
c101 -3 144 -40 134 -101c-12 -61 -75 -88 -138 -97z" />
    <glyph glyph-name="uhorn" unicode="&#x1b0;" 
d="M178 -12c-86 0 -126 47 -126 123c0 27 3 52 9 78l60 300h92l-58 -289c-5 -24 -9 -44 -9 -64c0 -44 25 -69 70 -69c60 0 121 41 182 110l62 312h38c47 5 88 48 88 107c0 15 -3 31 -8 48l72 25c8 -26 11 -45 11 -68c0 -81 -56 -131 -115 -149l-90 -452h-76l11 95h-4
c-56 -55 -127 -107 -209 -107z" />
    <glyph glyph-name="uni1EE9" unicode="&#x1ee9;" 
d="M178 -12c-86 0 -126 47 -126 123c0 27 3 52 9 78l60 300h92l-58 -289c-5 -24 -9 -44 -9 -64c0 -44 25 -69 70 -69c60 0 121 41 182 110l62 312h38c47 5 88 48 88 107c0 15 -3 31 -8 48l72 25c8 -26 11 -45 11 -68c0 -81 -56 -131 -115 -149l-90 -452h-76l11 95h-4
c-56 -55 -127 -107 -209 -107zM327 579l-42 53l172 157l57 -72z" />
    <glyph glyph-name="uni1EEB" unicode="&#x1eeb;" 
d="M178 -12c-86 0 -126 47 -126 123c0 27 3 52 9 78l60 300h92l-58 -289c-5 -24 -9 -44 -9 -64c0 -44 25 -69 70 -69c60 0 121 41 182 110l62 312h38c47 5 88 48 88 107c0 15 -3 31 -8 48l72 25c8 -26 11 -45 11 -68c0 -81 -56 -131 -115 -149l-90 -452h-76l11 95h-4
c-56 -55 -127 -107 -209 -107zM385 570l-137 166l79 59l116 -181z" />
    <glyph glyph-name="uni1EED" unicode="&#x1eed;" 
d="M178 -12c-86 0 -126 47 -126 123c0 27 3 52 9 78l60 300h92l-58 -289c-5 -24 -9 -44 -9 -64c0 -44 25 -69 70 -69c60 0 121 41 182 110l62 312h38c47 5 88 48 88 107c0 15 -3 31 -8 48l72 25c8 -26 11 -45 11 -68c0 -81 -56 -131 -115 -149l-90 -452h-76l11 95h-4
c-56 -55 -127 -107 -209 -107zM314 571l-2 45c32 7 57 19 61 44c6 27 -18 42 -73 45l18 64c101 -3 144 -40 134 -101c-12 -61 -75 -88 -138 -97z" />
    <glyph glyph-name="uni1EEF" unicode="&#x1eef;" 
d="M178 -12c-86 0 -126 47 -126 123c0 27 3 52 9 78l60 300h92l-58 -289c-5 -24 -9 -44 -9 -64c0 -44 25 -69 70 -69c60 0 121 41 182 110l62 312h38c47 5 88 48 88 107c0 15 -3 31 -8 48l72 25c8 -26 11 -45 11 -68c0 -81 -56 -131 -115 -149l-90 -452h-76l11 95h-4
c-56 -55 -127 -107 -209 -107zM420 576c-68 0 -79 80 -128 80c-27 0 -46 -28 -55 -74l-64 4c16 85 57 139 125 139s79 -79 128 -79c27 0 46 29 56 74l63 -4c-15 -84 -57 -140 -125 -140z" />
    <glyph glyph-name="uni1EF1" unicode="&#x1ef1;" 
d="M178 -12c-86 0 -126 47 -126 123c0 27 3 52 9 78l60 300h92l-58 -289c-5 -24 -9 -44 -9 -64c0 -44 25 -69 70 -69c60 0 121 41 182 110l62 312h38c47 5 88 48 88 107c0 15 -3 31 -8 48l72 25c8 -26 11 -45 11 -68c0 -81 -56 -131 -115 -149l-90 -452h-76l11 95h-4
c-56 -55 -127 -107 -209 -107zM213 -240c-36 0 -65 21 -65 60c0 41 35 76 77 76c39 0 65 -22 65 -60c0 -42 -35 -76 -77 -76z" />
    <glyph glyph-name="uni1E7F" unicode="&#x1e7f;" 
d="M188 0l-105 489h91l54 -273c10 -48 17 -98 25 -145h4c23 46 51 96 80 146l157 272h93l-291 -489h-108zM205 -240c-36 0 -65 21 -65 60c0 41 35 76 77 76c39 0 65 -22 65 -60c0 -42 -35 -76 -77 -76z" />
    <glyph glyph-name="wgrave" unicode="&#x1e81;" 
d="M51 0l-5 489h91l-3 -275c-1 -47 -3 -90 -4 -137h4c16 47 31 91 51 137l101 240h84l8 -240c1 -47 0 -90 -1 -137h4c18 47 31 89 49 137l105 275h88l-197 -489h-112l-3 232c-1 46 1 84 2 135h-4c-17 -53 -27 -85 -47 -135l-95 -232h-116zM379 571l-137 166l79 59l116 -181z
" />
    <glyph glyph-name="wacute" unicode="&#x1e83;" 
d="M51 0l-5 489h91l-3 -275c-1 -47 -3 -90 -4 -137h4c16 47 31 91 51 137l101 240h84l8 -240c1 -47 0 -90 -1 -137h4c18 47 31 89 49 137l105 275h88l-197 -489h-112l-3 232c-1 46 1 84 2 135h-4c-17 -53 -27 -85 -47 -135l-95 -232h-116zM321 580l-42 53l172 157l57 -72z
" />
    <glyph glyph-name="wcircumflex" unicode="&#x175;" 
d="M51 0l-5 489h91l-3 -275c-1 -47 -3 -90 -4 -137h4c16 47 31 91 51 137l101 240h84l8 -240c1 -47 0 -90 -1 -137h4c18 47 31 89 49 137l105 275h88l-197 -489h-112l-3 232c-1 46 1 84 2 135h-4c-17 -53 -27 -85 -47 -135l-95 -232h-116zM220 567l-35 40l136 135h100
l88 -138l-44 -37l-98 111h-4z" />
    <glyph glyph-name="wdieresis" unicode="&#x1e85;" 
d="M51 0l-5 489h91l-3 -275c-1 -47 -3 -90 -4 -137h4c16 47 31 91 51 137l101 240h84l8 -240c1 -47 0 -90 -1 -137h4c18 47 31 89 49 137l105 275h88l-197 -489h-112l-3 232c-1 46 1 84 2 135h-4c-17 -53 -27 -85 -47 -135l-95 -232h-116zM254 586c-27 0 -47 17 -47 48
c0 34 27 64 61 64c28 0 48 -19 48 -49c0 -36 -27 -63 -62 -63zM447 586c-28 0 -48 17 -48 48c0 34 27 64 62 64c27 0 47 -19 47 -49c0 -36 -27 -63 -61 -63z" />
    <glyph glyph-name="ygrave" unicode="&#x1ef3;" 
d="M36 -205c-32 0 -61 7 -81 19l28 65c16 -8 38 -14 59 -14c58 0 91 25 132 91l27 43l-118 490h89l57 -258c9 -44 21 -107 28 -150h4c22 43 56 106 81 150l151 258h95l-322 -531c-66 -112 -127 -163 -230 -163zM379 570l-137 166l79 59l116 -181z" />
    <glyph glyph-name="yacute" unicode="&#xfd;" 
d="M36 -205c-32 0 -61 7 -81 19l28 65c16 -8 38 -14 59 -14c58 0 91 25 132 91l27 43l-118 490h89l57 -258c9 -44 21 -107 28 -150h4c22 43 56 106 81 150l151 258h95l-322 -531c-66 -112 -127 -163 -230 -163zM321 579l-42 53l172 157l57 -72z" />
    <glyph glyph-name="ycircumflex" unicode="&#x177;" 
d="M36 -205c-32 0 -61 7 -81 19l28 65c16 -8 38 -14 59 -14c58 0 91 25 132 91l27 43l-118 490h89l57 -258c9 -44 21 -107 28 -150h4c22 43 56 106 81 150l151 258h95l-322 -531c-66 -112 -127 -163 -230 -163zM220 566l-35 40l136 135h100l88 -138l-44 -37l-98 111h-4z" />
    <glyph glyph-name="ydieresis" unicode="&#xff;" 
d="M36 -205c-32 0 -61 7 -81 19l28 65c16 -8 38 -14 59 -14c58 0 91 25 132 91l27 43l-118 490h89l57 -258c9 -44 21 -107 28 -150h4c22 43 56 106 81 150l151 258h95l-322 -531c-66 -112 -127 -163 -230 -163zM254 585c-27 0 -47 17 -47 48c0 34 27 64 61 64
c28 0 48 -19 48 -49c0 -36 -27 -63 -62 -63zM447 585c-28 0 -48 17 -48 48c0 34 27 64 62 64c27 0 47 -19 47 -49c0 -36 -27 -63 -61 -63z" />
    <glyph glyph-name="uni1E8F" unicode="&#x1e8f;" 
d="M36 -205c-32 0 -61 7 -81 19l28 65c16 -8 38 -14 59 -14c58 0 91 25 132 91l27 43l-118 490h89l57 -258c9 -44 21 -107 28 -150h4c22 43 56 106 81 150l151 258h95l-322 -531c-66 -112 -127 -163 -230 -163zM353 585c-36 0 -65 21 -65 60c0 41 35 76 77 76
c39 0 65 -22 65 -60c0 -42 -35 -76 -77 -76z" />
    <glyph glyph-name="uni1EF5" unicode="&#x1ef5;" 
d="M36 -205c-32 0 -61 7 -81 19l28 65c16 -8 38 -14 59 -14c58 0 91 25 132 91l27 43l-118 490h89l57 -258c9 -44 21 -107 28 -150h4c22 43 56 106 81 150l151 258h95l-322 -531c-66 -112 -127 -163 -230 -163zM377 -235c-36 0 -65 21 -65 60c0 41 35 76 77 76
c39 0 65 -22 65 -60c0 -42 -35 -76 -77 -76z" />
    <glyph glyph-name="uni1EF7" unicode="&#x1ef7;" 
d="M36 -205c-32 0 -61 7 -81 19l28 65c16 -8 38 -14 59 -14c58 0 91 25 132 91l27 43l-118 490h89l57 -258c9 -44 21 -107 28 -150h4c22 43 56 106 81 150l151 258h95l-322 -531c-66 -112 -127 -163 -230 -163zM308 571l-2 45c32 7 57 19 61 44c6 27 -18 42 -73 45l18 64
c101 -3 144 -40 134 -101c-12 -61 -75 -88 -138 -97z" />
    <glyph glyph-name="uni1EF9" unicode="&#x1ef9;" 
d="M36 -205c-32 0 -61 7 -81 19l28 65c16 -8 38 -14 59 -14c58 0 91 25 132 91l27 43l-118 490h89l57 -258c9 -44 21 -107 28 -150h4c22 43 56 106 81 150l151 258h95l-322 -531c-66 -112 -127 -163 -230 -163zM424 576c-68 0 -79 80 -128 80c-27 0 -46 -28 -55 -74l-64 4
c16 85 57 139 125 139s79 -79 128 -79c27 0 46 29 56 74l63 -4c-15 -84 -57 -140 -125 -140z" />
    <glyph glyph-name="zacute" unicode="&#x17a;" 
d="M31 0l10 55l364 361h-296l16 73h415l-9 -55l-363 -360h312l-15 -74h-434zM326 579l-42 53l172 157l57 -72z" />
    <glyph glyph-name="zcaron" unicode="&#x17e;" 
d="M31 0l10 55l364 361h-296l16 73h415l-9 -55l-363 -360h312l-15 -74h-434zM304 576l-88 138l44 37l98 -111h4l143 111l35 -40l-136 -135h-100z" />
    <glyph glyph-name="zdotaccent" unicode="&#x17c;" 
d="M31 0l10 55l364 361h-296l16 73h415l-9 -55l-363 -360h312l-15 -74h-434zM358 585c-36 0 -65 21 -65 60c0 41 35 76 77 76c39 0 65 -22 65 -60c0 -42 -35 -76 -77 -76z" />
    <glyph glyph-name="uni1E91" unicode="&#x1e91;" 
d="M31 0l10 55l364 361h-296l16 73h415l-9 -55l-363 -360h312l-15 -74h-434zM225 566l-35 40l136 135h100l88 -138l-44 -37l-98 111h-4z" />
    <glyph glyph-name="uni1E93" unicode="&#x1e93;" 
d="M31 0l10 55l364 361h-296l16 73h415l-9 -55l-363 -360h312l-15 -74h-434zM225 -240c-36 0 -65 21 -65 60c0 41 35 76 77 76c39 0 65 -22 65 -60c0 -42 -35 -76 -77 -76z" />
    <glyph glyph-name="uni1E95" unicode="&#x1e95;" 
d="M31 0l10 55l364 361h-296l16 73h415l-9 -55l-363 -360h312l-15 -74h-434zM96 -188l12 62h262l-11 -62h-263z" />
    <glyph glyph-name="eth" unicode="&#xf0;" 
d="M240 -12c-114 0 -204 71 -204 199c0 157 119 261 263 261c70 0 122 -30 153 -68c-7 76 -32 136 -72 185l-148 -69l-26 54l130 61c-28 23 -59 43 -94 61l41 66c50 -23 95 -53 133 -90l148 69l26 -54l-132 -61c53 -70 85 -157 85 -263c0 -218 -120 -351 -303 -351zM250 64
c117 0 192 96 202 243c-35 50 -85 71 -139 71c-119 0 -188 -90 -188 -184c0 -81 50 -130 125 -130z" />
    <glyph glyph-name="thorn" unicode="&#xfe;" 
d="M-9 -200l182 909h92l-37 -182l-27 -107h3c47 45 111 81 171 81c103 0 166 -69 166 -193c0 -178 -107 -320 -267 -320c-59 0 -112 27 -142 67h-3l-17 -102l-29 -153h-92zM267 65c102 0 179 103 179 230c0 87 -41 129 -103 129c-46 0 -104 -32 -152 -90l-42 -206
c30 -46 74 -63 118 -63z" />
    <glyph glyph-name="eng" unicode="&#x14b;" 
d="M305 -184c-32 0 -56 7 -81 20l30 68c13 -8 25 -13 45 -13c38 0 56 27 69 87l62 311c5 24 9 44 9 64c0 44 -25 68 -70 68c-60 0 -123 -40 -184 -110l-62 -311h-92l97 489h75l-11 -96h4c56 56 129 108 212 108c85 0 126 -47 126 -123c0 -27 -4 -52 -9 -78l-66 -325
c-20 -95 -62 -159 -154 -159z" />
    <glyph glyph-name="uni0237" unicode="&#x237;" 
d="M126 -212c-64 0 -115 23 -146 45l39 66c29 -21 62 -36 105 -36c81 0 121 48 139 136l83 416h-219l16 74h310l-99 -493c-27 -134 -93 -208 -228 -208z" />
    <glyph glyph-name="ij" unicode="&#x133;" 
d="M54 0l98 489h92l-97 -489h-93zM225 583c-34 0 -65 21 -65 59c0 42 35 76 76 76c38 0 66 -22 66 -61c0 -43 -36 -74 -77 -74zM251 -212c-31 0 -55 7 -80 20l30 68c13 -8 24 -13 45 -13c36 0 55 31 68 88l108 538h92l-108 -538c-20 -95 -63 -163 -155 -163zM494 583
c-34 0 -65 21 -65 59c0 42 35 76 76 76c38 0 66 -22 66 -61c0 -43 -36 -74 -77 -74z" />
    <glyph glyph-name="uni006C00B7006C" 
d="M151 -12c-76 0 -131 47 -131 132c0 21 2 39 7 60l98 455h-128l17 74h212l-113 -535c-3 -14 -5 -28 -5 -43c0 -46 24 -67 60 -67c23 0 45 6 69 20l21 -69c-36 -19 -68 -27 -107 -27zM250 284c-39 0 -63 29 -62 68c2 48 41 91 89 91c40 0 63 -30 62 -69
c-2 -48 -40 -90 -89 -90zM460 -12c-76 0 -131 47 -131 132c0 21 2 39 7 60l98 455h-127l15 74h212l-112 -535c-3 -14 -5 -28 -5 -43c0 -46 24 -67 60 -67c23 0 45 6 68 20l22 -69c-36 -19 -69 -27 -107 -27z" />
    <glyph glyph-name="uni01330301" 
d="M54 0l98 489h92l-97 -489h-93zM251 -212c-31 0 -55 7 -80 20l30 68c13 -8 24 -13 45 -13c36 0 55 31 68 88l108 538h92l-108 -538c-20 -95 -63 -163 -155 -163zM188 579l-42 53l172 157l57 -72zM457 579l-42 53l172 157l57 -72z" />
    <glyph glyph-name="uni0250" unicode="&#x250;" 
d="M397 501c78 0 137 -42 137 -115c0 -126 -110 -190 -377 -204c-4 -16 -6 -30 -6 -40c0 -50 26 -80 95 -80c68 0 131 26 188 56l30 -65c-62 -33 -146 -65 -240 -65c-104 0 -164 51 -164 145c0 18 2 35 6 57l58 299h76l-8 -77h3c54 52 127 89 202 89zM365 428
c-56 0 -123 -31 -179 -86l-19 -104c206 14 276 59 276 129c0 43 -32 61 -78 61z" />
    <glyph glyph-name="uni0252" unicode="&#x252;" 
d="M274 -12c-61 0 -118 29 -147 71h-3l-19 -59h-74l98 489h75l-7 -74h3c50 48 113 86 176 86c100 0 165 -69 165 -193c0 -178 -118 -320 -267 -320zM261 65c105 0 185 103 185 230c0 87 -39 129 -101 129c-46 0 -107 -32 -155 -87l-42 -209c30 -46 73 -63 113 -63z" />
    <glyph glyph-name="uni0253" unicode="&#x253;" 
d="M274 -12c-61 0 -116 29 -145 71h-3l-19 -59h-76l105 523c24 124 92 198 217 198c40 0 74 -10 99 -24l-33 -72c-20 12 -43 18 -67 18c-63 0 -102 -29 -124 -119l-28 -113h3c47 45 110 80 170 80c104 0 168 -67 168 -188c0 -176 -119 -315 -267 -315zM264 65
c102 0 181 101 181 225c0 84 -41 124 -104 124c-46 0 -105 -32 -153 -90l-39 -196c30 -46 71 -63 115 -63z" />
    <glyph glyph-name="uni0254" unicode="&#x254;" 
d="M210 -12c-84 0 -147 39 -184 85l56 53c34 -39 76 -61 136 -61c111 0 204 89 204 217c0 91 -59 142 -141 142c-60 0 -104 -26 -147 -61l-35 63c47 41 111 75 196 75c123 0 221 -73 221 -210c0 -185 -136 -303 -306 -303z" />
    <glyph glyph-name="uni0255" unicode="&#x255;" 
d="M319 61c66 0 108 30 108 64c0 18 -14 34 -51 34c-46 0 -97 -27 -147 -77c26 -14 57 -21 90 -21zM102 -99l-70 33c27 48 56 91 86 128c-33 35 -53 83 -53 141c0 178 141 298 296 298c86 0 150 -42 185 -88l-56 -49c-35 42 -80 64 -138 64c-96 0 -198 -96 -198 -215
c0 -35 9 -64 24 -86c70 65 143 100 211 100c75 0 113 -36 113 -89c0 -84 -72 -150 -196 -150c-47 0 -92 11 -131 31c-25 -34 -50 -73 -73 -118z" />
    <glyph glyph-name="uni0256" unicode="&#x256;" 
d="M445 -184c-64 0 -91 31 -91 90c0 41 15 100 29 160h-4c-48 -47 -108 -78 -166 -78c-100 0 -165 66 -165 188c0 176 120 325 267 325c68 0 115 -27 142 -68h3l15 95l36 182h93l-151 -743c-3 -16 -5 -27 -5 -37c0 -25 12 -37 36 -37c12 0 24 4 33 7l-2 -71
c-14 -6 -39 -13 -70 -13zM244 65c48 0 106 30 155 90l42 204c-29 46 -72 65 -113 65c-103 0 -185 -110 -185 -235c0 -85 39 -124 101 -124z" />
    <glyph glyph-name="uni0257" unicode="&#x257;" 
d="M213 -12c-100 0 -165 66 -165 188c0 176 120 325 267 325c68 0 115 -27 142 -68h3l26 145c18 88 66 143 158 143c25 0 44 -4 58 -11l-33 -74c-10 4 -18 6 -28 6c-39 0 -57 -30 -68 -84l-113 -557h-75l6 72h-4c-50 -51 -113 -85 -174 -85zM244 65c48 0 106 30 155 90
l42 204c-29 46 -72 65 -113 65c-103 0 -185 -110 -185 -235c0 -85 39 -124 101 -124z" />
    <glyph glyph-name="uni0258" unicode="&#x258;" 
d="M317 428c-78 0 -148 -61 -162 -140h283v1c0 96 -51 139 -121 139zM239 -12c-77 0 -146 30 -183 71l49 57c36 -34 79 -56 140 -56c88 0 162 58 186 160h-358c-2 11 -3 22 -3 39c0 105 90 242 261 242c116 0 200 -74 200 -208c0 -192 -125 -305 -292 -305z" />
    <glyph glyph-name="uni0251" unicode="&#x251;" 
d="M213 -12c-100 0 -165 66 -165 188c0 176 120 325 267 325c68 0 119 -28 145 -72h4l20 60h74l-98 -489h-75l6 72h-4c-50 -51 -113 -84 -174 -84zM244 65c48 0 106 30 155 89l43 204c-30 47 -73 66 -114 66c-103 0 -185 -110 -185 -235c0 -86 39 -124 101 -124z" />
    <glyph glyph-name="uni0299" unicode="&#x299;" 
d="M58 0l97 489h207c89 0 157 -27 157 -99c0 -68 -41 -113 -102 -130l-1 -4c45 -12 79 -37 79 -89c0 -96 -73 -167 -219 -167h-218zM164 68h115c88 0 125 41 125 93c0 38 -33 63 -98 63h-111zM206 285h103c84 0 117 38 117 83c0 33 -27 53 -87 53h-105z" />
    <glyph glyph-name="uni0259" unicode="&#x259;" 
d="M247 -12c-120 0 -196 71 -196 189c0 42 10 84 15 99h374v13c0 94 -47 139 -128 139c-62 0 -109 -21 -157 -52l-33 63c53 36 125 62 209 62c124 0 202 -70 202 -210c0 -180 -125 -303 -286 -303zM251 60c82 0 153 55 179 149h-291c-2 -11 -3 -23 -3 -33
c0 -77 47 -116 115 -116z" />
    <glyph glyph-name="uni025A" unicode="&#x25a;" 
d="M160 -12c-133 0 -182 100 -168 214l333 130c-9 62 -48 91 -107 91c-46 0 -85 -15 -126 -39l-19 67c52 32 110 50 172 50c92 0 153 -49 170 -134l88 35l46 -20c-10 -75 2 -92 30 -92c15 0 30 7 41 14l14 -50c-19 -12 -43 -25 -72 -25c-40 0 -80 21 -80 96l-62 -24
c-1 -20 -4 -40 -8 -62c-27 -138 -129 -251 -252 -251zM172 65c71 0 130 73 148 166c2 12 4 23 5 33l-253 -98c0 -64 39 -101 100 -101z" />
    <glyph glyph-name="uni025B" unicode="&#x25b;" 
d="M255 -12c-111 0 -204 53 -204 136c0 81 65 123 144 135l1 4c-54 20 -77 53 -77 95c0 89 99 143 221 143c83 0 154 -28 203 -73l-50 -62c-47 40 -92 62 -159 62c-76 0 -119 -35 -119 -77s31 -63 107 -63h74l-14 -68h-87c-97 0 -148 -23 -148 -78c0 -47 55 -82 131 -82
c60 0 108 13 172 52l27 -65c-80 -50 -139 -59 -222 -59z" />
    <glyph glyph-name="uni025C" unicode="&#x25c;" 
d="M259 -12c-84 0 -159 23 -218 73l50 64c51 -41 106 -63 173 -63c82 0 133 40 133 89c0 44 -40 69 -124 69h-78l13 68h79c80 0 132 28 132 74c0 45 -47 66 -114 66c-43 0 -102 -17 -157 -46l-28 64c69 40 139 55 206 55c102 0 187 -41 187 -120c0 -65 -47 -103 -108 -119
l-1 -4c52 -16 89 -58 89 -108c0 -97 -100 -162 -234 -162z" />
    <glyph glyph-name="uni025E" unicode="&#x25e;" 
d="M272 -12c-138 0 -229 87 -229 215c0 172 134 298 298 298c99 0 184 -41 184 -120c0 -65 -46 -104 -107 -120l-1 -4c53 -16 87 -57 87 -107c0 -97 -99 -162 -232 -162zM283 62c80 0 126 42 126 89c0 44 -41 69 -124 69h-20l13 68h19c81 0 133 27 133 73
c0 43 -40 67 -93 67c-113 0 -200 -99 -200 -220c0 -89 60 -146 146 -146z" />
    <glyph glyph-name="uni025F" unicode="&#x25f;" 
d="M126 -212c-64 0 -115 23 -146 45l39 66c29 -21 62 -36 105 -36c81 0 121 48 139 136l42 208h-189l11 57l190 6l29 145h-219l16 74h310l-44 -219h147l-13 -63h-147l-42 -211c-27 -134 -93 -208 -228 -208z" />
    <glyph glyph-name="uni0260" unicode="&#x260;" 
d="M202 -212c-82 0 -144 26 -190 62l43 65c38 -33 94 -52 147 -52c80 0 147 33 168 122l22 96h-4c-45 -43 -107 -74 -168 -74c-103 0 -169 67 -169 183c0 173 121 313 264 313c68 0 115 -27 142 -68h3l9 59c18 88 66 143 158 143c25 0 44 -4 57 -11l-32 -74
c-10 4 -18 6 -28 6c-39 0 -57 -30 -69 -84l-98 -490c-28 -142 -132 -196 -255 -196zM250 83c49 0 103 29 150 80l41 194c-31 47 -70 67 -114 67c-95 0 -181 -99 -181 -220c0 -82 39 -121 104 -121z" />
    <glyph glyph-name="uni0261" unicode="&#x261;" 
d="M202 -212c-82 0 -144 26 -190 62l43 65c38 -33 94 -52 147 -52c80 0 147 33 168 122l22 96h-4c-45 -43 -107 -74 -168 -74c-103 0 -169 67 -169 183c0 172 121 311 264 311c68 0 119 -28 145 -72h4l21 60h73l-101 -505c-28 -141 -132 -196 -255 -196zM250 83
c49 0 103 29 150 80l41 194c-31 47 -70 67 -114 67c-95 0 -181 -99 -181 -220c0 -82 39 -121 104 -121z" />
    <glyph glyph-name="uni0262" unicode="&#x262;" 
d="M281 -12c-113 0 -222 75 -222 210c0 167 120 303 303 303c85 0 142 -36 179 -78l-55 -57c-29 34 -74 62 -132 62c-115 0 -202 -99 -202 -221c0 -101 66 -146 142 -146c40 0 81 10 106 28l22 117h-116l12 62h199l-43 -222c-44 -34 -111 -58 -193 -58z" />
    <glyph glyph-name="uni0263" unicode="&#x263;" 
d="M200 -220c-62 0 -98 35 -98 92c0 56 31 110 90 189l-109 428h92l54 -244c10 -42 19 -85 31 -134h4c31 50 56 92 81 134l149 244h93l-271 -429c17 -50 28 -89 28 -126c0 -89 -56 -154 -144 -154zM212 -156c31 0 51 31 51 75c0 35 -6 66 -16 98h-5
c-36 -54 -62 -107 -62 -136c0 -24 13 -37 32 -37z" />
    <glyph glyph-name="uni0264" unicode="&#x264;" 
d="M238 -12c-91 0 -145 48 -145 130c0 88 65 168 154 243c-26 41 -57 64 -91 64c-17 0 -34 -5 -48 -14l-15 67c23 15 60 23 91 23c52 0 102 -32 137 -86c57 54 118 86 171 86c32 0 66 -9 84 -24l-44 -67c-10 9 -25 15 -43 15c-35 0 -71 -25 -113 -66c41 -51 72 -109 72 -168
c0 -111 -81 -203 -210 -203zM251 65c68 0 108 55 108 118c0 46 -24 92 -56 130c-67 -52 -121 -117 -121 -179c0 -39 23 -69 69 -69z" />
    <glyph glyph-name="uni0265" unicode="&#x265;" 
d="M324 -200l47 227l17 66h-4c-57 -57 -126 -105 -207 -105c-85 0 -125 47 -125 123c0 27 3 52 9 78l60 300h92l-58 -289c-5 -24 -9 -44 -9 -64c0 -45 25 -69 70 -69c60 0 123 41 184 110l62 312h92l-138 -689h-92z" />
    <glyph glyph-name="uni0266" unicode="&#x266;" 
d="M31 0l105 523c25 124 92 198 217 198c40 0 74 -10 99 -24l-33 -72c-20 12 -43 18 -67 18c-63 0 -104 -31 -124 -119l-33 -139h4c57 58 126 106 207 106c85 0 126 -47 126 -123c0 -27 -4 -52 -9 -78l-58 -290h-93l56 279c6 24 9 44 9 64c0 45 -25 69 -70 69
c-59 0 -123 -41 -184 -110l-60 -302h-92z" />
    <glyph glyph-name="uni0267" unicode="&#x267;" 
d="M305 -184c-32 0 -56 7 -81 20l30 68c13 -8 25 -13 45 -13c38 0 57 27 69 87l60 301c5 24 9 44 9 64c0 45 -25 69 -70 69c-59 0 -123 -41 -184 -110l-60 -302h-92l105 523c25 124 92 198 217 198c40 0 74 -10 99 -24l-33 -72c-20 12 -43 18 -67 18
c-63 0 -104 -31 -124 -119l-33 -139h4c57 58 126 106 207 106c85 0 126 -47 126 -123c0 -27 -4 -52 -9 -78l-64 -315c-19 -95 -62 -159 -154 -159z" />
    <glyph glyph-name="uni029C" unicode="&#x29c;" 
d="M31 0l97 489h92l-38 -196h233l38 196h92l-97 -489h-92l43 212h-234l-42 -212h-92z" />
    <glyph glyph-name="uni0268" unicode="&#x268;" 
d="M79 223l11 58l152 4l30 130h-174l15 74h266l-46 -204h153l-13 -62h-154l-13 -60c-2 -11 -4 -21 -4 -30c0 -49 29 -68 71 -68c29 0 55 9 89 24l21 -70c-42 -19 -82 -31 -137 -31c-82 0 -138 45 -138 127c0 17 3 35 8 55l12 53h-149zM343 585c-36 0 -65 21 -65 60
c0 41 35 76 77 76c39 0 65 -22 65 -60c0 -42 -35 -76 -77 -76z" />
    <glyph glyph-name="uni026A" unicode="&#x26a;" 
d="M36 0l16 78h154l66 332h-154l15 79h407l-15 -79h-157l-66 -332h156l-16 -78h-406z" />
    <glyph glyph-name="uni029D" unicode="&#x29d;" 
d="M326 -245c-11 37 -24 70 -41 97c-37 -40 -87 -64 -148 -64c-84 0 -135 45 -135 103c0 74 54 126 146 126c37 0 76 -10 113 -31l85 429h-219l16 74h310l-100 -495c-5 -24 -11 -46 -20 -67c31 -35 57 -81 73 -136zM140 -137c44 0 74 20 94 51c-28 23 -60 35 -92 35
c-44 0 -65 -23 -65 -47c0 -23 20 -39 63 -39zM417 585c-36 0 -65 21 -65 60c0 41 35 76 77 76c39 0 65 -22 65 -60c0 -42 -35 -76 -77 -76z" />
    <glyph glyph-name="uni029E" unicode="&#x29e;" 
d="M308 -200l89 445h-4l-294 -245h-110l228 197l-150 292h96l119 -237l139 111l25 126h92l-138 -689h-92z" />
    <glyph glyph-name="uni026B" unicode="&#x26b;" 
d="M325 -12c-79 0 -135 48 -135 136c0 17 2 35 7 56l42 195c-11 6 -22 10 -35 10c-27 0 -46 -28 -55 -74l-64 4c16 84 55 140 120 140c19 0 34 -4 48 -11l41 192h-157l16 73h247l-68 -323c11 -7 22 -11 36 -11c27 0 46 29 55 74l64 -4c-16 -84 -55 -140 -121 -140
c-19 0 -35 5 -49 12l-30 -144c-3 -13 -5 -27 -5 -42c0 -46 28 -66 69 -66c32 0 58 8 93 25l21 -70c-45 -22 -90 -32 -140 -32z" />
    <glyph glyph-name="uni026C" unicode="&#x26c;" 
d="M209 298c-90 0 -134 41 -134 101c0 53 37 90 91 90c41 0 69 -20 86 -52l42 199h-157l16 73h247l-73 -347h139l-15 -64h-138l-26 -125c-3 -13 -5 -27 -5 -42c0 -46 28 -66 69 -66c32 0 58 8 93 25l21 -70c-45 -22 -90 -32 -140 -32c-79 0 -135 48 -135 136c0 17 2 35 7 56
l25 118h-13zM235 362c7 34 -19 69 -63 69c-20 0 -33 -13 -33 -32c0 -22 21 -37 63 -37h33z" />
    <glyph glyph-name="uni026D" unicode="&#x26d;" 
d="M289 -184c-79 0 -135 48 -135 136c0 17 2 35 7 56l133 628h-157l16 73h247l-149 -708c-3 -13 -5 -27 -5 -42c0 -46 28 -66 69 -66c32 0 58 8 93 25l21 -70c-45 -22 -90 -32 -140 -32z" />
    <glyph glyph-name="uni026E" unicode="&#x26e;" 
d="M271 -212c-93 0 -151 39 -185 80l50 54c29 -31 70 -59 139 -59c76 0 151 73 151 174c0 67 -40 98 -105 98c-28 0 -43 -5 -68 -15l-24 50l234 245h-277l-83 -415h-92l142 709h92l-44 -220h387l-9 -54l-226 -239c101 10 166 -53 166 -140c0 -148 -115 -268 -248 -268z" />
    <glyph glyph-name="uni029F" unicode="&#x29f;" 
d="M98 0l97 489h92l-82 -415h292l-16 -74h-383z" />
    <glyph glyph-name="uni026F" unicode="&#x26f;" 
d="M585 489l-97 -489h-69l5 66h-3c-36 -47 -79 -78 -131 -78c-45 0 -70 25 -72 77c-43 -54 -89 -77 -134 -77c-48 0 -77 28 -77 86c0 18 1 31 6 54l73 361h89l-70 -347c-3 -14 -4 -24 -4 -34c0 -29 11 -41 31 -41c32 0 59 25 91 73l71 349h83l-72 -347c-3 -14 -3 -24 -3 -34
c0 -29 12 -41 31 -41c34 0 61 24 95 73l68 349h89z" />
    <glyph glyph-name="uni0270" unicode="&#x270;" 
d="M360 -200l32 155c7 30 16 63 31 111h-3c-38 -48 -80 -78 -132 -78c-43 0 -69 24 -72 76c-42 -53 -87 -76 -134 -76c-46 0 -76 28 -76 86c0 17 2 31 6 54l72 361h89l-70 -347c-2 -15 -2 -24 -3 -34c1 -30 11 -41 30 -41c33 0 60 24 91 73l71 349h83l-71 -347
c-2 -15 -3 -24 -4 -34c1 -30 13 -41 32 -41c34 0 61 24 94 73l68 349h90l-139 -689h-85z" />
    <glyph glyph-name="uni0271" unicode="&#x271;" 
d="M352 -184c-31 0 -54 7 -76 18l29 68c11 -8 21 -11 39 -11c30 0 45 29 58 92l73 364c3 14 4 24 4 34c0 29 -11 41 -31 41c-32 0 -59 -25 -91 -73l-71 -349h-83l72 347c3 14 3 24 3 34c0 29 -12 41 -31 41c-34 0 -61 -24 -95 -73l-68 -349h-89l97 489h69l-5 -66h3
c36 47 79 78 131 78c45 0 70 -25 72 -77c43 54 89 77 134 77c48 0 77 -28 77 -86c0 -18 -1 -31 -6 -54l-77 -381c-20 -103 -55 -164 -138 -164z" />
    <glyph glyph-name="uni0272" unicode="&#x272;" 
d="M-36 -184c-28 0 -48 5 -62 13l33 75c10 -5 20 -8 31 -8c34 0 49 28 59 73l103 520h75l-11 -96h4c56 56 129 108 212 108c85 0 126 -47 126 -123c0 -27 -4 -52 -9 -78l-60 -300h-93l58 289c5 24 9 44 9 64c0 44 -25 68 -70 68c-60 0 -123 -40 -184 -110l-67 -339
c-20 -99 -61 -156 -154 -156z" />
    <glyph glyph-name="uni0273" unicode="&#x273;" 
d="M447 -184c-58 0 -88 32 -88 89c0 21 2 40 6 59l65 325c5 24 9 44 9 64c0 44 -25 68 -70 68c-60 0 -123 -40 -184 -110l-62 -311h-92l97 489h75l-11 -96h4c56 56 129 108 212 108c85 0 126 -47 126 -123c0 -27 -4 -52 -9 -78l-69 -340c-2 -11 -3 -20 -3 -33
c0 -22 13 -35 35 -35c11 0 21 2 32 6l-1 -70c-15 -6 -38 -12 -72 -12z" />
    <glyph glyph-name="uni0274" unicode="&#x274;" 
d="M45 0l95 489h90l107 -258c11 -29 27 -74 38 -104h4c7 63 15 124 26 176l35 186h90l-96 -489h-89l-107 258c-12 29 -27 74 -38 104h-4c-7 -63 -16 -124 -26 -176l-36 -186h-89z" />
    <glyph glyph-name="uni0275" unicode="&#x275;" 
d="M251 -12c-129 0 -208 87 -208 215c0 172 133 298 282 298c130 0 208 -88 208 -215c0 -173 -132 -298 -282 -298zM318 428c-77 0 -146 -57 -173 -140h299c-3 88 -47 140 -126 140zM258 60c83 0 156 66 179 160h-305v-12c0 -92 45 -148 126 -148z" />
    <glyph glyph-name="uni0276" unicode="&#x276;" 
d="M186 -12c-107 0 -184 64 -184 192c0 183 119 321 272 321c34 0 63 -4 99 -12h250l-14 -72h-194l-25 -129h158l-13 -68h-159l-29 -149h202l-14 -71h-260c-29 -8 -56 -12 -89 -12zM201 64c19 0 39 5 60 10l65 341c-16 5 -35 9 -54 9c-100 0 -177 -110 -177 -237
c0 -85 43 -123 106 -123z" />
    <glyph glyph-name="uni0278" unicode="&#x278;" 
d="M111 211c0 -86 44 -135 95 -148l77 364c-93 -7 -172 -97 -172 -216zM468 277c0 85 -43 134 -94 147l-77 -363c93 8 171 98 171 216zM150 -200l41 194c-89 15 -172 83 -172 208c0 181 132 288 279 295l45 212h92l-46 -215c89 -16 171 -83 171 -208
c0 -180 -130 -287 -277 -295l-41 -191h-92z" />
    <glyph glyph-name="uni0279" unicode="&#x279;" 
d="M499 489l-97 -489h-75l19 138h-4c-54 -84 -132 -150 -214 -150c-43 0 -76 9 -98 24l35 80c24 -15 48 -20 80 -20c72 0 149 69 213 173l49 244h92z" />
    <glyph glyph-name="uni027A" unicode="&#x27a;" 
d="M127 -12c-43 0 -76 10 -98 24l36 80c26 -16 51 -21 84 -20c70 3 145 70 209 174l103 463h92l-151 -709h-75l19 137h-4c-54 -84 -132 -149 -215 -149z" />
    <glyph glyph-name="uni027B" unicode="&#x27b;" 
d="M338 -184c-70 0 -98 40 -98 96c0 17 3 36 7 55l24 121h-3c-44 -67 -88 -100 -155 -100c-26 0 -54 7 -84 24l36 80c27 -17 53 -21 76 -21c45 0 93 26 139 112l61 306h92l-102 -510c-3 -17 -5 -31 -5 -44c0 -29 18 -43 44 -43c19 0 38 9 53 18l3 -71
c-21 -11 -53 -23 -88 -23z" />
    <glyph glyph-name="uni027D" unicode="&#x27d;" 
d="M235 -184c-103 0 -148 57 -148 142c0 21 3 40 8 64l93 467h75l-19 -138h4c54 84 132 150 214 150c43 0 77 -10 98 -24l-36 -80c-24 15 -47 20 -79 20c-72 0 -149 -69 -213 -173l-45 -223c-4 -18 -5 -30 -5 -43c0 -59 29 -85 78 -85c40 0 76 17 106 35l30 -66
c-40 -25 -98 -46 -161 -46z" />
    <glyph glyph-name="uni027E" unicode="&#x27e;" 
d="M91 0l59 295c26 128 110 206 263 206c52 0 113 -8 147 -24l-34 -83c-39 18 -79 21 -118 21c-82 0 -150 -44 -169 -143l-54 -272h-94z" />
    <glyph glyph-name="uni0280" unicode="&#x280;" 
d="M64 0l97 489h199c92 0 156 -36 156 -124c0 -81 -54 -145 -134 -169l85 -196h-95l-73 184h-106l-37 -184h-92zM207 253h92c78 0 122 43 122 94c0 49 -33 70 -91 69h-92z" />
    <glyph glyph-name="uni0281" unicode="&#x281;" 
d="M516 489l-97 -489h-199c-92 0 -156 36 -156 124c0 81 54 145 134 169l-85 196h95l73 -184h106l37 184h92zM373 236h-92c-78 0 -122 -43 -122 -94c0 -49 33 -70 91 -69h92z" />
    <glyph glyph-name="uni0282" unicode="&#x282;" 
d="M129 -184c-77 0 -106 46 -106 105c0 34 9 73 28 157l52 58c48 -53 115 -77 182 -77c63 0 107 21 107 68c0 42 -41 59 -120 85c-101 34 -148 76 -148 145c0 96 86 144 189 144c94 0 162 -38 204 -80l-51 -56c-40 34 -95 65 -163 65c-57 0 -92 -23 -92 -62
c0 -40 38 -59 116 -85c90 -31 152 -65 152 -144c0 -107 -93 -151 -210 -151c-52 0 -103 13 -146 35c-10 -50 -13 -72 -13 -85c0 -33 14 -45 41 -45c14 0 27 3 39 8l7 -72c-17 -7 -36 -13 -68 -13z" />
    <glyph glyph-name="uni0283" unicode="&#x283;" 
d="M104 -212c-54 0 -97 21 -124 45l39 62c27 -21 54 -32 88 -32c48 0 73 28 85 96l117 592c20 102 77 170 187 170c53 0 103 -23 137 -50l-44 -58c-29 21 -57 34 -88 34c-56 0 -86 -29 -99 -96l-116 -591c-20 -104 -73 -172 -182 -172z" />
    <glyph glyph-name="uni0284" unicode="&#x284;" 
d="M104 -212c-54 0 -97 21 -124 45l39 62c27 -21 54 -32 88 -32c48 0 73 28 85 96l53 267h-164l10 57l166 6l52 262c20 102 77 170 187 170c53 0 103 -23 137 -50l-44 -58c-29 21 -57 34 -88 34c-56 0 -86 -29 -99 -96l-51 -262h168l-12 -63h-169l-52 -266
c-20 -104 -73 -172 -182 -172z" />
    <glyph glyph-name="uni0287" unicode="&#x287;" 
d="M272 501c107 0 153 -57 153 -142c0 -21 -3 -40 -8 -64l-45 -221h138l-13 -69l-144 -5l-44 -155h-76l32 155h-232l15 74h233l46 222c4 18 5 30 5 43c0 59 -33 85 -85 85c-46 0 -89 -15 -122 -35l-29 66c42 27 106 46 176 46z" />
    <glyph glyph-name="uni0288" unicode="&#x288;" 
d="M273 -184c-107 0 -153 57 -153 142c0 21 3 40 8 64l80 393h-138l13 69l144 5l44 155h76l-32 -155h232l-15 -74h-233l-81 -394c-4 -18 -5 -30 -5 -43c0 -59 33 -85 85 -85c47 0 89 16 122 35l29 -66c-42 -27 -106 -46 -176 -46z" />
    <glyph glyph-name="uni0289" unicode="&#x289;" 
d="M236 67c35 0 77 25 132 82l21 108h-199l-13 -67c-5 -24 -8 -38 -8 -54c0 -45 21 -69 67 -69zM191 -12c-82 0 -117 46 -117 123c0 22 3 42 8 68l16 78h-83l9 57l86 6l34 169h93l-34 -169h199l33 169h93l-34 -169h82l-11 -63h-83l-52 -257h-75l6 72h-4
c-51 -46 -107 -84 -166 -84z" />
    <glyph glyph-name="uni028A" unicode="&#x28a;" 
d="M238 -12c-122 0 -182 80 -182 174c0 110 72 205 129 252v2h-96l14 73h186l-12 -63c-68 -54 -126 -148 -126 -244c0 -66 32 -117 101 -117c101 0 168 107 168 220c0 61 -20 106 -50 141l12 63h186l-15 -73h-99l-1 -2c27 -33 54 -83 54 -148c0 -142 -109 -278 -269 -278z
" />
    <glyph glyph-name="uni028B" unicode="&#x28b;" 
d="M246 -12c-108 0 -189 47 -189 160c0 17 3 41 7 62l57 279h92l-55 -272c-4 -20 -6 -39 -6 -51c0 -77 47 -101 101 -101c109 0 186 155 186 270c0 59 -20 88 -67 88c-12 0 -18 -1 -31 -5l2 75c19 6 37 8 61 8c79 0 129 -46 129 -149c0 -176 -114 -364 -287 -364z" />
    <glyph glyph-name="uni028C" unicode="&#x28c;" 
d="M392 489l105 -489h-91l-54 273c-10 48 -17 98 -25 145h-4c-23 -46 -51 -96 -80 -146l-157 -272h-93l291 489h108z" />
    <glyph glyph-name="uni028D" unicode="&#x28d;" 
d="M529 489l5 -489h-91l3 275c1 47 3 90 4 137h-4c-16 -47 -31 -91 -51 -137l-101 -240h-84l-8 240c-1 47 0 90 1 137h-4c-18 -47 -31 -89 -49 -137l-105 -275h-88l197 489h112l3 -232c1 -46 -1 -84 -2 -135h4c17 53 27 85 47 135l95 232h116z" />
    <glyph glyph-name="uni028E" unicode="&#x28e;" 
d="M-8 0l340 558c67 112 121 163 220 163c32 0 61 -8 81 -19l-28 -65c-16 8 -37 14 -58 14c-55 0 -81 -25 -123 -90l-45 -71l118 -490h-89l-57 258c-9 44 -21 106 -28 149h-4c-22 -43 -56 -105 -81 -149l-151 -258h-95z" />
    <glyph glyph-name="uni028F" unicode="&#x28f;" 
d="M193 0l31 160l-126 329h102l48 -130c9 -39 29 -74 39 -114h4c25 40 57 75 82 114l99 130h100l-252 -329l-31 -160h-96z" />
    <glyph glyph-name="uni0290" unicode="&#x290;" 
d="M465 -184c-78 0 -106 46 -106 105c0 18 3 33 12 79h-340l10 55l364 361h-296l16 73h415l-9 -55l-363 -360h312c-19 -85 -25 -121 -25 -136c0 -32 12 -43 37 -43c11 0 23 3 34 8l6 -74c-16 -7 -36 -13 -67 -13z" />
    <glyph glyph-name="uni0291" unicode="&#x291;" 
d="M284 -117l-58 13c14 38 29 73 43 104h-238l10 55l354 361h-286l16 73h402l-9 -55l-356 -362c47 -2 95 -3 142 -4c57 101 116 154 180 154c51 0 79 -31 79 -73c0 -75 -54 -149 -196 -149h-35c-15 -33 -31 -72 -48 -117zM402 68c73 0 102 33 102 64c0 17 -11 29 -33 29
c-30 0 -65 -27 -104 -93h35z" />
    <glyph glyph-name="uni0292" unicode="&#x292;" 
d="M192 -212c-104 0 -170 44 -208 90l50 54c34 -36 83 -69 162 -69c91 0 178 71 178 163c0 78 -49 114 -130 114c-36 0 -55 -5 -88 -20l-24 50l272 245h-275l14 74h394l-10 -54l-258 -234c124 12 198 -61 198 -159c0 -140 -126 -254 -275 -254z" />
    <glyph glyph-name="uni02A4" unicode="&#x2a4;" 
d="M127 64c32 0 63 27 96 80l44 218c-17 50 -39 62 -64 62c-67 0 -132 -115 -132 -247c0 -77 21 -113 56 -113zM357 -212c-69 0 -114 35 -143 69l50 53c23 -23 55 -47 95 -47c69 0 131 79 131 175c0 63 -24 92 -67 92c-19 0 -31 -4 -51 -13l-22 56l189 242h-178l-84 -415
h-65l3 58h-3c-38 -44 -73 -70 -119 -70c-67 0 -111 66 -111 185c0 174 100 328 213 328c37 0 74 -20 90 -62h3l13 93l35 177h84l-44 -220h272l-10 -54l-187 -242c86 5 128 -58 128 -138c0 -142 -93 -267 -222 -267z" />
    <glyph glyph-name="uni02A6" unicode="&#x2a6;" 
d="M264 -12c-147 0 -203 57 -203 140c0 25 6 51 9 70l46 217h-70l13 69l76 5l44 155h76l-32 -155h173c20 8 41 12 64 12c49 0 87 -23 118 -55l-46 -52c-21 21 -42 36 -74 36c-38 0 -64 -27 -64 -61c0 -78 141 -82 141 -209c0 -100 -74 -172 -271 -172zM285 60
c123 0 163 41 163 88c0 98 -142 91 -142 211c0 20 4 39 12 56h-111l-45 -221c-4 -17 -7 -30 -7 -49c0 -56 37 -85 130 -85z" />
    <glyph glyph-name="uni02A7" unicode="&#x2a7;" 
d="M259 -212c-28 0 -51 6 -67 13l29 71c12 -4 26 -8 42 -8c42 0 58 34 70 95l90 456h-186l-54 -261c-2 -12 -3 -23 -3 -35c0 -38 14 -57 55 -57c16 0 31 6 43 12l19 -66c-22 -10 -55 -20 -93 -20c-85 0 -118 50 -118 114c0 20 3 37 6 56l54 257h-71l14 69l75 5l45 155h75
l-32 -155h185l13 66c19 96 69 167 177 167c28 0 47 -6 61 -13l-32 -70c-9 4 -20 8 -33 8c-48 0 -67 -33 -79 -96l-117 -591c-20 -102 -67 -172 -168 -172z" />
    <glyph glyph-name="uni0294" unicode="&#x294;" 
d="M167 0l63 314c172 77 225 148 225 232c0 63 -46 101 -116 101c-68 0 -118 -29 -168 -69l-40 62c61 47 123 81 223 81c107 0 197 -58 197 -163c0 -124 -83 -205 -237 -282l-55 -276h-92z" />
    <glyph glyph-name="uni0295" unicode="&#x295;" 
d="M214 0l55 276c-78 63 -131 129 -131 221c0 134 102 224 238 224c99 0 166 -45 207 -104l-54 -51c-40 51 -86 81 -153 81c-88 0 -143 -61 -143 -138c0 -78 36 -130 136 -195l-63 -314h-92z" />
    <glyph glyph-name="uni02A1" unicode="&#x2a1;" 
d="M166 0l50 247h-139l12 59l141 6c171 78 226 150 226 234c0 63 -47 101 -117 101c-68 0 -118 -29 -168 -69l-40 62c61 47 123 81 223 81c107 0 197 -58 197 -163s-69 -180 -192 -246h147l-14 -65h-183l-50 -247h-93z" />
    <glyph glyph-name="uni02A2" unicode="&#x2a2;" 
d="M214 0l50 247h-179l13 59l147 6c-70 51 -107 111 -107 184c0 135 102 225 238 225c100 0 165 -45 207 -104l-54 -51c-40 51 -86 81 -152 81c-89 0 -144 -61 -144 -138c0 -83 43 -137 128 -197h153l-14 -65h-143l-51 -247h-92z" />
    <glyph glyph-name="uni01C2" unicode="&#x1c2;" 
d="M149 -200l74 348h-167l11 59l169 5l25 115h-170l11 59l172 4l68 319h91l-68 -319h159l-13 -63h-160l-24 -115h162l-13 -64h-163l-74 -348h-90z" />
    <glyph glyph-name="uni0298" unicode="&#x298;" 
d="M250 -12c-115 0 -189 91 -189 242c0 257 114 491 306 491c115 0 189 -90 189 -242c0 -256 -114 -491 -306 -491zM256 65c120 0 213 201 213 413c0 112 -42 167 -108 167c-120 0 -213 -202 -213 -414c0 -112 42 -166 108 -166zM305 295c-33 0 -55 20 -55 53
c0 40 30 73 66 73c33 0 55 -20 55 -54c0 -40 -30 -72 -66 -72z" />
    <glyph glyph-name="uni014A.a" 
d="M299 -168c-32 0 -56 6 -80 19l30 68c12 -8 25 -13 44 -13c35 0 58 24 73 90l-124 405l-34 138h-4c-9 -68 -19 -153 -31 -216l-63 -323h-89l131 655h94l120 -401l34 -137h4c8 66 19 156 29 210l65 328h89l-134 -666c-18 -91 -63 -157 -154 -157z" />
    <glyph glyph-name="a.a" 
d="M183 -12c-78 0 -137 42 -137 115c0 126 110 190 377 204c4 16 6 30 6 40c0 50 -26 80 -95 80c-68 0 -131 -26 -188 -56l-30 65c62 33 146 65 240 65c104 0 164 -51 164 -145c0 -18 -2 -35 -6 -57l-58 -299h-76l8 77h-3c-54 -52 -127 -89 -202 -89zM215 61
c56 0 123 31 179 86l19 104c-206 -14 -276 -59 -276 -129c0 -43 32 -61 78 -61z" />
    <glyph glyph-name="agrave.a" 
d="M183 -12c-78 0 -137 42 -137 115c0 126 110 190 377 204c4 16 6 30 6 40c0 50 -26 80 -95 80c-68 0 -131 -26 -188 -56l-30 65c62 33 146 65 240 65c104 0 164 -51 164 -145c0 -18 -2 -35 -6 -57l-58 -299h-76l8 77h-3c-54 -52 -127 -89 -202 -89zM215 61
c56 0 123 31 179 86l19 104c-206 -14 -276 -59 -276 -129c0 -43 32 -61 78 -61zM389 570l-137 166l79 59l116 -181z" />
    <glyph glyph-name="aacute.a" 
d="M183 -12c-78 0 -137 42 -137 115c0 126 110 190 377 204c4 16 6 30 6 40c0 50 -26 80 -95 80c-68 0 -131 -26 -188 -56l-30 65c62 33 146 65 240 65c104 0 164 -51 164 -145c0 -18 -2 -35 -6 -57l-58 -299h-76l8 77h-3c-54 -52 -127 -89 -202 -89zM215 61
c56 0 123 31 179 86l19 104c-206 -14 -276 -59 -276 -129c0 -43 32 -61 78 -61zM331 579l-42 53l172 157l57 -72z" />
    <glyph glyph-name="acircumflex.a" 
d="M183 -12c-78 0 -137 42 -137 115c0 126 110 190 377 204c4 16 6 30 6 40c0 50 -26 80 -95 80c-68 0 -131 -26 -188 -56l-30 65c62 33 146 65 240 65c104 0 164 -51 164 -145c0 -18 -2 -35 -6 -57l-58 -299h-76l8 77h-3c-54 -52 -127 -89 -202 -89zM215 61
c56 0 123 31 179 86l19 104c-206 -14 -276 -59 -276 -129c0 -43 32 -61 78 -61zM230 566l-35 40l136 135h100l88 -138l-44 -37l-98 111h-4z" />
    <glyph glyph-name="atilde.a" 
d="M183 -12c-78 0 -137 42 -137 115c0 126 110 190 377 204c4 16 6 30 6 40c0 50 -26 80 -95 80c-68 0 -131 -26 -188 -56l-30 65c62 33 146 65 240 65c104 0 164 -51 164 -145c0 -18 -2 -35 -6 -57l-58 -299h-76l8 77h-3c-54 -52 -127 -89 -202 -89zM215 61
c56 0 123 31 179 86l19 104c-206 -14 -276 -59 -276 -129c0 -43 32 -61 78 -61zM434 576c-68 0 -79 80 -128 80c-27 0 -46 -28 -55 -74l-64 4c16 85 57 139 125 139s79 -79 128 -79c27 0 46 29 56 74l63 -4c-15 -84 -57 -140 -125 -140z" />
    <glyph glyph-name="adieresis.a" 
d="M183 -12c-78 0 -137 42 -137 115c0 126 110 190 377 204c4 16 6 30 6 40c0 50 -26 80 -95 80c-68 0 -131 -26 -188 -56l-30 65c62 33 146 65 240 65c104 0 164 -51 164 -145c0 -18 -2 -35 -6 -57l-58 -299h-76l8 77h-3c-54 -52 -127 -89 -202 -89zM215 61
c56 0 123 31 179 86l19 104c-206 -14 -276 -59 -276 -129c0 -43 32 -61 78 -61zM264 585c-27 0 -47 17 -47 48c0 34 27 64 61 64c28 0 48 -19 48 -49c0 -36 -27 -63 -62 -63zM457 585c-28 0 -48 17 -48 48c0 34 27 64 62 64c27 0 47 -19 47 -49c0 -36 -27 -63 -61 -63z" />
    <glyph glyph-name="amacron.a" 
d="M183 -12c-78 0 -137 42 -137 115c0 126 110 190 377 204c4 16 6 30 6 40c0 50 -26 80 -95 80c-68 0 -131 -26 -188 -56l-30 65c62 33 146 65 240 65c104 0 164 -51 164 -145c0 -18 -2 -35 -6 -57l-58 -299h-76l8 77h-3c-54 -52 -127 -89 -202 -89zM215 61
c56 0 123 31 179 86l19 104c-206 -14 -276 -59 -276 -129c0 -43 32 -61 78 -61zM228 599l12 62h262l-11 -62h-263z" />
    <glyph glyph-name="abreve.a" 
d="M183 -12c-78 0 -137 42 -137 115c0 126 110 190 377 204c4 16 6 30 6 40c0 50 -26 80 -95 80c-68 0 -131 -26 -188 -56l-30 65c62 33 146 65 240 65c104 0 164 -51 164 -145c0 -18 -2 -35 -6 -57l-58 -299h-76l8 77h-3c-54 -52 -127 -89 -202 -89zM215 61
c56 0 123 31 179 86l19 104c-206 -14 -276 -59 -276 -129c0 -43 32 -61 78 -61zM355 571c-107 0 -139 75 -132 153l62 10c-3 -50 21 -98 83 -98c61 0 99 48 117 98l58 -10c-18 -78 -78 -153 -188 -153z" />
    <glyph glyph-name="aring.a" 
d="M183 -12c-78 0 -137 42 -137 115c0 126 110 190 377 204c4 16 6 30 6 40c0 50 -26 80 -95 80c-68 0 -131 -26 -188 -56l-30 65c62 33 146 65 240 65c104 0 164 -51 164 -145c0 -18 -2 -35 -6 -57l-58 -299h-76l8 77h-3c-54 -52 -127 -89 -202 -89zM215 61
c56 0 123 31 179 86l19 104c-206 -14 -276 -59 -276 -129c0 -43 32 -61 78 -61zM358 559c-57 0 -100 30 -100 83c0 62 52 112 125 112c57 0 100 -30 100 -83c0 -62 -52 -112 -125 -112zM364 599c32 0 58 31 58 69c0 26 -16 46 -45 46c-32 0 -58 -31 -58 -69
c0 -27 16 -46 45 -46z" />
    <glyph glyph-name="aringacute.a" 
d="M183 -12c-78 0 -137 42 -137 115c0 126 110 190 377 204c4 16 6 30 6 40c0 50 -26 80 -95 80c-68 0 -131 -26 -188 -56l-30 65c62 33 146 65 240 65c104 0 164 -51 164 -145c0 -18 -2 -35 -6 -57l-58 -299h-76l8 77h-3c-54 -52 -127 -89 -202 -89zM215 61
c56 0 123 31 179 86l19 104c-206 -14 -276 -59 -276 -129c0 -43 32 -61 78 -61zM358 559c-57 0 -100 30 -100 83c0 40 22 76 58 95l-1 1l144 115l41 -46l-91 -55c43 -8 74 -36 74 -81c0 -62 -52 -112 -125 -112zM364 599c32 0 58 31 58 69c0 26 -16 46 -45 46
c-32 0 -58 -31 -58 -69c0 -27 16 -46 45 -46z" />
    <glyph glyph-name="uni01CE.a" 
d="M183 -12c-78 0 -137 42 -137 115c0 126 110 190 377 204c4 16 6 30 6 40c0 50 -26 80 -95 80c-68 0 -131 -26 -188 -56l-30 65c62 33 146 65 240 65c104 0 164 -51 164 -145c0 -18 -2 -35 -6 -57l-58 -299h-76l8 77h-3c-54 -52 -127 -89 -202 -89zM215 61
c56 0 123 31 179 86l19 104c-206 -14 -276 -59 -276 -129c0 -43 32 -61 78 -61zM309 576l-88 138l44 37l98 -111h4l143 111l35 -40l-136 -135h-100z" />
    <glyph glyph-name="uni1EA1.a" 
d="M183 -12c-78 0 -137 42 -137 115c0 126 110 190 377 204c4 16 6 30 6 40c0 50 -26 80 -95 80c-68 0 -131 -26 -188 -56l-30 65c62 33 146 65 240 65c104 0 164 -51 164 -145c0 -18 -2 -35 -6 -57l-58 -299h-76l8 77h-3c-54 -52 -127 -89 -202 -89zM215 61
c56 0 123 31 179 86l19 104c-206 -14 -276 -59 -276 -129c0 -43 32 -61 78 -61zM220 -240c-36 0 -65 21 -65 60c0 41 35 76 77 76c39 0 65 -22 65 -60c0 -42 -35 -76 -77 -76z" />
    <glyph glyph-name="uni1EA3.a" 
d="M183 -12c-78 0 -137 42 -137 115c0 126 110 190 377 204c4 16 6 30 6 40c0 50 -26 80 -95 80c-68 0 -131 -26 -188 -56l-30 65c62 33 146 65 240 65c104 0 164 -51 164 -145c0 -18 -2 -35 -6 -57l-58 -299h-76l8 77h-3c-54 -52 -127 -89 -202 -89zM215 61
c56 0 123 31 179 86l19 104c-206 -14 -276 -59 -276 -129c0 -43 32 -61 78 -61zM318 571l-2 45c32 7 57 19 61 44c6 27 -18 42 -73 45l18 64c101 -3 144 -40 134 -101c-12 -61 -75 -88 -138 -97z" />
    <glyph glyph-name="uni1EA5.a" 
d="M183 -12c-78 0 -137 42 -137 115c0 126 110 190 377 204c4 16 6 30 6 40c0 50 -26 80 -95 80c-68 0 -131 -26 -188 -56l-30 65c62 33 146 65 240 65c104 0 164 -51 164 -145c0 -18 -2 -35 -6 -57l-58 -299h-76l8 77h-3c-54 -52 -127 -89 -202 -89zM215 61
c56 0 123 31 179 86l19 104c-206 -14 -276 -59 -276 -129c0 -43 32 -61 78 -61zM250 569l-29 40l114 91h81l82 -95l-38 -36l-87 73h-4zM502 640l-35 36l106 113l50 -43z" />
    <glyph glyph-name="uni1EA7.a" 
d="M183 -12c-78 0 -137 42 -137 115c0 126 110 190 377 204c4 16 6 30 6 40c0 50 -26 80 -95 80c-68 0 -131 -26 -188 -56l-30 65c62 33 146 65 240 65c104 0 164 -51 164 -145c0 -18 -2 -35 -6 -57l-58 -299h-76l8 77h-3c-54 -52 -127 -89 -202 -89zM215 61
c56 0 123 31 179 86l19 104c-206 -14 -276 -59 -276 -129c0 -43 32 -61 78 -61zM250 569l-29 40l114 91h81l82 -95l-38 -36l-87 73h-4zM212 639l-89 118l62 34l73 -123z" />
    <glyph glyph-name="uni1EA9.a" 
d="M183 -12c-78 0 -137 42 -137 115c0 126 110 190 377 204c4 16 6 30 6 40c0 50 -26 80 -95 80c-68 0 -131 -26 -188 -56l-30 65c62 33 146 65 240 65c104 0 164 -51 164 -145c0 -18 -2 -35 -6 -57l-58 -299h-76l8 77h-3c-54 -52 -127 -89 -202 -89zM215 61
c56 0 123 31 179 86l19 104c-206 -14 -276 -59 -276 -129c0 -43 32 -61 78 -61zM250 569l-28 40l114 91h80l82 -95l-38 -36l-87 73h-4zM488 638l-4 38c24 7 42 16 46 37c4 24 -12 36 -61 39l16 46c85 -3 124 -28 116 -75c-11 -56 -61 -76 -113 -85z" />
    <glyph glyph-name="uni1EAB.a" 
d="M183 -12c-78 0 -137 42 -137 115c0 126 110 190 377 204c4 16 6 30 6 40c0 50 -26 80 -95 80c-68 0 -131 -26 -188 -56l-30 65c62 33 146 65 240 65c104 0 164 -51 164 -145c0 -18 -2 -35 -6 -57l-58 -299h-76l8 77h-3c-54 -52 -127 -89 -202 -89zM215 61
c56 0 123 31 179 86l19 104c-206 -14 -276 -59 -276 -129c0 -43 32 -61 78 -61zM254 569l-29 40l113 86h80l84 -90l-38 -36l-89 68h-4zM445 712c-57 0 -79 42 -114 42c-19 0 -30 -13 -41 -41l-48 5c16 57 47 94 95 94c57 0 77 -42 113 -42c19 0 29 13 39 41l48 -5
c-15 -58 -44 -94 -92 -94z" />
    <glyph glyph-name="uni1EAD.a" 
d="M183 -12c-78 0 -137 42 -137 115c0 126 110 190 377 204c4 16 6 30 6 40c0 50 -26 80 -95 80c-68 0 -131 -26 -188 -56l-30 65c62 33 146 65 240 65c104 0 164 -51 164 -145c0 -18 -2 -35 -6 -57l-58 -299h-76l8 77h-3c-54 -52 -127 -89 -202 -89zM215 61
c56 0 123 31 179 86l19 104c-206 -14 -276 -59 -276 -129c0 -43 32 -61 78 -61zM230 566l-35 40l136 135h100l88 -138l-44 -37l-98 111h-4zM220 -240c-36 0 -65 21 -65 60c0 41 35 76 77 76c39 0 65 -22 65 -60c0 -42 -35 -76 -77 -76z" />
    <glyph glyph-name="uni1EAF.a" 
d="M183 -12c-78 0 -137 42 -137 115c0 126 110 190 377 204c4 16 6 30 6 40c0 50 -26 80 -95 80c-68 0 -131 -26 -188 -56l-30 65c62 33 146 65 240 65c104 0 164 -51 164 -145c0 -18 -2 -35 -6 -57l-58 -299h-76l8 77h-3c-54 -52 -127 -89 -202 -89zM215 61
c56 0 123 31 179 86l19 104c-206 -14 -276 -59 -276 -129c0 -43 32 -61 78 -61zM354 571c-107 0 -139 75 -132 153l58 10c-3 -53 21 -103 86 -103c64 0 105 50 122 103l54 -10c-18 -78 -78 -153 -188 -153zM379 705l-39 36l112 115l52 -51z" />
    <glyph glyph-name="uni1EB1.a" 
d="M183 -12c-78 0 -137 42 -137 115c0 126 110 190 377 204c4 16 6 30 6 40c0 50 -26 80 -95 80c-68 0 -131 -26 -188 -56l-30 65c62 33 146 65 240 65c104 0 164 -51 164 -145c0 -18 -2 -35 -6 -57l-58 -299h-76l8 77h-3c-54 -52 -127 -89 -202 -89zM215 61
c56 0 123 31 179 86l19 104c-206 -14 -276 -59 -276 -129c0 -43 32 -61 78 -61zM354 571c-107 0 -139 75 -132 153l58 10c-3 -53 21 -103 86 -103c64 0 105 50 122 103l54 -10c-18 -78 -78 -153 -188 -153zM378 700l-87 117l66 41l71 -131z" />
    <glyph glyph-name="uni1EB3.a" 
d="M183 -12c-78 0 -137 42 -137 115c0 126 110 190 377 204c4 16 6 30 6 40c0 50 -26 80 -95 80c-68 0 -131 -26 -188 -56l-30 65c62 33 146 65 240 65c104 0 164 -51 164 -145c0 -18 -2 -35 -6 -57l-58 -299h-76l8 77h-3c-54 -52 -127 -89 -202 -89zM215 61
c56 0 123 31 179 86l19 104c-206 -14 -276 -59 -276 -129c0 -43 32 -61 78 -61zM354 571c-107 0 -139 75 -130 153l56 10c-3 -53 21 -103 86 -103c64 0 105 50 123 103l54 -10c-19 -78 -79 -153 -189 -153zM348 686l-2 40c27 5 48 16 52 36c5 24 -14 36 -67 39l20 58
c89 -3 128 -33 118 -86c-11 -57 -66 -79 -121 -87z" />
    <glyph glyph-name="uni1EB5.a" 
d="M183 -12c-78 0 -137 42 -137 115c0 126 110 190 377 204c4 16 6 30 6 40c0 50 -26 80 -95 80c-68 0 -131 -26 -188 -56l-30 65c62 33 146 65 240 65c104 0 164 -51 164 -145c0 -18 -2 -35 -6 -57l-58 -299h-76l8 77h-3c-54 -52 -127 -89 -202 -89zM215 61
c56 0 123 31 179 86l19 104c-206 -14 -276 -59 -276 -129c0 -43 32 -61 78 -61zM354 571c-100 0 -131 55 -127 109l55 9c0 -32 22 -64 81 -64c60 0 94 32 105 64l53 -9c-17 -54 -67 -109 -167 -109zM442 711c-57 0 -78 42 -113 42c-19 0 -30 -13 -40 -41l-53 5
c16 57 48 94 98 94c58 0 77 -42 114 -42c18 0 29 13 40 41l53 -5c-16 -58 -48 -94 -99 -94z" />
    <glyph glyph-name="uni1EB7.a" 
d="M183 -12c-78 0 -137 42 -137 115c0 126 110 190 377 204c4 16 6 30 6 40c0 50 -26 80 -95 80c-68 0 -131 -26 -188 -56l-30 65c62 33 146 65 240 65c104 0 164 -51 164 -145c0 -18 -2 -35 -6 -57l-58 -299h-76l8 77h-3c-54 -52 -127 -89 -202 -89zM215 61
c56 0 123 31 179 86l19 104c-206 -14 -276 -59 -276 -129c0 -43 32 -61 78 -61zM355 571c-107 0 -139 75 -132 153l62 10c-3 -50 21 -98 83 -98c61 0 99 48 117 98l58 -10c-18 -78 -78 -153 -188 -153zM220 -240c-36 0 -65 21 -65 60c0 41 35 76 77 76c39 0 65 -22 65 -60
c0 -42 -35 -76 -77 -76z" />
    <glyph glyph-name="aogonek.a" 
d="M358 -226c-51 0 -93 25 -93 80c0 68 61 118 115 147l8 76h-3c-54 -52 -127 -89 -202 -89c-78 0 -137 42 -137 115c0 126 110 190 377 204c4 16 6 30 6 40c0 50 -26 80 -95 80c-68 0 -131 -26 -188 -56l-30 65c62 33 146 65 240 65c104 0 164 -51 164 -145
c0 -18 -2 -35 -6 -57l-59 -303c-83 -33 -121 -74 -121 -116c0 -32 25 -47 56 -47c18 0 32 5 48 15l19 -40c-25 -20 -59 -34 -99 -34zM215 61c56 0 123 31 179 86l19 104c-206 -14 -276 -59 -276 -129c0 -43 32 -61 78 -61z" />
    <glyph glyph-name="g.a" 
d="M202 -221c-90 0 -208 27 -208 118c0 62 49 103 112 128v3c-25 17 -36 39 -36 68c0 42 28 72 72 96v4c-28 23 -46 59 -46 104c0 114 98 201 221 201c26 0 49 -4 70 -12h183l-14 -73h-86c10 -19 15 -41 15 -63c0 -111 -95 -198 -219 -198c-23 0 -54 4 -79 15
c-25 -14 -39 -34 -39 -54c0 -33 27 -45 124 -54c158 -16 201 -52 201 -119c0 -109 -130 -164 -271 -164zM274 215c77 0 132 67 132 134c0 52 -36 86 -93 86c-76 0 -131 -67 -131 -134c0 -53 35 -86 92 -86zM211 -159c103 0 172 34 172 80c0 42 -42 56 -142 67
c-34 4 -52 8 -82 15c-45 -17 -84 -52 -84 -90c0 -51 56 -72 136 -72z" />
    <glyph glyph-name="uni01F5.a" 
d="M202 -221c-90 0 -208 27 -208 118c0 62 49 103 112 128v3c-25 17 -36 39 -36 68c0 42 28 72 72 96v4c-28 23 -46 59 -46 104c0 114 98 201 221 201c26 0 49 -4 70 -12h183l-14 -73h-86c10 -19 15 -41 15 -63c0 -111 -95 -198 -219 -198c-23 0 -54 4 -79 15
c-25 -14 -39 -34 -39 -54c0 -33 27 -45 124 -54c158 -16 201 -52 201 -119c0 -109 -130 -164 -271 -164zM274 215c77 0 132 67 132 134c0 52 -36 86 -93 86c-76 0 -131 -67 -131 -134c0 -53 35 -86 92 -86zM211 -159c103 0 172 34 172 80c0 42 -42 56 -142 67
c-34 4 -52 8 -82 15c-45 -17 -84 -52 -84 -90c0 -51 56 -72 136 -72zM331 579l-42 53l172 157l57 -72z" />
    <glyph glyph-name="gcircumflex.a" 
d="M202 -221c-90 0 -208 27 -208 118c0 62 49 103 112 128v3c-25 17 -36 39 -36 68c0 42 28 72 72 96v4c-28 23 -46 59 -46 104c0 114 98 201 221 201c26 0 49 -4 70 -12h183l-14 -73h-86c10 -19 15 -41 15 -63c0 -111 -95 -198 -219 -198c-23 0 -54 4 -79 15
c-25 -14 -39 -34 -39 -54c0 -33 27 -45 124 -54c158 -16 201 -52 201 -119c0 -109 -130 -164 -271 -164zM274 215c77 0 132 67 132 134c0 52 -36 86 -93 86c-76 0 -131 -67 -131 -134c0 -53 35 -86 92 -86zM211 -159c103 0 172 34 172 80c0 42 -42 56 -142 67
c-34 4 -52 8 -82 15c-45 -17 -84 -52 -84 -90c0 -51 56 -72 136 -72zM230 566l-35 40l136 135h100l88 -138l-44 -37l-98 111h-4z" />
    <glyph glyph-name="gbreve.a" 
d="M202 -221c-90 0 -208 27 -208 118c0 62 49 103 112 128v3c-25 17 -36 39 -36 68c0 42 28 72 72 96v4c-28 23 -46 59 -46 104c0 114 98 201 221 201c26 0 49 -4 70 -12h183l-14 -73h-86c10 -19 15 -41 15 -63c0 -111 -95 -198 -219 -198c-23 0 -54 4 -79 15
c-25 -14 -39 -34 -39 -54c0 -33 27 -45 124 -54c158 -16 201 -52 201 -119c0 -109 -130 -164 -271 -164zM274 215c77 0 132 67 132 134c0 52 -36 86 -93 86c-76 0 -131 -67 -131 -134c0 -53 35 -86 92 -86zM211 -159c103 0 172 34 172 80c0 42 -42 56 -142 67
c-34 4 -52 8 -82 15c-45 -17 -84 -52 -84 -90c0 -51 56 -72 136 -72zM355 571c-107 0 -139 75 -132 153l62 10c-3 -50 21 -98 83 -98c61 0 99 48 117 98l58 -10c-18 -78 -78 -153 -188 -153z" />
    <glyph glyph-name="gdotaccent.a" 
d="M202 -221c-90 0 -208 27 -208 118c0 62 49 103 112 128v3c-25 17 -36 39 -36 68c0 42 28 72 72 96v4c-28 23 -46 59 -46 104c0 114 98 201 221 201c26 0 49 -4 70 -12h183l-14 -73h-86c10 -19 15 -41 15 -63c0 -111 -95 -198 -219 -198c-23 0 -54 4 -79 15
c-25 -14 -39 -34 -39 -54c0 -33 27 -45 124 -54c158 -16 201 -52 201 -119c0 -109 -130 -164 -271 -164zM274 215c77 0 132 67 132 134c0 52 -36 86 -93 86c-76 0 -131 -67 -131 -134c0 -53 35 -86 92 -86zM211 -159c103 0 172 34 172 80c0 42 -42 56 -142 67
c-34 4 -52 8 -82 15c-45 -17 -84 -52 -84 -90c0 -51 56 -72 136 -72zM363 585c-36 0 -65 21 -65 60c0 41 35 76 77 76c39 0 65 -22 65 -60c0 -42 -35 -76 -77 -76z" />
    <glyph glyph-name="uni0123.a" 
d="M202 -221c-90 0 -208 27 -208 118c0 62 49 103 112 128v3c-25 17 -36 39 -36 68c0 42 28 72 72 96v4c-28 23 -46 59 -46 104c0 114 98 201 221 201c26 0 49 -4 70 -12h183l-14 -73h-86c10 -19 15 -41 15 -63c0 -111 -95 -198 -219 -198c-23 0 -54 4 -79 15
c-25 -14 -39 -34 -39 -54c0 -33 27 -45 124 -54c158 -16 201 -52 201 -119c0 -109 -130 -164 -271 -164zM274 215c77 0 132 67 132 134c0 52 -36 86 -93 86c-76 0 -131 -67 -131 -134c0 -53 35 -86 92 -86zM211 -159c103 0 172 34 172 80c0 42 -42 56 -142 67
c-34 4 -52 8 -82 15c-45 -17 -84 -52 -84 -90c0 -51 56 -72 136 -72zM378 542c-55 8 -86 29 -86 67c0 66 72 97 170 103v-43c-54 -5 -98 -20 -98 -50c0 -20 17 -31 41 -37z" />
    <glyph glyph-name="gcaron.a" 
d="M202 -221c-90 0 -208 27 -208 118c0 62 49 103 112 128v3c-25 17 -36 39 -36 68c0 42 28 72 72 96v4c-28 23 -46 59 -46 104c0 114 98 201 221 201c26 0 49 -4 70 -12h183l-14 -73h-86c10 -19 15 -41 15 -63c0 -111 -95 -198 -219 -198c-23 0 -54 4 -79 15
c-25 -14 -39 -34 -39 -54c0 -33 27 -45 124 -54c158 -16 201 -52 201 -119c0 -109 -130 -164 -271 -164zM274 215c77 0 132 67 132 134c0 52 -36 86 -93 86c-76 0 -131 -67 -131 -134c0 -53 35 -86 92 -86zM211 -159c103 0 172 34 172 80c0 42 -42 56 -142 67
c-34 4 -52 8 -82 15c-45 -17 -84 -52 -84 -90c0 -51 56 -72 136 -72zM309 576l-88 138l44 37l98 -111h4l143 111l35 -40l-136 -135h-100z" />
    <glyph glyph-name="uni1E21.a" 
d="M202 -221c-90 0 -208 27 -208 118c0 62 49 103 112 128v3c-25 17 -36 39 -36 68c0 42 28 72 72 96v4c-28 23 -46 59 -46 104c0 114 98 201 221 201c26 0 49 -4 70 -12h183l-14 -73h-86c10 -19 15 -41 15 -63c0 -111 -95 -198 -219 -198c-23 0 -54 4 -79 15
c-25 -14 -39 -34 -39 -54c0 -33 27 -45 124 -54c158 -16 201 -52 201 -119c0 -109 -130 -164 -271 -164zM274 215c77 0 132 67 132 134c0 52 -36 86 -93 86c-76 0 -131 -67 -131 -134c0 -53 35 -86 92 -86zM211 -159c103 0 172 34 172 80c0 42 -42 56 -142 67
c-34 4 -52 8 -82 15c-45 -17 -84 -52 -84 -90c0 -51 56 -72 136 -72zM228 599l12 62h262l-11 -62h-263z" />
    <glyph glyph-name="uni00670303.a" 
d="M202 -221c-90 0 -208 27 -208 118c0 62 49 103 112 128v3c-25 17 -36 39 -36 68c0 42 28 72 72 96v4c-28 23 -46 59 -46 104c0 114 98 201 221 201c26 0 49 -4 70 -12h183l-14 -73h-86c10 -19 15 -41 15 -63c0 -111 -95 -198 -219 -198c-23 0 -54 4 -79 15
c-25 -14 -39 -34 -39 -54c0 -33 27 -45 124 -54c158 -16 201 -52 201 -119c0 -109 -130 -164 -271 -164zM274 215c77 0 132 67 132 134c0 52 -36 86 -93 86c-76 0 -131 -67 -131 -134c0 -53 35 -86 92 -86zM211 -159c103 0 172 34 172 80c0 42 -42 56 -142 67
c-34 4 -52 8 -82 15c-45 -17 -84 -52 -84 -90c0 -51 56 -72 136 -72zM434 576c-68 0 -79 80 -128 80c-27 0 -46 -28 -55 -74l-64 4c16 85 57 139 125 139s79 -79 128 -79c27 0 46 29 56 74l63 -4c-15 -84 -57 -140 -125 -140z" />
    <glyph glyph-name="iogonek.d" 
d="M347 -226c-51 0 -94 25 -94 80c0 56 41 99 95 134h-7c-76 0 -133 45 -133 127c0 17 3 35 8 55l56 245h-174l15 74h266l-73 -326c-2 -11 -4 -21 -4 -30c0 -49 29 -68 71 -68c29 0 55 9 89 24l21 -70c-120 -53 -160 -98 -160 -139c0 -32 25 -47 55 -47c19 0 33 5 49 15
l18 -40c-24 -20 -58 -34 -98 -34z" />
    <glyph glyph-name="uni0268.d" 
d="M79 223l11 58l152 4l30 130h-174l15 74h266l-46 -204h153l-13 -62h-154l-13 -60c-2 -11 -4 -21 -4 -30c0 -49 29 -68 71 -68c29 0 55 9 89 24l21 -70c-42 -19 -82 -31 -137 -31c-82 0 -138 45 -138 127c0 17 3 35 8 55l12 53h-149z" />
    <glyph glyph-name="uni029D.d" 
d="M326 -245c-11 37 -24 70 -41 97c-37 -40 -87 -64 -148 -64c-84 0 -135 45 -135 103c0 74 54 126 146 126c37 0 76 -10 113 -31l85 429h-219l16 74h310l-100 -495c-5 -24 -11 -46 -20 -67c31 -35 57 -81 73 -136zM140 -137c44 0 74 20 94 51c-28 23 -60 35 -92 35
c-44 0 -65 -23 -65 -47c0 -23 20 -39 63 -39z" />
    <glyph glyph-name="pi" unicode="&#x3c0;" 
d="M142 -5l-90 5c43 138 79 289 103 416h-95l14 68l71 5h457l-15 -73h-87c-31 -128 -68 -290 -68 -322c0 -22 11 -32 29 -32c13 0 24 4 34 8l10 -68c-15 -6 -44 -14 -73 -14c-59 0 -87 33 -87 86c0 51 40 220 70 342h-175c-27 -132 -61 -284 -98 -421z" />
    <glyph glyph-name="uni2116" unicode="&#x2116;" 
d="M-41 -12c-6 0 -15 0 -22 3l6 73c19 0 32 9 39 43l105 530h96l32 -378l13 -150h4c16 126 26 212 43 300l26 134c14 71 47 106 97 106c7 0 15 -1 23 -3l-7 -73c-19 0 -32 -9 -38 -42l-106 -531h-95l-32 378l-13 150h-4c-17 -126 -26 -212 -43 -300l-27 -134
c-14 -70 -47 -106 -97 -106zM494 274c-54 0 -91 37 -91 113c0 119 63 212 148 212c53 0 90 -36 90 -111c0 -120 -63 -214 -147 -214zM506 333c40 0 72 75 72 146c0 41 -12 61 -40 61c-40 0 -72 -74 -72 -145c0 -41 12 -62 40 -62zM383 163l11 58h174l-12 -58h-173z" />
    <glyph glyph-name="ampersand" unicode="&#x26;" 
d="M183 -12c-101 0 -168 60 -168 154c0 104 76 164 158 215c-13 40 -20 80 -20 117c0 111 77 193 178 193c76 0 115 -48 115 -113c0 -106 -91 -166 -179 -221c28 -61 70 -121 118 -169c47 53 82 117 113 187h83c-40 -88 -86 -166 -145 -233c37 -28 76 -46 105 -56l-38 -74
c-40 12 -85 35 -128 70c-56 -45 -121 -70 -192 -70zM231 478c0 -26 4 -53 12 -79c70 42 129 86 129 153c0 28 -15 51 -46 51c-53 0 -95 -51 -95 -125zM200 60c40 0 83 18 123 47c-48 52 -92 116 -123 182c-54 -38 -95 -79 -95 -136c0 -58 38 -93 95 -93z" />
    <glyph glyph-name="zero" unicode="0" 
d="M254 -12c-125 0 -199 98 -199 248c0 200 105 413 294 413c125 0 199 -99 199 -249c0 -200 -105 -412 -294 -412zM262 61c127 0 200 180 200 331c0 114 -39 184 -121 184c-127 0 -200 -181 -200 -332c0 -114 39 -183 121 -183zM295 257c-32 0 -51 22 -51 58
c0 44 30 82 67 82c32 0 51 -22 51 -58c0 -44 -30 -82 -67 -82z" />
    <glyph glyph-name="one" unicode="1" 
d="M35 0l15 76h181l91 454h-141l12 58c74 9 131 24 173 49h70l-113 -561h164l-14 -76h-438z" />
    <glyph glyph-name="two" unicode="2" 
d="M32 0l9 54c241 200 371 306 371 425c0 58 -31 95 -98 95c-54 0 -106 -32 -152 -81l-48 55c57 58 126 101 213 101c110 0 176 -64 176 -162c0 -135 -125 -241 -320 -413c45 4 82 4 120 4h197l-15 -78h-453z" />
    <glyph glyph-name="three" unicode="3" 
d="M246 -12c-96 0 -171 44 -220 110l60 48c33 -44 87 -82 161 -82c84 0 148 42 148 118c0 68 -49 111 -192 113l12 68c154 0 211 55 211 126c0 54 -42 85 -104 85c-54 0 -99 -22 -143 -56l-43 58c57 45 124 73 201 73c107 0 183 -54 183 -145c0 -86 -48 -147 -161 -175v-4
c85 -23 128 -73 128 -141c0 -128 -104 -196 -241 -196z" />
    <glyph glyph-name="four" unicode="4" 
d="M311 0l34 172h-328l12 62l391 403h103l-78 -392h95l-16 -73h-94l-34 -172h-85zM134 245h225l37 186c8 40 18 83 27 118h-3c-27 -32 -54 -66 -82 -97z" />
    <glyph glyph-name="five" unicode="5" 
d="M241 -12c-97 0 -174 43 -222 110l59 49c35 -47 90 -83 164 -83c85 0 166 54 166 155c0 76 -45 114 -120 114c-55 0 -89 -13 -141 -39l-39 31l76 312h356l-15 -78h-276l-46 -182c37 15 71 27 119 27c102 0 179 -53 179 -169c0 -156 -125 -247 -260 -247z" />
    <glyph glyph-name="six" unicode="6" 
d="M274 -12c-126 0 -212 90 -212 231c0 280 154 430 329 430c79 0 138 -39 170 -86l-59 -49c-31 42 -68 60 -117 60c-99 0 -203 -83 -229 -265c44 51 115 88 184 88c91 0 172 -50 172 -168c0 -130 -101 -241 -238 -241zM279 59c90 0 147 81 147 160c0 77 -49 112 -109 112
c-59 0 -116 -29 -168 -92v-25c0 -101 55 -155 130 -155z" />
    <glyph glyph-name="seven" unicode="7" 
d="M147 0c60 251 141 400 308 559h-345l16 78h455l-12 -58c-206 -191 -262 -323 -323 -579h-99z" />
    <glyph glyph-name="eight" unicode="8" 
d="M261 -12c-119 0 -203 58 -203 159c0 94 58 152 155 192v4c-41 41 -67 79 -67 133c0 109 91 173 207 173c98 0 179 -49 179 -145c0 -84 -48 -141 -126 -180v-4c37 -26 89 -69 89 -143c0 -116 -95 -189 -234 -189zM355 349c58 32 96 82 96 140c0 60 -45 92 -105 92
c-63 0 -118 -36 -118 -99c0 -61 60 -101 127 -133zM267 56c75 0 142 36 142 109c0 68 -72 102 -153 145c-69 -37 -115 -81 -115 -146c0 -72 60 -108 126 -108z" />
    <glyph glyph-name="nine" unicode="9" 
d="M284 306c59 0 116 29 168 92v25c0 101 -55 155 -130 155c-90 0 -147 -81 -147 -160c0 -77 49 -112 109 -112zM210 -12c-79 0 -138 39 -170 86l59 49c31 -42 68 -59 117 -59c99 0 203 82 229 264c-44 -51 -115 -88 -184 -88c-91 0 -172 50 -172 168c0 130 101 241 238 241
c126 0 212 -90 212 -231c0 -279 -154 -430 -329 -430z" />
    <glyph glyph-name="zero.a" 
d="M254 -12c-125 0 -199 98 -199 248c0 200 105 413 294 413c125 0 199 -99 199 -249c0 -200 -105 -412 -294 -412zM341 576c-44 0 -82 -22 -113 -57l179 -353c36 64 55 149 55 226c0 114 -39 184 -121 184zM262 61c46 0 85 24 116 61l-179 354c-38 -65 -58 -153 -58 -232
c0 -114 39 -183 121 -183z" />
    <glyph glyph-name="one.a" 
d="M35 0l15 76h181l85 423l-129 -82l-39 55l215 165h73l-113 -561h164l-14 -76h-438z" />
    <glyph glyph-name="zero.onum" 
d="M255 -12c-116 0 -204 78 -204 235c1 191 102 365 286 365c119 0 203 -85 203 -234c0 -199 -105 -366 -285 -366zM264 62c110 0 189 125 189 288c0 103 -43 165 -124 165c-117 0 -190 -135 -190 -290c0 -104 44 -163 125 -163zM287 227c-32 0 -51 21 -51 58
c0 42 30 81 69 81c32 0 51 -21 51 -58c0 -45 -30 -81 -69 -81z" />
    <glyph glyph-name="one.onum" 
d="M35 0l15 76h181l78 391h-141l12 59c74 9 131 24 173 49h70l-100 -499h164l-14 -76h-438z" />
    <glyph glyph-name="two.onum" 
d="M26 0l11 53c222 155 355 265 355 368c0 62 -38 91 -96 91c-60 0 -109 -30 -155 -77l-45 53c62 64 126 99 221 99c98 0 166 -55 166 -153c0 -132 -119 -231 -293 -361c38 3 75 5 108 5h185l-15 -78h-442z" />
    <glyph glyph-name="three.onum" 
d="M228 -86c-115 0 -180 60 -218 114l58 50c31 -45 80 -90 162 -90c83 0 149 42 149 127c0 74 -66 113 -203 114l12 67c155 0 222 64 222 133c0 53 -38 84 -102 84c-60 0 -113 -26 -160 -64l-41 57c58 47 131 81 225 81c99 0 170 -52 170 -144c0 -87 -61 -150 -169 -176
l-1 -4c78 -13 139 -61 139 -149c0 -136 -116 -200 -243 -200z" />
    <glyph glyph-name="four.onum" 
d="M292 -75l33 165h-329l13 62l396 423h101l-82 -413h95l-15 -72h-94l-33 -165h-85zM110 162h229l41 207c8 40 19 84 28 118h-4c-26 -33 -56 -70 -83 -101z" />
    <glyph glyph-name="five.onum" 
d="M230 -86c-112 0 -176 58 -215 107l56 54c35 -42 80 -87 160 -87c91 0 165 54 165 164c0 79 -54 114 -121 114c-58 0 -91 -15 -139 -40l-40 30l76 318h364l-15 -77h-285l-47 -191c37 16 73 30 128 30c87 0 173 -52 173 -177c0 -161 -116 -245 -260 -245z" />
    </font>
</defs>
</svg>
